<?xml version="1.0" encoding="iso-8859-1"?>
<!-- Generator: Adobe Illustrator 19.0.0, SVG Export Plug-In . SVG Version: 6.00 Build 0)  -->
<svg xmlns="http://www.w3.org/2000/svg" xmlns:xlink="http://www.w3.org/1999/xlink" version="1.1" id="Capa_1" x="0px" y="0px" viewBox="0 0 512.005 512.005" style="enable-background:new 0 0 512.005 512.005;" xml:space="preserve">
<path style="fill:#303C42;" d="M508.575,162.836c-69.021-63.74-158.719-98.833-252.573-98.833S72.45,99.096,3.429,162.836  c-4.323,3.99-4.594,10.729-0.615,15.052l245.333,266.667c2.021,2.198,4.875,3.448,7.854,3.448c2.979,0,5.833-1.25,7.854-3.448  L509.19,177.888C513.169,173.565,512.898,166.825,508.575,162.836z"/>
<path style="fill:#80C3E8;" d="M256.002,234.669c-47.124,0-92.267,16.845-128.445,47.299L84.643,235.32  c47.936-41.617,108.322-64.651,171.359-64.651c63.026,0,123.409,23.033,171.363,64.647l-42.918,46.652  C348.269,251.515,303.126,234.669,256.002,234.669z"/>
<path style="fill:#0288D1;" d="M370.01,297.661l-43.706,47.508c-20.311-16.012-44.758-25.167-70.302-25.167  c-25.553,0-49.997,9.154-70.303,25.165l-43.704-47.507c32.216-26.829,72.253-41.659,114.008-41.659S337.794,270.832,370.01,297.661z  "/>
<path style="fill:#01579B;" d="M256.002,421.586l-55.824-60.68c32.763-24.461,78.868-24.475,111.647,0L256.002,421.586z"/>
<path style="fill:#CCE7F6;" d="M441.802,219.625c-51.906-45.242-117.396-70.289-185.799-70.289  c-68.411,0-133.9,25.048-185.805,70.284l-44.362-48.221c63.927-55.573,145.24-86.063,230.167-86.063s166.24,30.49,230.167,86.063  L441.802,219.625z"/>
<path style="opacity:0.1;enable-background:new    ;" d="M384.448,281.969l42.918-46.652  c-47.954-41.615-108.337-64.647-171.363-64.647v64C303.126,234.669,348.269,251.515,384.448,281.969z"/>
<path style="opacity:0.1;enable-background:new    ;" d="M326.304,345.169l43.706-47.508  c-32.216-26.829-72.253-41.659-114.008-41.659v64C281.547,320.002,305.993,329.157,326.304,345.169z"/>
<path style="opacity:0.1;enable-background:new    ;" d="M311.825,360.906c-16.388-12.236-36.107-18.352-55.823-18.352v79.031  L311.825,360.906z"/>
<path style="opacity:0.1;enable-background:new    ;" d="M486.169,171.398c-63.927-55.573-145.24-86.063-230.167-86.063v64  c68.404,0,133.893,25.047,185.799,70.289L486.169,171.398z"/>
<linearGradient id="SVGID_1_" gradientUnits="userSpaceOnUse" x1="-45.7962" y1="640.538" x2="-25.9974" y2="631.3056" gradientTransform="matrix(21.3333 0 0 -21.3333 996.2858 13791.7197)">
	<stop offset="0" style="stop-color:#FFFFFF;stop-opacity:0.2"/>
	<stop offset="1" style="stop-color:#FFFFFF;stop-opacity:0"/>
</linearGradient>
<path style="fill:url(#SVGID_1_);" d="M508.575,162.836c-69.021-63.74-158.719-98.833-252.573-98.833S72.45,99.096,3.429,162.836  c-4.323,3.99-4.594,10.729-0.615,15.052l245.333,266.667c2.021,2.198,4.875,3.448,7.854,3.448c2.979,0,5.833-1.25,7.854-3.448  L509.19,177.888C513.169,173.565,512.898,166.825,508.575,162.836z"/>
<g>
</g>
<g>
</g>
<g>
</g>
<g>
</g>
<g>
</g>
<g>
</g>
<g>
</g>
<g>
</g>
<g>
</g>
<g>
</g>
<g>
</g>
<g>
</g>
<g>
</g>
<g>
</g>
<g>
</g>
</svg>
