<?xml version="1.0" encoding="iso-8859-1"?>
<!-- Generator: Adobe Illustrator 19.0.0, SVG Export Plug-In . SVG Version: 6.00 Build 0)  -->
<svg version="1.1" id="Capa_1" xmlns="http://www.w3.org/2000/svg" xmlns:xlink="http://www.w3.org/1999/xlink" x="0px" y="0px"
	 viewBox="0 0 480 480" style="enable-background:new 0 0 480 480;" xml:space="preserve">
<path style="fill:#7D8D9C;" d="M120,120h176v352H120V120z"/>
<g>
	<path style="fill:#394D5C;" d="M192,8h32v112h-32V8z"/>
	<path style="fill:#394D5C;" d="M120,408h176v64H120V408z"/>
</g>
<path style="fill:#FCF05A;" d="M160,248h32v32h-32V248z"/>
<path style="fill:#E9686A;" d="M192,248h32v32h-32V248z"/>
<path style="fill:#FCF05A;" d="M224,248h32v32h-32V248z"/>
<path style="fill:#E9686A;" d="M160,280h32v32h-32V280z"/>
<path style="fill:#FCF05A;" d="M192,280h32v32h-32V280z"/>
<path style="fill:#E9686A;" d="M224,280h32v32h-32V280z"/>
<path style="fill:#FCF05A;" d="M160,312h32v32h-32V312z"/>
<path style="fill:#E9686A;" d="M192,312h32v32h-32V312z"/>
<path style="fill:#FCF05A;" d="M224,312h32v32h-32V312z"/>
<path style="fill:#E9686A;" d="M160,344h32v32h-32V344z"/>
<path style="fill:#FCF05A;" d="M192,344h32v32h-32V344z"/>
<path style="fill:#E9686A;" d="M224,344h32v32h-32V344z"/>
<g>
	<path style="fill:#F4F4E6;" d="M160,144h96v16h-96V144z"/>
	<path style="fill:#F4F4E6;" d="M160,432h96v16h-96V432z"/>
</g>
<path style="fill:#87CEE9;" d="M152,184h112v32H152V184z"/>
<g>
	<path style="fill:#FCF05A;" d="M336,120h-16V96h-24V80h40V120z"/>
	<path style="fill:#FCF05A;" d="M368,120h-16V64h-56V48h72V120z"/>
</g>
<path d="M184,0v112h-72v368h192V112h-72V0H184z M200,16h16v96h-16V16z M288,464H128v-48h160V464z M288,128v272H128V128H288z"/>
<path d="M152,240v144h112V240H152z M200,256h16v16h-16V256z M216,304h-16v-16h16V304z M216,336h-16v-16h16V336z M168,256h16v16h-16
	V256z M168,288h16v16h-16V288z M168,320h16v16h-16V320z M184,368h-16v-16h16V368z M216,368h-16v-16h16V368z M248,368h-16v-16h16V368
	z M248,336h-16v-16h16V336z M248,304h-16v-16h16V304z M248,256v16h-16v-16H248z"/>
<path d="M160,144h96v16h-96V144z"/>
<path d="M160,432h96v16h-96V432z"/>
<path d="M144,224h128v-48H144V224z M160,192h96v16h-96V192z"/>
<path d="M336,120V80h-40v16h24v24H336z"/>
<path d="M368,120V48h-72v16h56v56H368z"/>
<g>
</g>
<g>
</g>
<g>
</g>
<g>
</g>
<g>
</g>
<g>
</g>
<g>
</g>
<g>
</g>
<g>
</g>
<g>
</g>
<g>
</g>
<g>
</g>
<g>
</g>
<g>
</g>
<g>
</g>
</svg>
