<?xml version="1.0" encoding="iso-8859-1"?>
<!-- Generator: Adobe Illustrator 19.0.0, SVG Export Plug-In . SVG Version: 6.00 Build 0)  -->
<svg version="1.1" id="Capa_1" xmlns="http://www.w3.org/2000/svg" xmlns:xlink="http://www.w3.org/1999/xlink" x="0px" y="0px"
	 viewBox="0 0 464 464" style="enable-background:new 0 0 464 464;" xml:space="preserve">
<path style="fill:#7D8D9C;" d="M108,112h176v352H108V112z"/>
<g>
	<path style="fill:#394D5C;" d="M180,0h32v112h-32V0z"/>
	<path style="fill:#394D5C;" d="M108,400h176v64H108V400z"/>
</g>
<path style="fill:#FCF05A;" d="M148,240h32v32h-32V240z"/>
<path style="fill:#E9686A;" d="M180,240h32v32h-32V240z"/>
<path style="fill:#FCF05A;" d="M212,240h32v32h-32V240z"/>
<path style="fill:#E9686A;" d="M148,272h32v32h-32V272z"/>
<path style="fill:#FCF05A;" d="M180,272h32v32h-32V272z"/>
<path style="fill:#E9686A;" d="M212,272h32v32h-32V272z"/>
<path style="fill:#FCF05A;" d="M148,304h32v32h-32V304z"/>
<path style="fill:#E9686A;" d="M180,304h32v32h-32V304z"/>
<path style="fill:#FCF05A;" d="M212,304h32v32h-32V304z"/>
<path style="fill:#E9686A;" d="M148,336h32v32h-32V336z"/>
<path style="fill:#FCF05A;" d="M180,336h32v32h-32V336z"/>
<path style="fill:#E9686A;" d="M212,336h32v32h-32V336z"/>
<g>
	<path style="fill:#F4F4E6;" d="M148,136h96v16h-96V136z"/>
	<path style="fill:#F4F4E6;" d="M148,424h96v16h-96V424z"/>
</g>
<path style="fill:#87CEE9;" d="M140,176h112v32H140V176z"/>
<g>
	<path style="fill:#FCF05A;" d="M324,112h-16V88h-24V72h40V112z"/>
	<path style="fill:#FCF05A;" d="M356,112h-16V56h-56V40h72V112z"/>
</g>
<g>
</g>
<g>
</g>
<g>
</g>
<g>
</g>
<g>
</g>
<g>
</g>
<g>
</g>
<g>
</g>
<g>
</g>
<g>
</g>
<g>
</g>
<g>
</g>
<g>
</g>
<g>
</g>
<g>
</g>
</svg>
