<?xml version="1.0" encoding="iso-8859-1"?>
<!-- Generator: Adobe Illustrator 19.0.0, SVG Export Plug-In . SVG Version: 6.00 Build 0)  -->
<svg version="1.1" id="Capa_1" xmlns="http://www.w3.org/2000/svg" xmlns:xlink="http://www.w3.org/1999/xlink" x="0px" y="0px"
	 viewBox="0 0 464 464" style="enable-background:new 0 0 464 464;" xml:space="preserve">
<path style="fill:#7D8D9C;" d="M0,320V144c0-17.673,14.327-32,32-32h400c17.673,0,32,14.327,32,32v176c0,17.673-14.327,32-32,32H32
	C14.327,352,0,337.673,0,320z"/>
<path style="fill:#87CEE9;" d="M72,352V112h328v240H72z"/>
<circle style="fill:#FFF69A;" cx="232" cy="192" r="48"/>
<g>
	<path style="fill:#AABECE;" d="M32,176h16v112H32V176z"/>
	<path style="fill:#AABECE;" d="M424,216h16v32h-16V216z"/>
</g>
<path style="fill:#2D75BB;" d="M216,272h32c17.673,0,32,14.327,32,32v48l0,0h-96l0,0v-48C184,286.327,198.327,272,216,272z"/>
<path style="fill:#FCF05A;" d="M232,320c-4.418,0-8-3.582-8-8v-40c0-4.418,3.582-8,8-8s8,3.582,8,8v40
	C240,316.418,236.418,320,232,320z"/>
<g>
	<path style="fill:#E9686A;" d="M312,136h32v16h-32V136z"/>
	<path style="fill:#E9686A;" d="M360,136h16v16h-16V136z"/>
</g>
<path style="fill:#2D75BB;" d="M224,192h16v16h-16V192z"/>
<g>
</g>
<g>
</g>
<g>
</g>
<g>
</g>
<g>
</g>
<g>
</g>
<g>
</g>
<g>
</g>
<g>
</g>
<g>
</g>
<g>
</g>
<g>
</g>
<g>
</g>
<g>
</g>
<g>
</g>
</svg>
