<?xml version="1.0" encoding="iso-8859-1"?>
<!-- Generator: Adobe Illustrator 19.0.0, SVG Export Plug-In . SVG Version: 6.00 Build 0)  -->
<svg xmlns="http://www.w3.org/2000/svg" xmlns:xlink="http://www.w3.org/1999/xlink" version="1.1" id="Capa_1" x="0px" y="0px" viewBox="0 0 512.005 512.005" style="enable-background:new 0 0 512.005 512.005;" xml:space="preserve">
<path style="fill:#303C42;" d="M508.575,162.836c-69.021-63.74-158.719-98.833-252.573-98.833S72.45,99.096,3.429,162.836  c-4.323,3.99-4.594,10.729-0.615,15.052l245.333,266.667c2.021,2.198,4.875,3.448,7.854,3.448c2.979,0,5.833-1.25,7.854-3.448  L509.19,177.888C513.169,173.565,512.898,166.825,508.575,162.836z"/>
<path style="fill:#FFFFFF;" d="M326.304,345.169c-20.311-16.012-44.758-25.167-70.302-25.167c-25.553,0-49.997,9.154-70.303,25.165  L25.836,171.398c63.927-55.573,145.24-86.063,230.167-86.063s166.24,30.49,230.167,86.063L326.304,345.169z"/>
<path style="fill:#01579B;" d="M256.002,421.586l-55.824-60.68c32.763-24.461,78.868-24.475,111.647,0L256.002,421.586z"/>
<path style="opacity:0.1;enable-background:new    ;" d="M311.825,360.906c-16.388-12.236-36.107-18.352-55.823-18.352v79.031  L311.825,360.906z"/>
<linearGradient id="SVGID_1_" gradientUnits="userSpaceOnUse" x1="-45.7962" y1="640.538" x2="-25.9974" y2="631.3056" gradientTransform="matrix(21.3333 0 0 -21.3333 996.2858 13791.7197)">
	<stop offset="0" style="stop-color:#FFFFFF;stop-opacity:0.2"/>
	<stop offset="1" style="stop-color:#FFFFFF;stop-opacity:0"/>
</linearGradient>
<path style="fill:url(#SVGID_1_);" d="M508.575,162.836c-69.021-63.74-158.719-98.833-252.573-98.833S72.45,99.096,3.429,162.836  c-4.323,3.99-4.594,10.729-0.615,15.052l245.333,266.667c2.021,2.198,4.875,3.448,7.854,3.448c2.979,0,5.833-1.25,7.854-3.448  L509.19,177.888C513.169,173.565,512.898,166.825,508.575,162.836z"/>
<g>
</g>
<g>
</g>
<g>
</g>
<g>
</g>
<g>
</g>
<g>
</g>
<g>
</g>
<g>
</g>
<g>
</g>
<g>
</g>
<g>
</g>
<g>
</g>
<g>
</g>
<g>
</g>
<g>
</g>
</svg>
