<?xml version="1.0" encoding="iso-8859-1"?>
<!-- Generator: Adobe Illustrator 19.0.0, SVG Export Plug-In . SVG Version: 6.00 Build 0)  -->
<svg version="1.1" id="Capa_1" xmlns="http://www.w3.org/2000/svg" xmlns:xlink="http://www.w3.org/1999/xlink" x="0px" y="0px"
	 viewBox="0 0 480 480" style="enable-background:new 0 0 480 480;" xml:space="preserve">
<path style="fill:#7D8D9C;" d="M8,328V152c0-17.673,14.327-32,32-32h400c17.673,0,32,14.327,32,32v176c0,17.673-14.327,32-32,32H40
	C22.327,360,8,345.673,8,328z"/>
<path style="fill:#87CEE9;" d="M80,360V120h328v240H80z"/>
<circle style="fill:#FFF69A;" cx="240" cy="200" r="48"/>
<g>
	<path style="fill:#AABECE;" d="M40,184h16v112H40V184z"/>
	<path style="fill:#AABECE;" d="M432,224h16v32h-16V224z"/>
</g>
<path style="fill:#2D75BB;" d="M224,280h32c17.673,0,32,14.327,32,32v48l0,0h-96l0,0v-48C192,294.327,206.327,280,224,280z"/>
<path style="fill:#FCF05A;" d="M240,328c-4.418,0-8-3.582-8-8v-40c0-4.418,3.582-8,8-8s8,3.582,8,8v40
	C248,324.418,244.418,328,240,328z"/>
<g>
	<path style="fill:#E9686A;" d="M320,144h32v16h-32V144z"/>
	<path style="fill:#E9686A;" d="M368,144h16v16h-16V144z"/>
</g>
<path style="fill:#2D75BB;" d="M232,200h16v16h-16V200z"/>
<path d="M440,112H40c-22.08,0.026-39.974,17.92-40,40v176c0.026,22.08,17.92,39.974,40,40h400c22.08-0.026,39.974-17.92,40-40V152
	C479.974,129.92,462.08,112.026,440,112z M40,352c-13.255,0-24-10.745-24-24V152c0-13.255,10.745-24,24-24h32v224H40z M200,352v-40
	c0-13.255,10.745-24,24-24h8v32c0,4.418,3.582,8,8,8s8-3.582,8-8v-32h8c13.255,0,24,10.745,24,24v40H200z M296,352v-40
	c-0.026-22.08-17.92-39.974-40-40h-32c-22.08,0.026-39.974,17.92-40,40v40H88V128h312v224H296z M464,328c0,13.255-10.745,24-24,24
	h-24V128h24c13.255,0,24,10.745,24,24V328z"/>
<path d="M40,184h16v112H40V184z"/>
<path d="M432,224h16v32h-16V224z"/>
<path d="M240,144c-30.928,0-56,25.072-56,56s25.072,56,56,56s56-25.072,56-56C295.965,169.087,270.913,144.035,240,144z M240,240
	c-22.091,0-40-17.909-40-40s17.909-40,40-40s40,17.909,40,40C279.974,222.08,262.08,239.974,240,240z"/>
<path d="M320,144h32v16h-32V144z"/>
<path d="M368,144h16v16h-16V144z"/>
<path d="M232,200h16v16h-16V200z"/>
<g>
</g>
<g>
</g>
<g>
</g>
<g>
</g>
<g>
</g>
<g>
</g>
<g>
</g>
<g>
</g>
<g>
</g>
<g>
</g>
<g>
</g>
<g>
</g>
<g>
</g>
<g>
</g>
<g>
</g>
</svg>
