<?xml version="1.0" encoding="iso-8859-1"?>
<!-- Generator: Adobe Illustrator 19.0.0, SVG Export Plug-In . SVG Version: 6.00 Build 0)  -->
<svg version="1.1" id="Capa_1" xmlns="http://www.w3.org/2000/svg" xmlns:xlink="http://www.w3.org/1999/xlink" x="0px" y="0px"
	 viewBox="0 0 480 480" style="enable-background:new 0 0 480 480;" xml:space="preserve">
<path style="fill:#7D8D9C;" d="M208,8h176c17.673,0,32,14.327,32,32v400c0,17.673-14.327,32-32,32H208c-17.673,0-32-14.327-32-32V40
	C176,22.327,190.327,8,208,8z"/>
<path style="fill:#87CEE9;" d="M176,80h240v328H176V80z"/>
<g>
	<path style="fill:#AABECE;" d="M240,40h112v16H240V40z"/>
	<path style="fill:#AABECE;" d="M280,432h32v16h-32V432z"/>
</g>
<g>
	<path style="fill:#E9686A;" d="M200,104h32v16h-32V104z"/>
	<path style="fill:#E9686A;" d="M248,104h32v16h-32V104z"/>
</g>
<path style="fill:#FFF69A;" d="M112,216H64v80h48v32h96c8.837,0,16-7.163,16-16v-64h48c8.837,0,16-7.163,16-16
	c0-8.837-7.163-16-16-16H112z"/>
<path style="fill:#FDBD40;" d="M176,248h48l0,0v64c0,8.837-7.163,16-16,16h-48l0,0v-64C160,255.163,167.163,248,176,248z"/>
<g>
	<path style="fill:#FFF69A;" d="M296,312c-3.444-0.004-6.499-2.211-7.584-5.48l-8-24c-1.396-4.197,0.875-8.732,5.072-10.128
		s8.732,0.875,10.128,5.072l8,24c1.401,4.19-0.861,8.723-5.051,10.123C297.738,311.864,296.872,312.003,296,312z"/>
	<path style="fill:#FFF69A;" d="M328,288c-2.122,0-4.156-0.844-5.656-2.344l-16-16c-3.07-3.178-2.982-8.242,0.196-11.312
		c3.1-2.995,8.016-2.995,11.116,0l16,16c3.124,3.125,3.123,8.19-0.002,11.314C332.155,287.157,330.121,288,328,288z"/>
	<path style="fill:#FFF69A;" d="M288,192c-4.418-0.002-7.998-3.585-7.997-8.003c0-0.861,0.14-1.716,0.413-2.533l8-24
		c1.396-4.197,5.931-6.468,10.128-5.072c4.197,1.396,6.468,5.931,5.072,10.128l0,0l-8,24C294.527,189.8,291.456,192.01,288,192z"/>
	<path style="fill:#FFF69A;" d="M312,208c-4.418-0.001-7.999-3.583-7.998-8.002c0-2.121,0.843-4.155,2.342-5.654l16-16
		c3.178-3.07,8.242-2.982,11.312,0.196c2.994,3.1,2.994,8.015,0,11.116l-16,16C316.156,207.156,314.122,208,312,208L312,208z"/>
</g>
<path d="M240,40h112v16H240V40z"/>
<path d="M280,432h32v16h-32V432z"/>
<path d="M200,104h32v16h-32V104z"/>
<path d="M248,104h32v16h-32V104z"/>
<path d="M104,336h64v104c0.026,22.08,17.92,39.974,40,40h176c22.08-0.026,39.974-17.92,40-40V40c-0.026-22.08-17.92-39.974-40-40
	H208c-22.08,0.026-39.974,17.92-40,40v168H56v96h48V336z M168,320v-56c0-4.418,3.582-8,8-8h40v56c0,4.418-3.582,8-8,8H168z M408,440
	c0,13.255-10.745,24-24,24H208c-13.255,0-24-10.745-24-24v-24h224V440z M184,40c0-13.255,10.745-24,24-24h176
	c13.255,0,24,10.745,24,24v32H184V40z M184,88h224v312H184v-64h24c13.255,0,24-10.745,24-24v-56h40c13.255,0,24-10.745,24-24
	c0-13.255-10.745-24-24-24l0,0h-88V88z M72,288v-64h200c4.418,0,8,3.582,8,8s-3.582,8-8,8h-96c-13.255,0-24,10.745-24,24v56h-32v-32
	H72z"/>
<path d="M295.584,277.472c-1.396-4.197-5.931-6.468-10.128-5.072c-4.197,1.396-6.468,5.931-5.072,10.128l8,24
	c1.396,4.197,5.931,6.468,10.128,5.072c4.197-1.396,6.468-5.931,5.072-10.128L295.584,277.472z"/>
<path d="M322.344,285.656c3.178,3.07,8.242,2.982,11.312-0.196c2.995-3.1,2.995-8.016,0-11.116l-16-16
	c-3.178-3.07-8.242-2.982-11.312,0.196c-2.995,3.1-2.995,8.016,0,11.116L322.344,285.656z"/>
<path d="M285.472,191.592c4.191,1.392,8.717-0.875,10.112-5.064l8-24c1.396-4.197-0.875-8.732-5.072-10.128
	c-4.197-1.396-8.732,0.875-10.128,5.072l0,0l-8,24c-1.393,4.193,0.877,8.721,5.07,10.114
	C285.46,191.588,285.466,191.59,285.472,191.592L285.472,191.592z"/>
<path d="M312,208c2.122,0,4.156-0.844,5.656-2.344l16-16c3.069-3.178,2.982-8.243-0.196-11.312c-3.1-2.994-8.015-2.994-11.116,0
	l-16,16c-3.124,3.125-3.123,8.19,0.002,11.314C307.845,207.157,309.879,208,312,208L312,208z"/>
<g>
</g>
<g>
</g>
<g>
</g>
<g>
</g>
<g>
</g>
<g>
</g>
<g>
</g>
<g>
</g>
<g>
</g>
<g>
</g>
<g>
</g>
<g>
</g>
<g>
</g>
<g>
</g>
<g>
</g>
</svg>
