<?xml version="1.0" encoding="iso-8859-1"?>
<!-- Generator: Adobe Illustrator 19.0.0, SVG Export Plug-In . SVG Version: 6.00 Build 0)  -->
<svg version="1.1" id="Capa_1" xmlns="http://www.w3.org/2000/svg" xmlns:xlink="http://www.w3.org/1999/xlink" x="0px" y="0px"
	 viewBox="0 0 464 464" style="enable-background:new 0 0 464 464;" xml:space="preserve">
<path style="fill:#7D8D9C;" d="M200,0h176c17.673,0,32,14.327,32,32v400c0,17.673-14.327,32-32,32H200c-17.673,0-32-14.327-32-32V32
	C168,14.327,182.327,0,200,0z"/>
<path style="fill:#87CEE9;" d="M168,72h240v328H168V72z"/>
<g>
	<path style="fill:#AABECE;" d="M232,32h112v16H232V32z"/>
	<path style="fill:#AABECE;" d="M272,424h32v16h-32V424z"/>
</g>
<g>
	<path style="fill:#E9686A;" d="M192,96h32v16h-32V96z"/>
	<path style="fill:#E9686A;" d="M240,96h32v16h-32V96z"/>
</g>
<path style="fill:#FFF69A;" d="M104,208H56v80h48v32h96c8.837,0,16-7.163,16-16v-64h48c8.837,0,16-7.163,16-16
	c0-8.837-7.163-16-16-16H104z"/>
<path style="fill:#FDBD40;" d="M168,240h48l0,0v64c0,8.837-7.163,16-16,16h-48l0,0v-64C152,247.163,159.163,240,168,240z"/>
<g>
	<path style="fill:#FFF69A;" d="M288,304c-3.444-0.004-6.499-2.211-7.584-5.48l-8-24c-1.396-4.197,0.875-8.732,5.072-10.128
		s8.732,0.875,10.128,5.072l8,24c1.401,4.19-0.861,8.723-5.051,10.123C289.738,303.864,288.872,304.003,288,304z"/>
	<path style="fill:#FFF69A;" d="M320,280c-2.122,0-4.156-0.844-5.656-2.344l-16-16c-3.07-3.178-2.982-8.242,0.196-11.312
		c3.1-2.995,8.016-2.995,11.116,0l16,16c3.124,3.125,3.123,8.19-0.002,11.314C324.155,279.157,322.121,280,320,280z"/>
	<path style="fill:#FFF69A;" d="M280,184c-4.418-0.002-7.998-3.585-7.997-8.003c0-0.861,0.14-1.716,0.413-2.533l8-24
		c1.396-4.197,5.931-6.468,10.128-5.072c4.197,1.396,6.468,5.931,5.072,10.128l0,0l-8,24C286.527,181.8,283.456,184.01,280,184z"/>
	<path style="fill:#FFF69A;" d="M304,200c-4.418-0.001-7.999-3.583-7.998-8.002c0-2.121,0.843-4.155,2.342-5.654l16-16
		c3.178-3.07,8.242-2.982,11.312,0.196c2.994,3.1,2.994,8.015,0,11.116l-16,16C308.156,199.156,306.122,200,304,200L304,200z"/>
</g>
<g>
</g>
<g>
</g>
<g>
</g>
<g>
</g>
<g>
</g>
<g>
</g>
<g>
</g>
<g>
</g>
<g>
</g>
<g>
</g>
<g>
</g>
<g>
</g>
<g>
</g>
<g>
</g>
<g>
</g>
</svg>
