<?xml version="1.0" encoding="iso-8859-1"?>
<!-- Generator: Adobe Illustrator 19.0.0, SVG Export Plug-In . SVG Version: 6.00 Build 0)  -->
<svg xmlns="http://www.w3.org/2000/svg" xmlns:xlink="http://www.w3.org/1999/xlink" version="1.1" id="Capa_1" x="0px" y="0px" viewBox="0 0 512.003 512.003" style="enable-background:new 0 0 512.003 512.003;" xml:space="preserve">
<path style="fill:#303C42;" d="M256.001,448.001c-2.979,0-5.833-1.25-7.854-3.448L2.814,177.887  c-3.979-4.323-3.708-11.063,0.625-15.052c69-63.74,158.708-98.833,252.563-98.833s183.563,35.094,252.563,98.833  c4.333,3.99,4.604,10.729,0.625,15.052L263.855,444.553C261.835,446.751,258.98,448.001,256.001,448.001z"/>
<path style="fill:#FAFAFA;" d="M25.835,171.397l230.167,250.188l230.167-250.188c-63.917-55.573-145.25-86.063-230.167-86.063  S89.751,115.824,25.835,171.397z"/>
<linearGradient id="SVGID_1_" gradientUnits="userSpaceOnUse" x1="-45.7971" y1="640.5368" x2="-25.9985" y2="631.3046" gradientTransform="matrix(21.3333 0 0 -21.3333 996.3083 13791.6943)">
	<stop offset="0" style="stop-color:#FFFFFF;stop-opacity:0.2"/>
	<stop offset="1" style="stop-color:#FFFFFF;stop-opacity:0"/>
</linearGradient>
<path style="fill:url(#SVGID_1_);" d="M256.001,448.001c-2.979,0-5.833-1.25-7.854-3.448L2.814,177.887  c-3.979-4.323-3.708-11.063,0.625-15.052c69-63.74,158.708-98.833,252.563-98.833s183.563,35.094,252.563,98.833  c4.333,3.99,4.604,10.729,0.625,15.052L263.855,444.553C261.835,446.751,258.98,448.001,256.001,448.001z"/>
<g>
</g>
<g>
</g>
<g>
</g>
<g>
</g>
<g>
</g>
<g>
</g>
<g>
</g>
<g>
</g>
<g>
</g>
<g>
</g>
<g>
</g>
<g>
</g>
<g>
</g>
<g>
</g>
<g>
</g>
</svg>
