<?xml version="1.0" encoding="iso-8859-1"?>
<!-- Generator: Adobe Illustrator 19.0.0, SVG Export Plug-In . SVG Version: 6.00 Build 0)  -->
<svg version="1.1" id="Capa_1" xmlns="http://www.w3.org/2000/svg" xmlns:xlink="http://www.w3.org/1999/xlink" x="0px" y="0px"
	 viewBox="0 0 480 480" style="enable-background:new 0 0 480 480;" xml:space="preserve">
<path style="fill:#87CEE9;" d="M408,440H72l64-272h208L408,440z"/>
<g>
	<path style="fill:#2D75BB;" d="M160,120h32v48h-32V120z"/>
	<path style="fill:#2D75BB;" d="M288,120h32v48h-32V120z"/>
</g>
<path style="fill:#87CEE9;" d="M72,40h336c35.346,0,64,28.654,64,64v16l0,0H8l0,0v-16C8,68.654,36.654,40,72,40z"/>
<g>
	<path style="fill:#2D75BB;" d="M8,120h96l0,0v32c0,8.837-7.163,16-16,16H24c-8.837,0-16-7.163-16-16V120L8,120z"/>
	<path style="fill:#2D75BB;" d="M376,120h96l0,0v32c0,8.837-7.163,16-16,16h-64c-8.837,0-16-7.163-16-16V120L376,120z"/>
	<circle style="fill:#2D75BB;" cx="240" cy="280" r="80"/>
</g>
<circle style="fill:#FCF05A;" cx="240" cy="280" r="48"/>
<g>
	<path style="fill:#2D75BB;" d="M152,416h-32c-4.418,0-8-3.582-8-8s3.582-8,8-8h32c4.418,0,8,3.582,8,8S156.418,416,152,416z"/>
	<path style="fill:#2D75BB;" d="M400,416H184c-4.418,0-8-3.582-8-8s3.582-8,8-8h216c4.418,0,8,3.582,8,8S404.418,416,400,416z"/>
</g>
<path d="M408,32H72C32.256,32.048,0.048,64.256,0,104v48c0,13.255,10.745,24,24,24h64c13.255,0,24-10.745,24-24v-24h40v32h-16
	c-3.714-0.002-6.941,2.552-7.792,6.168l-64,272c-1.012,4.301,1.655,8.608,5.955,9.619C70.765,447.929,71.382,448,72,448h336
	c4.418,0.003,8.002-3.577,8.005-7.995c0-0.618-0.071-1.235-0.213-1.837l-64-272c-0.851-3.616-4.078-6.17-7.792-6.168h-16v-32h40v24
	c0,13.255,10.745,24,24,24h64c13.255,0,24-10.745,24-24v-48C479.952,64.256,447.744,32.048,408,32z M96,152c0,4.418-3.582,8-8,8H24
	c-4.418,0-8-3.582-8-8v-24h80V152z M168,128h16v32h-16V128z M200,128h80v32h-80V128z M337.664,176L390.4,400H184
	c-4.418,0-8,3.582-8,8s3.582,8,8,8h210.136l3.76,16H82.104l60.232-256H337.664z M312,160h-16v-32h16V160z M464,152
	c0,4.418-3.582,8-8,8h-64c-4.418,0-8-3.582-8-8v-24h80V152z M464,112H16v-8c0.035-30.913,25.087-55.965,56-56h336
	c30.913,0.035,55.965,25.087,56,56V112z"/>
<path d="M152,280c0,48.601,39.399,88,88,88s88-39.399,88-88s-39.399-88-88-88C191.423,192.057,152.057,231.423,152,280z M312,280
	c0,39.764-32.236,72-72,72s-72-32.236-72-72s32.236-72,72-72C279.744,208.048,311.952,240.256,312,280z"/>
<path d="M184,280c0,30.928,25.072,56,56,56s56-25.072,56-56s-25.072-56-56-56C209.087,224.035,184.035,249.087,184,280z M280,280
	c0,22.091-17.909,40-40,40s-40-17.909-40-40s17.909-40,40-40C262.08,240.026,279.974,257.92,280,280z"/>
<path d="M152,400h-32c-4.418,0-8,3.582-8,8s3.582,8,8,8h32c4.418,0,8-3.582,8-8S156.418,400,152,400z"/>
<g>
</g>
<g>
</g>
<g>
</g>
<g>
</g>
<g>
</g>
<g>
</g>
<g>
</g>
<g>
</g>
<g>
</g>
<g>
</g>
<g>
</g>
<g>
</g>
<g>
</g>
<g>
</g>
<g>
</g>
</svg>
