<?xml version="1.0" encoding="iso-8859-1"?>
<!-- Generator: Adobe Illustrator 19.0.0, SVG Export Plug-In . SVG Version: 6.00 Build 0)  -->
<svg version="1.1" id="Capa_1" xmlns="http://www.w3.org/2000/svg" xmlns:xlink="http://www.w3.org/1999/xlink" x="0px" y="0px"
	 viewBox="0 0 464 464" style="enable-background:new 0 0 464 464;" xml:space="preserve">
<path style="fill:#87CEE9;" d="M400,432H64l64-272h208L400,432z"/>
<g>
	<path style="fill:#2D75BB;" d="M152,112h32v48h-32V112z"/>
	<path style="fill:#2D75BB;" d="M280,112h32v48h-32V112z"/>
</g>
<path style="fill:#87CEE9;" d="M64,32h336c35.346,0,64,28.654,64,64v16l0,0H0l0,0V96C0,60.654,28.654,32,64,32z"/>
<g>
	<path style="fill:#2D75BB;" d="M0,112h96l0,0v32c0,8.837-7.163,16-16,16H16c-8.837,0-16-7.163-16-16V112L0,112z"/>
	<path style="fill:#2D75BB;" d="M368,112h96l0,0v32c0,8.837-7.163,16-16,16h-64c-8.837,0-16-7.163-16-16V112L368,112z"/>
	<circle style="fill:#2D75BB;" cx="232" cy="272" r="80"/>
</g>
<circle style="fill:#FCF05A;" cx="232" cy="272" r="48"/>
<g>
	<path style="fill:#2D75BB;" d="M144,408h-32c-4.418,0-8-3.582-8-8s3.582-8,8-8h32c4.418,0,8,3.582,8,8S148.418,408,144,408z"/>
	<path style="fill:#2D75BB;" d="M392,408H176c-4.418,0-8-3.582-8-8s3.582-8,8-8h216c4.418,0,8,3.582,8,8S396.418,408,392,408z"/>
</g>
<g>
</g>
<g>
</g>
<g>
</g>
<g>
</g>
<g>
</g>
<g>
</g>
<g>
</g>
<g>
</g>
<g>
</g>
<g>
</g>
<g>
</g>
<g>
</g>
<g>
</g>
<g>
</g>
<g>
</g>
</svg>
