<?xml version="1.0" encoding="iso-8859-1"?>
<!-- Generator: Adobe Illustrator 19.0.0, SVG Export Plug-In . SVG Version: 6.00 Build 0)  -->
<svg version="1.1" id="Capa_1" xmlns="http://www.w3.org/2000/svg" xmlns:xlink="http://www.w3.org/1999/xlink" x="0px" y="0px"
	 viewBox="0 0 472 472" style="enable-background:new 0 0 472 472;" xml:space="preserve">
<path style="fill:#FFF69A;" d="M180,64h112c17.673,0,32,14.327,32,32v176c0,17.673-14.327,32-32,32H180c-17.673,0-32-14.327-32-32
	V96C148,78.327,162.327,64,180,64z"/>
<g>
	<path style="fill:#5A6470;" d="M196,184c-4.418,0-8-3.582-8-8v-16c0-4.418,3.582-8,8-8s8,3.582,8,8v16
		C204,180.418,200.418,184,196,184z"/>
	<path style="fill:#5A6470;" d="M276,184c-4.418,0-8-3.582-8-8v-16c0-4.418,3.582-8,8-8s8,3.582,8,8v16
		C284,180.418,280.418,184,276,184z"/>
	<path style="fill:#5A6470;" d="M244,248h-24c-4.418,0.003-8.003-3.576-8.006-7.994c-0.001-1.022,0.194-2.034,0.574-2.982l16-40
		c1.644-4.105,6.303-6.1,10.408-4.456c4.105,1.644,6.1,6.303,4.456,10.408l0,0L231.816,232H244c4.418,0,8,3.582,8,8
		C252,244.418,248.418,248,244,248z"/>
	<path style="fill:#5A6470;" d="M324,96c0-17.673-14.327-32-32-32H180c-17.673,0-32,14.327-32,32v32h176V96z"/>
	<path style="fill:#5A6470;" d="M260,280h-56c-4.418,0-8-3.582-8-8s3.582-8,8-8h54.112l14.312-7.2
		c3.954-1.975,8.761-0.37,10.736,3.584c1.975,3.954,0.37,8.761-3.584,10.736l-16,8C262.469,279.687,261.244,279.989,260,280L260,280
		z"/>
</g>
<path style="fill:#2D75BB;" d="M156,304h160c35.346,0,64,28.654,64,64v96l0,0H92l0,0v-96C92,332.654,120.654,304,156,304z"/>
<path style="fill:#5AA6E5;" d="M284,416h96v48h-96V416z"/>
<path style="fill:#FFF69A;" d="M236,416h48v48h-48V416z"/>
<g>
	<path style="fill:#AABECE;" d="M244,376h32v40h-32V376z"/>
	<path style="fill:#AABECE;" d="M244,312l-24,24v16l24,24h32l24-24v-16l-24-24v24h-32V312z"/>
	<path style="fill:#AABECE;" d="M140,472c-4.418,0-8-3.582-8-8v-88c0-4.418,3.582-8,8-8s8,3.582,8,8v88
		C148,468.418,144.418,472,140,472z"/>
</g>
<path style="fill:#2D75BB;" d="M188,0h96v64h-96V0z"/>
<path style="fill:#5AA6E5;" d="M348,72H188c-4.418,0-8-3.582-8-8s3.582-8,8-8h160c4.418,0,8,3.582,8,8S352.418,72,348,72z"/>
<g>
</g>
<g>
</g>
<g>
</g>
<g>
</g>
<g>
</g>
<g>
</g>
<g>
</g>
<g>
</g>
<g>
</g>
<g>
</g>
<g>
</g>
<g>
</g>
<g>
</g>
<g>
</g>
<g>
</g>
</svg>
