<?xml version="1.0" encoding="iso-8859-1"?>
<!-- Generator: Adobe Illustrator 19.0.0, SVG Export Plug-In . SVG Version: 6.00 Build 0)  -->
<svg version="1.1" id="Capa_1" xmlns="http://www.w3.org/2000/svg" xmlns:xlink="http://www.w3.org/1999/xlink" x="0px" y="0px"
	 viewBox="0 0 480 480" style="enable-background:new 0 0 480 480;" xml:space="preserve">
<path style="fill:#FFF69A;" d="M184,72h112c17.673,0,32,14.327,32,32v176c0,17.673-14.327,32-32,32H184c-17.673,0-32-14.327-32-32
	V104C152,86.327,166.327,72,184,72z"/>
<g>
	<path style="fill:#5A6470;" d="M200,192c-4.418,0-8-3.582-8-8v-16c0-4.418,3.582-8,8-8s8,3.582,8,8v16
		C208,188.418,204.418,192,200,192z"/>
	<path style="fill:#5A6470;" d="M280,192c-4.418,0-8-3.582-8-8v-16c0-4.418,3.582-8,8-8s8,3.582,8,8v16
		C288,188.418,284.418,192,280,192z"/>
	<path style="fill:#5A6470;" d="M248,256h-24c-4.418,0.003-8.003-3.576-8.006-7.994c-0.001-1.022,0.194-2.034,0.574-2.982l16-40
		c1.644-4.105,6.303-6.1,10.408-4.456c4.105,1.644,6.1,6.303,4.456,10.408l0,0L235.816,240H248c4.418,0,8,3.582,8,8
		C256,252.418,252.418,256,248,256z"/>
	<path style="fill:#5A6470;" d="M328,104c0-17.673-14.327-32-32-32H184c-17.673,0-32,14.327-32,32v32h176V104z"/>
	<path style="fill:#5A6470;" d="M264,288h-56c-4.418,0-8-3.582-8-8s3.582-8,8-8h54.112l14.312-7.2
		c3.954-1.975,8.761-0.37,10.736,3.584c1.975,3.954,0.37,8.761-3.584,10.736l-16,8C266.469,287.687,265.244,287.989,264,288L264,288
		z"/>
</g>
<path style="fill:#2D75BB;" d="M160,312h160c35.346,0,64,28.654,64,64v96l0,0H96l0,0v-96C96,340.654,124.654,312,160,312z"/>
<path style="fill:#5AA6E5;" d="M288,424h96v48h-96V424z"/>
<path style="fill:#FFF69A;" d="M240,424h48v48h-48V424z"/>
<g>
	<path style="fill:#AABECE;" d="M248,384h32v40h-32V384z"/>
	<path style="fill:#AABECE;" d="M248,320l-24,24v16l24,24h32l24-24v-16l-24-24v24h-32V320z"/>
	<path style="fill:#AABECE;" d="M144,480c-4.418,0-8-3.582-8-8v-88c0-4.418,3.582-8,8-8s8,3.582,8,8v88
		C152,476.418,148.418,480,144,480z"/>
</g>
<path style="fill:#2D75BB;" d="M192,8h96v64h-96V8z"/>
<path style="fill:#5AA6E5;" d="M352,80H192c-4.418,0-8-3.582-8-8s3.582-8,8-8h160c4.418,0,8,3.582,8,8S356.418,80,352,80z"/>
<path d="M208,184v-16c0-4.418-3.582-8-8-8s-8,3.582-8,8v16c0,4.418,3.582,8,8,8S208,188.418,208,184z"/>
<path d="M280,160c-4.418,0-8,3.582-8,8v16c0,4.418,3.582,8,8,8s8-3.582,8-8v-16C288,163.582,284.418,160,280,160z"/>
<path d="M224,256h24c4.418,0,8-3.582,8-8s-3.582-8-8-8h-12.184l11.616-29.024c1.644-4.105-0.351-8.764-4.456-10.408
	c-4.105-1.644-8.764,0.351-10.408,4.456l-16,40c-1.644,4.101,0.349,8.758,4.45,10.402C221.966,255.806,222.978,256.001,224,256
	L224,256z"/>
<path d="M276.424,264.8l-14.312,7.2H208c-4.418,0-8,3.582-8,8s3.582,8,8,8h56c1.238,0.014,2.462-0.26,3.576-0.8l16-8
	c3.954-1.975,5.559-6.782,3.584-10.736c-1.975-3.954-6.782-5.559-10.736-3.584L276.424,264.8z"/>
<path d="M360,72c0-4.418-3.582-8-8-8h-56V8c0-4.418-3.582-8-8-8h-96c-4.418,0-8,3.582-8,8v56c-22.08,0.026-39.974,17.92-40,40v176
	c0.035,8.855,3.038,17.444,8.528,24.392C115.88,308.264,88.05,339.148,88,376v96c0,4.418,3.582,8,8,8h288c4.418,0,8-3.582,8-8v-96
	c-0.05-36.852-27.88-67.736-64.528-71.608c5.49-6.948,8.493-15.536,8.528-24.392V104c-0.029-8.684-2.914-17.117-8.208-24H352
	C356.418,80,360,76.418,360,72z M200,16h80v48h-80V16z M296,304H184c-13.255,0-24-10.745-24-24V144h160v136
	C320,293.255,309.255,304,296,304z M256,392h16v24h-16V392z M276.688,376h-25.376L232,356.688v-9.376l8-8V344c0,4.418,3.582,8,8,8
	l0,0h32c4.418,0,8-3.582,8-8v-4.688l8,8v9.376L276.688,376z M272,336h-16v-16h16V336z M104,376c0.035-30.913,25.087-55.965,56-56
	h76.688l-18.344,18.344c-1.5,1.5-2.344,3.534-2.344,5.656v16c0,2.122,0.844,4.156,2.344,5.656L240,387.312V416c-4.418,0-8,3.582-8,8
	v40h-80v-80c0-4.418-3.582-8-8-8s-8,3.582-8,8v80h-32V376z M248,432h32v32h-32V432z M376,464h-80v-32h80V464z M376,376v40h-88
	v-28.688l21.656-21.656c1.5-1.5,2.344-3.534,2.344-5.656v-16c0-2.122-0.844-4.156-2.344-5.656L291.312,320H320
	C350.913,320.035,375.965,345.087,376,376z M320,104v24H160v-24c0-13.255,10.745-24,24-24h112C309.255,80,320,90.745,320,104z"/>
<g>
</g>
<g>
</g>
<g>
</g>
<g>
</g>
<g>
</g>
<g>
</g>
<g>
</g>
<g>
</g>
<g>
</g>
<g>
</g>
<g>
</g>
<g>
</g>
<g>
</g>
<g>
</g>
<g>
</g>
</svg>
