<?xml version="1.0" encoding="iso-8859-1"?>
<!-- Generator: Adobe Illustrator 19.0.0, SVG Export Plug-In . SVG Version: 6.00 Build 0)  -->
<svg xmlns="http://www.w3.org/2000/svg" xmlns:xlink="http://www.w3.org/1999/xlink" version="1.1" id="Capa_1" x="0px" y="0px" viewBox="0 0 512 512" style="enable-background:new 0 0 512 512;" xml:space="preserve">
<path style="fill:#303C42;" d="M384,0H128c-23.521,0-42.667,19.146-42.667,42.667v426.667C85.333,492.854,104.479,512,128,512h256  c23.521,0,42.667-19.146,42.667-42.667V42.667C426.667,19.146,407.521,0,384,0z"/>
<g>
	<path id="SVGCleanerId_0" style="fill:#5C6671;" d="M128,21.333h256c11.771,0,21.333,9.563,21.333,21.333v362.667H106.667V42.667   C106.667,30.896,116.229,21.333,128,21.333z"/>
</g>
<g>
	
		<linearGradient id="SVGCleanerId_0_3_" gradientUnits="userSpaceOnUse" x1="-43.6715" y1="640.4844" x2="-25.5757" y2="632.0474" gradientTransform="matrix(21.3333 0 0 -21.3333 996.3334 13791.667)">
		<stop offset="0" style="stop-color:#FFFFFF;stop-opacity:0.2"/>
		<stop offset="1" style="stop-color:#FFFFFF;stop-opacity:0"/>
	</linearGradient>
	<path id="SVGCleanerId_0_1_" style="fill:url(#SVGCleanerId_0_3_);" d="M128,21.333h256c11.771,0,21.333,9.563,21.333,21.333   v362.667H106.667V42.667C106.667,30.896,116.229,21.333,128,21.333z"/>
</g>
<g>
	
		<linearGradient id="SVGCleanerId_0_4_" gradientUnits="userSpaceOnUse" x1="-42.5557" y1="644.0458" x2="-26.8506" y2="628.3367" gradientTransform="matrix(21.3333 0 0 -21.3333 996.3334 13791.667)">
		<stop offset="0" style="stop-color:#FFFFFF;stop-opacity:0.2"/>
		<stop offset="1" style="stop-color:#FFFFFF;stop-opacity:0"/>
	</linearGradient>
	<path id="SVGCleanerId_0_2_" style="fill:url(#SVGCleanerId_0_4_);" d="M128,21.333h256c11.771,0,21.333,9.563,21.333,21.333   v362.667H106.667V42.667C106.667,30.896,116.229,21.333,128,21.333z"/>
</g>
<linearGradient id="SVGID_1_" gradientUnits="userSpaceOnUse" x1="-39.6642" y1="641.8632" x2="-34.5074" y2="639.462" gradientTransform="matrix(21.3333 0 0 -21.3333 996.3334 13791.667)">
	<stop offset="0" style="stop-color:#FFFFFF;stop-opacity:0.05"/>
	<stop offset="1" style="stop-color:#FFFFFF;stop-opacity:0"/>
</linearGradient>
<polygon style="fill:url(#SVGID_1_);" points="106.667,192 277.333,21.333 320,21.333 106.667,234.667 "/>
<linearGradient id="SVGID_2_" gradientUnits="userSpaceOnUse" x1="-38.5102" y1="639.8283" x2="-31.6507" y2="636.6281" gradientTransform="matrix(21.3333 0 0 -21.3333 996.3334 13791.667)">
	<stop offset="0" style="stop-color:#FFFFFF;stop-opacity:0.05"/>
	<stop offset="1" style="stop-color:#FFFFFF;stop-opacity:0"/>
</linearGradient>
<path style="fill:url(#SVGID_2_);" d="M384,21.333h-10.667L106.667,288v42.667L403.375,33.958  C400.026,26.552,392.641,21.333,384,21.333z"/>
<path style="fill:#303C42;" d="M245.333,64h21.333c5.896,0,10.667-4.771,10.667-10.667s-4.771-10.667-10.667-10.667h-21.333  c-5.896,0-10.667,4.771-10.667,10.667S239.438,64,245.333,64z"/>
<path style="fill:#F2F2F2;" d="M288,448h-64c-5.896,0-10.667,4.771-10.667,10.667c0,5.896,4.771,10.667,10.667,10.667h64  c5.896,0,10.667-4.771,10.667-10.667C298.667,452.771,293.896,448,288,448z"/>
<g>
	<circle style="fill:#303C42;" cx="373.333" cy="53.333" r="10.667"/>
	<path style="fill:#303C42;" d="M160,320h128c15.5,0,28.458-11.063,31.385-25.708l49.177,24.583c1.51,0.75,3.135,1.125,4.771,1.125   c1.948,0,3.896-0.542,5.604-1.583c3.146-1.958,5.063-5.396,5.063-9.083V160c0-3.688-1.917-7.125-5.063-9.083   c-3.156-1.938-7.073-2.125-10.375-0.458l-49.177,24.583c-2.927-14.646-15.885-25.708-31.385-25.708H160   c-31.104,0-32,76.604-32,85.333S128.896,320,160,320z"/>
</g>
<path style="fill:#78909C;" d="M160,170.667h128c5.885,0,10.667,4.792,10.667,10.667V192c0,3.688,1.917,7.125,5.063,9.083  c3.125,1.896,7.052,2.083,10.375,0.458l48.563-24.292v114.833l-48.563-24.292c-3.302-1.646-7.229-1.479-10.375,0.458  c-3.146,1.958-5.063,5.396-5.063,9.083V288c0,5.875-4.781,10.667-10.667,10.667H161.365c-4.375-4.479-12.031-26.917-12.031-64  C149.333,195.979,157.667,173.25,160,170.667z"/>
<path style="opacity:0.1;enable-background:new    ;" d="M303.729,225.583c-3.146,1.958-5.063,5.396-5.063,9.083v10.667  c0,5.875-4.781,10.667-10.667,10.667H161.365c-3.453-3.536-8.896-18.418-11.059-42.706c-0.568,6.504-0.973,13.517-0.973,21.372  c0,37.083,7.656,59.521,12.031,64H288c5.885,0,10.667-4.792,10.667-10.667v-10.667c0-3.688,1.917-7.125,5.063-9.083  c3.146-1.938,7.073-2.104,10.375-0.458l48.563,24.292v-42.667l-48.563-24.292C310.802,223.479,306.875,223.646,303.729,225.583z"/>
<linearGradient id="SVGID_3_" gradientUnits="userSpaceOnUse" x1="-45.2742" y1="639.4139" x2="-24.1321" y2="629.5549" gradientTransform="matrix(21.3333 0 0 -21.3333 996.3334 13791.667)">
	<stop offset="0" style="stop-color:#FFFFFF;stop-opacity:0.2"/>
	<stop offset="1" style="stop-color:#FFFFFF;stop-opacity:0"/>
</linearGradient>
<path style="fill:url(#SVGID_3_);" d="M384,0H128c-23.521,0-42.667,19.146-42.667,42.667v426.667  C85.333,492.854,104.479,512,128,512h256c23.521,0,42.667-19.146,42.667-42.667V42.667C426.667,19.146,407.521,0,384,0z"/>
<g>
</g>
<g>
</g>
<g>
</g>
<g>
</g>
<g>
</g>
<g>
</g>
<g>
</g>
<g>
</g>
<g>
</g>
<g>
</g>
<g>
</g>
<g>
</g>
<g>
</g>
<g>
</g>
<g>
</g>
</svg>
