<?xml version="1.0" encoding="iso-8859-1"?>
<!-- Generator: Adobe Illustrator 19.0.0, SVG Export Plug-In . SVG Version: 6.00 Build 0)  -->
<svg xmlns="http://www.w3.org/2000/svg" xmlns:xlink="http://www.w3.org/1999/xlink" version="1.1" id="Capa_1" x="0px" y="0px" viewBox="0 0 469.333 469.333" style="enable-background:new 0 0 469.333 469.333;" xml:space="preserve">
<g>
	<path style="fill:#303C42;" d="M146.073,404.158c-17.646-8.823-33.51-20.219-47.167-33.885   c-13.667-13.656-25.063-29.521-33.885-47.167c-2.635-5.281-9.052-7.406-14.313-4.771c-5.271,2.635-7.406,9.042-4.771,14.313   c9.854,19.698,22.594,37.427,37.885,52.708c15.281,15.292,33.01,28.031,52.708,37.885c1.531,0.76,3.156,1.125,4.76,1.125   c3.917,0,7.677-2.156,9.552-5.896C153.479,413.199,151.344,406.793,146.073,404.158z"/>
	<path style="fill:#303C42;" d="M127,442.293c-21.781-10.885-41.385-24.969-58.271-41.844   c-16.875-16.885-30.958-36.49-41.844-58.271c-2.646-5.26-9.063-7.406-14.313-4.771c-5.271,2.635-7.406,9.042-4.771,14.313   c11.917,23.833,27.344,45.302,45.844,63.813c18.51,18.5,39.979,33.927,63.813,45.844c1.531,0.76,3.156,1.125,4.76,1.125   c3.917,0,7.677-2.156,9.552-5.896C134.406,451.335,132.271,444.928,127,442.293z"/>
	<path style="fill:#303C42;" d="M342.333,26.73c21.781,10.885,41.385,24.969,58.271,41.844   c16.875,16.885,30.958,36.49,41.844,58.271c1.875,3.74,5.635,5.896,9.552,5.896c1.604,0,3.229-0.365,4.76-1.125   c5.271-2.635,7.406-9.042,4.771-14.313c-11.917-23.833-27.344-45.302-45.844-63.813c-18.51-18.5-39.979-33.927-63.813-45.844   c-5.271-2.615-11.677-0.5-14.313,4.771C334.927,17.689,337.063,24.095,342.333,26.73z"/>
	<path style="fill:#303C42;" d="M323.26,64.866c17.646,8.823,33.51,20.219,47.167,33.885c13.667,13.656,25.063,29.521,33.885,47.167   c1.875,3.74,5.635,5.896,9.552,5.896c1.604,0,3.229-0.365,4.76-1.125c5.271-2.635,7.406-9.042,4.771-14.313   c-9.854-19.698-22.594-37.427-37.885-52.708c-15.281-15.292-33.01-28.031-52.708-37.885c-5.271-2.604-11.677-0.5-14.313,4.771   S317.99,62.23,323.26,64.866z"/>
	<path style="fill:#303C42;" d="M193.313,9.23c-12.083-12.104-33.229-12.094-45.271-0.01L9.375,147.887   C3.333,153.928,0,161.97,0,170.512c0,8.542,3.333,16.583,9.375,22.625l266.646,266.656c6.042,6.052,14.083,9.385,22.646,9.385   s16.604-3.333,22.625-9.375l138.667-138.667c6.042-6.042,9.375-14.083,9.375-22.625c0-8.542-3.333-16.583-9.375-22.625   L193.313,9.23z"/>
</g>
<g>
	<path id="SVGCleanerId_0" style="fill:#5C6671;" d="M21.333,170.512c0-2.844,1.104-5.521,3.125-7.542L163.146,24.293   c2-2.01,4.667-3.115,7.521-3.115s5.521,1.104,7.542,3.125l232.464,232.464l-153.75,153.75L24.458,178.053   C22.438,176.033,21.333,173.355,21.333,170.512z"/>
</g>
<g>
	
		<linearGradient id="SVGCleanerId_0_3_" gradientUnits="userSpaceOnUse" x1="-65.2719" y1="617.9094" x2="-48.6898" y2="610.1773" gradientTransform="matrix(21.3333 0 0 -21.3333 1430.1112 13315.2227)">
		<stop offset="0" style="stop-color:#FFFFFF;stop-opacity:0.2"/>
		<stop offset="1" style="stop-color:#FFFFFF;stop-opacity:0"/>
	</linearGradient>
	<path id="SVGCleanerId_0_1_" style="fill:url(#SVGCleanerId_0_3_);" d="M21.333,170.512c0-2.844,1.104-5.521,3.125-7.542   L163.146,24.293c2-2.01,4.667-3.115,7.521-3.115s5.521,1.104,7.542,3.125l232.464,232.464l-153.75,153.75L24.458,178.053   C22.438,176.033,21.333,173.355,21.333,170.512z"/>
</g>
<g>
	
		<linearGradient id="SVGCleanerId_0_4_" gradientUnits="userSpaceOnUse" x1="-62.6404" y1="619.7617" x2="-51.3893" y2="608.5117" gradientTransform="matrix(21.3333 0 0 -21.3333 1430.1112 13315.2227)">
		<stop offset="0" style="stop-color:#FFFFFF;stop-opacity:0.2"/>
		<stop offset="1" style="stop-color:#FFFFFF;stop-opacity:0"/>
	</linearGradient>
	<path id="SVGCleanerId_0_2_" style="fill:url(#SVGCleanerId_0_4_);" d="M21.333,170.512c0-2.844,1.104-5.521,3.125-7.542   L163.146,24.293c2-2.01,4.667-3.115,7.521-3.115s5.521,1.104,7.542,3.125l232.464,232.464l-153.75,153.75L24.458,178.053   C22.438,176.033,21.333,173.355,21.333,170.512z"/>
</g>
<path style="fill:#F2F2F2;" d="M365.792,344.303l-21.333,21.333c-4.167,4.167-4.167,10.917,0,15.083  c2.083,2.083,4.813,3.125,7.542,3.125c2.729,0,5.458-1.042,7.542-3.125l21.333-21.333c4.167-4.167,4.167-10.917,0-15.083  C376.708,340.137,369.958,340.137,365.792,344.303z"/>
<g>
	<path style="fill:#303C42;" d="M109.792,88.303l-21.333,21.333c-4.167,4.167-4.167,10.917,0,15.083   c2.083,2.083,4.813,3.125,7.542,3.125c2.729,0,5.458-1.042,7.542-3.125l21.333-21.333c4.167-4.167,4.167-10.917,0-15.083   C120.708,84.137,113.958,84.137,109.792,88.303z"/>
	<circle style="fill:#303C42;" cx="170.667" cy="42.517" r="10.667"/>
</g>
<linearGradient id="SVGID_1_" gradientUnits="userSpaceOnUse" x1="-66.3488" y1="617.967" x2="-45.7241" y2="608.3496" gradientTransform="matrix(21.3333 0 0 -21.3333 1430.1112 13315.2227)">
	<stop offset="0" style="stop-color:#FFFFFF;stop-opacity:0.2"/>
	<stop offset="1" style="stop-color:#FFFFFF;stop-opacity:0"/>
</linearGradient>
<path style="fill:url(#SVGID_1_);" d="M146.073,404.158c-17.646-8.823-33.51-20.219-47.167-33.885  c-13.667-13.656-25.063-29.521-33.885-47.167c-2.635-5.281-9.052-7.406-14.313-4.771c-5.271,2.635-7.406,9.042-4.771,14.313  c9.854,19.698,22.594,37.427,37.885,52.708c15.281,15.292,33.01,28.031,52.708,37.885c1.531,0.76,3.156,1.125,4.76,1.125  c3.917,0,7.677-2.156,9.552-5.896C153.479,413.199,151.344,406.793,146.073,404.158z M127,442.293  c-21.781-10.885-41.385-24.969-58.271-41.844c-16.875-16.885-30.958-36.49-41.844-58.271c-2.646-5.26-9.063-7.406-14.313-4.771  c-5.271,2.635-7.406,9.042-4.771,14.313c11.917,23.833,27.344,45.302,45.844,63.813c18.51,18.5,39.979,33.927,63.813,45.844  c1.531,0.76,3.156,1.125,4.76,1.125c3.917,0,7.677-2.156,9.552-5.896C134.406,451.335,132.271,444.928,127,442.293z M342.333,26.73  c21.781,10.885,41.385,24.969,58.271,41.844c16.875,16.885,30.958,36.49,41.844,58.271c1.875,3.74,5.635,5.896,9.552,5.896  c1.604,0,3.229-0.365,4.76-1.125c5.271-2.635,7.406-9.042,4.771-14.313c-11.917-23.833-27.344-45.302-45.844-63.813  c-18.51-18.5-39.979-33.927-63.813-45.844c-5.271-2.615-11.677-0.5-14.313,4.771C334.927,17.689,337.063,24.095,342.333,26.73z   M323.26,64.866c17.646,8.823,33.51,20.219,47.167,33.885c13.667,13.656,25.063,29.521,33.885,47.167  c1.875,3.74,5.635,5.896,9.552,5.896c1.604,0,3.229-0.365,4.76-1.125c5.271-2.635,7.406-9.042,4.771-14.313  c-9.854-19.698-22.594-37.427-37.885-52.708c-15.281-15.292-33.01-28.031-52.708-37.885c-5.271-2.604-11.677-0.5-14.313,4.771  S317.99,62.23,323.26,64.866z M459.958,275.887L193.313,9.23c-12.083-12.104-33.229-12.094-45.271-0.01L9.375,147.887  C3.333,153.928,0,161.97,0,170.512c0,8.542,3.333,16.583,9.375,22.625l266.646,266.656c6.042,6.052,14.083,9.385,22.646,9.385  s16.604-3.333,22.625-9.375l138.667-138.667c6.042-6.042,9.375-14.083,9.375-22.625C469.333,289.97,466,281.928,459.958,275.887z"/>
<g>
</g>
<g>
</g>
<g>
</g>
<g>
</g>
<g>
</g>
<g>
</g>
<g>
</g>
<g>
</g>
<g>
</g>
<g>
</g>
<g>
</g>
<g>
</g>
<g>
</g>
<g>
</g>
<g>
</g>
</svg>
