<?xml version="1.0" encoding="iso-8859-1"?>
<!-- Generator: Adobe Illustrator 19.0.0, SVG Export Plug-In . SVG Version: 6.00 Build 0)  -->
<svg version="1.1" id="Capa_1" xmlns="http://www.w3.org/2000/svg" xmlns:xlink="http://www.w3.org/1999/xlink" x="0px" y="0px"
	 viewBox="0 0 472 472" style="enable-background:new 0 0 472 472;" xml:space="preserve">
<path style="fill:#FDBD40;" d="M72,244h256v176H72V244z"/>
<path style="fill:#FCF05A;" d="M72,244l128,96l128-96H72z"/>
<path style="fill:#87CEE9;" d="M184,52h256c17.673,0,32,14.327,32,32v48c0,17.673-14.327,32-32,32H184c-17.673,0-32-14.327-32-32V84
	C152,66.327,166.327,52,184,52z"/>
<g>
	<path style="fill:#2D75BB;" d="M424,164h-80l128,80L424,164z"/>
	<path style="fill:#2D75BB;" d="M184,116h16v16h-16V116z"/>
	<path style="fill:#2D75BB;" d="M184,84h16v16h-16V84z"/>
	<path style="fill:#2D75BB;" d="M216,84h32v16h-32V84z"/>
	<path style="fill:#2D75BB;" d="M264,84h80v16h-80V84z"/>
	<path style="fill:#2D75BB;" d="M360,84h88v16h-88V84z"/>
	<path style="fill:#2D75BB;" d="M216,116h232v16H216V116z"/>
</g>
<g>
	<path style="fill:#7D8D9C;" d="M48,324H8c-4.418,0-8-3.582-8-8s3.582-8,8-8h40c4.418,0,8,3.582,8,8S52.418,324,48,324z"/>
	<path style="fill:#7D8D9C;" d="M96,356H24c-4.418,0-8-3.582-8-8s3.582-8,8-8h72c4.418,0,8,3.582,8,8S100.418,356,96,356z"/>
</g>
<g>
</g>
<g>
</g>
<g>
</g>
<g>
</g>
<g>
</g>
<g>
</g>
<g>
</g>
<g>
</g>
<g>
</g>
<g>
</g>
<g>
</g>
<g>
</g>
<g>
</g>
<g>
</g>
<g>
</g>
</svg>
