<?xml version="1.0" encoding="iso-8859-1"?>
<!-- Generator: Adobe Illustrator 19.0.0, SVG Export Plug-In . SVG Version: 6.00 Build 0)  -->
<svg version="1.1" id="Capa_1" xmlns="http://www.w3.org/2000/svg" xmlns:xlink="http://www.w3.org/1999/xlink" x="0px" y="0px"
	 viewBox="0 0 480 480" style="enable-background:new 0 0 480 480;" xml:space="preserve">
<path style="fill:#FDBD40;" d="M72,248h256v176H72V248z"/>
<path style="fill:#FCF05A;" d="M72,248l128,96l128-96H72z"/>
<path style="fill:#87CEE9;" d="M184,56h256c17.673,0,32,14.327,32,32v48c0,17.673-14.327,32-32,32H184c-17.673,0-32-14.327-32-32V88
	C152,70.327,166.327,56,184,56z"/>
<g>
	<path style="fill:#2D75BB;" d="M424,168h-80l128,80L424,168z"/>
	<g>
		<path id="SVGCleanerId_0" style="fill:#2D75BB;" d="M184,120h16v16h-16V120z"/>
	</g>
	<g>
		<path id="SVGCleanerId_1" style="fill:#2D75BB;" d="M184,88h16v16h-16V88z"/>
	</g>
	<g>
		<path id="SVGCleanerId_2" style="fill:#2D75BB;" d="M216,88h32v16h-32V88z"/>
	</g>
	<g>
		<path id="SVGCleanerId_3" style="fill:#2D75BB;" d="M264,88h80v16h-80V88z"/>
	</g>
	<g>
		<path id="SVGCleanerId_4" style="fill:#2D75BB;" d="M360,88h88v16h-88V88z"/>
	</g>
	<g>
		<path id="SVGCleanerId_5" style="fill:#2D75BB;" d="M216,120h232v16H216V120z"/>
	</g>
</g>
<g>
	<path style="fill:#7D8D9C;" d="M48,328H8c-4.418,0-8-3.582-8-8s3.582-8,8-8h40c4.418,0,8,3.582,8,8S52.418,328,48,328z"/>
	<path style="fill:#7D8D9C;" d="M96,360H24c-4.418,0-8-3.582-8-8s3.582-8,8-8h72c4.418,0,8,3.582,8,8S100.418,360,96,360z"/>
</g>
<path d="M335.584,245.472c-0.045-0.105-0.099-0.207-0.16-0.304c-0.126-0.296-0.273-0.582-0.44-0.856
	c-0.282-0.576-0.637-1.114-1.056-1.6c-0.218-0.243-0.45-0.473-0.696-0.688c-0.486-0.424-1.023-0.784-1.6-1.072
	c-0.257-0.155-0.524-0.291-0.8-0.408c-0.902-0.355-1.862-0.539-2.832-0.544H72c-0.972,0.015-1.932,0.21-2.832,0.576
	c-0.276,0.117-0.543,0.253-0.8,0.408c-0.577,0.288-1.114,0.648-1.6,1.072c-0.246,0.215-0.478,0.445-0.696,0.688
	c-0.419,0.486-0.774,1.024-1.056,1.6c-0.165,0.274-0.315,0.557-0.448,0.848c0,0.112-0.12,0.2-0.152,0.312
	c-0.27,0.805-0.411,1.647-0.416,2.496v96H24c-4.418,0-8,3.582-8,8s3.582,8,8,8h40v64c0,4.418,3.582,8,8,8h256c4.418,0,8-3.582,8-8
	V248C336.002,247.14,335.862,246.286,335.584,245.472z M304,256l-104,78L96,256H304z M80,416v-56h16c4.418,0,8-3.582,8-8
	s-3.582-8-8-8H80v-80l115.2,86.4c2.844,2.133,6.756,2.133,9.6,0L320,264v152H80z"/>
<path d="M440,48H184c-22.08,0.026-39.974,17.92-40,40v48c0.026,22.08,17.92,39.974,40,40h157.704l126.056,78.784
	c3.748,2.34,8.683,1.2,11.023-2.548c1.593-2.55,1.621-5.778,0.073-8.356L438.128,176H440c22.08-0.026,39.974-17.92,40-40V88
	C479.974,65.92,462.08,48.026,440,48z M448,223.576L371.888,176h47.584L448,223.576z M464,136c0,13.255-10.745,24-24,24H184
	c-13.255,0-24-10.745-24-24V88c0-13.255,10.745-24,24-24h256c13.255,0,24,10.745,24,24V136z"/>
<path id="SVGCleanerId_0_1_" d="M184,120h16v16h-16V120z"/>
<path id="SVGCleanerId_1_1_" d="M184,88h16v16h-16V88z"/>
<path id="SVGCleanerId_2_1_" d="M216,88h32v16h-32V88z"/>
<path id="SVGCleanerId_3_1_" d="M264,88h80v16h-80V88z"/>
<path id="SVGCleanerId_4_1_" d="M360,88h88v16h-88V88z"/>
<path id="SVGCleanerId_5_1_" d="M216,120h232v16H216V120z"/>
<path d="M8,328h40c4.418,0,8-3.582,8-8s-3.582-8-8-8H8c-4.418,0-8,3.582-8,8S3.582,328,8,328z"/>
<g>
</g>
<g>
</g>
<g>
</g>
<g>
</g>
<g>
</g>
<g>
</g>
<g>
</g>
<g>
</g>
<g>
</g>
<g>
</g>
<g>
</g>
<g>
</g>
<g>
</g>
<g>
</g>
<g>
</g>
</svg>
