<?xml version="1.0" encoding="iso-8859-1"?>
<!-- Generator: Adobe Illustrator 19.0.0, SVG Export Plug-In . SVG Version: 6.00 Build 0)  -->
<svg version="1.1" id="Capa_1" xmlns="http://www.w3.org/2000/svg" xmlns:xlink="http://www.w3.org/1999/xlink" x="0px" y="0px"
	 viewBox="0 0 464 464" style="enable-background:new 0 0 464 464;" xml:space="preserve">
<path style="fill:#7D8D9C;" d="M144,0h176c17.673,0,32,14.327,32,32v400c0,17.673-14.327,32-32,32H144c-17.673,0-32-14.327-32-32V32
	C112,14.327,126.327,0,144,0z"/>
<path style="fill:#87CEE9;" d="M112,72h240v328H112V72z"/>
<circle style="fill:#FFF69A;" cx="232" cy="248" r="56"/>
<g>
	<path style="fill:#AABECE;" d="M176,32h112v16H176V32z"/>
	<path style="fill:#AABECE;" d="M216,424h32v16h-32V424z"/>
</g>
<g>
	<path style="fill:#E9686A;" d="M136,96h32v16h-32V96z"/>
	<path style="fill:#E9686A;" d="M184,96h32v16h-32V96z"/>
	<path style="fill:#E9686A;" d="M248,128h16v16h-16V128z"/>
	<path style="fill:#E9686A;" d="M280,112h16v32h-16V112z"/>
	<path style="fill:#E9686A;" d="M312,96h16v48h-16V96z"/>
</g>
<path style="fill:#FFF69A;" d="M216,336h32c17.673,0,32,14.327,32,32v32l0,0h-96l0,0v-32C184,350.327,198.327,336,216,336z"/>
<path style="fill:#2D75BB;" d="M224,264h16v16h-16V264z"/>
<g>
</g>
<g>
</g>
<g>
</g>
<g>
</g>
<g>
</g>
<g>
</g>
<g>
</g>
<g>
</g>
<g>
</g>
<g>
</g>
<g>
</g>
<g>
</g>
<g>
</g>
<g>
</g>
<g>
</g>
</svg>
