<?xml version="1.0" encoding="iso-8859-1"?>
<!-- Generator: Adobe Illustrator 19.0.0, SVG Export Plug-In . SVG Version: 6.00 Build 0)  -->
<svg version="1.1" id="Capa_1" xmlns="http://www.w3.org/2000/svg" xmlns:xlink="http://www.w3.org/1999/xlink" x="0px" y="0px"
	 viewBox="0 0 472 472" style="enable-background:new 0 0 472 472;" xml:space="preserve">
<path style="fill:#7D8D9C;" d="M152,8h144c17.673,0,32,14.327,32,32v304c0,17.673-14.327,32-32,32H152c-17.673,0-32-14.327-32-32V40
	C120,22.327,134.327,8,152,8z"/>
<path style="fill:#87CEE9;" d="M120,72h208v240H120V72z"/>
<g>
	<path style="fill:#FFF69A;" d="M184,104h80v160h-80V104z"/>
	<path style="fill:#FFF69A;" d="M56,120h96v48H56V120z"/>
	<path style="fill:#FFF69A;" d="M152,376h144v96H152V376z"/>
</g>
<path style="fill:#FDBD40;" d="M120,168H56l64,80V168z"/>
<g>
	<path style="fill:#5A6470;" d="M208,192c-4.418,0-8-3.582-8-8v-8c0-4.418,3.582-8,8-8s8,3.582,8,8v8
		C216,188.418,212.418,192,208,192z"/>
	<path style="fill:#5A6470;" d="M240,192c-4.418,0-8-3.582-8-8v-8c0-4.418,3.582-8,8-8s8,3.582,8,8v8
		C248,188.418,244.418,192,240,192z"/>
	<path style="fill:#5A6470;" d="M184,104h80v40h-80V104z"/>
	<path style="fill:#5A6470;" d="M224,248c-2.122,0-4.156-0.844-5.656-2.344l-16-16c-3.069-3.178-2.981-8.243,0.197-11.312
		c3.1-2.994,8.015-2.994,11.115,0L224,228.688l10.344-10.344c3.178-3.07,8.242-2.982,11.312,0.196c2.994,3.1,2.994,8.015,0,11.116
		l-16,16C228.156,247.156,226.122,248,224,248z"/>
</g>
<path style="fill:#394D5C;" d="M120,264h208v48H120V264z"/>
<g>
	<circle style="fill:#AABECE;" cx="224" cy="344" r="24"/>
	<path style="fill:#AABECE;" d="M248,48h-48c-4.418,0-8-3.582-8-8s3.582-8,8-8h48c4.418,0,8,3.582,8,8S252.418,48,248,48z"/>
</g>
<path style="fill:#FDBD40;" d="M376,80c-4.418,0-8-3.582-8-8c0-13.255-10.745-24-24-24c-4.418,0-8-3.582-8-8s3.582-8,8-8
	c13.255,0,24-10.745,24-24c0-4.418,3.582-8,8-8s8,3.582,8,8c0,13.255,10.745,24,24,24c4.418,0,8,3.582,8,8s-3.582,8-8,8
	c-13.255,0-24,10.745-24,24C384,76.418,380.418,80,376,80z M368,40c3.029,2.278,5.722,4.971,8,8c2.276-3.031,4.969-5.724,8-8
	c-3.031-2.276-5.724-4.969-8-8C373.722,35.029,371.029,37.722,368,40z"/>
<path style="fill:#FFF69A;" d="M296,120h96v48h-96V120z"/>
<path style="fill:#FDBD40;" d="M296,168h96v48h-96V168z"/>
<path style="fill:#FFF69A;" d="M296,216h96v48h-96V216z"/>
<path style="fill:#FDBD40;" d="M296,264h96v48h-96V264z"/>
<g>
</g>
<g>
</g>
<g>
</g>
<g>
</g>
<g>
</g>
<g>
</g>
<g>
</g>
<g>
</g>
<g>
</g>
<g>
</g>
<g>
</g>
<g>
</g>
<g>
</g>
<g>
</g>
<g>
</g>
</svg>
