<?xml version="1.0" encoding="iso-8859-1"?>
<!-- Generator: Adobe Illustrator 19.0.0, SVG Export Plug-In . SVG Version: 6.00 Build 0)  -->
<svg version="1.1" id="Capa_1" xmlns="http://www.w3.org/2000/svg" xmlns:xlink="http://www.w3.org/1999/xlink" x="0px" y="0px"
	 viewBox="0 0 480 480" style="enable-background:new 0 0 480 480;" xml:space="preserve">
<path style="fill:#7D8D9C;" d="M160,8h144c17.673,0,32,14.327,32,32v304c0,17.673-14.327,32-32,32H160c-17.673,0-32-14.327-32-32V40
	C128,22.327,142.327,8,160,8z"/>
<path style="fill:#87CEE9;" d="M128,72h208v240H128V72z"/>
<g>
	<path style="fill:#FFF69A;" d="M192,104h80v160h-80V104z"/>
	<path style="fill:#FFF69A;" d="M64,120h96v48H64V120z"/>
	<path style="fill:#FFF69A;" d="M160,376h144v96H160V376z"/>
</g>
<path style="fill:#FDBD40;" d="M128,168H64l64,80V168z"/>
<g>
	<path style="fill:#5A6470;" d="M216,192c-4.418,0-8-3.582-8-8v-8c0-4.418,3.582-8,8-8s8,3.582,8,8v8
		C224,188.418,220.418,192,216,192z"/>
	<path style="fill:#5A6470;" d="M248,192c-4.418,0-8-3.582-8-8v-8c0-4.418,3.582-8,8-8s8,3.582,8,8v8
		C256,188.418,252.418,192,248,192z"/>
	<path style="fill:#5A6470;" d="M192,104h80v40h-80V104z"/>
	<path style="fill:#5A6470;" d="M232,248c-2.122,0-4.156-0.844-5.656-2.344l-16-16c-3.069-3.178-2.981-8.243,0.197-11.312
		c3.1-2.994,8.015-2.994,11.115,0L232,228.688l10.344-10.344c3.178-3.07,8.242-2.982,11.312,0.196c2.994,3.1,2.994,8.015,0,11.116
		l-16,16C236.156,247.156,234.122,248,232,248z"/>
</g>
<path style="fill:#394D5C;" d="M128,264h208v48H128V264z"/>
<g>
	<circle style="fill:#AABECE;" cx="232" cy="344" r="24"/>
	<path style="fill:#AABECE;" d="M256,48h-48c-4.418,0-8-3.582-8-8s3.582-8,8-8h48c4.418,0,8,3.582,8,8S260.418,48,256,48z"/>
</g>
<path style="fill:#FDBD40;" d="M384,80c-4.418,0-8-3.582-8-8c0-13.255-10.745-24-24-24c-4.418,0-8-3.582-8-8s3.582-8,8-8
	c13.255,0,24-10.745,24-24c0-4.418,3.582-8,8-8s8,3.582,8,8c0,13.255,10.745,24,24,24c4.418,0,8,3.582,8,8s-3.582,8-8,8
	c-13.255,0-24,10.745-24,24C392,76.418,388.418,80,384,80z M376,40c3.029,2.278,5.722,4.971,8,8c2.276-3.031,4.969-5.724,8-8
	c-3.031-2.276-5.724-4.969-8-8C381.722,35.029,379.029,37.722,376,40z"/>
<path style="fill:#FFF69A;" d="M304,120h96v48h-96V120z"/>
<path style="fill:#FDBD40;" d="M304,168h96v48h-96V168z"/>
<path style="fill:#FFF69A;" d="M304,216h96v48h-96V216z"/>
<path style="fill:#FDBD40;" d="M304,264h96v48h-96V264z"/>
<path d="M216,192c4.418,0,8-3.582,8-8v-8c0-4.418-3.582-8-8-8s-8,3.582-8,8v8C208,188.418,211.582,192,216,192z"/>
<path d="M248,168c-4.418,0-8,3.582-8,8v8c0,4.418,3.582,8,8,8s8-3.582,8-8v-8C256,171.582,252.418,168,248,168z"/>
<path d="M242.344,218.344L232,228.688l-10.344-10.344c-3.178-3.069-8.243-2.981-11.312,0.197c-2.994,3.1-2.994,8.015,0,11.115l16,16
	c3.124,3.123,8.188,3.123,11.312,0l16-16c3.069-3.178,2.982-8.243-0.196-11.312C250.359,215.35,245.444,215.35,242.344,218.344
	L242.344,218.344z"/>
<path d="M208,48h48c4.418,0,8-3.582,8-8s-3.582-8-8-8h-48c-4.418,0-8,3.582-8,8S203.582,48,208,48z"/>
<path d="M352,48c13.255,0,24,10.745,24,24c0,4.418,3.582,8,8,8s8-3.582,8-8c0-13.255,10.745-24,24-24c4.418,0,8-3.582,8-8
	s-3.582-8-8-8c-13.255,0-24-10.745-24-24c0-4.418-3.582-8-8-8s-8,3.582-8,8c0,13.255-10.745,24-24,24c-4.418,0-8,3.582-8,8
	S347.582,48,352,48z M384,32c2.276,3.031,4.969,5.724,8,8c-3.031,2.276-5.724,4.969-8,8c-2.278-3.029-4.971-5.722-8-8
	C379.029,37.722,381.722,35.029,384,32z"/>
<path d="M344,40c-0.026-22.08-17.92-39.974-40-40H160c-22.08,0.026-39.974,17.92-40,40v72H64c-4.418,0-8,3.582-8,8v48
	c0,0.12,0.064,0.208,0.064,0.328c0.021,0.943,0.211,1.875,0.56,2.752c0,0.072,0.08,0.12,0.104,0.184
	c0.266,0.617,0.61,1.198,1.024,1.728L120,250.808V344c0.024,19.001,13.389,35.373,32,39.2V472c0,4.418,3.582,8,8,8h144
	c4.418,0,8-3.582,8-8v-88.8c18.611-3.827,31.976-20.199,32-39.2v-24h56c4.418,0,8-3.582,8-8V120c0-4.418-3.582-8-8-8h-56V40z
	 M160,16h144c13.255,0,24,10.745,24,24v24H136V40C136,26.745,146.745,16,160,16z M72,128h80v32H72V128z M200,152h64v104h-64V152z
	 M264,136h-64v-24h64V136z M296,272v32H136v-32H296z M312,256v-32h80v32H312z M392,208h-80v-32h80V208z M232,360
	c-8.837,0-16-7.163-16-16s7.163-16,16-16c8.837,0,16,7.163,16,16S240.837,360,232,360z M80.648,176H120v49.192L80.648,176z M136,344
	v-24h75.056c-13.255,11.333-14.813,31.265-3.481,44.519c1.068,1.249,2.232,2.413,3.481,3.481H160C146.745,368,136,357.255,136,344z
	 M296,464H168v-80h128V464z M304,368h-51.056c13.255-11.333,14.813-31.265,3.481-44.519c-1.068-1.249-2.232-2.413-3.481-3.481H328
	v24C328,357.255,317.255,368,304,368z M392,304h-80v-32h80V304z M392,160h-80v-32h80V160z M304,112c-4.418,0-8,3.582-8,8v136h-16
	V104c0-4.418-3.582-8-8-8h-80c-4.418,0-8,3.582-8,8v152h-48v-80h24c4.418,0,8-3.582,8-8v-48c0-4.418-3.582-8-8-8h-24V80h192v32H304z
	"/>
<g>
</g>
<g>
</g>
<g>
</g>
<g>
</g>
<g>
</g>
<g>
</g>
<g>
</g>
<g>
</g>
<g>
</g>
<g>
</g>
<g>
</g>
<g>
</g>
<g>
</g>
<g>
</g>
<g>
</g>
</svg>
