<?xml version="1.0" encoding="iso-8859-1"?>
<!-- Generator: Adobe Illustrator 19.0.0, SVG Export Plug-In . SVG Version: 6.00 Build 0)  -->
<svg version="1.1" id="Capa_1" xmlns="http://www.w3.org/2000/svg" xmlns:xlink="http://www.w3.org/1999/xlink" x="0px" y="0px"
	 viewBox="0 0 480 480" style="enable-background:new 0 0 480 480;" xml:space="preserve">
<path style="fill:#7D8D9C;" d="M135.999,8h176c17.673,0,32,14.327,32,32v400c0,17.673-14.327,32-32,32h-176
	c-17.673,0-32-14.327-32-32V40C103.999,22.327,118.326,8,135.999,8z"/>
<path style="fill:#87CEE9;" d="M103.999,80h240v328h-240V80z"/>
<g>
	<path style="fill:#AABECE;" d="M167.999,40h112v16h-112V40z"/>
	<path style="fill:#AABECE;" d="M207.999,432h32v16h-32V432z"/>
</g>
<path style="fill:#394D5C;" d="M279.999,280h32v32h-32V280z"/>
<g>
	<g>
		<path id="SVGCleanerId_0" style="fill:#2D75BB;" d="M143.999,272h112v16h-112V272z"/>
	</g>
	<g>
		<path id="SVGCleanerId_1" style="fill:#2D75BB;" d="M175.999,304h80v16h-80V304z"/>
	</g>
	<g>
		<path id="SVGCleanerId_2" style="fill:#2D75BB;" d="M143.999,304h16v16h-16V304z"/>
	</g>
</g>
<path style="fill:#FCF05A;" d="M391.999,240h-160c-22.091,0-40-17.909-40-40s17.909-40,40-40h160c22.091,0,40,17.909,40,40
	S414.091,240,391.999,240z"/>
<path style="fill:#394D5C;" d="M87.999,232h32v112h-32V232z"/>
<g>
	<path style="fill:#2D75BB;" d="M223.999,184h16v32h-16V184z"/>
	<circle style="fill:#2D75BB;" cx="103.999" cy="200" r="56"/>
</g>
<circle style="fill:#FCF05A;" cx="103.999" cy="200" r="32"/>
<path d="M167.999,40h112v16h-112V40z"/>
<path d="M207.999,432h32v16h-32V432z"/>
<path d="M279.999,320h32c4.418,0,8-3.582,8-8v-32c0-4.418-3.582-8-8-8h-32c-4.418,0-8,3.582-8,8v32
	C271.999,316.418,275.581,320,279.999,320z M287.999,288h16v16h-16V288z"/>
<path id="SVGCleanerId_0_1_" d="M143.999,272h112v16h-112V272z"/>
<path id="SVGCleanerId_1_1_" d="M175.999,304h80v16h-80V304z"/>
<path id="SVGCleanerId_2_1_" d="M143.999,304h16v16h-16V304z"/>
<path d="M135.999,200c0-17.673-14.327-32-32-32s-32,14.327-32,32s14.327,32,32,32S135.999,217.673,135.999,200z M87.999,200
	c0-8.837,7.163-16,16-16s16,7.163,16,16s-7.163,16-16,16S87.999,208.837,87.999,200z"/>
<path d="M223.999,184h16v32h-16V184z"/>
<path d="M95.999,440c0.026,22.08,17.92,39.974,40,40h176c22.08-0.026,39.974-17.92,40-40V248h40c26.51,0,48-21.49,48-48
	s-21.49-48-48-48h-40V40c-0.026-22.08-17.92-39.974-40-40h-176c-22.08,0.026-39.974,17.92-40,40v96.552
	c-35.041,4.392-59.887,36.359-55.495,71.4c2.884,23.007,17.996,42.65,39.495,51.336V344c0,4.418,3.582,8,8,8h8V440z M423.999,200
	c0,17.673-14.327,32-32,32h-160c-17.673,0-32-14.327-32-32s14.327-32,32-32h160C409.672,168,423.999,182.327,423.999,200z
	 M111.999,40c0-13.255,10.745-24,24-24h176c13.255,0,24,10.745,24,24v32h-224V40z M55.999,200c0-26.51,21.49-48,48-48
	s48,21.49,48,48s-21.49,48-48,48C77.5,247.974,56.026,226.499,55.999,200z M103.999,264c2.676-0.018,5.347-0.202,8-0.552V336h-16
	v-72.552C98.652,263.798,101.324,263.982,103.999,264z M119.999,352c4.418,0,8-3.582,8-8v-84.712
	c32.744-13.229,48.565-50.497,35.336-83.241c-8.686-21.499-28.329-36.611-51.336-39.495V88h224v64h-104c-26.51,0-48,21.49-48,48
	s21.49,48,48,48h104v152h-224v-48H119.999z M335.999,416v24c0,13.255-10.745,24-24,24h-176c-13.255,0-24-10.745-24-24v-24H335.999z"
	/>
<g>
</g>
<g>
</g>
<g>
</g>
<g>
</g>
<g>
</g>
<g>
</g>
<g>
</g>
<g>
</g>
<g>
</g>
<g>
</g>
<g>
</g>
<g>
</g>
<g>
</g>
<g>
</g>
<g>
</g>
</svg>
