<?xml version="1.0" encoding="iso-8859-1"?>
<!-- Generator: Adobe Illustrator 19.0.0, SVG Export Plug-In . SVG Version: 6.00 Build 0)  -->
<svg version="1.1" id="Capa_1" xmlns="http://www.w3.org/2000/svg" xmlns:xlink="http://www.w3.org/1999/xlink" x="0px" y="0px"
	 viewBox="0 0 464 464" style="enable-background:new 0 0 464 464;" xml:space="preserve">
<path style="fill:#7D8D9C;" d="M128,0h176c17.673,0,32,14.327,32,32v400c0,17.673-14.327,32-32,32H128c-17.673,0-32-14.327-32-32V32
	C96,14.327,110.327,0,128,0z"/>
<path style="fill:#87CEE9;" d="M96,72h240v328H96V72z"/>
<g>
	<path style="fill:#AABECE;" d="M160,32h112v16H160V32z"/>
	<path style="fill:#AABECE;" d="M200,424h32v16h-32V424z"/>
</g>
<path style="fill:#394D5C;" d="M272,272h32v32h-32V272z"/>
<g>
	<path style="fill:#2D75BB;" d="M136,264h112v16H136V264z"/>
	<path style="fill:#2D75BB;" d="M168,296h80v16h-80V296z"/>
	<path style="fill:#2D75BB;" d="M136,296h16v16h-16V296z"/>
</g>
<path style="fill:#FCF05A;" d="M384,232H224c-22.091,0-40-17.909-40-40s17.909-40,40-40h160c22.091,0,40,17.909,40,40
	S406.091,232,384,232z"/>
<path style="fill:#394D5C;" d="M80,224h32v112H80V224z"/>
<g>
	<path style="fill:#2D75BB;" d="M216,176h16v32h-16V176z"/>
	<circle style="fill:#2D75BB;" cx="96" cy="192" r="56"/>
</g>
<circle style="fill:#FCF05A;" cx="96" cy="192" r="32"/>
<g>
</g>
<g>
</g>
<g>
</g>
<g>
</g>
<g>
</g>
<g>
</g>
<g>
</g>
<g>
</g>
<g>
</g>
<g>
</g>
<g>
</g>
<g>
</g>
<g>
</g>
<g>
</g>
<g>
</g>
</svg>
