<?xml version="1.0" encoding="iso-8859-1"?>
<!-- Generator: Adobe Illustrator 19.0.0, SVG Export Plug-In . SVG Version: 6.00 Build 0)  -->
<svg version="1.1" id="Capa_1" xmlns="http://www.w3.org/2000/svg" xmlns:xlink="http://www.w3.org/1999/xlink" x="0px" y="0px"
	 viewBox="0 0 480.004 480.004" style="enable-background:new 0 0 480.004 480.004;" xml:space="preserve">
<path style="fill:#E9686A;" d="M64.004,320.002c-0.442-0.002-0.884-0.039-1.32-0.112l-48-8c-4.358-0.728-7.3-4.852-6.572-9.21
	c0.225-1.346,0.791-2.613,1.644-3.678l27.92-34.896L1.86,221.13c-2.829-3.394-2.371-8.438,1.023-11.267
	c0.767-0.639,1.646-1.129,2.593-1.445L43.54,195.73L1.348,132.442c-2.453-3.674-1.464-8.642,2.211-11.096
	c0.279-0.186,0.569-0.355,0.869-0.504l48-24c3.954-1.975,8.761-0.37,10.736,3.584s0.37,8.761-3.584,10.736l0,0l-39.896,19.944
	l42.976,64.456c2.438,3.684,1.428,8.648-2.256,11.086c-0.581,0.385-1.211,0.692-1.872,0.914l-36.88,12.296l32.496,38.992
	c2.439,2.921,2.483,7.157,0.104,10.128l-23.48,29.376l32,5.328l45.656-22.88c3.954-1.975,8.761-0.37,10.736,3.584
	c1.975,3.954,0.37,8.761-3.584,10.736l0,0l-48,24C66.471,319.687,65.247,319.988,64.004,320.002z"/>
<path style="fill:#87CEE9;" d="M144.004,200.002h192c17.673,0,32,14.327,32,32v240l0,0h-256l0,0v-240
	C112.004,214.329,126.331,200.002,144.004,200.002z"/>
<g>
	<path style="fill:#2D75BB;" d="M168.004,152.002h32v48h-32V152.002z"/>
	<path style="fill:#2D75BB;" d="M280.004,152.002h32v48h-32V152.002z"/>
	<path style="fill:#2D75BB;" d="M192.004,424.002h96v48h-96V424.002z"/>
	<path style="fill:#2D75BB;" d="M160.004,232.002h32v32h-32V232.002z"/>
	<path style="fill:#2D75BB;" d="M224.004,232.002h32v32h-32V232.002z"/>
	<path style="fill:#2D75BB;" d="M288.004,232.002h32v32h-32V232.002z"/>
	<path style="fill:#2D75BB;" d="M160.004,296.002h32v32h-32V296.002z"/>
	<path style="fill:#2D75BB;" d="M224.004,296.002h32v32h-32V296.002z"/>
	<path style="fill:#2D75BB;" d="M288.004,296.002h32v32h-32V296.002z"/>
	<path style="fill:#2D75BB;" d="M160.004,360.002h32v32h-32V360.002z"/>
	<path style="fill:#2D75BB;" d="M224.004,360.002h32v32h-32V360.002z"/>
	<path style="fill:#2D75BB;" d="M288.004,360.002h32v32h-32V360.002z"/>
</g>
<path style="fill:#87CEE9;" d="M424.004,104.002h-368c0-35.346,28.654-64,64-64h240C395.35,40.002,424.004,68.656,424.004,104.002z"
	/>
<g>
	<path style="fill:#2D75BB;" d="M56.004,104.002h64l0,0v32c0,8.837-7.163,16-16,16h-32c-8.837,0-16-7.163-16-16V104.002
		L56.004,104.002z"/>
	<path style="fill:#2D75BB;" d="M360.004,104.002h64l0,0v32c0,8.837-7.163,16-16,16h-32c-8.837,0-16-7.163-16-16V104.002
		L360.004,104.002z"/>
</g>
<g>
	<path style="fill:#E9686A;" d="M56.004,40.002c-4.418,0-8-3.582-8-8c0-17.673,14.327-32,32-32c4.418,0,8,3.582,8,8s-3.582,8-8,8
		c-8.837,0-16,7.163-16,16C64.004,36.42,60.422,40.002,56.004,40.002z"/>
	<path style="fill:#E9686A;" d="M456.004,80.002c-4.418,0-8-3.582-8-8c0-13.255-10.745-24-24-24c-4.418,0-8-3.582-8-8s3.582-8,8-8
		c22.08,0.026,39.974,17.92,40,40C464.004,76.42,460.422,80.002,456.004,80.002z"/>
	<path style="fill:#E9686A;" d="M472.004,48.002c-4.418,0-8-3.582-8-8c0-13.255-10.745-24-24-24c-4.418,0-8-3.582-8-8s3.582-8,8-8
		c22.08,0.026,39.974,17.92,40,40C480.004,44.42,476.422,48.002,472.004,48.002z"/>
</g>
<g>
	<path style="fill:#FDBD40;" d="M480.004,200.002c0-4.418-3.582-8-8-8h-32c-4.418,0-8,3.582-8,8v57.472
		c-2.562-0.948-5.268-1.445-8-1.472c-13.255,0-24,10.745-24,24s10.745,24,24,24s24-10.745,24-24v-40.8
		C466.615,235.374,479.98,219.003,480.004,200.002z"/>
	<path style="fill:#FDBD40;" d="M72.004,368.002h-32c-4.418,0-8,3.582-8,8v57.472c-2.562-0.948-5.268-1.445-8-1.472
		c-13.255,0-24,10.745-24,24s10.745,24,24,24s24-10.745,24-24v-40.8c18.611-3.827,31.976-20.199,32-39.2
		C80.004,371.584,76.422,368.002,72.004,368.002z"/>
</g>
<g>
</g>
<g>
</g>
<g>
</g>
<g>
</g>
<g>
</g>
<g>
</g>
<g>
</g>
<g>
</g>
<g>
</g>
<g>
</g>
<g>
</g>
<g>
</g>
<g>
</g>
<g>
</g>
<g>
</g>
</svg>
