<?xml version="1.0" encoding="iso-8859-1"?>
<!-- Generator: Adobe Illustrator 19.0.0, SVG Export Plug-In . SVG Version: 6.00 Build 0)  -->
<svg version="1.1" id="Capa_1" xmlns="http://www.w3.org/2000/svg" xmlns:xlink="http://www.w3.org/1999/xlink" x="0px" y="0px"
	 viewBox="0 0 480.005 480.005" style="enable-background:new 0 0 480.005 480.005;" xml:space="preserve">
<path style="fill:#E9686A;" d="M64.005,320.002c-0.442-0.002-0.884-0.039-1.32-0.112l-48-8c-4.358-0.728-7.3-4.852-6.572-9.21
	c0.225-1.346,0.791-2.613,1.644-3.678l27.92-34.896L1.861,221.13c-2.829-3.394-2.371-8.438,1.023-11.267
	c0.767-0.639,1.646-1.129,2.593-1.445l38.064-12.688L1.349,132.442c-2.453-3.674-1.464-8.642,2.211-11.096
	c0.279-0.186,0.569-0.355,0.869-0.504l48-24c3.954-1.975,8.761-0.37,10.736,3.584s0.37,8.761-3.584,10.736l0,0l-39.896,19.944
	l42.976,64.456c2.438,3.684,1.428,8.648-2.256,11.086c-0.581,0.385-1.211,0.692-1.872,0.914l-36.88,12.296l32.496,38.992
	c2.439,2.921,2.483,7.157,0.104,10.128l-23.48,29.376l32,5.328l45.656-22.88c3.954-1.975,8.761-0.37,10.736,3.584
	c1.975,3.954,0.37,8.761-3.584,10.736l0,0l-48,24C66.472,319.687,65.248,319.988,64.005,320.002z"/>
<path style="fill:#87CEE9;" d="M144.005,200.002h192c17.673,0,32,14.327,32,32v240l0,0h-256l0,0v-240
	C112.005,214.329,126.331,200.002,144.005,200.002z"/>
<g>
	<path style="fill:#2D75BB;" d="M168.005,152.002h32v48h-32V152.002z"/>
	<path style="fill:#2D75BB;" d="M280.005,152.002h32v48h-32V152.002z"/>
	<path style="fill:#2D75BB;" d="M192.005,424.002h96v48h-96V424.002z"/>
	<path style="fill:#2D75BB;" d="M160.005,232.002h32v32h-32V232.002z"/>
	<path style="fill:#2D75BB;" d="M224.005,232.002h32v32h-32V232.002z"/>
	<path style="fill:#2D75BB;" d="M288.005,232.002h32v32h-32V232.002z"/>
	<path style="fill:#2D75BB;" d="M160.005,296.002h32v32h-32V296.002z"/>
	<path style="fill:#2D75BB;" d="M224.005,296.002h32v32h-32V296.002z"/>
	<path style="fill:#2D75BB;" d="M288.005,296.002h32v32h-32V296.002z"/>
	<path style="fill:#2D75BB;" d="M160.005,360.002h32v32h-32V360.002z"/>
	<path style="fill:#2D75BB;" d="M224.005,360.002h32v32h-32V360.002z"/>
	<path style="fill:#2D75BB;" d="M288.005,360.002h32v32h-32V360.002z"/>
</g>
<path style="fill:#87CEE9;" d="M424.005,104.002h-368c0-35.346,28.654-64,64-64h240C395.351,40.002,424.005,68.656,424.005,104.002z
	"/>
<g>
	<path style="fill:#2D75BB;" d="M56.005,104.002h64l0,0v32c0,8.837-7.163,16-16,16h-32c-8.837,0-16-7.163-16-16V104.002
		L56.005,104.002z"/>
	<path style="fill:#2D75BB;" d="M360.005,104.002h64l0,0v32c0,8.837-7.163,16-16,16h-32c-8.837,0-16-7.163-16-16V104.002
		L360.005,104.002z"/>
</g>
<g>
	<path style="fill:#E9686A;" d="M56.005,40.002c-4.418,0-8-3.582-8-8c0-17.673,14.327-32,32-32c4.418,0,8,3.582,8,8s-3.582,8-8,8
		c-8.837,0-16,7.163-16,16C64.005,36.421,60.423,40.002,56.005,40.002z"/>
	<path style="fill:#E9686A;" d="M456.005,80.002c-4.418,0-8-3.582-8-8c0-13.255-10.745-24-24-24c-4.418,0-8-3.582-8-8s3.582-8,8-8
		c22.08,0.026,39.974,17.92,40,40C464.005,76.421,460.423,80.002,456.005,80.002z"/>
	<path style="fill:#E9686A;" d="M472.005,48.002c-4.418,0-8-3.582-8-8c0-13.255-10.745-24-24-24c-4.418,0-8-3.582-8-8s3.582-8,8-8
		c22.08,0.026,39.974,17.92,40,40C480.005,44.421,476.423,48.002,472.005,48.002z"/>
</g>
<g>
	<path style="fill:#FDBD40;" d="M480.005,200.002c0-4.418-3.582-8-8-8h-32c-4.418,0-8,3.582-8,8v57.472
		c-2.562-0.948-5.268-1.445-8-1.472c-13.255,0-24,10.745-24,24s10.745,24,24,24s24-10.745,24-24v-40.8
		C466.616,235.375,479.981,219.003,480.005,200.002z"/>
	<path style="fill:#FDBD40;" d="M72.005,368.002h-32c-4.418,0-8,3.582-8,8v57.472c-2.562-0.948-5.268-1.445-8-1.472
		c-13.255,0-24,10.745-24,24s10.745,24,24,24s24-10.745,24-24v-40.8c18.611-3.827,31.976-20.199,32-39.2
		C80.005,371.584,76.423,368.002,72.005,368.002z"/>
</g>
<path d="M200.005,224.002h-48v48h48V224.002z M184.005,256.002h-16v-16h16V256.002z"/>
<path d="M264.005,224.002h-48v48h48V224.002z M248.005,256.002h-16v-16h16V256.002z"/>
<path d="M328.005,224.002h-48v48h48V224.002z M312.005,256.002h-16v-16h16V256.002z"/>
<path d="M200.005,288.002h-48v48h48V288.002z M184.005,320.002h-16v-16h16V320.002z"/>
<path d="M264.005,288.002h-48v48h48V288.002z M248.005,320.002h-16v-16h16V320.002z"/>
<path d="M328.005,288.002h-48v48h48V288.002z M312.005,320.002h-16v-16h16V320.002z"/>
<path d="M200.005,352.002h-48v48h48V352.002z M184.005,384.002h-16v-16h16V384.002z"/>
<path d="M264.005,352.002h-48v48h48V352.002z M248.005,384.002h-16v-16h16V384.002z"/>
<path d="M328.005,352.002h-48v48h48V352.002z M312.005,384.002h-16v-16h16V384.002z"/>
<path d="M376.005,160.002h32c13.255,0,24-10.745,24-24v-40h-0.472c-4.108-36.414-34.883-63.95-71.528-64h-240
	c-36.645,0.05-67.42,27.586-71.528,64h-0.472v3.056L4.429,120.842c-3.953,1.973-5.558,6.778-3.584,10.731
	c0.15,0.3,0.318,0.59,0.504,0.869l42.192,63.288L5.477,208.418c-4.192,1.397-6.457,5.927-5.061,10.119
	c0.316,0.947,0.806,1.826,1.445,2.593l35.816,42.976l-27.92,34.896c-2.76,3.45-2.201,8.484,1.25,11.245
	c1.066,0.853,2.332,1.418,3.678,1.643l48,8c0.436,0.073,0.878,0.11,1.32,0.112c1.238,0.011,2.461-0.263,3.576-0.8l36.424-18.256
	v171.056c0,4.418,3.582,8,8,8h256c4.418,0,8-3.582,8-8v-240c-0.026-22.08-17.92-39.974-40-40h-16v-48h-48v48h-64v-48h-48v48h-16
	c-22.08,0.026-39.974,17.92-40,40v51.056l-41.248,20.624l-32-5.328l23.48-29.352c2.379-2.971,2.335-7.207-0.104-10.128
	l-32.48-38.992l36.88-12.296c4.189-1.405,6.446-5.939,5.042-10.128c-0.222-0.661-0.529-1.29-0.914-1.872l-42.976-64.48l28.32-14.16
	v19.056c0,13.255,10.745,24,24,24c0,0,0,0,0,0h32c13.255,0,24-10.745,24-24v-24h224v24
	C352.005,149.257,362.75,160.002,376.005,160.002z M200.005,464.002v-32h80v32H200.005z M288.005,160.002h16v32h-16V160.002z
	 M176.005,160.002h16v32h-16V160.002z M120.005,232.002c0-13.255,10.745-24,24-24h192c13.255,0,24,10.745,24,24v232h-64v-48h-112v48
	h-64V232.002z M416.005,136.002c0,4.418-3.582,8-8,8h-32c-4.418,0-8-3.582-8-8v-24h48V136.002z M112.005,136.002
	c0,4.418-3.582,8-8,8h-32c-4.418,0-8-3.582-8-8v-24h48V136.002z M64.573,96.002c4.013-27.535,27.606-47.965,55.432-48h240
	c27.825,0.038,51.416,20.467,55.432,48H64.573z"/>
<path d="M64.005,32.002c0-8.837,7.163-16,16-16c4.418,0,8-3.582,8-8s-3.582-8-8-8c-17.673,0-32,14.327-32,32c0,4.418,3.582,8,8,8
	S64.005,36.421,64.005,32.002z"/>
<path d="M448.005,72.002c0,4.418,3.582,8,8,8s8-3.582,8-8c-0.026-22.08-17.92-39.974-40-40c-4.418,0-8,3.582-8,8s3.582,8,8,8
	C437.259,48.002,448.005,58.747,448.005,72.002z"/>
<path d="M440.005,0.002c-4.418,0-8,3.582-8,8s3.582,8,8,8c13.255,0,24,10.745,24,24c0,4.418,3.582,8,8,8s8-3.582,8-8
	C479.978,17.922,462.085,0.029,440.005,0.002z"/>
<path d="M472.005,192.002h-32c-4.418,0-8,3.582-8,8v57.472c-2.562-0.948-5.268-1.445-8-1.472c-13.255,0-24,10.745-24,24
	s10.745,24,24,24s24-10.745,24-24v-40.8c18.611-3.827,31.976-20.199,32-39.2C480.005,195.584,476.423,192.002,472.005,192.002z
	 M424.005,288.002c-4.418,0-8-3.582-8-8s3.582-8,8-8s8,3.582,8,8S428.423,288.002,424.005,288.002z M448.005,222.634v-14.632h14.632
	C460.204,214.83,454.832,220.202,448.005,222.634z"/>
<path d="M72.005,368.002h-32c-4.418,0-8,3.582-8,8v57.472c-2.562-0.948-5.268-1.445-8-1.472c-13.255,0-24,10.745-24,24
	s10.745,24,24,24s24-10.745,24-24v-40.8c18.611-3.827,31.976-20.199,32-39.2C80.005,371.584,76.423,368.002,72.005,368.002z
	 M24.005,464.002c-4.418,0-8-3.582-8-8s3.582-8,8-8s8,3.582,8,8S28.423,464.002,24.005,464.002z M48.005,398.634v-14.632h14.632
	C60.204,390.83,54.832,396.202,48.005,398.634z"/>
<g>
</g>
<g>
</g>
<g>
</g>
<g>
</g>
<g>
</g>
<g>
</g>
<g>
</g>
<g>
</g>
<g>
</g>
<g>
</g>
<g>
</g>
<g>
</g>
<g>
</g>
<g>
</g>
<g>
</g>
</svg>
