<?xml version="1.0" encoding="iso-8859-1"?>
<!-- Generator: Adobe Illustrator 19.0.0, SVG Export Plug-In . SVG Version: 6.00 Build 0)  -->
<svg xmlns="http://www.w3.org/2000/svg" xmlns:xlink="http://www.w3.org/1999/xlink" version="1.1" id="Capa_1" x="0px" y="0px" viewBox="0 0 469.336 469.336" style="enable-background:new 0 0 469.336 469.336;" xml:space="preserve">
<path style="fill:#303C42;" d="M462.752,0.825c-4-1.677-8.583-0.74-11.625,2.312l-448,447.989  c-3.052,3.052-3.969,7.635-2.313,11.625c1.646,3.99,5.542,6.583,9.854,6.583h448c5.896,0,10.667-4.771,10.667-10.666V10.679  C469.336,6.367,466.742,2.471,462.752,0.825z"/>
<polygon style="fill:#FFFFFF;" points="448.002,448.001 256.002,448.001 256.002,228.418 448.002,36.418 "/>
<polygon style="fill:#01579B;" points="128.002,448.001 36.419,448.001 128.002,356.418 "/>
<polygon style="fill:#0288D1;" points="234.669,448.001 149.336,448.001 149.336,335.085 234.669,249.751 "/>
<linearGradient id="SVGID_1_" gradientUnits="userSpaceOnUse" x1="-61.0909" y1="615.5096" x2="-42.9357" y2="607.043" gradientTransform="matrix(21.3333 0 0 -21.3333 1430.0873 13315.249)">
	<stop offset="0" style="stop-color:#FFFFFF;stop-opacity:0.2"/>
	<stop offset="1" style="stop-color:#FFFFFF;stop-opacity:0"/>
</linearGradient>
<path style="fill:url(#SVGID_1_);" d="M462.752,0.825c-4-1.677-8.583-0.74-11.625,2.312l-448,447.989  c-3.052,3.052-3.969,7.635-2.313,11.625c1.646,3.99,5.542,6.583,9.854,6.583h448c5.896,0,10.667-4.771,10.667-10.666V10.679  C469.336,6.367,466.742,2.471,462.752,0.825z"/>
<g>
</g>
<g>
</g>
<g>
</g>
<g>
</g>
<g>
</g>
<g>
</g>
<g>
</g>
<g>
</g>
<g>
</g>
<g>
</g>
<g>
</g>
<g>
</g>
<g>
</g>
<g>
</g>
<g>
</g>
</svg>
