<?xml version="1.0" encoding="iso-8859-1"?>
<!-- Generator: Adobe Illustrator 19.0.0, SVG Export Plug-In . SVG Version: 6.00 Build 0)  -->
<svg version="1.1" id="Capa_1" xmlns="http://www.w3.org/2000/svg" xmlns:xlink="http://www.w3.org/1999/xlink" x="0px" y="0px"
	 viewBox="0 0 480 480" style="enable-background:new 0 0 480 480;" xml:space="preserve">
<path style="fill:#7D8D9C;" d="M8,360V184c0-17.673,14.327-32,32-32h400c17.673,0,32,14.327,32,32v176c0,17.673-14.327,32-32,32H40
	C22.327,392,8,377.673,8,360z"/>
<circle style="fill:#FDBD40;" cx="56" cy="200" r="24"/>
<g>
	<path style="fill:#AABECE;" d="M56,272c-8.837,0-16-7.163-16-16c0-8.837,7.163-16,16-16s16,7.163,16,16
		C72,264.837,64.837,272,56,272z"/>
	<path style="fill:#AABECE;" d="M104,152h312v240H104V152z"/>
</g>
<g>
	<path style="fill:#2D75BB;" d="M136,160c-4.418,0-8-3.582-8-8c0-13.255-10.745-24-24-24c-4.418,0-8-3.582-8-8s3.582-8,8-8
		c13.255,0,24-10.745,24-24c0-4.418,3.582-8,8-8s8,3.582,8,8c0,13.255,10.745,24,24,24c4.418,0,8,3.582,8,8s-3.582,8-8,8
		c-13.255,0-24,10.745-24,24C144,156.418,140.418,160,136,160z M128,120c3.029,2.278,5.722,4.971,8,8c2.276-3.031,4.969-5.724,8-8
		c-3.031-2.276-5.724-4.969-8-8C133.722,115.029,131.029,117.722,128,120z"/>
	<path style="fill:#2D75BB;" d="M184,240c-4.418,0-8-3.582-8-8c0-17.673-14.327-32-32-32c-4.418,0-8-3.582-8-8s3.582-8,8-8
		c17.673,0,32-14.327,32-32c0-4.418,3.582-8,8-8s8,3.582,8,8c0,17.673,14.327,32,32,32c4.418,0,8,3.582,8,8s-3.582,8-8,8
		c-17.673,0-32,14.327-32,32C192,236.418,188.418,240,184,240z M170.504,192c5.348,3.557,9.936,8.142,13.496,13.488
		c3.56-5.344,8.144-9.928,13.488-13.488c-5.344-3.56-9.928-8.144-13.488-13.488C180.44,183.858,175.852,188.443,170.504,192z"/>
</g>
<path d="M440,144H145.472c3.378-9.555,12.394-15.958,22.528-16c4.418,0,8-3.582,8-8s-3.582-8-8-8c-13.255,0-24-10.745-24-24
	c0-4.418-3.582-8-8-8s-8,3.582-8,8c0,13.255-10.745,24-24,24c-4.418,0-8,3.582-8,8s3.582,8,8,8c10.134,0.042,19.15,6.445,22.528,16
	H40c-22.08,0.026-39.974,17.92-40,40v176c0.026,22.08,17.92,39.974,40,40h400c22.08-0.026,39.974-17.92,40-40V184
	C479.974,161.92,462.08,144.026,440,144z M136,112c2.276,3.031,4.969,5.724,8,8c-3.031,2.276-5.724,4.969-8,8
	c-2.278-3.029-4.971-5.722-8-8C131.029,117.722,133.722,115.029,136,112z M197.488,192c-5.344,3.56-9.928,8.144-13.488,13.488
	c-3.56-5.346-8.148-9.931-13.496-13.488c5.348-3.557,9.936-8.142,13.496-13.488C187.56,183.856,192.144,188.44,197.488,192z M16,360
	V184c0-13.255,10.745-24,24-24h56v224H40C26.745,384,16,373.255,16,360z M112,384V160h62.864c-3.637,14.085-16.317,23.945-30.864,24
	c-4.418,0-8,3.582-8,8s3.582,8,8,8c17.673,0,32,14.327,32,32c0,4.418,3.582,8,8,8s8-3.582,8-8c0-17.673,14.327-32,32-32
	c4.418,0,8-3.582,8-8s-3.582-8-8-8c-14.547-0.055-27.227-9.915-30.864-24H408v224H112z M464,360c0,13.255-10.745,24-24,24h-16V160
	h16c13.255,0,24,10.745,24,24V360z"/>
<path d="M56,176c-13.255,0-24,10.745-24,24c0,13.255,10.745,24,24,24s24-10.745,24-24C80,186.745,69.255,176,56,176z M56,208
	c-4.418,0-8-3.582-8-8s3.582-8,8-8s8,3.582,8,8S60.418,208,56,208z"/>
<circle cx="56" cy="256" r="16"/>
<g>
</g>
<g>
</g>
<g>
</g>
<g>
</g>
<g>
</g>
<g>
</g>
<g>
</g>
<g>
</g>
<g>
</g>
<g>
</g>
<g>
</g>
<g>
</g>
<g>
</g>
<g>
</g>
<g>
</g>
</svg>
