<?xml version="1.0" encoding="iso-8859-1"?>
<!-- Generator: Adobe Illustrator 19.0.0, SVG Export Plug-In . SVG Version: 6.00 Build 0)  -->
<svg version="1.1" id="Capa_1" xmlns="http://www.w3.org/2000/svg" xmlns:xlink="http://www.w3.org/1999/xlink" x="0px" y="0px"
	 viewBox="0 0 464 464" style="enable-background:new 0 0 464 464;" xml:space="preserve">
<path style="fill:#7D8D9C;" d="M0,356V180c0-17.673,14.327-32,32-32h400c17.673,0,32,14.327,32,32v176c0,17.673-14.327,32-32,32H32
	C14.327,388,0,373.673,0,356z"/>
<circle style="fill:#FDBD40;" cx="48" cy="196" r="24"/>
<g>
	<path style="fill:#AABECE;" d="M48,268c-8.837,0-16-7.163-16-16c0-8.837,7.163-16,16-16s16,7.163,16,16
		C64,260.837,56.837,268,48,268z"/>
	<path style="fill:#AABECE;" d="M96,148h312v240H96V148z"/>
</g>
<g>
	<path style="fill:#2D75BB;" d="M128,156c-4.418,0-8-3.582-8-8c0-13.255-10.745-24-24-24c-4.418,0-8-3.582-8-8s3.582-8,8-8
		c13.255,0,24-10.745,24-24c0-4.418,3.582-8,8-8s8,3.582,8,8c0,13.255,10.745,24,24,24c4.418,0,8,3.582,8,8s-3.582,8-8,8
		c-13.255,0-24,10.745-24,24C136,152.418,132.418,156,128,156z M120,116c3.029,2.278,5.722,4.971,8,8c2.276-3.031,4.969-5.724,8-8
		c-3.031-2.276-5.724-4.969-8-8C125.722,111.029,123.029,113.722,120,116z"/>
	<path style="fill:#2D75BB;" d="M176,236c-4.418,0-8-3.582-8-8c0-17.673-14.327-32-32-32c-4.418,0-8-3.582-8-8s3.582-8,8-8
		c17.673,0,32-14.327,32-32c0-4.418,3.582-8,8-8s8,3.582,8,8c0,17.673,14.327,32,32,32c4.418,0,8,3.582,8,8s-3.582,8-8,8
		c-17.673,0-32,14.327-32,32C184,232.418,180.418,236,176,236z M162.504,188c5.348,3.557,9.936,8.142,13.496,13.488
		c3.56-5.344,8.144-9.928,13.488-13.488c-5.344-3.56-9.928-8.144-13.488-13.488C172.44,179.858,167.852,184.443,162.504,188z"/>
</g>
<g>
</g>
<g>
</g>
<g>
</g>
<g>
</g>
<g>
</g>
<g>
</g>
<g>
</g>
<g>
</g>
<g>
</g>
<g>
</g>
<g>
</g>
<g>
</g>
<g>
</g>
<g>
</g>
<g>
</g>
</svg>
