<?xml version="1.0" encoding="iso-8859-1"?>
<!-- Generator: Adobe Illustrator 19.0.0, SVG Export Plug-In . SVG Version: 6.00 Build 0)  -->
<svg version="1.1" id="Capa_1" xmlns="http://www.w3.org/2000/svg" xmlns:xlink="http://www.w3.org/1999/xlink" x="0px" y="0px"
	 viewBox="0 0 480 480" style="enable-background:new 0 0 480 480;" xml:space="preserve">
<path style="fill:#394D5C;" d="M88,8h288l0,0v464l0,0H88c-17.673,0-32-14.327-32-32V40C56,22.327,70.327,8,88,8z"/>
<path style="fill:#7D8D9C;" d="M376,8h48c17.673,0,32,14.327,32,32v400c0,17.673-14.327,32-32,32h-48l0,0V8L376,8z"/>
<path style="fill:#87CEE9;" d="M232,80h16l0,0v320l0,0h-16c-35.346,0-64-28.654-64-64V144C168,108.654,196.654,80,232,80z"/>
<g>
	<path style="fill:#2D75BB;" d="M248,80h32c8.837,0,16,7.163,16,16v48c0,8.837-7.163,16-16,16h-32l0,0V80L248,80z"/>
	<path style="fill:#2D75BB;" d="M248,320h32c8.837,0,16,7.163,16,16v48c0,8.837-7.163,16-16,16h-32l0,0V320L248,320z"/>
</g>
<g>
	<path style="fill:#87CEE9;" d="M24,168h64v48H24V168z"/>
	<path style="fill:#87CEE9;" d="M24,72h64v48H24V72z"/>
	<path style="fill:#87CEE9;" d="M24,264h64v48H24V264z"/>
	<path style="fill:#87CEE9;" d="M24,360h64v48H24V360z"/>
</g>
<path style="fill:#FFF69A;" d="M416,480c-4.418,0-8-3.582-8-8V16c0-4.418,3.582-8,8-8s8,3.582,8,8v456
	C424,476.418,420.418,480,416,480z"/>
<path d="M88,0C65.92,0.026,48.026,17.92,48,40v24H16v64h32v32H16v64h32v32H16v64h32v32H16v64h32v24c0.026,22.08,17.92,39.974,40,40
	h336c22.08-0.026,39.974-17.92,40-40V40c-0.026-22.08-17.92-39.974-40-40H88z M32,80h48v32H32V80z M32,176h48v32H32V176z M32,272h48
	v32H32V272z M32,368h48v32H32V368z M368,464H88c-13.255,0-24-10.745-24-24v-24h32v-64H64v-32h32v-64H64v-32h32v-64H64v-32h32V64H64
	V40c0-13.255,10.745-24,24-24h280V464z M384,16h24v448h-24V16z M448,40v400c0,13.255-10.745,24-24,24V16
	C437.255,16,448,26.745,448,40z"/>
<path d="M232,408h48c13.255,0,24-10.745,24-24v-48c0-13.255-10.745-24-24-24h-24V168h24c13.255,0,24-10.745,24-24V96
	c0-13.255-10.745-24-24-24h-48c-39.746,0.044-71.956,32.254-72,72v192C160.044,375.746,192.254,407.956,232,408z M280,328
	c4.418,0,8,3.582,8,8v48c0,4.418-3.582,8-8,8h-24v-64H280z M256,88h24c4.418,0,8,3.582,8,8v48c0,4.418-3.582,8-8,8h-24V88z M176,144
	c0.04-30.911,25.089-55.96,56-56h8v304h-8c-30.911-0.04-55.96-25.089-56-56V144z"/>
<g>
</g>
<g>
</g>
<g>
</g>
<g>
</g>
<g>
</g>
<g>
</g>
<g>
</g>
<g>
</g>
<g>
</g>
<g>
</g>
<g>
</g>
<g>
</g>
<g>
</g>
<g>
</g>
<g>
</g>
</svg>
