<?xml version="1.0" encoding="iso-8859-1"?>
<!-- Generator: Adobe Illustrator 19.0.0, SVG Export Plug-In . SVG Version: 6.00 Build 0)  -->
<svg version="1.1" id="Capa_1" xmlns="http://www.w3.org/2000/svg" xmlns:xlink="http://www.w3.org/1999/xlink" x="0px" y="0px"
	 viewBox="0 0 472 472" style="enable-background:new 0 0 472 472;" xml:space="preserve">
<path style="fill:#394D5C;" d="M84,0h288l0,0v464l0,0H84c-17.673,0-32-14.327-32-32V32C52,14.327,66.327,0,84,0z"/>
<path style="fill:#7D8D9C;" d="M372,0h48c17.673,0,32,14.327,32,32v400c0,17.673-14.327,32-32,32h-48l0,0V0L372,0z"/>
<path style="fill:#87CEE9;" d="M228,72h16l0,0v320l0,0h-16c-35.346,0-64-28.654-64-64V136C164,100.654,192.654,72,228,72z"/>
<g>
	<path style="fill:#2D75BB;" d="M244,72h32c8.837,0,16,7.163,16,16v48c0,8.837-7.163,16-16,16h-32l0,0V72L244,72z"/>
	<path style="fill:#2D75BB;" d="M244,312h32c8.837,0,16,7.163,16,16v48c0,8.837-7.163,16-16,16h-32l0,0V312L244,312z"/>
</g>
<g>
	<path style="fill:#87CEE9;" d="M20,160h64v48H20V160z"/>
	<path style="fill:#87CEE9;" d="M20,64h64v48H20V64z"/>
	<path style="fill:#87CEE9;" d="M20,256h64v48H20V256z"/>
	<path style="fill:#87CEE9;" d="M20,352h64v48H20V352z"/>
</g>
<path style="fill:#FFF69A;" d="M412,472c-4.418,0-8-3.582-8-8V8c0-4.418,3.582-8,8-8s8,3.582,8,8v456
	C420,468.418,416.418,472,412,472z"/>
<g>
</g>
<g>
</g>
<g>
</g>
<g>
</g>
<g>
</g>
<g>
</g>
<g>
</g>
<g>
</g>
<g>
</g>
<g>
</g>
<g>
</g>
<g>
</g>
<g>
</g>
<g>
</g>
<g>
</g>
</svg>
