<?xml version="1.0" encoding="iso-8859-1"?>
<!-- Generator: Adobe Illustrator 19.0.0, SVG Export Plug-In . SVG Version: 6.00 Build 0)  -->
<svg xmlns="http://www.w3.org/2000/svg" xmlns:xlink="http://www.w3.org/1999/xlink" version="1.1" id="Capa_1" x="0px" y="0px" viewBox="0 0 469.336 469.336" style="enable-background:new 0 0 469.336 469.336;" xml:space="preserve">
<path style="fill:#303C42;" d="M458.669,469.335h-448c-4.313,0-8.208-2.594-9.854-6.583c-1.656-3.99-0.74-8.573,2.313-11.625  l448-447.989c3.052-3.052,7.635-3.989,11.625-2.312c3.99,1.646,6.583,5.542,6.583,9.854v447.989  C469.336,464.564,464.565,469.335,458.669,469.335z"/>
<polygon style="fill:#FAFAFA;" points="36.419,448.002 448.002,448.002 448.002,36.429 "/>
<linearGradient id="SVGID_1_" gradientUnits="userSpaceOnUse" x1="-61.091" y1="615.5096" x2="-42.9357" y2="607.043" gradientTransform="matrix(21.3333 0 0 -21.3333 1430.0874 13315.249)">
	<stop offset="0" style="stop-color:#FFFFFF;stop-opacity:0.2"/>
	<stop offset="1" style="stop-color:#FFFFFF;stop-opacity:0"/>
</linearGradient>
<path style="fill:url(#SVGID_1_);" d="M462.752,0.825c-3.99-1.677-8.573-0.74-11.625,2.313l-448,447.988  c-3.052,3.052-3.969,7.635-2.313,11.625c1.646,3.99,5.542,6.583,9.854,6.583h448c5.896,0,10.667-4.771,10.667-10.667V10.678  C469.336,6.367,466.742,2.471,462.752,0.825z"/>
<g>
</g>
<g>
</g>
<g>
</g>
<g>
</g>
<g>
</g>
<g>
</g>
<g>
</g>
<g>
</g>
<g>
</g>
<g>
</g>
<g>
</g>
<g>
</g>
<g>
</g>
<g>
</g>
<g>
</g>
</svg>
