<?xml version="1.0" encoding="iso-8859-1"?>
<!-- Generator: Adobe Illustrator 19.0.0, SVG Export Plug-In . SVG Version: 6.00 Build 0)  -->
<svg version="1.1" id="Capa_1" xmlns="http://www.w3.org/2000/svg" xmlns:xlink="http://www.w3.org/1999/xlink" x="0px" y="0px"
	 viewBox="0 0 472 472" style="enable-background:new 0 0 472 472;" xml:space="preserve">
<path style="fill:#87CEE9;" d="M144,0h48l0,0v464l0,0h-48c-35.346,0-64-28.654-64-64V64C80,28.654,108.654,0,144,0z"/>
<g>
	<path style="fill:#2D75BB;" d="M192,0h48c17.673,0,32,14.327,32,32v64c0,17.673-14.327,32-32,32h-48l0,0V0L192,0z"/>
	<path style="fill:#2D75BB;" d="M192,336h48c17.673,0,32,14.327,32,32v64c0,17.673-14.327,32-32,32h-48l0,0V336L192,336z"/>
</g>
<path style="fill:#E9686A;" d="M432,24L408,0l-72,72V16h-32v112h112V96h-56L432,24z"/>
<path style="fill:#FCF05A;" d="M80,472c-22.08-0.026-39.974-17.92-40-40h16c0,13.255,10.745,24,24,24V472z"/>
<g>
</g>
<g>
</g>
<g>
</g>
<g>
</g>
<g>
</g>
<g>
</g>
<g>
</g>
<g>
</g>
<g>
</g>
<g>
</g>
<g>
</g>
<g>
</g>
<g>
</g>
<g>
</g>
<g>
</g>
</svg>
