<?xml version="1.0" encoding="iso-8859-1"?>
<!-- Generator: Adobe Illustrator 19.0.0, SVG Export Plug-In . SVG Version: 6.00 Build 0)  -->
<svg version="1.1" id="Capa_1" xmlns="http://www.w3.org/2000/svg" xmlns:xlink="http://www.w3.org/1999/xlink" x="0px" y="0px"
	 viewBox="0 0 480 480" style="enable-background:new 0 0 480 480;" xml:space="preserve">
<path style="fill:#87CEE9;" d="M144.001,8h48l0,0v464l0,0h-48c-35.346,0-64-28.654-64-64V72C80.001,36.654,108.655,8,144.001,8z"/>
<g>
	<path style="fill:#2D75BB;" d="M192.001,8h48c17.673,0,32,14.327,32,32v64c0,17.673-14.327,32-32,32h-48l0,0V8L192.001,8z"/>
	<path style="fill:#2D75BB;" d="M192.001,344h48c17.673,0,32,14.327,32,32v64c0,17.673-14.327,32-32,32h-48l0,0V344L192.001,344z"/>
</g>
<path style="fill:#E9686A;" d="M432.001,32l-24-24l-72,72V24h-32v112h112v-32h-56L432.001,32z"/>
<path style="fill:#FCF05A;" d="M80.001,480c-22.08-0.026-39.974-17.92-40-40h16c0,13.255,10.745,24,24,24V480z"/>
<path d="M144.001,480h96c22.08-0.026,39.974-17.92,40-40v-64c-0.026-22.08-17.92-39.974-40-40h-40V144h40
	c22.08-0.026,39.974-17.92,40-40V40c-0.026-22.08-17.92-39.974-40-40h-96c-39.744,0.048-71.952,32.256-72,72v336
	C72.049,447.744,104.256,479.952,144.001,480z M240.001,352c13.255,0,24,10.745,24,24v64c0,13.255-10.745,24-24,24h-40V352H240.001z
	 M200.001,16h40c13.255,0,24,10.745,24,24v64c0,13.255-10.745,24-24,24h-40V16z M88.001,72c0.035-30.913,25.087-55.965,56-56h40v448
	h-40c-30.913-0.035-55.965-25.087-56-56V72z"/>
<path d="M413.657,2.344c-3.124-3.123-8.188-3.123-11.312,0l-58.344,58.344V24c0-4.418-3.582-8-8-8h-32c-4.418,0-8,3.582-8,8v112
	c0,4.418,3.582,8,8,8h112c4.418,0,8-3.582,8-8v-32c0-4.418-3.582-8-8-8h-36.688l58.344-58.344c3.123-3.124,3.123-8.188,0-11.312
	L413.657,2.344z M354.345,98.344c-3.124,3.125-3.123,8.19,0.002,11.314c1.5,1.499,3.534,2.342,5.654,2.342h48v16h-96V32h16v48
	c0.001,4.418,3.583,7.999,8.002,7.998c2.121,0,4.154-0.843,5.654-2.342l66.344-66.344L420.689,32L354.345,98.344z"/>
<path d="M80.001,480v-16c-13.255,0-24-10.745-24-24h-16C40.027,462.08,57.92,479.974,80.001,480z"/>
<g>
</g>
<g>
</g>
<g>
</g>
<g>
</g>
<g>
</g>
<g>
</g>
<g>
</g>
<g>
</g>
<g>
</g>
<g>
</g>
<g>
</g>
<g>
</g>
<g>
</g>
<g>
</g>
<g>
</g>
</svg>
