<?xml version="1.0" encoding="iso-8859-1"?>
<!-- Generator: Adobe Illustrator 19.0.0, SVG Export Plug-In . SVG Version: 6.00 Build 0)  -->
<svg version="1.1" id="Capa_1" xmlns="http://www.w3.org/2000/svg" xmlns:xlink="http://www.w3.org/1999/xlink" x="0px" y="0px"
	 viewBox="0 0 464 464" style="enable-background:new 0 0 464 464;" xml:space="preserve">
<path style="fill:#7D8D9C;" d="M43.951,0h176c17.673,0,32,14.327,32,32v400c0,17.673-14.327,32-32,32h-176
	c-17.673,0-32-14.327-32-32V32C11.951,14.327,26.278,0,43.951,0z"/>
<path style="fill:#87CEE9;" d="M11.951,72h240v328h-240V72z"/>
<g>
	<path style="fill:#AABECE;" d="M75.951,32h80v16h-80V32z"/>
	<path style="fill:#AABECE;" d="M171.951,32h16v16h-16V32z"/>
	<circle style="fill:#AABECE;" cx="131.951" cy="432" r="32"/>
</g>
<g>
	<path style="fill:#2D75BB;" d="M123.951,144c-2.122,0-4.156-0.844-5.656-2.344l-64-64c-3.069-3.178-2.981-8.243,0.197-11.312
		c3.1-2.994,8.015-2.994,11.115,0l64,64c3.124,3.125,3.123,8.19-0.002,11.314C128.105,143.157,126.072,144,123.951,144L123.951,144z
		"/>
	<path style="fill:#2D75BB;" d="M107.951,176c-2.122,0-4.156-0.844-5.656-2.344l-96-96c-3.069-3.178-2.981-8.243,0.197-11.312
		c3.1-2.994,8.015-2.994,11.115,0l96,96c3.124,3.125,3.123,8.19-0.002,11.314C112.105,175.157,110.072,176,107.951,176L107.951,176z
		"/>
	<path style="fill:#2D75BB;" d="M459.951,360h-240V256l32-48h176l32,48V360z"/>
	<path style="fill:#2D75BB;" d="M235.951,128h208c8.837,0,16,7.163,16,16v32l0,0h-240l0,0v-32
		C219.951,135.163,227.114,128,235.951,128z"/>
</g>
<g>
	<path style="fill:#87CEE9;" d="M291.951,176h16v32h-16V176z"/>
	<path style="fill:#87CEE9;" d="M371.951,176h16v32h-16V176z"/>
</g>
<circle style="fill:#FCF05A;" cx="339.951" cy="288" r="40"/>
<g>
	<path style="fill:#7D8D9C;" d="M219.951,176h48v32h-48V176z"/>
	<path style="fill:#7D8D9C;" d="M411.951,176h48v32h-48V176z"/>
</g>
<g>
</g>
<g>
</g>
<g>
</g>
<g>
</g>
<g>
</g>
<g>
</g>
<g>
</g>
<g>
</g>
<g>
</g>
<g>
</g>
<g>
</g>
<g>
</g>
<g>
</g>
<g>
</g>
<g>
</g>
</svg>
