<?xml version="1.0" encoding="iso-8859-1"?>
<!-- Generator: Adobe Illustrator 19.0.0, SVG Export Plug-In . SVG Version: 6.00 Build 0)  -->
<svg version="1.1" id="Capa_1" xmlns="http://www.w3.org/2000/svg" xmlns:xlink="http://www.w3.org/1999/xlink" x="0px" y="0px"
	 viewBox="0 0 480 480" style="enable-background:new 0 0 480 480;" xml:space="preserve">
<path style="fill:#7D8D9C;" d="M48,8h176c17.673,0,32,14.327,32,32v400c0,17.673-14.327,32-32,32H48c-17.673,0-32-14.327-32-32V40
	C16,22.327,30.327,8,48,8z"/>
<path style="fill:#87CEE9;" d="M16,80h240v328H16V80z"/>
<g>
	<path style="fill:#AABECE;" d="M80,40h80v16H80V40z"/>
	<path style="fill:#AABECE;" d="M176,40h16v16h-16V40z"/>
	<circle style="fill:#AABECE;" cx="136" cy="440" r="32"/>
</g>
<g>
	<path style="fill:#2D75BB;" d="M128,152c-2.122,0-4.156-0.844-5.656-2.344l-64-64c-3.069-3.178-2.981-8.243,0.197-11.312
		c3.1-2.994,8.015-2.994,11.115,0l64,64c3.124,3.125,3.123,8.19-0.002,11.314C132.154,151.157,130.121,152,128,152L128,152z"/>
	<path style="fill:#2D75BB;" d="M112,184c-2.122,0-4.156-0.844-5.656-2.344l-96-96c-3.069-3.178-2.981-8.243,0.197-11.312
		c3.1-2.994,8.015-2.994,11.115,0l96,96c3.124,3.125,3.123,8.19-0.002,11.314C116.154,183.157,114.121,184,112,184L112,184z"/>
	<path style="fill:#2D75BB;" d="M464,368H224V264l32-48h176l32,48V368z"/>
	<path style="fill:#2D75BB;" d="M240,136h208c8.837,0,16,7.163,16,16v32l0,0H224l0,0v-32C224,143.163,231.163,136,240,136z"/>
</g>
<g>
	<path style="fill:#87CEE9;" d="M296,184h16v32h-16V184z"/>
	<path style="fill:#87CEE9;" d="M376,184h16v32h-16V184z"/>
</g>
<circle style="fill:#FCF05A;" cx="344" cy="296" r="40"/>
<g>
	<path style="fill:#7D8D9C;" d="M224,184h48v32h-48V184z"/>
	<path style="fill:#7D8D9C;" d="M416,184h48v32h-48V184z"/>
</g>
<path d="M80,40h80v16H80V40z"/>
<path d="M176,40h16v16h-16V40z"/>
<path d="M448,128H264V40c-0.026-22.08-17.92-39.974-40-40H48C25.92,0.026,8.026,17.92,8,40v400c0.026,22.08,17.92,39.974,40,40h176
	c22.08-0.026,39.974-17.92,40-40v-64h208V261.6L446.944,224H472v-72C472,138.745,461.255,128,448,128z M48,16h176
	c13.255,0,24,10.745,24,24v32H24V40C24,26.745,34.745,16,48,16z M24,440v-24h80.208c-10.941,14.13-10.941,33.87,0,48H48
	C34.745,464,24,453.255,24,440z M160,440c0,13.255-10.745,24-24,24s-24-10.745-24-24s10.745-24,24-24S160,426.745,160,440z M248,440
	c0,13.255-10.745,24-24,24h-56.208c10.941-14.13,10.941-33.87,0-48H248V440z M248,400H24V99.312l82.344,82.344
	c3.178,3.069,8.243,2.981,11.312-0.197c2.994-3.1,2.994-8.015,0-11.115L35.312,88h25.376l61.656,61.656
	c3.178,3.069,8.243,2.981,11.312-0.197c2.994-3.1,2.994-8.015,0-11.115L83.312,88H248v40h-8c-13.255,0-24,10.745-24,24v72h25.056
	L216,261.6V376h32V400z M408,192v16h-16v-16H408z M376,208h-64v-16h64V208z M296,208h-16v-16h16V208z M264,208h-32v-16h32V208z
	 M456,266.4V360H232v-93.6l28.28-42.4h167.44L456,266.4z M456,208h-32v-16h32V208z M232,176v-24c0-4.418,3.582-8,8-8h208
	c4.418,0,8,3.582,8,8v24H232z"/>
<path d="M344,248c-26.51,0-48,21.49-48,48s21.49,48,48,48s48-21.49,48-48C391.974,269.501,370.499,248.026,344,248z M344,328
	c-17.673,0-32-14.327-32-32s14.327-32,32-32s32,14.327,32,32S361.673,328,344,328z"/>
<g>
</g>
<g>
</g>
<g>
</g>
<g>
</g>
<g>
</g>
<g>
</g>
<g>
</g>
<g>
</g>
<g>
</g>
<g>
</g>
<g>
</g>
<g>
</g>
<g>
</g>
<g>
</g>
<g>
</g>
</svg>
