<?xml version="1.0" encoding="iso-8859-1"?>
<!-- Generator: Adobe Illustrator 19.0.0, SVG Export Plug-In . SVG Version: 6.00 Build 0)  -->
<svg version="1.1" id="Capa_1" xmlns="http://www.w3.org/2000/svg" xmlns:xlink="http://www.w3.org/1999/xlink" x="0px" y="0px"
	 viewBox="0 0 464 464" style="enable-background:new 0 0 464 464;" xml:space="preserve">
<path style="fill:#7D8D9C;" d="M144,0h176c17.673,0,32,14.327,32,32v400c0,17.673-14.327,32-32,32H144c-17.673,0-32-14.327-32-32V32
	C112,14.327,126.327,0,144,0z"/>
<path style="fill:#87CEE9;" d="M112,72h240v328H112V72z"/>
<g>
	<path style="fill:#AABECE;" d="M176,32h112v16H176V32z"/>
	<path style="fill:#AABECE;" d="M216,424h32v16h-32V424z"/>
</g>
<g>
	<path style="fill:#E9686A;" d="M136,96h32v16h-32V96z"/>
	<path style="fill:#E9686A;" d="M184,96h32v16h-32V96z"/>
	<path style="fill:#E9686A;" d="M248,128h16v16h-16V128z"/>
	<path style="fill:#E9686A;" d="M280,112h16v32h-16V112z"/>
	<path style="fill:#E9686A;" d="M312,96h16v48h-16V96z"/>
</g>
<path style="fill:#2D75BB;" d="M224,184h16l0,0v160l0,0h-16c-17.673,0-32-14.327-32-32v-96C192,198.327,206.327,184,224,184z"/>
<g>
	<path style="fill:#394D5C;" d="M240,184h32v48h-32V184z"/>
	<path style="fill:#394D5C;" d="M240,296h32v48h-32V296z"/>
</g>
<g>
	<path style="fill:#FDBD40;" d="M387.152,277.656l-11.312-11.312c18.929-18.984,18.929-49.704,0-68.688l11.312-11.312
		C412.318,211.579,412.318,252.421,387.152,277.656z"/>
	<path style="fill:#FDBD40;" d="M411.152,301.656l-11.312-11.312c32.169-32.245,32.169-84.443,0-116.688l11.312-11.312
		C449.558,200.84,449.558,263.16,411.152,301.656z"/>
	<path style="fill:#FDBD40;" d="M76.848,277.656c-25.166-25.235-25.166-66.077,0-91.312l11.312,11.312
		c-18.929,18.984-18.929,49.704,0,68.688L76.848,277.656z"/>
	<path style="fill:#FDBD40;" d="M52.848,301.656c-38.406-38.496-38.406-100.816,0-139.312l11.312,11.312
		c-32.16,32.248-32.16,84.44,0,116.688L52.848,301.656z"/>
</g>
<g>
</g>
<g>
</g>
<g>
</g>
<g>
</g>
<g>
</g>
<g>
</g>
<g>
</g>
<g>
</g>
<g>
</g>
<g>
</g>
<g>
</g>
<g>
</g>
<g>
</g>
<g>
</g>
<g>
</g>
</svg>
