<?xml version="1.0" encoding="iso-8859-1"?>
<!-- Generator: Adobe Illustrator 19.0.0, SVG Export Plug-In . SVG Version: 6.00 Build 0)  -->
<svg xmlns="http://www.w3.org/2000/svg" xmlns:xlink="http://www.w3.org/1999/xlink" version="1.1" id="Capa_1" x="0px" y="0px" viewBox="0 0 512 512" style="enable-background:new 0 0 512 512;" xml:space="preserve">
<g>
	<path style="fill:#303C42;" d="M256,0c-4.521,0-8.563,2.865-10.063,7.135s-0.146,9.031,3.396,11.865l53.333,42.667   c4.625,3.677,11.313,2.948,15-1.667c3.666-4.604,2.938-11.313-1.667-15l-26.646-21.302C403.021,39.948,490.667,137.927,490.667,256   c0,5.896,4.771,10.667,10.667,10.667S512,261.896,512,256C512,114.844,397.167,0,256,0z"/>
	<path style="fill:#303C42;" d="M209.333,450.333c-4.604-3.646-11.312-2.938-15,1.667c-3.667,4.604-2.938,11.313,1.666,15   l26.646,21.302C108.979,472.052,21.333,374.073,21.333,256c0-5.896-4.771-10.667-10.667-10.667S0,250.104,0,256   c0,141.156,114.833,256,256,256c4.521,0,8.563-2.865,10.063-7.135s0.146-9.031-3.396-11.865L209.333,450.333z"/>
	<path style="fill:#303C42;" d="M214.646,30.719c-12.083-12.104-33.229-12.094-45.271-0.01L30.708,169.375   c-6.042,6.042-9.375,14.083-9.375,22.625c0,8.542,3.333,16.583,9.375,22.625l266.646,266.656   c6.042,6.052,14.083,9.385,22.646,9.385s16.604-3.333,22.625-9.375l138.667-138.667c6.042-6.042,9.375-14.083,9.375-22.625   c0-8.542-3.333-16.583-9.375-22.625L214.646,30.719z"/>
</g>
<g>
	<path id="SVGCleanerId_0" style="fill:#5C6671;" d="M42.667,192c0-2.844,1.104-5.521,3.125-7.542L184.479,45.781   c2-2.01,4.667-3.115,7.521-3.115c2.854,0,5.521,1.104,7.542,3.125l232.464,232.464l-153.75,153.75L45.792,199.542   C43.771,197.521,42.667,194.844,42.667,192z"/>
</g>
<g>
	
		<linearGradient id="SVGCleanerId_0_3_" gradientUnits="userSpaceOnUse" x1="-43.9386" y1="639.2355" x2="-27.3564" y2="631.5034" gradientTransform="matrix(21.3333 0 0 -21.3333 996.3334 13791.667)">
		<stop offset="0" style="stop-color:#FFFFFF;stop-opacity:0.2"/>
		<stop offset="1" style="stop-color:#FFFFFF;stop-opacity:0"/>
	</linearGradient>
	<path id="SVGCleanerId_0_1_" style="fill:url(#SVGCleanerId_0_3_);" d="M42.667,192c0-2.844,1.104-5.521,3.125-7.542   L184.479,45.781c2-2.01,4.667-3.115,7.521-3.115c2.854,0,5.521,1.104,7.542,3.125l232.464,232.464l-153.75,153.75L45.792,199.542   C43.771,197.521,42.667,194.844,42.667,192z"/>
</g>
<g>
	
		<linearGradient id="SVGCleanerId_0_4_" gradientUnits="userSpaceOnUse" x1="-41.3066" y1="641.0879" x2="-30.0564" y2="629.8376" gradientTransform="matrix(21.3333 0 0 -21.3333 996.3334 13791.667)">
		<stop offset="0" style="stop-color:#FFFFFF;stop-opacity:0.2"/>
		<stop offset="1" style="stop-color:#FFFFFF;stop-opacity:0"/>
	</linearGradient>
	<path id="SVGCleanerId_0_2_" style="fill:url(#SVGCleanerId_0_4_);" d="M42.667,192c0-2.844,1.104-5.521,3.125-7.542   L184.479,45.781c2-2.01,4.667-3.115,7.521-3.115c2.854,0,5.521,1.104,7.542,3.125l232.464,232.464l-153.75,153.75L45.792,199.542   C43.771,197.521,42.667,194.844,42.667,192z"/>
</g>
<path style="fill:#F2F2F2;" d="M387.125,365.792l-21.333,21.333c-4.167,4.167-4.167,10.917,0,15.083  c2.083,2.083,4.813,3.125,7.542,3.125s5.458-1.042,7.542-3.125l21.333-21.333c4.167-4.167,4.167-10.917,0-15.083  C398.042,361.625,391.292,361.625,387.125,365.792z"/>
<g>
	<path style="fill:#303C42;" d="M131.125,109.792l-21.333,21.333c-4.167,4.167-4.167,10.917,0,15.083   c2.083,2.083,4.813,3.125,7.542,3.125s5.458-1.042,7.542-3.125l21.333-21.333c4.167-4.167,4.167-10.917,0-15.083   C142.042,105.625,135.292,105.625,131.125,109.792z"/>
	<circle style="fill:#303C42;" cx="192" cy="64" r="10.667"/>
</g>
<linearGradient id="SVGID_1_" gradientUnits="userSpaceOnUse" x1="-45.0153" y1="639.2935" x2="-24.391" y2="629.6753" gradientTransform="matrix(21.3333 0 0 -21.3333 996.3334 13791.667)">
	<stop offset="0" style="stop-color:#FFFFFF;stop-opacity:0.2"/>
	<stop offset="1" style="stop-color:#FFFFFF;stop-opacity:0"/>
</linearGradient>
<path style="fill:url(#SVGID_1_);" d="M256,0c-4.521,0-8.563,2.865-10.063,7.135s-0.146,9.031,3.396,11.865l53.333,42.667  c4.625,3.677,11.313,2.948,15-1.667c3.666-4.604,2.938-11.313-1.667-15l-26.646-21.302C403.021,39.948,490.667,137.927,490.667,256  c0,5.896,4.771,10.667,10.667,10.667S512,261.896,512,256C512,114.844,397.167,0,256,0z M209.333,450.333  c-4.604-3.646-11.312-2.938-15,1.667c-3.667,4.604-2.938,11.313,1.666,15l26.646,21.302C108.979,472.052,21.333,374.073,21.333,256  c0-5.896-4.771-10.667-10.667-10.667S0,250.104,0,256c0,141.156,114.833,256,256,256c4.521,0,8.563-2.865,10.063-7.135  s0.146-9.031-3.396-11.865L209.333,450.333z M214.646,30.719c-12.083-12.104-33.229-12.094-45.271-0.01L30.708,169.375  c-6.042,6.042-9.375,14.083-9.375,22.625c0,8.542,3.333,16.583,9.375,22.625l266.646,266.656c6.042,6.052,14.083,9.385,22.646,9.385  s16.604-3.333,22.625-9.375l138.667-138.667c6.042-6.042,9.375-14.083,9.375-22.625c0-8.542-3.333-16.583-9.375-22.625  L214.646,30.719z"/>
<g>
</g>
<g>
</g>
<g>
</g>
<g>
</g>
<g>
</g>
<g>
</g>
<g>
</g>
<g>
</g>
<g>
</g>
<g>
</g>
<g>
</g>
<g>
</g>
<g>
</g>
<g>
</g>
<g>
</g>
</svg>
