<?xml version="1.0" encoding="iso-8859-1"?>
<!-- Generator: Adobe Illustrator 19.0.0, SVG Export Plug-In . SVG Version: 6.00 Build 0)  -->
<svg version="1.1" id="Capa_1" xmlns="http://www.w3.org/2000/svg" xmlns:xlink="http://www.w3.org/1999/xlink" x="0px" y="0px"
	 viewBox="0 0 480 480" style="enable-background:new 0 0 480 480;" xml:space="preserve">
<path style="fill:#7D8D9C;" d="M152,8h176c17.673,0,32,14.327,32,32v400c0,17.673-14.327,32-32,32H152c-17.673,0-32-14.327-32-32V40
	C120,22.327,134.327,8,152,8z"/>
<path style="fill:#87CEE9;" d="M120,80h240v328H120V80z"/>
<g>
	<path style="fill:#AABECE;" d="M184,40h112v16H184V40z"/>
	<path style="fill:#AABECE;" d="M224,432h32v16h-32V432z"/>
</g>
<g>
	<g>
		<path id="SVGCleanerId_0" style="fill:#E9686A;" d="M144,104h32v16h-32V104z"/>
	</g>
	<g>
		<path id="SVGCleanerId_1" style="fill:#E9686A;" d="M192,104h32v16h-32V104z"/>
	</g>
	<g>
		<path id="SVGCleanerId_2" style="fill:#E9686A;" d="M256,136h16v16h-16V136z"/>
	</g>
	<g>
		<path id="SVGCleanerId_3" style="fill:#E9686A;" d="M288,120h16v32h-16V120z"/>
	</g>
	<g>
		<path id="SVGCleanerId_4" style="fill:#E9686A;" d="M320,104h16v48h-16V104z"/>
	</g>
</g>
<path style="fill:#2D75BB;" d="M232,192h16l0,0v160l0,0h-16c-17.673,0-32-14.327-32-32v-96C200,206.327,214.327,192,232,192z"/>
<g>
	<path style="fill:#394D5C;" d="M248,192h32v48h-32V192z"/>
	<path style="fill:#394D5C;" d="M248,304h32v48h-32V304z"/>
</g>
<g>
	<path style="fill:#FDBD40;" d="M395.152,285.656l-11.312-11.312c18.929-18.984,18.929-49.704,0-68.688l11.312-11.312
		C420.318,219.579,420.318,260.421,395.152,285.656z"/>
	<path style="fill:#FDBD40;" d="M419.152,309.656l-11.312-11.312c32.169-32.245,32.169-84.443,0-116.688l11.312-11.312
		C457.558,208.84,457.558,271.16,419.152,309.656z"/>
	<path style="fill:#FDBD40;" d="M84.848,285.656c-25.166-25.235-25.166-66.077,0-91.312l11.312,11.312
		c-18.929,18.984-18.929,49.704,0,68.688L84.848,285.656z"/>
	<path style="fill:#FDBD40;" d="M60.848,309.656c-38.406-38.496-38.406-100.816,0-139.312l11.312,11.312
		c-32.16,32.248-32.16,84.44,0,116.688L60.848,309.656z"/>
</g>
<path d="M368,40c-0.026-22.08-17.92-39.974-40-40H152c-22.08,0.026-39.974,17.92-40,40v400c0.026,22.08,17.92,39.974,40,40h176
	c22.08-0.026,39.974-17.92,40-40V40z M352,400H128V88h224V400z M128,40c0-13.255,10.745-24,24-24h176c13.255,0,24,10.745,24,24v32
	H128V40z M328,464H152c-13.255,0-24-10.745-24-24v-24h224v24C352,453.255,341.255,464,328,464z"/>
<path d="M184,40h112v16H184V40z"/>
<path d="M224,432h32v16h-32V432z"/>
<path id="SVGCleanerId_0_1_" d="M144,104h32v16h-32V104z"/>
<path id="SVGCleanerId_1_1_" d="M192,104h32v16h-32V104z"/>
<path id="SVGCleanerId_2_1_" d="M256,136h16v16h-16V136z"/>
<path id="SVGCleanerId_3_1_" d="M288,120h16v32h-16V120z"/>
<path id="SVGCleanerId_4_1_" d="M320,104h16v48h-16V104z"/>
<path d="M232,360h56v-64h-32v-48h32v-64h-56c-22.08,0.026-39.974,17.92-40,40v96C192.026,342.08,209.92,359.974,232,360z M272,312
	v32h-16v-32H272z M256,200h16v32h-16V200z M208,224c0-13.255,10.745-24,24-24h8v144h-8c-13.255,0-24-10.745-24-24V224z"/>
<path d="M383.84,205.656c18.929,18.984,18.929,49.704,0,68.688l11.312,11.312c25.166-25.235,25.166-66.077,0-91.312L383.84,205.656z
	"/>
<path d="M419.152,170.344l-11.312,11.312c32.169,32.245,32.169,84.443,0,116.688l11.312,11.312
	C457.558,271.16,457.558,208.84,419.152,170.344L419.152,170.344z"/>
<path d="M84.848,285.656l11.312-11.312c-18.929-18.984-18.929-49.704,0-68.688l-11.312-11.312
	C59.682,219.579,59.682,260.421,84.848,285.656z"/>
<path d="M60.848,309.656l11.312-11.312c-32.16-32.248-32.16-84.44,0-116.688l-11.312-11.312
	C22.442,208.84,22.442,271.16,60.848,309.656z"/>
<g>
</g>
<g>
</g>
<g>
</g>
<g>
</g>
<g>
</g>
<g>
</g>
<g>
</g>
<g>
</g>
<g>
</g>
<g>
</g>
<g>
</g>
<g>
</g>
<g>
</g>
<g>
</g>
<g>
</g>
</svg>
