<?xml version="1.0" encoding="iso-8859-1"?>
<!-- Generator: Adobe Illustrator 19.0.0, SVG Export Plug-In . SVG Version: 6.00 Build 0)  -->
<svg version="1.1" id="Capa_1" xmlns="http://www.w3.org/2000/svg" xmlns:xlink="http://www.w3.org/1999/xlink" x="0px" y="0px"
	 viewBox="0 0 480 480" style="enable-background:new 0 0 480 480;" xml:space="preserve">
<path style="fill:#87CEE9;" d="M237.254,8h48l0,0v464l0,0h-48c-35.346,0-64-28.654-64-64V72C173.254,36.654,201.907,8,237.254,8z"/>
<g>
	<path style="fill:#2D75BB;" d="M285.254,8h48c17.673,0,32,14.327,32,32v64c0,17.673-14.327,32-32,32h-48l0,0V8L285.254,8z"/>
	<path style="fill:#2D75BB;" d="M285.254,344h48c17.673,0,32,14.327,32,32v64c0,17.673-14.327,32-32,32h-48l0,0V344L285.254,344z"/>
</g>
<g>
	<path style="fill:#FCF05A;" d="M368.406,285.656l-11.32-11.312c18.942-18.978,18.942-49.71,0-68.688l11.32-11.312
		C393.572,219.579,393.572,260.421,368.406,285.656z"/>
	<path style="fill:#FCF05A;" d="M392.406,309.656l-11.32-11.312c32.169-32.245,32.169-84.443,0-116.688l11.32-11.312
		C430.808,208.842,430.808,271.158,392.406,309.656z"/>
	<path style="fill:#FCF05A;" d="M111.598,285.656c-25.175-25.232-25.175-66.08,0-91.312l11.312,11.312
		c-18.938,18.98-18.938,49.708,0,68.688L111.598,285.656z"/>
	<path style="fill:#FCF05A;" d="M87.598,309.656c-38.406-38.496-38.406-100.816,0-139.312l11.312,11.312
		c-32.169,32.245-32.169,84.443,0,116.688L87.598,309.656z"/>
</g>
<path d="M237.254,480h96c22.08-0.026,39.974-17.92,40-40v-64c-0.026-22.08-17.92-39.974-40-40h-40V144h40
	c22.08-0.026,39.974-17.92,40-40V40c-0.026-22.08-17.92-39.974-40-40h-96c-39.744,0.048-71.952,32.256-72,72v336
	C165.302,447.744,197.509,479.952,237.254,480z M333.254,352c13.255,0,24,10.745,24,24v64c0,13.255-10.745,24-24,24h-40V352H333.254
	z M293.254,16h40c13.255,0,24,10.745,24,24v64c0,13.255-10.745,24-24,24h-40V16z M181.254,72c0.035-30.913,25.087-55.965,56-56h40
	v448h-40c-30.913-0.035-55.965-25.087-56-56V72z"/>
<path d="M368.406,285.656c25.166-25.235,25.166-66.077,0-91.312l-11.32,11.312c18.942,18.978,18.942,49.71,0,68.688L368.406,285.656
	z"/>
<path d="M381.086,298.344l11.32,11.312c38.402-38.498,38.402-100.814,0-139.312l-11.32,11.312
	C413.255,213.901,413.255,266.099,381.086,298.344z"/>
<path d="M111.598,285.656l11.312-11.312c-18.938-18.98-18.938-49.708,0-68.688l-11.312-11.312
	C86.423,219.576,86.423,260.424,111.598,285.656z"/>
<path d="M98.91,298.344c-32.169-32.245-32.169-84.443,0-116.688l-11.312-11.312c-38.406,38.496-38.406,100.816,0,139.312
	L98.91,298.344z"/>
<g>
</g>
<g>
</g>
<g>
</g>
<g>
</g>
<g>
</g>
<g>
</g>
<g>
</g>
<g>
</g>
<g>
</g>
<g>
</g>
<g>
</g>
<g>
</g>
<g>
</g>
<g>
</g>
<g>
</g>
</svg>
