<?xml version="1.0" encoding="iso-8859-1"?>
<!-- Generator: Adobe Illustrator 19.0.0, SVG Export Plug-In . SVG Version: 6.00 Build 0)  -->
<svg version="1.1" id="Capa_1" xmlns="http://www.w3.org/2000/svg" xmlns:xlink="http://www.w3.org/1999/xlink" x="0px" y="0px"
	 viewBox="0 0 464 464" style="enable-background:new 0 0 464 464;" xml:space="preserve">
<path style="fill:#87CEE9;" d="M229.254,0h48l0,0v464l0,0h-48c-35.346,0-64-28.654-64-64V64C165.254,28.654,193.907,0,229.254,0z"/>
<g>
	<path style="fill:#2D75BB;" d="M277.254,0h48c17.673,0,32,14.327,32,32v64c0,17.673-14.327,32-32,32h-48l0,0V0L277.254,0z"/>
	<path style="fill:#2D75BB;" d="M277.254,336h48c17.673,0,32,14.327,32,32v64c0,17.673-14.327,32-32,32h-48l0,0V336L277.254,336z"/>
</g>
<g>
	<path style="fill:#FCF05A;" d="M360.406,277.656l-11.32-11.312c18.942-18.978,18.942-49.71,0-68.688l11.32-11.312
		C385.572,211.579,385.572,252.421,360.406,277.656z"/>
	<path style="fill:#FCF05A;" d="M384.406,301.656l-11.32-11.312c32.169-32.245,32.169-84.443,0-116.688l11.32-11.312
		C422.808,200.842,422.808,263.158,384.406,301.656z"/>
	<path style="fill:#FCF05A;" d="M103.598,277.656c-25.175-25.232-25.175-66.08,0-91.312l11.312,11.312
		c-18.938,18.98-18.938,49.708,0,68.688L103.598,277.656z"/>
	<path style="fill:#FCF05A;" d="M79.598,301.656c-38.406-38.496-38.406-100.816,0-139.312l11.312,11.312
		c-32.169,32.245-32.169,84.443,0,116.688L79.598,301.656z"/>
</g>
<g>
</g>
<g>
</g>
<g>
</g>
<g>
</g>
<g>
</g>
<g>
</g>
<g>
</g>
<g>
</g>
<g>
</g>
<g>
</g>
<g>
</g>
<g>
</g>
<g>
</g>
<g>
</g>
<g>
</g>
</svg>
