<?xml version="1.0" encoding="iso-8859-1"?>
<!-- Generator: Adobe Illustrator 19.0.0, SVG Export Plug-In . SVG Version: 6.00 Build 0)  -->
<svg version="1.1" id="Capa_1" xmlns="http://www.w3.org/2000/svg" xmlns:xlink="http://www.w3.org/1999/xlink" x="0px" y="0px"
	 viewBox="0 0 480 480" style="enable-background:new 0 0 480 480;" xml:space="preserve">
<path style="fill:#7D8D9C;" d="M152,8h176c17.673,0,32,14.327,32,32v400c0,17.673-14.327,32-32,32H152c-17.673,0-32-14.327-32-32V40
	C120,22.327,134.327,8,152,8z"/>
<path style="fill:#87CEE9;" d="M120,80h240v328H120V80z"/>
<g>
	<path style="fill:#AABECE;" d="M184,40h112v16H184V40z"/>
	<path style="fill:#AABECE;" d="M224,432h32v16h-32V432z"/>
</g>
<g>
	<path style="fill:#394D5C;" d="M216,280c-8.837,0-16-7.163-16-16s7.163-16,16-16s16,7.163,16,16S224.837,280,216,280z"/>
	<path style="fill:#394D5C;" d="M264,280c-8.837,0-16-7.163-16-16s7.163-16,16-16s16,7.163,16,16S272.837,280,264,280z"/>
</g>
<g>
	<path style="fill:#2D75BB;" d="M312,136H176c-4.418-0.002-8.002,3.578-8.004,7.996c-0.001,1.243,0.288,2.468,0.844,3.58l32,64
		c1.355,2.712,4.128,4.425,7.16,4.424h64v16h-80c-4.418,0-8,3.582-8,8s3.582,8,8,8h88c4.418,0,8-3.582,8-8v-88h16v16
		c0,4.418,3.582,8,8,8s8-3.582,8-8v-24C320,139.582,316.418,136,312,136z"/>
	<path style="fill:#2D75BB;" d="M296,344h32v32h-32V344z"/>
</g>
<g>
	<g>
		<path id="SVGCleanerId_0" style="fill:#FFF69A;" d="M160,336h112v16H160V336z"/>
	</g>
	<g>
		<path id="SVGCleanerId_1" style="fill:#FFF69A;" d="M192,368h80v16h-80V368z"/>
	</g>
	<g>
		<path id="SVGCleanerId_2" style="fill:#FFF69A;" d="M160,368h16v16h-16V368z"/>
	</g>
</g>
<path style="fill:#E9686A;" d="M304,320c-0.24,0-0.48,0-0.72,0c-2.748-0.262-5.167-1.922-6.4-4.392l-8-16
	c-2.005-3.937-0.439-8.754,3.498-10.76c3.937-2.005,8.754-0.439,10.76,3.498c0.019,0.036,0.037,0.073,0.055,0.11l2.216,4.416
	L321.6,275.2c2.648-3.537,7.662-4.258,11.199-1.61c3.537,2.648,4.258,7.662,1.61,11.199c-0.003,0.004-0.006,0.007-0.008,0.011
	l-24,32C308.889,318.814,306.518,320,304,320z"/>
<path d="M328,0H152c-22.08,0.026-39.974,17.92-40,40v400c0.026,22.08,17.92,39.974,40,40h176c22.08-0.026,39.974-17.92,40-40V40
	C367.974,17.92,350.08,0.026,328,0z M128,88h224v312H128V88z M352,440c0,13.255-10.745,24-24,24H152c-13.255,0-24-10.745-24-24v-24
	h224V440z M128,72V40c0-13.255,10.745-24,24-24h176c13.255,0,24,10.745,24,24v32H128z"/>
<path d="M184,40h112v16H184V40z"/>
<path d="M224,432h32v16h-32V432z"/>
<path d="M288,152h16v16c0,4.418,3.582,8,8,8s8-3.582,8-8v-24c0-4.418-3.582-8-8-8H176c-4.418-0.002-8.002,3.578-8.004,7.996
	c-0.001,1.243,0.288,2.468,0.844,3.58l32,64c1.355,2.712,4.128,4.425,7.16,4.424h64v16h-80c-4.418,0-8,3.582-8,8s3.582,8,8,8h88
	c4.418,0,8-3.582,8-8V152z M188.944,152H272v48h-59.056L188.944,152z"/>
<circle cx="216" cy="264" r="16"/>
<circle cx="264" cy="264" r="16"/>
<path d="M328,336h-32c-4.418,0-8,3.582-8,8v32c0,4.418,3.582,8,8,8h32c4.418,0,8-3.582,8-8v-32C336,339.582,332.418,336,328,336z
	 M320,368h-16v-16h16V368z"/>
<path id="SVGCleanerId_0_1_" d="M160,336h112v16H160V336z"/>
<path id="SVGCleanerId_1_1_" d="M192,368h80v16h-80V368z"/>
<path id="SVGCleanerId_2_1_" d="M160,368h16v16h-16V368z"/>
<path d="M303.152,292.424c-1.945-3.967-6.737-5.607-10.704-3.662c-3.967,1.945-5.607,6.737-3.662,10.705
	c0.018,0.037,0.036,0.073,0.055,0.11l8,16c1.233,2.47,3.652,4.13,6.4,4.392h0.72c2.518,0,4.889-1.186,6.4-3.2l24-32
	c2.654-3.532,1.942-8.547-1.59-11.201c-3.532-2.654-8.547-1.942-11.201,1.59c-0.003,0.004-0.006,0.007-0.008,0.011l-16.232,21.6
	L303.152,292.424z"/>
<g>
</g>
<g>
</g>
<g>
</g>
<g>
</g>
<g>
</g>
<g>
</g>
<g>
</g>
<g>
</g>
<g>
</g>
<g>
</g>
<g>
</g>
<g>
</g>
<g>
</g>
<g>
</g>
<g>
</g>
</svg>
