<?xml version="1.0" encoding="iso-8859-1"?>
<!-- Generator: Adobe Illustrator 19.0.0, SVG Export Plug-In . SVG Version: 6.00 Build 0)  -->
<svg version="1.1" id="Capa_1" xmlns="http://www.w3.org/2000/svg" xmlns:xlink="http://www.w3.org/1999/xlink" x="0px" y="0px"
	 viewBox="0 0 464 464" style="enable-background:new 0 0 464 464;" xml:space="preserve">
<path style="fill:#7D8D9C;" d="M144,0h176c17.673,0,32,14.327,32,32v400c0,17.673-14.327,32-32,32H144c-17.673,0-32-14.327-32-32V32
	C112,14.327,126.327,0,144,0z"/>
<path style="fill:#87CEE9;" d="M112,72h240v328H112V72z"/>
<g>
	<path style="fill:#AABECE;" d="M176,32h112v16H176V32z"/>
	<path style="fill:#AABECE;" d="M216,424h32v16h-32V424z"/>
</g>
<g>
	<path style="fill:#394D5C;" d="M208,272c-8.837,0-16-7.163-16-16s7.163-16,16-16s16,7.163,16,16S216.837,272,208,272z"/>
	<path style="fill:#394D5C;" d="M256,272c-8.837,0-16-7.163-16-16s7.163-16,16-16s16,7.163,16,16S264.837,272,256,272z"/>
</g>
<g>
	<path style="fill:#2D75BB;" d="M304,128H168c-4.418-0.002-8.002,3.578-8.004,7.996c-0.001,1.243,0.288,2.468,0.844,3.58l32,64
		c1.355,2.712,4.128,4.425,7.16,4.424h64v16h-80c-4.418,0-8,3.582-8,8s3.582,8,8,8h88c4.418,0,8-3.582,8-8v-88h16v16
		c0,4.418,3.582,8,8,8s8-3.582,8-8v-24C312,131.582,308.418,128,304,128z"/>
	<path style="fill:#2D75BB;" d="M288,336h32v32h-32V336z"/>
</g>
<g>
	<path style="fill:#FFF69A;" d="M152,328h112v16H152V328z"/>
	<path style="fill:#FFF69A;" d="M184,360h80v16h-80V360z"/>
	<path style="fill:#FFF69A;" d="M152,360h16v16h-16V360z"/>
</g>
<path style="fill:#E9686A;" d="M296,312c-0.24,0-0.48,0-0.72,0c-2.748-0.262-5.167-1.922-6.4-4.392l-8-16
	c-2.005-3.937-0.439-8.754,3.498-10.76c3.937-2.005,8.754-0.439,10.76,3.498c0.019,0.036,0.037,0.073,0.055,0.11l2.216,4.416
	L313.6,267.2c2.648-3.537,7.662-4.258,11.199-1.61c3.537,2.648,4.258,7.662,1.61,11.199c-0.003,0.004-0.006,0.007-0.008,0.011
	l-24,32C300.889,310.814,298.518,312,296,312z"/>
<g>
</g>
<g>
</g>
<g>
</g>
<g>
</g>
<g>
</g>
<g>
</g>
<g>
</g>
<g>
</g>
<g>
</g>
<g>
</g>
<g>
</g>
<g>
</g>
<g>
</g>
<g>
</g>
<g>
</g>
</svg>
