<?xml version="1.0" encoding="iso-8859-1"?>
<!-- Generator: Adobe Illustrator 19.0.0, SVG Export Plug-In . SVG Version: 6.00 Build 0)  -->
<svg version="1.1" id="Capa_1" xmlns="http://www.w3.org/2000/svg" xmlns:xlink="http://www.w3.org/1999/xlink" x="0px" y="0px"
	 viewBox="0 0 480 480" style="enable-background:new 0 0 480 480;" xml:space="preserve">
<path style="fill:#394D5C;" d="M128,104h224l0,0v304c0,35.346-28.654,64-64,64h-96c-35.346,0-64-28.654-64-64V104L128,104z"/>
<path style="fill:#7D8D9C;" d="M296,8h48v96h-48V8z"/>
<g>
	<path style="fill:#87CEE9;" d="M168,136h144v64H168V136z"/>
	<path style="fill:#87CEE9;" d="M160,240h32v32h-32V240z"/>
	<path style="fill:#87CEE9;" d="M224,240h32v32h-32V240z"/>
	<path style="fill:#87CEE9;" d="M288,240h32v32h-32V240z"/>
	<path style="fill:#87CEE9;" d="M160,304h32v32h-32V304z"/>
	<path style="fill:#87CEE9;" d="M224,304h32v32h-32V304z"/>
	<path style="fill:#87CEE9;" d="M288,304h32v32h-32V304z"/>
	<path style="fill:#87CEE9;" d="M160,368h32v32h-32V368z"/>
	<path style="fill:#87CEE9;" d="M224,368h32v32h-32V368z"/>
	<path style="fill:#87CEE9;" d="M288,368h32v32h-32V368z"/>
</g>
<path style="fill:#FCF05A;" d="M272,448h-64c-4.418,0-8-3.582-8-8s3.582-8,8-8h64c4.418,0,8,3.582,8,8S276.418,448,272,448z"/>
<path style="fill:#394D5C;" d="M320,32h24v16h-24V32z"/>
<path style="fill:#2D75BB;" d="M192,136h16v24h-16V136z"/>
<path d="M344,0h-48c-4.418,0-8,3.582-8,8v88H128c-4.418,0-8,3.582-8,8v304c0.044,39.746,32.254,71.956,72,72h96
	c39.746-0.044,71.956-32.254,72-72V104c0-4.418-3.582-8-8-8V8C352,3.582,348.418,0,344,0z M344,408c-0.04,30.911-25.089,55.96-56,56
	h-96c-30.911-0.04-55.96-25.089-56-56V112h208V408z M304,96V16h32v16h-16v16h16v48H304z"/>
<path d="M160,136v64c0,4.418,3.582,8,8,8h144c4.418,0,8-3.582,8-8v-64c0-4.418-3.582-8-8-8H168C163.582,128,160,131.582,160,136z
	 M176,144h16v16h16v-16h96v48H176V144z"/>
<path d="M160,280h32c4.418,0,8-3.582,8-8v-32c0-4.418-3.582-8-8-8h-32c-4.418,0-8,3.582-8,8v32C152,276.418,155.582,280,160,280z
	 M168,248h16v16h-16V248z"/>
<path d="M224,280h32c4.418,0,8-3.582,8-8v-32c0-4.418-3.582-8-8-8h-32c-4.418,0-8,3.582-8,8v32C216,276.418,219.582,280,224,280z
	 M232,248h16v16h-16V248z"/>
<path d="M288,232c-4.418,0-8,3.582-8,8v32c0,4.418,3.582,8,8,8h32c4.418,0,8-3.582,8-8v-32c0-4.418-3.582-8-8-8H288z M312,264h-16
	v-16h16V264z"/>
<path d="M160,344h32c4.418,0,8-3.582,8-8v-32c0-4.418-3.582-8-8-8h-32c-4.418,0-8,3.582-8,8v32C152,340.418,155.582,344,160,344z
	 M168,312h16v16h-16V312z"/>
<path d="M216,336c0,4.418,3.582,8,8,8h32c4.418,0,8-3.582,8-8v-32c0-4.418-3.582-8-8-8h-32c-4.418,0-8,3.582-8,8V336z M232,312h16
	v16h-16V312z"/>
<path d="M320,296h-32c-4.418,0-8,3.582-8,8v32c0,4.418,3.582,8,8,8h32c4.418,0,8-3.582,8-8v-32C328,299.582,324.418,296,320,296z
	 M312,328h-16v-16h16V328z"/>
<path d="M200,368c0-4.418-3.582-8-8-8h-32c-4.418,0-8,3.582-8,8v32c0,4.418,3.582,8,8,8h32c4.418,0,8-3.582,8-8V368z M184,392h-16
	v-16h16V392z"/>
<path d="M216,400c0,4.418,3.582,8,8,8h32c4.418,0,8-3.582,8-8v-32c0-4.418-3.582-8-8-8h-32c-4.418,0-8,3.582-8,8V400z M232,376h16
	v16h-16V376z"/>
<path d="M320,360h-32c-4.418,0-8,3.582-8,8v32c0,4.418,3.582,8,8,8h32c4.418,0,8-3.582,8-8v-32C328,363.582,324.418,360,320,360z
	 M312,392h-16v-16h16V392z"/>
<path d="M272,432h-64c-4.418,0-8,3.582-8,8s3.582,8,8,8h64c4.418,0,8-3.582,8-8S276.418,432,272,432z"/>
<g>
</g>
<g>
</g>
<g>
</g>
<g>
</g>
<g>
</g>
<g>
</g>
<g>
</g>
<g>
</g>
<g>
</g>
<g>
</g>
<g>
</g>
<g>
</g>
<g>
</g>
<g>
</g>
<g>
</g>
</svg>
