<?xml version="1.0" encoding="iso-8859-1"?>
<!-- Generator: Adobe Illustrator 19.0.0, SVG Export Plug-In . SVG Version: 6.00 Build 0)  -->
<svg version="1.1" id="Capa_1" xmlns="http://www.w3.org/2000/svg" xmlns:xlink="http://www.w3.org/1999/xlink" x="0px" y="0px"
	 viewBox="0 0 464 464" style="enable-background:new 0 0 464 464;" xml:space="preserve">
<path style="fill:#394D5C;" d="M120,96h224l0,0v304c0,35.346-28.654,64-64,64h-96c-35.346,0-64-28.654-64-64V96L120,96z"/>
<path style="fill:#7D8D9C;" d="M288,0h48v96h-48V0z"/>
<g>
	<path style="fill:#87CEE9;" d="M160,128h144v64H160V128z"/>
	<path style="fill:#87CEE9;" d="M152,232h32v32h-32V232z"/>
	<path style="fill:#87CEE9;" d="M216,232h32v32h-32V232z"/>
	<path style="fill:#87CEE9;" d="M280,232h32v32h-32V232z"/>
	<path style="fill:#87CEE9;" d="M152,296h32v32h-32V296z"/>
	<path style="fill:#87CEE9;" d="M216,296h32v32h-32V296z"/>
	<path style="fill:#87CEE9;" d="M280,296h32v32h-32V296z"/>
	<path style="fill:#87CEE9;" d="M152,360h32v32h-32V360z"/>
	<path style="fill:#87CEE9;" d="M216,360h32v32h-32V360z"/>
	<path style="fill:#87CEE9;" d="M280,360h32v32h-32V360z"/>
</g>
<path style="fill:#FCF05A;" d="M264,440h-64c-4.418,0-8-3.582-8-8s3.582-8,8-8h64c4.418,0,8,3.582,8,8S268.418,440,264,440z"/>
<path style="fill:#394D5C;" d="M312,24h24v16h-24V24z"/>
<path style="fill:#2D75BB;" d="M184,128h16v24h-16V128z"/>
<g>
</g>
<g>
</g>
<g>
</g>
<g>
</g>
<g>
</g>
<g>
</g>
<g>
</g>
<g>
</g>
<g>
</g>
<g>
</g>
<g>
</g>
<g>
</g>
<g>
</g>
<g>
</g>
<g>
</g>
</svg>
