<?xml version="1.0" encoding="iso-8859-1"?>
<!-- Generator: Adobe Illustrator 19.0.0, SVG Export Plug-In . SVG Version: 6.00 Build 0)  -->
<svg xmlns="http://www.w3.org/2000/svg" xmlns:xlink="http://www.w3.org/1999/xlink" version="1.1" id="Capa_1" x="0px" y="0px" viewBox="0 0 512 512" style="enable-background:new 0 0 512 512;" xml:space="preserve">
<g>
	
		<linearGradient id="SVGCleanerId_0_3_" gradientUnits="userSpaceOnUse" x1="-43.6715" y1="640.4844" x2="-25.5757" y2="632.0474" gradientTransform="matrix(21.3333 0 0 -21.3333 996.3334 13791.667)">
		<stop offset="0" style="stop-color:#FFFFFF;stop-opacity:0.2"/>
		<stop offset="1" style="stop-color:#FFFFFF;stop-opacity:0"/>
	</linearGradient>
	<path id="SVGCleanerId_0" style="fill:url(#SVGCleanerId_0_3_);" d="M128,21.333h256c11.771,0,21.333,9.563,21.333,21.333v362.667   H106.667V42.667C106.667,30.896,116.229,21.333,128,21.333z"/>
</g>
<g>
	
		<linearGradient id="SVGCleanerId_0_4_" gradientUnits="userSpaceOnUse" x1="-42.5557" y1="644.0458" x2="-26.8506" y2="628.3367" gradientTransform="matrix(21.3333 0 0 -21.3333 996.3334 13791.667)">
		<stop offset="0" style="stop-color:#FFFFFF;stop-opacity:0.2"/>
		<stop offset="1" style="stop-color:#FFFFFF;stop-opacity:0"/>
	</linearGradient>
	<path id="SVGCleanerId_0_1_" style="fill:url(#SVGCleanerId_0_4_);" d="M128,21.333h256c11.771,0,21.333,9.563,21.333,21.333   v362.667H106.667V42.667C106.667,30.896,116.229,21.333,128,21.333z"/>
</g>
<path style="fill:#303C42;" d="M384,0H128c-23.521,0-42.667,19.146-42.667,42.667v426.667C85.333,492.854,104.479,512,128,512h256  c23.521,0,42.667-19.146,42.667-42.667V42.667C426.667,19.146,407.521,0,384,0z"/>
<g>
	<path id="SVGCleanerId_0_2_" style="fill:#5C6671;" d="M128,21.333h256c11.771,0,21.333,9.563,21.333,21.333v362.667H106.667   V42.667C106.667,30.896,116.229,21.333,128,21.333z"/>
</g>
<linearGradient id="SVGID_1_" gradientUnits="userSpaceOnUse" x1="-39.6642" y1="641.8632" x2="-34.5074" y2="639.462" gradientTransform="matrix(21.3333 0 0 -21.3333 996.3334 13791.667)">
	<stop offset="0" style="stop-color:#FFFFFF;stop-opacity:0.05"/>
	<stop offset="1" style="stop-color:#FFFFFF;stop-opacity:0"/>
</linearGradient>
<polygon style="fill:url(#SVGID_1_);" points="106.667,192 277.333,21.333 320,21.333 106.667,234.667 "/>
<linearGradient id="SVGID_2_" gradientUnits="userSpaceOnUse" x1="-38.5102" y1="639.8283" x2="-31.6507" y2="636.6281" gradientTransform="matrix(21.3333 0 0 -21.3333 996.3334 13791.667)">
	<stop offset="0" style="stop-color:#FFFFFF;stop-opacity:0.05"/>
	<stop offset="1" style="stop-color:#FFFFFF;stop-opacity:0"/>
</linearGradient>
<path style="fill:url(#SVGID_2_);" d="M384,21.333h-10.667L106.667,288v42.667L403.375,33.958  C400.026,26.552,392.641,21.333,384,21.333z"/>
<path style="fill:#303C42;" d="M245.333,64h21.333c5.896,0,10.667-4.771,10.667-10.667s-4.771-10.667-10.667-10.667h-21.333  c-5.896,0-10.667,4.771-10.667,10.667S239.438,64,245.333,64z"/>
<path style="fill:#F2F2F2;" d="M288,448h-64c-5.896,0-10.667,4.771-10.667,10.667c0,5.896,4.771,10.667,10.667,10.667h64  c5.896,0,10.667-4.771,10.667-10.667C298.667,452.771,293.896,448,288,448z"/>
<g>
	<circle style="fill:#303C42;" cx="373.333" cy="53.333" r="10.667"/>
	<path style="fill:#303C42;" d="M365.25,202.979l-20.438-5.083l10.833-18.083c2.521-4.188,1.854-9.563-1.604-13.021l-30.167-30.167   c-3.479-3.5-8.833-4.104-13.021-1.604l-18.083,10.833l-5.083-20.438c-1.188-4.75-5.458-8.083-10.354-8.083h-42.667   c-4.896,0-9.167,3.333-10.354,8.083l-5.104,20.438l-18.083-10.833c-4.188-2.5-9.542-1.896-13.021,1.604l-30.167,30.167   c-3.458,3.458-4.125,8.833-1.604,13.021l10.833,18.083l-20.417,5.083c-4.75,1.188-8.083,5.458-8.083,10.354V256   c0,4.896,3.333,9.167,8.083,10.354l20.438,5.104l-10.854,18.083c-2.521,4.188-1.854,9.563,1.604,13.021l30.167,30.167   c3.479,3.479,8.875,4.104,13.021,1.604l18.083-10.854l5.104,20.438c1.188,4.75,5.458,8.083,10.354,8.083h42.667   c4.896,0,9.167-3.333,10.354-8.083l5.083-20.417l18.083,10.833c4.125,2.5,9.542,1.875,13.021-1.604l30.167-30.167   c3.458-3.458,4.125-8.833,1.604-13.021l-10.833-18.083l20.438-5.104c4.75-1.188,8.083-5.458,8.083-10.354v-42.667   C373.333,208.438,370,204.167,365.25,202.979z M256,266.667c-17.646,0-32-14.354-32-32s14.354-32,32-32s32,14.354,32,32   S273.646,266.667,256,266.667z"/>
</g>
<path style="fill:#E6E6E6;" d="M333.667,217.104c-3.5-0.875-6.333-3.458-7.5-6.875c-0.938-2.75-2-5.417-3.229-7.979  c-1.563-3.229-1.396-7.021,0.458-10.104L333.063,176l-18.396-18.396l-16.146,9.667c-3.104,1.875-6.917,2-10.104,0.458  c-2.563-1.229-5.229-2.292-7.979-3.229c-3.417-1.167-6-4-6.875-7.5L269,138.667h-26L238.417,157c-0.875,3.5-3.458,6.333-6.875,7.5  c-2.771,0.958-5.417,2-8,3.25c-3.25,1.5-7,1.375-10.083-0.479l-16.146-9.667l-18.396,18.375l9.688,16.167  c1.854,3.083,2.021,6.917,0.438,10.167c-1.25,2.542-2.292,5.188-3.229,7.917c-1.167,3.417-4,6-7.5,6.875L160,221.667v26  l18.313,4.583c3.5,0.875,6.333,3.479,7.5,6.875c0.938,2.75,2,5.375,3.25,7.938c1.563,3.25,1.396,7.063-0.458,10.146l-9.688,16.167  l18.375,18.375l16.167-9.688c3.063-1.896,6.875-2.021,10.146-0.458c2.563,1.25,5.188,2.313,7.938,3.25c3.396,1.167,6,4,6.875,7.5  L243,330.667h26l4.563-18.313c0.875-3.5,3.458-6.333,6.875-7.5c2.729-0.938,5.375-1.979,7.917-3.229  c3.208-1.604,7.083-1.458,10.167,0.438l16.167,9.688l18.375-18.396l-9.667-16.146c-1.854-3.063-2.021-6.854-0.479-10.083  c1.25-2.583,2.292-5.229,3.25-8c1.167-3.417,4-6,7.5-6.875L352,247.667v-26L333.667,217.104z M256,288  c-29.417,0-53.333-23.917-53.333-53.333s23.917-53.333,53.333-53.333c29.417,0,53.333,23.917,53.333,53.333S285.417,288,256,288z"/>
<linearGradient id="SVGID_3_" gradientUnits="userSpaceOnUse" x1="-45.2742" y1="639.4139" x2="-24.1321" y2="629.5549" gradientTransform="matrix(21.3333 0 0 -21.3333 996.3334 13791.667)">
	<stop offset="0" style="stop-color:#FFFFFF;stop-opacity:0.2"/>
	<stop offset="1" style="stop-color:#FFFFFF;stop-opacity:0"/>
</linearGradient>
<path style="fill:url(#SVGID_3_);" d="M384,0H128c-23.521,0-42.667,19.146-42.667,42.667v426.667  C85.333,492.854,104.479,512,128,512h256c23.521,0,42.667-19.146,42.667-42.667V42.667C426.667,19.146,407.521,0,384,0z"/>
<g>
</g>
<g>
</g>
<g>
</g>
<g>
</g>
<g>
</g>
<g>
</g>
<g>
</g>
<g>
</g>
<g>
</g>
<g>
</g>
<g>
</g>
<g>
</g>
<g>
</g>
<g>
</g>
<g>
</g>
</svg>
