<?xml version="1.0" encoding="iso-8859-1"?>
<!-- Generator: Adobe Illustrator 19.0.0, SVG Export Plug-In . SVG Version: 6.00 Build 0)  -->
<svg version="1.1" id="Capa_1" xmlns="http://www.w3.org/2000/svg" xmlns:xlink="http://www.w3.org/1999/xlink" x="0px" y="0px"
	 viewBox="0 0 480 480" style="enable-background:new 0 0 480 480;" xml:space="preserve">
<path style="fill:#394D5C;" d="M120,88h352v304H120V88z"/>
<path style="fill:#7D8D9C;" d="M24,64h80c8.837,0,16,7.163,16,16v320c0,8.837-7.163,16-16,16H24c-8.837,0-16-7.163-16-16V80
	C8,71.163,15.163,64,24,64z"/>
<g>
	<path style="fill:#87CEE9;" d="M160,184h48v32h-48V184z"/>
	<path style="fill:#87CEE9;" d="M240,184h48v32h-48V184z"/>
	<path style="fill:#87CEE9;" d="M320,184h48v32h-48V184z"/>
	<path style="fill:#87CEE9;" d="M160,248h48v32h-48V248z"/>
	<path style="fill:#87CEE9;" d="M240,248h48v32h-48V248z"/>
	<path style="fill:#87CEE9;" d="M320,248h48v32h-48V248z"/>
	<path style="fill:#87CEE9;" d="M160,312h48v32h-48V312z"/>
	<path style="fill:#87CEE9;" d="M240,312h48v32h-48V312z"/>
	<path style="fill:#87CEE9;" d="M320,312h48v32h-48V312z"/>
	<path style="fill:#87CEE9;" d="M160,88h272v64H160V88z"/>
</g>
<g>
	<path style="fill:#FCF05A;" d="M352,368h16v24h-16V368z"/>
	<path style="fill:#FCF05A;" d="M320,368h16v24h-16V368z"/>
	<path style="fill:#FCF05A;" d="M288,368h16v24h-16V368z"/>
	<path style="fill:#FCF05A;" d="M408,176h64v16h-64V176z"/>
	<path style="fill:#FCF05A;" d="M408,208h64v16h-64V208z"/>
	<path style="fill:#FCF05A;" d="M408,240h64v16h-64V240z"/>
	<path style="fill:#FCF05A;" d="M408,272h64v16h-64V272z"/>
</g>
<circle style="fill:#87CEE9;" cx="416" cy="328" r="16"/>
<path d="M152,224h64v-48h-64V224z M168,192h32v16h-32V192z"/>
<path d="M232,224h64v-48h-64V224z M248,192h32v16h-32V192z"/>
<path d="M312,224h64v-48h-64V224z M328,192h32v16h-32V192z"/>
<path d="M152,288h64v-48h-64V288z M168,256h32v16h-32V256z"/>
<path d="M232,288h64v-48h-64V288z M248,256h32v16h-32V256z"/>
<path d="M312,288h64v-48h-64V288z M328,256h32v16h-32V256z"/>
<path d="M152,352h64v-48h-64V352z M168,320h32v16h-32V320z"/>
<path d="M232,352h64v-48h-64V352z M248,320h32v16h-32V320z"/>
<path d="M312,352h64v-48h-64V352z M328,320h32v16h-32V320z"/>
<path d="M128,80c0-13.255-10.745-24-24-24H24C10.745,56,0,66.745,0,80v320c0,13.255,10.745,24,24,24h80c13.255,0,24-10.745,24-24
	h352V80H128z M424,96v48H168V96H424z M104,408H24c-4.418,0-8-3.582-8-8V80c0-4.418,3.582-8,8-8h80c4.418,0,8,3.582,8,8v320
	C112,404.418,108.418,408,104,408z M464,96v80h-56v16h56v16h-56v16h56v16h-56v16h56v16h-56v16h56v96h-96v-16h-16v16h-16v-16h-16v16
	h-16v-16h-16v16H128V96h24v64h288V96H464z"/>
<path d="M392,328c0,13.255,10.745,24,24,24s24-10.745,24-24s-10.745-24-24-24S392,314.745,392,328z M416,320c4.418,0,8,3.582,8,8
	s-3.582,8-8,8s-8-3.582-8-8S411.582,320,416,320z"/>
<g>
</g>
<g>
</g>
<g>
</g>
<g>
</g>
<g>
</g>
<g>
</g>
<g>
</g>
<g>
</g>
<g>
</g>
<g>
</g>
<g>
</g>
<g>
</g>
<g>
</g>
<g>
</g>
<g>
</g>
</svg>
