<?xml version="1.0" encoding="iso-8859-1"?>
<!-- Generator: Adobe Illustrator 19.0.0, SVG Export Plug-In . SVG Version: 6.00 Build 0)  -->
<svg version="1.1" id="Capa_1" xmlns="http://www.w3.org/2000/svg" xmlns:xlink="http://www.w3.org/1999/xlink" x="0px" y="0px"
	 viewBox="0 0 464 464" style="enable-background:new 0 0 464 464;" xml:space="preserve">
<path style="fill:#394D5C;" d="M112,80h352v304H112V80z"/>
<path style="fill:#7D8D9C;" d="M16,56h80c8.837,0,16,7.163,16,16v320c0,8.837-7.163,16-16,16H16c-8.837,0-16-7.163-16-16V72
	C0,63.163,7.163,56,16,56z"/>
<g>
	<path style="fill:#87CEE9;" d="M152,176h48v32h-48V176z"/>
	<path style="fill:#87CEE9;" d="M232,176h48v32h-48V176z"/>
	<path style="fill:#87CEE9;" d="M312,176h48v32h-48V176z"/>
	<path style="fill:#87CEE9;" d="M152,240h48v32h-48V240z"/>
	<path style="fill:#87CEE9;" d="M232,240h48v32h-48V240z"/>
	<path style="fill:#87CEE9;" d="M312,240h48v32h-48V240z"/>
	<path style="fill:#87CEE9;" d="M152,304h48v32h-48V304z"/>
	<path style="fill:#87CEE9;" d="M232,304h48v32h-48V304z"/>
	<path style="fill:#87CEE9;" d="M312,304h48v32h-48V304z"/>
	<path style="fill:#87CEE9;" d="M152,80h272v64H152V80z"/>
</g>
<g>
	<path style="fill:#FCF05A;" d="M344,360h16v24h-16V360z"/>
	<path style="fill:#FCF05A;" d="M312,360h16v24h-16V360z"/>
	<path style="fill:#FCF05A;" d="M280,360h16v24h-16V360z"/>
	<path style="fill:#FCF05A;" d="M400,168h64v16h-64V168z"/>
	<path style="fill:#FCF05A;" d="M400,200h64v16h-64V200z"/>
	<path style="fill:#FCF05A;" d="M400,232h64v16h-64V232z"/>
	<path style="fill:#FCF05A;" d="M400,264h64v16h-64V264z"/>
</g>
<circle style="fill:#87CEE9;" cx="408" cy="320" r="16"/>
<g>
</g>
<g>
</g>
<g>
</g>
<g>
</g>
<g>
</g>
<g>
</g>
<g>
</g>
<g>
</g>
<g>
</g>
<g>
</g>
<g>
</g>
<g>
</g>
<g>
</g>
<g>
</g>
<g>
</g>
</svg>
