<?xml version="1.0" encoding="iso-8859-1"?>
<!-- Generator: Adobe Illustrator 19.0.0, SVG Export Plug-In . SVG Version: 6.00 Build 0)  -->
<svg version="1.1" id="Capa_1" xmlns="http://www.w3.org/2000/svg" xmlns:xlink="http://www.w3.org/1999/xlink" x="0px" y="0px"
	 viewBox="0 0 480 480" style="enable-background:new 0 0 480 480;" xml:space="preserve">
<path style="fill:#E9686A;" d="M136,8h208c70.692,0,128,57.308,128,128v208c0,70.692-57.308,128-128,128H136
	C65.308,472,8,414.692,8,344V136C8,65.308,65.308,8,136,8z"/>
<path style="fill:#FFF69A;" d="M440,136v208c0,53.019-42.981,96-96,96H136c-53.019,0-96-42.981-96-96V136c0-53.019,42.981-96,96-96
	h208C397.019,40,440,82.981,440,136z"/>
<path style="fill:#2D75BB;" d="M240,80h16l0,0v320l0,0h-16c-35.346,0-64-28.654-64-64V144C176,108.654,204.654,80,240,80z"/>
<g>
	<path style="fill:#394D5C;" d="M256,80h32c8.837,0,16,7.163,16,16v48c0,8.837-7.163,16-16,16h-32l0,0V80L256,80z"/>
	<path style="fill:#394D5C;" d="M256,320h32c8.837,0,16,7.163,16,16v48c0,8.837-7.163,16-16,16h-32l0,0V320L256,320z"/>
</g>
<path style="fill:#E9686A;" d="M40,312l400-176v40L40,352V312z"/>
<path d="M344,0H136C60.924,0.084,0.084,60.924,0,136v208c0.084,75.076,60.924,135.916,136,136h208
	c75.076-0.084,135.916-60.924,136-136V136C479.916,60.924,419.076,0.084,344,0z M464,344c-0.071,66.245-53.755,119.929-120,120H136
	c-66.245-0.071-119.929-53.755-120-120V136C16.071,69.755,69.755,16.071,136,16h208c66.245,0.071,119.929,53.755,120,120V344z"/>
<path d="M344,32H136C78.588,32.062,32.062,78.588,32,136v216c0.019,0.954,0.209,1.897,0.56,2.784
	C38.15,407.726,82.764,447.93,136,448h208c57.41-0.066,103.934-46.59,104-104V136C447.934,78.59,401.41,32.066,344,32z M136,48h208
	c46.569,0.077,85.023,36.407,87.744,82.896L264,204.704V168h24c13.255,0,24-10.745,24-24V96c0-13.255-10.745-24-24-24h-48
	c-39.746,0.044-71.956,32.254-72,72v102.944l-120,52.8V136C48.057,87.423,87.423,48.057,136,48L136,48z M264,328h24
	c4.418,0,8,3.582,8,8v48c0,4.418-3.582,8-8,8h-24V328z M184,297.376l64-28.16V392h-8c-30.913-0.035-55.965-25.087-56-56V297.376z
	 M48,339.776v-22.56l384-168.96v22.528L48,339.776z M248,211.776l-64,28.16V144c0.035-30.913,25.087-55.965,56-56h8V211.776z
	 M264,152V88h24c4.418,0,8,3.582,8,8v48c0,4.418-3.582,8-8,8H264z M344,432H136c-43.612-0.072-80.601-32.056-86.968-75.2
	L168,304.416V336c0.044,39.746,32.254,71.956,72,72h48c13.255,0,24-10.745,24-24v-48c0-13.255-10.745-24-24-24h-24v-49.824
	l168-73.92V344C431.943,392.577,392.577,431.943,344,432z"/>
<g>
</g>
<g>
</g>
<g>
</g>
<g>
</g>
<g>
</g>
<g>
</g>
<g>
</g>
<g>
</g>
<g>
</g>
<g>
</g>
<g>
</g>
<g>
</g>
<g>
</g>
<g>
</g>
<g>
</g>
</svg>
