<?xml version="1.0" encoding="iso-8859-1"?>
<!-- Generator: Adobe Illustrator 19.0.0, SVG Export Plug-In . SVG Version: 6.00 Build 0)  -->
<svg version="1.1" id="Capa_1" xmlns="http://www.w3.org/2000/svg" xmlns:xlink="http://www.w3.org/1999/xlink" x="0px" y="0px"
	 viewBox="0 0 464 464" style="enable-background:new 0 0 464 464;" xml:space="preserve">
<path style="fill:#E9686A;" d="M128,0h208c70.692,0,128,57.308,128,128v208c0,70.692-57.308,128-128,128H128
	C57.308,464,0,406.692,0,336V128C0,57.308,57.308,0,128,0z"/>
<path style="fill:#FFF69A;" d="M432,128v208c0,53.019-42.981,96-96,96H128c-53.019,0-96-42.981-96-96V128c0-53.019,42.981-96,96-96
	h208C389.019,32,432,74.981,432,128z"/>
<path style="fill:#2D75BB;" d="M232,72h16l0,0v320l0,0h-16c-35.346,0-64-28.654-64-64V136C168,100.654,196.654,72,232,72z"/>
<g>
	<path style="fill:#394D5C;" d="M248,72h32c8.837,0,16,7.163,16,16v48c0,8.837-7.163,16-16,16h-32l0,0V72L248,72z"/>
	<path style="fill:#394D5C;" d="M248,312h32c8.837,0,16,7.163,16,16v48c0,8.837-7.163,16-16,16h-32l0,0V312L248,312z"/>
</g>
<path style="fill:#E9686A;" d="M32,304l400-176v40L32,344V304z"/>
<g>
</g>
<g>
</g>
<g>
</g>
<g>
</g>
<g>
</g>
<g>
</g>
<g>
</g>
<g>
</g>
<g>
</g>
<g>
</g>
<g>
</g>
<g>
</g>
<g>
</g>
<g>
</g>
<g>
</g>
</svg>
