<?xml version="1.0" encoding="iso-8859-1"?>
<!-- Generator: Adobe Illustrator 19.0.0, SVG Export Plug-In . SVG Version: 6.00 Build 0)  -->
<svg version="1.1" id="Capa_1" xmlns="http://www.w3.org/2000/svg" xmlns:xlink="http://www.w3.org/1999/xlink" x="0px" y="0px"
	 viewBox="0 0 480 480" style="enable-background:new 0 0 480 480;" xml:space="preserve">
<path style="fill:#7D8D9C;" d="M152,8h176c17.673,0,32,14.327,32,32v400c0,17.673-14.327,32-32,32H152c-17.673,0-32-14.327-32-32V40
	C120,22.327,134.327,8,152,8z"/>
<path style="fill:#87CEE9;" d="M120,80h240v328H120V80z"/>
<g>
	<path style="fill:#AABECE;" d="M184,40h112v16H184V40z"/>
	<path style="fill:#AABECE;" d="M224,432h32v16h-32V432z"/>
</g>
<g>
	<g>
		<path id="SVGCleanerId_0" style="fill:#394D5C;" d="M144,104h32v16h-32V104z"/>
	</g>
	<g>
		<path id="SVGCleanerId_1" style="fill:#394D5C;" d="M192,104h32v16h-32V104z"/>
	</g>
	<g>
		<path id="SVGCleanerId_2" style="fill:#394D5C;" d="M256,136h16v16h-16V136z"/>
	</g>
	<g>
		<path id="SVGCleanerId_3" style="fill:#394D5C;" d="M288,120h16v32h-16V120z"/>
	</g>
	<g>
		<path id="SVGCleanerId_4" style="fill:#394D5C;" d="M320,104h16v48h-16V104z"/>
	</g>
</g>
<g>
	<path style="fill:#FCF05A;" d="M395.152,285.656l-11.32-11.312c18.938-18.98,18.938-49.708,0-68.688l11.32-11.312
		C420.314,219.581,420.314,260.419,395.152,285.656z"/>
	<path style="fill:#FCF05A;" d="M419.152,309.656l-11.32-11.312c32.178-32.241,32.178-84.447,0-116.688l11.32-11.312
		C457.554,208.842,457.554,271.158,419.152,309.656z"/>
	<path style="fill:#FCF05A;" d="M84.848,285.656c-25.162-25.237-25.162-66.075,0-91.312l11.312,11.312
		c-18.929,18.984-18.929,49.704,0,68.688L84.848,285.656z"/>
	<path style="fill:#FCF05A;" d="M60.848,309.656c-38.402-38.498-38.402-100.814,0-139.312l11.312,11.312
		c-32.169,32.245-32.169,84.443,0,116.688L60.848,309.656z"/>
</g>
<path style="fill:#394D5C;" d="M256,312l-48,32l48,32V312z"/>
<path style="fill:#E9686A;" d="M284.552,169.424c-2.154-1.504-4.912-1.845-7.368-0.912l-64,24C210.065,193.685,208,196.668,208,200
	v49.472c-2.562-0.948-5.268-1.445-8-1.472c-13.255,0-24,10.745-24,24s10.745,24,24,24s24-10.745,24-24v-66.456l48-18v37.928
	c-2.562-0.947-5.268-1.445-8-1.472c-13.255,0-24,10.745-24,24c0,13.255,10.745,24,24,24s24-10.745,24-24l0,0v-72
	C287.999,173.375,286.711,170.918,284.552,169.424z"/>
<path d="M328,0H152c-22.08,0.026-39.974,17.92-40,40v400c0.026,22.08,17.92,39.974,40,40h176c22.08-0.026,39.974-17.92,40-40V40
	C367.974,17.92,350.08,0.026,328,0z M128,88h224v312H128V88z M352,440c0,13.255-10.745,24-24,24H152c-13.255,0-24-10.745-24-24v-24
	h224V440z M128,72V40c0-13.255,10.745-24,24-24h176c13.255,0,24,10.745,24,24v32H128z"/>
<path d="M184,40h112v16H184V40z"/>
<path d="M224,432h32v16h-32V432z"/>
<path id="SVGCleanerId_0_1_" d="M144,104h32v16h-32V104z"/>
<path id="SVGCleanerId_1_1_" d="M192,104h32v16h-32V104z"/>
<path id="SVGCleanerId_2_1_" d="M256,136h16v16h-16V136z"/>
<path id="SVGCleanerId_3_1_" d="M288,120h16v32h-16V120z"/>
<path id="SVGCleanerId_4_1_" d="M320,104h16v48h-16V104z"/>
<path d="M395.152,194.344l-11.32,11.312c18.938,18.98,18.938,49.708,0,68.688l11.32,11.312
	C420.314,260.419,420.314,219.581,395.152,194.344L395.152,194.344z"/>
<path d="M407.832,181.656c32.178,32.241,32.178,84.447,0,116.688l11.32,11.312c38.402-38.498,38.402-100.814,0-139.312
	L407.832,181.656z"/>
<path d="M84.848,194.344c-25.162,25.237-25.162,66.075,0,91.312l11.312-11.312c-18.929-18.984-18.929-49.704,0-68.688
	L84.848,194.344z"/>
<path d="M72.16,181.656l-11.312-11.312c-38.402,38.498-38.402,100.814,0,139.312l11.312-11.312
	C39.991,266.099,39.991,213.901,72.16,181.656L72.16,181.656z"/>
<path d="M259.776,304.944c-2.603-1.393-5.761-1.239-8.216,0.4l-48,32c-3.676,2.451-4.669,7.418-2.218,11.094
	c0.586,0.878,1.339,1.632,2.218,2.218l48,32c3.675,2.452,8.643,1.461,11.095-2.215c0.877-1.315,1.345-2.86,1.345-4.441v-64
	C264.001,309.049,262.378,306.337,259.776,304.944z M248,361.056L222.4,344l25.6-17.056V361.056z"/>
<path d="M284.552,169.424c-2.154-1.504-4.912-1.845-7.368-0.912l-64,24C210.065,193.685,208,196.668,208,200v49.472
	c-2.562-0.948-5.268-1.445-8-1.472c-13.255,0-24,10.745-24,24s10.745,24,24,24s24-10.745,24-24v-66.456l48-18v37.928
	c-2.562-0.947-5.268-1.445-8-1.472c-13.255,0-24,10.745-24,24c0,13.255,10.745,24,24,24s24-10.745,24-24l0,0v-72
	C287.999,173.375,286.711,170.918,284.552,169.424z M200,280c-4.418,0-8-3.582-8-8s3.582-8,8-8s8,3.582,8,8S204.418,280,200,280z
	 M264,256c-4.418,0-8-3.582-8-8s3.582-8,8-8s8,3.582,8,8S268.418,256,264,256z"/>
<g>
</g>
<g>
</g>
<g>
</g>
<g>
</g>
<g>
</g>
<g>
</g>
<g>
</g>
<g>
</g>
<g>
</g>
<g>
</g>
<g>
</g>
<g>
</g>
<g>
</g>
<g>
</g>
<g>
</g>
</svg>
