<?xml version="1.0" encoding="iso-8859-1"?>
<!-- Generator: Adobe Illustrator 19.0.0, SVG Export Plug-In . SVG Version: 6.00 Build 0)  -->
<svg version="1.1" id="Capa_1" xmlns="http://www.w3.org/2000/svg" xmlns:xlink="http://www.w3.org/1999/xlink" x="0px" y="0px"
	 viewBox="0 0 464 464" style="enable-background:new 0 0 464 464;" xml:space="preserve">
<path style="fill:#7D8D9C;" d="M144,0h176c17.673,0,32,14.327,32,32v400c0,17.673-14.327,32-32,32H144c-17.673,0-32-14.327-32-32V32
	C112,14.327,126.327,0,144,0z"/>
<path style="fill:#87CEE9;" d="M112,72h240v328H112V72z"/>
<g>
	<path style="fill:#AABECE;" d="M176,32h112v16H176V32z"/>
	<path style="fill:#AABECE;" d="M216,424h32v16h-32V424z"/>
</g>
<g>
	<path style="fill:#394D5C;" d="M136,96h32v16h-32V96z"/>
	<path style="fill:#394D5C;" d="M184,96h32v16h-32V96z"/>
	<path style="fill:#394D5C;" d="M248,128h16v16h-16V128z"/>
	<path style="fill:#394D5C;" d="M280,112h16v32h-16V112z"/>
	<path style="fill:#394D5C;" d="M312,96h16v48h-16V96z"/>
</g>
<g>
	<path style="fill:#FCF05A;" d="M387.152,277.656l-11.32-11.312c18.938-18.98,18.938-49.708,0-68.688l11.32-11.312
		C412.314,211.581,412.314,252.419,387.152,277.656z"/>
	<path style="fill:#FCF05A;" d="M411.152,301.656l-11.32-11.312c32.178-32.241,32.178-84.447,0-116.688l11.32-11.312
		C449.554,200.842,449.554,263.158,411.152,301.656z"/>
	<path style="fill:#FCF05A;" d="M76.848,277.656c-25.162-25.237-25.162-66.075,0-91.312l11.312,11.312
		c-18.929,18.984-18.929,49.704,0,68.688L76.848,277.656z"/>
	<path style="fill:#FCF05A;" d="M52.848,301.656c-38.402-38.498-38.402-100.814,0-139.312l11.312,11.312
		c-32.169,32.245-32.169,84.443,0,116.688L52.848,301.656z"/>
</g>
<path style="fill:#394D5C;" d="M248,304l-48,32l48,32V304z"/>
<path style="fill:#E9686A;" d="M276.552,161.424c-2.154-1.504-4.912-1.845-7.368-0.912l-64,24C202.065,185.685,200,188.668,200,192
	v49.472c-2.562-0.948-5.268-1.445-8-1.472c-13.255,0-24,10.745-24,24s10.745,24,24,24s24-10.745,24-24v-66.456l48-18v37.928
	c-2.562-0.947-5.268-1.445-8-1.472c-13.255,0-24,10.745-24,24c0,13.255,10.745,24,24,24s24-10.745,24-24l0,0v-72
	C279.999,165.375,278.711,162.918,276.552,161.424z"/>
<g>
</g>
<g>
</g>
<g>
</g>
<g>
</g>
<g>
</g>
<g>
</g>
<g>
</g>
<g>
</g>
<g>
</g>
<g>
</g>
<g>
</g>
<g>
</g>
<g>
</g>
<g>
</g>
<g>
</g>
</svg>
