<?xml version="1.0" encoding="iso-8859-1"?>
<!-- Generator: Adobe Illustrator 19.0.0, SVG Export Plug-In . SVG Version: 6.00 Build 0)  -->
<svg version="1.1" id="Capa_1" xmlns="http://www.w3.org/2000/svg" xmlns:xlink="http://www.w3.org/1999/xlink" x="0px" y="0px"
	 viewBox="0 0 464 464" style="enable-background:new 0 0 464 464;" xml:space="preserve">
<path style="fill:#7D8D9C;" d="M130.064,0h203.872C352.749,0,368,15.251,368,34.064v395.872C368,448.749,352.749,464,333.936,464
	H130.064C111.251,464,96,448.749,96,429.936V34.064C96,15.251,111.251,0,130.064,0z"/>
<path style="fill:#87CEE9;" d="M96,72h272v328H96V72z"/>
<g>
	<path style="fill:#AABECE;" d="M176,32h80v16h-80V32z"/>
	<path style="fill:#AABECE;" d="M216,424h32v16h-32V424z"/>
</g>
<path style="fill:#394D5C;" d="M128,120h96v80h-96V120z"/>
<g>
	<path style="fill:#FCF05A;" d="M248,112h96v16h-96V112z"/>
	<path style="fill:#FCF05A;" d="M248,144h32v16h-32V144z"/>
	<path style="fill:#FCF05A;" d="M296,144h48v16h-48V144z"/>
	<path style="fill:#FCF05A;" d="M248,176h96v16h-96V176z"/>
</g>
<path style="fill:#394D5C;" d="M128,232h96v80h-96V232z"/>
<g>
	<path style="fill:#FCF05A;" d="M248,224h96v16h-96V224z"/>
	<path style="fill:#FCF05A;" d="M248,256h32v16h-32V256z"/>
	<path style="fill:#FCF05A;" d="M296,256h48v16h-48V256z"/>
	<path style="fill:#FCF05A;" d="M248,288h96v16h-96V288z"/>
	<path style="fill:#FCF05A;" d="M168,360h96v16h-96V360z"/>
</g>
<path style="fill:#394D5C;" d="M288,336h48v32h-48V336z"/>
<path style="fill:#AABECE;" d="M272,32h16v16h-16V32z"/>
<g>
</g>
<g>
</g>
<g>
</g>
<g>
</g>
<g>
</g>
<g>
</g>
<g>
</g>
<g>
</g>
<g>
</g>
<g>
</g>
<g>
</g>
<g>
</g>
<g>
</g>
<g>
</g>
<g>
</g>
</svg>
