<?xml version="1.0" encoding="iso-8859-1"?>
<!-- Generator: Adobe Illustrator 19.0.0, SVG Export Plug-In . SVG Version: 6.00 Build 0)  -->
<svg version="1.1" id="Capa_1" xmlns="http://www.w3.org/2000/svg" xmlns:xlink="http://www.w3.org/1999/xlink" x="0px" y="0px"
	 viewBox="0 0 480 480" style="enable-background:new 0 0 480 480;" xml:space="preserve">
<path style="fill:#7D8D9C;" d="M138.064,8h203.872C360.749,8,376,23.251,376,42.064v395.872C376,456.749,360.749,472,341.936,472
	H138.064C119.251,472,104,456.749,104,437.936V42.064C104,23.251,119.251,8,138.064,8z"/>
<path style="fill:#87CEE9;" d="M104,80h272v328H104V80z"/>
<g>
	<path style="fill:#AABECE;" d="M184,40h80v16h-80V40z"/>
	<path style="fill:#AABECE;" d="M224,432h32v16h-32V432z"/>
</g>
<path style="fill:#394D5C;" d="M136,128h96v80h-96V128z"/>
<g>
	<path style="fill:#FCF05A;" d="M256,120h96v16h-96V120z"/>
	<path style="fill:#FCF05A;" d="M256,152h32v16h-32V152z"/>
	<path style="fill:#FCF05A;" d="M304,152h48v16h-48V152z"/>
	<path style="fill:#FCF05A;" d="M256,184h96v16h-96V184z"/>
</g>
<path style="fill:#394D5C;" d="M136,240h96v80h-96V240z"/>
<g>
	<g>
		<path id="SVGCleanerId_0" style="fill:#FCF05A;" d="M256,232h96v16h-96V232z"/>
	</g>
	<g>
		<path id="SVGCleanerId_1" style="fill:#FCF05A;" d="M256,264h32v16h-32V264z"/>
	</g>
	<g>
		<path id="SVGCleanerId_2" style="fill:#FCF05A;" d="M304,264h48v16h-48V264z"/>
	</g>
	<g>
		<path id="SVGCleanerId_3" style="fill:#FCF05A;" d="M256,296h96v16h-96V296z"/>
	</g>
	<g>
		<path id="SVGCleanerId_4" style="fill:#FCF05A;" d="M176,368h96v16h-96V368z"/>
	</g>
</g>
<path style="fill:#394D5C;" d="M296,344h48v32h-48V344z"/>
<path style="fill:#AABECE;" d="M280,40h16v16h-16V40z"/>
<path d="M341.936,0H138.064C114.844,0.026,96.026,18.844,96,42.064v395.872c0.026,23.22,18.844,42.038,42.064,42.064h203.872
	c23.22-0.026,42.038-18.844,42.064-42.064V42.064C383.974,18.844,365.156,0.026,341.936,0z M112,88h256v312H112V88z M368,437.936
	c-0.018,14.387-11.677,26.046-26.064,26.064H138.064c-14.387-0.018-26.046-11.677-26.064-26.064V416h256V437.936z M112,72V42.064
	c0.018-14.387,11.677-26.046,26.064-26.064h203.872c14.387,0.018,26.046,11.677,26.064,26.064V72H112z"/>
<path d="M184,40h80v16h-80V40z"/>
<path d="M224,432h32v16h-32V432z"/>
<path d="M240,120H128v96h112V120z M224,200h-80v-64h80V200z"/>
<path d="M256,120h96v16h-96V120z"/>
<path d="M256,152h32v16h-32V152z"/>
<path d="M304,152h48v16h-48V152z"/>
<path d="M256,184h96v16h-96V184z"/>
<path d="M240,232H128v96h112V232z M224,312h-80v-64h80V312z"/>
<path id="SVGCleanerId_0_1_" d="M256,232h96v16h-96V232z"/>
<path id="SVGCleanerId_1_1_" d="M256,264h32v16h-32V264z"/>
<path id="SVGCleanerId_2_1_" d="M304,264h48v16h-48V264z"/>
<path id="SVGCleanerId_3_1_" d="M256,296h96v16h-96V296z"/>
<path id="SVGCleanerId_4_1_" d="M176,368h96v16h-96V368z"/>
<path d="M288,384h64v-48h-64V384z M304,352h32v16h-32V352z"/>
<path d="M280,40h16v16h-16V40z"/>
<g>
</g>
<g>
</g>
<g>
</g>
<g>
</g>
<g>
</g>
<g>
</g>
<g>
</g>
<g>
</g>
<g>
</g>
<g>
</g>
<g>
</g>
<g>
</g>
<g>
</g>
<g>
</g>
<g>
</g>
</svg>
