<?xml version="1.0" encoding="iso-8859-1"?>
<!-- Generator: Adobe Illustrator 19.0.0, SVG Export Plug-In . SVG Version: 6.00 Build 0)  -->
<svg version="1.1" id="Capa_1" xmlns="http://www.w3.org/2000/svg" xmlns:xlink="http://www.w3.org/1999/xlink" x="0px" y="0px"
	 viewBox="0 0 464 464" style="enable-background:new 0 0 464 464;" xml:space="preserve">
<path style="fill:#7D8D9C;" d="M0,333.936V130.064C0,111.251,15.251,96,34.064,96h395.872C448.749,96,464,111.251,464,130.064
	v203.872C464,352.749,448.749,368,429.936,368H34.064C15.251,368,0,352.749,0,333.936z"/>
<path style="fill:#87CEE9;" d="M72,368V96h328v272H72z"/>
<g>
	<path style="fill:#AABECE;" d="M32,208h16v80H32V208z"/>
	<path style="fill:#AABECE;" d="M424,216h16v32h-16V216z"/>
	<path style="fill:#AABECE;" d="M32,176h16v16H32V176z"/>
</g>
<path style="fill:#E9686A;" d="M176,296h-24v-24c0-4.418-3.582-8-8-8s-8,3.582-8,8v24h-24c-4.418,0-8,3.582-8,8s3.582,8,8,8h24v24
	c0,4.418,3.582,8,8,8s8-3.582,8-8v-24h24c4.418,0,8-3.582,8-8S180.418,296,176,296z"/>
<circle style="fill:#FCF05A;" cx="352" cy="296" r="24"/>
<circle style="fill:#E9686A;" cx="304" cy="320" r="24"/>
<path style="fill:#394D5C;" d="M104,160h64v32h-64V160z"/>
<g>
	<path style="fill:#2D75BB;" d="M120,192v32h24l24-32H120z"/>
	<path style="fill:#2D75BB;" d="M104,160v-32h24l16,32H104z"/>
</g>
<path style="fill:#394D5C;" d="M168,160v32h40v-24L168,160z"/>
<g>
	<path style="fill:#F4F4E6;" d="M232,168h16v16h-16V168z"/>
	<path style="fill:#F4F4E6;" d="M264,168h32v16h-32V168z"/>
</g>
<path style="fill:#E9686A;" d="M352,216c-4.418,0-8-3.582-8-8c0-13.255-10.745-24-24-24c-4.418,0-8-3.582-8-8s3.582-8,8-8
	c13.255,0,24-10.745,24-24c0-4.418,3.582-8,8-8s8,3.582,8,8c0,13.255,10.745,24,24,24c4.418,0,8,3.582,8,8s-3.582,8-8,8
	c-13.255,0-24,10.745-24,24C360,212.418,356.418,216,352,216z M344,176c3.031,2.276,5.724,4.969,8,8c2.276-3.031,4.969-5.724,8-8
	c-3.031-2.276-5.724-4.969-8-8C349.724,171.031,347.031,173.724,344,176z"/>
<g>
</g>
<g>
</g>
<g>
</g>
<g>
</g>
<g>
</g>
<g>
</g>
<g>
</g>
<g>
</g>
<g>
</g>
<g>
</g>
<g>
</g>
<g>
</g>
<g>
</g>
<g>
</g>
<g>
</g>
</svg>
