<?xml version="1.0" encoding="iso-8859-1"?>
<!-- Generator: Adobe Illustrator 19.0.0, SVG Export Plug-In . SVG Version: 6.00 Build 0)  -->
<svg version="1.1" id="Capa_1" xmlns="http://www.w3.org/2000/svg" xmlns:xlink="http://www.w3.org/1999/xlink" x="0px" y="0px"
	 viewBox="0 0 480 480" style="enable-background:new 0 0 480 480;" xml:space="preserve">
<path style="fill:#7D8D9C;" d="M8,341.936V138.064C8,119.251,23.251,104,42.064,104h395.872C456.749,104,472,119.251,472,138.064
	v203.872C472,360.749,456.749,376,437.936,376H42.064C23.251,376,8,360.749,8,341.936z"/>
<path style="fill:#87CEE9;" d="M80,376V104h328v272H80z"/>
<g>
	<g>
		<path id="SVGCleanerId_0" style="fill:#AABECE;" d="M40,216h16v80H40V216z"/>
	</g>
	<g>
		<path id="SVGCleanerId_1" style="fill:#AABECE;" d="M432,224h16v32h-16V224z"/>
	</g>
	<g>
		<path id="SVGCleanerId_2" style="fill:#AABECE;" d="M40,184h16v16H40V184z"/>
	</g>
</g>
<path style="fill:#E9686A;" d="M184,304h-24v-24c0-4.418-3.582-8-8-8s-8,3.582-8,8v24h-24c-4.418,0-8,3.582-8,8s3.582,8,8,8h24v24
	c0,4.418,3.582,8,8,8s8-3.582,8-8v-24h24c4.418,0,8-3.582,8-8S188.418,304,184,304z"/>
<circle style="fill:#FCF05A;" cx="360" cy="304" r="24"/>
<circle style="fill:#E9686A;" cx="312" cy="328" r="24"/>
<path style="fill:#394D5C;" d="M112,168h64v32h-64V168z"/>
<g>
	<path style="fill:#2D75BB;" d="M128,200v32h24l24-32H128z"/>
	<path style="fill:#2D75BB;" d="M112,168v-32h24l16,32H112z"/>
</g>
<path style="fill:#394D5C;" d="M176,168v32h40v-24L176,168z"/>
<g>
	<path style="fill:#F4F4E6;" d="M240,176h16v16h-16V176z"/>
	<path style="fill:#F4F4E6;" d="M272,176h32v16h-32V176z"/>
</g>
<path style="fill:#E9686A;" d="M360,224c-4.418,0-8-3.582-8-8c0-13.255-10.745-24-24-24c-4.418,0-8-3.582-8-8s3.582-8,8-8
	c13.255,0,24-10.745,24-24c0-4.418,3.582-8,8-8s8,3.582,8,8c0,13.255,10.745,24,24,24c4.418,0,8,3.582,8,8s-3.582,8-8,8
	c-13.255,0-24,10.745-24,24C368,220.418,364.418,224,360,224z M352,184c3.031,2.276,5.724,4.969,8,8c2.276-3.031,4.969-5.724,8-8
	c-3.031-2.276-5.724-4.969-8-8C357.724,179.031,355.031,181.724,352,184z"/>
<path d="M437.928,96H42.064C18.842,96.022,0.022,114.842,0,138.064v203.872C0.022,365.158,18.842,383.978,42.064,384h395.864
	c23.223-0.022,42.046-18.841,42.072-42.064V138.064C479.974,114.841,461.151,96.022,437.928,96L437.928,96z M42.064,368
	C27.677,367.982,16.018,356.323,16,341.936V138.064c0.018-14.387,11.677-26.046,26.064-26.064H72v256H42.064z M88,368V112h312v256
	H88z M464,341.936c-0.022,14.389-11.683,26.046-26.072,26.064H416V112h21.928c14.389,0.018,26.05,11.675,26.072,26.064V341.936z"/>
<path id="SVGCleanerId_0_1_" d="M40,216h16v80H40V216z"/>
<path id="SVGCleanerId_1_1_" d="M432,224h16v32h-16V224z"/>
<path id="SVGCleanerId_2_1_" d="M40,184h16v16H40V184z"/>
<path d="M184,304h-24v-24c0-4.418-3.582-8-8-8s-8,3.582-8,8v24h-24c-4.418,0-8,3.582-8,8s3.582,8,8,8h24v24c0,4.418,3.582,8,8,8
	s8-3.582,8-8v-24h24c4.418,0,8-3.582,8-8S188.418,304,184,304z"/>
<path d="M360,280c-13.255,0-24,10.745-24,24s10.745,24,24,24s24-10.745,24-24S373.255,280,360,280z M360,312c-4.418,0-8-3.582-8-8
	s3.582-8,8-8s8,3.582,8,8S364.418,312,360,312z"/>
<path d="M312,304c-13.255,0-24,10.745-24,24s10.745,24,24,24s24-10.745,24-24S325.255,304,312,304z M312,336c-4.418,0-8-3.582-8-8
	s3.582-8,8-8s8,3.582,8,8S316.418,336,312,336z"/>
<path d="M217.6,168.16l-40-8c-0.235-0.012-0.469-0.012-0.704,0c-0.295-0.071-0.594-0.124-0.896-0.16h-19.056l-13.792-27.576
	c-1.354-2.71-4.123-4.422-7.152-4.424h-24c-4.418,0-8,3.582-8,8v64c0,4.418,3.582,8,8,8h8v24c0,4.418,3.582,8,8,8h24
	c2.518,0,4.889-1.186,6.4-3.2L180,208h36c4.418,0,8-3.582,8-8v-24C224.001,172.198,221.325,168.92,217.6,168.16L217.6,168.16z
	 M168,192h-48v-16h48V192z M120,144h11.056l8,16H120V144z M148,224h-12v-16h24L148,224z M208,192h-24v-14.24l24,4.8V192z"/>
<path d="M240,176h16v16h-16V176z"/>
<path d="M272,176h32v16h-32V176z"/>
<path d="M392,176c-13.255,0-24-10.745-24-24c0-4.418-3.582-8-8-8s-8,3.582-8,8c0,13.255-10.745,24-24,24c-4.418,0-8,3.582-8,8
	s3.582,8,8,8c13.255,0,24,10.745,24,24c0,4.418,3.582,8,8,8s8-3.582,8-8c0-13.255,10.745-24,24-24c4.418,0,8-3.582,8-8
	S396.418,176,392,176z M360,192c-2.276-3.031-4.969-5.724-8-8c3.031-2.276,5.724-4.969,8-8c2.276,3.031,4.969,5.724,8,8
	C364.969,186.276,362.276,188.969,360,192z"/>
<g>
</g>
<g>
</g>
<g>
</g>
<g>
</g>
<g>
</g>
<g>
</g>
<g>
</g>
<g>
</g>
<g>
</g>
<g>
</g>
<g>
</g>
<g>
</g>
<g>
</g>
<g>
</g>
<g>
</g>
</svg>
