<?xml version="1.0" encoding="iso-8859-1"?>
<!-- Generator: Adobe Illustrator 19.0.0, SVG Export Plug-In . SVG Version: 6.00 Build 0)  -->
<svg version="1.1" id="Capa_1" xmlns="http://www.w3.org/2000/svg" xmlns:xlink="http://www.w3.org/1999/xlink" x="0px" y="0px"
	 viewBox="0 0 464 464" style="enable-background:new 0 0 464 464;" xml:space="preserve">
<path style="fill:#7D8D9C;" d="M144,0h176c17.673,0,32,14.327,32,32v400c0,17.673-14.327,32-32,32H144c-17.673,0-32-14.327-32-32V32
	C112,14.327,126.327,0,144,0z"/>
<path style="fill:#87CEE9;" d="M112,72h240v328H112V72z"/>
<g>
	<path style="fill:#AABECE;" d="M176,32h80v16h-80V32z"/>
	<circle style="fill:#AABECE;" cx="232" cy="432" r="32"/>
</g>
<path style="fill:#238892;" d="M168,160h32c8.837,0,16,7.163,16,16v32c0,8.837-7.163,16-16,16h-32c-8.837,0-16-7.163-16-16v-32
	C152,167.163,159.163,160,168,160z"/>
<g>
	<path style="fill:#394D5C;" d="M264,160h32c8.837,0,16,7.163,16,16v32c0,8.837-7.163,16-16,16h-32c-8.837,0-16-7.163-16-16v-32
		C248,167.163,255.163,160,264,160z"/>
	<path style="fill:#394D5C;" d="M168,256h32c8.837,0,16,7.163,16,16v32c0,8.837-7.163,16-16,16h-32c-8.837,0-16-7.163-16-16v-32
		C152,263.163,159.163,256,168,256z"/>
</g>
<path style="fill:#238892;" d="M264,256h32c8.837,0,16,7.163,16,16v32c0,8.837-7.163,16-16,16h-32c-8.837,0-16-7.163-16-16v-32
	C248,263.163,255.163,256,264,256z"/>
<g>
	<path style="fill:#E9686A;" d="M144,136c-4.418,0-8-3.582-8-8v-24c0-4.418,3.582-8,8-8h24c4.418,0,8,3.582,8,8c0,4.418-3.582,8-8,8
		h-16v16C152,132.418,148.418,136,144,136z"/>
	<path style="fill:#E9686A;" d="M216,112h-16c-4.418,0-8-3.582-8-8c0-4.418,3.582-8,8-8h16c4.418,0,8,3.582,8,8
		C224,108.418,220.418,112,216,112z"/>
</g>
<path style="fill:#AABECE;" d="M272,32h16v16h-16V32z"/>
<g>
</g>
<g>
</g>
<g>
</g>
<g>
</g>
<g>
</g>
<g>
</g>
<g>
</g>
<g>
</g>
<g>
</g>
<g>
</g>
<g>
</g>
<g>
</g>
<g>
</g>
<g>
</g>
<g>
</g>
</svg>
