<?xml version="1.0" encoding="iso-8859-1"?>
<!-- Generator: Adobe Illustrator 19.0.0, SVG Export Plug-In . SVG Version: 6.00 Build 0)  -->
<svg version="1.1" id="Capa_1" xmlns="http://www.w3.org/2000/svg" xmlns:xlink="http://www.w3.org/1999/xlink" x="0px" y="0px"
	 viewBox="0 0 480 480" style="enable-background:new 0 0 480 480;" xml:space="preserve">
<path style="fill:#7D8D9C;" d="M152,8h176c17.673,0,32,14.327,32,32v400c0,17.673-14.327,32-32,32H152c-17.673,0-32-14.327-32-32V40
	C120,22.327,134.327,8,152,8z"/>
<path style="fill:#87CEE9;" d="M120,80h240v328H120V80z"/>
<g>
	<path style="fill:#AABECE;" d="M184,40h80v16h-80V40z"/>
	<circle style="fill:#AABECE;" cx="240" cy="440" r="32"/>
</g>
<path style="fill:#238892;" d="M176,168h32c8.837,0,16,7.163,16,16v32c0,8.837-7.163,16-16,16h-32c-8.837,0-16-7.163-16-16v-32
	C160,175.163,167.163,168,176,168z"/>
<g>
	<path style="fill:#394D5C;" d="M272,168h32c8.837,0,16,7.163,16,16v32c0,8.837-7.163,16-16,16h-32c-8.837,0-16-7.163-16-16v-32
		C256,175.163,263.163,168,272,168z"/>
	<path style="fill:#394D5C;" d="M176,264h32c8.837,0,16,7.163,16,16v32c0,8.837-7.163,16-16,16h-32c-8.837,0-16-7.163-16-16v-32
		C160,271.163,167.163,264,176,264z"/>
</g>
<path style="fill:#238892;" d="M272,264h32c8.837,0,16,7.163,16,16v32c0,8.837-7.163,16-16,16h-32c-8.837,0-16-7.163-16-16v-32
	C256,271.163,263.163,264,272,264z"/>
<g>
	<path style="fill:#E9686A;" d="M152,144c-4.418,0-8-3.582-8-8v-24c0-4.418,3.582-8,8-8h24c4.418,0,8,3.582,8,8c0,4.418-3.582,8-8,8
		h-16v16C160,140.418,156.418,144,152,144z"/>
	<path style="fill:#E9686A;" d="M224,120h-16c-4.418,0-8-3.582-8-8c0-4.418,3.582-8,8-8h16c4.418,0,8,3.582,8,8
		C232,116.418,228.418,120,224,120z"/>
</g>
<path style="fill:#AABECE;" d="M280,40h16v16h-16V40z"/>
<path d="M328,0H152c-22.08,0.026-39.974,17.92-40,40v400c0.026,22.08,17.92,39.974,40,40h176c22.08-0.026,39.974-17.92,40-40V40
	C367.974,17.92,350.08,0.026,328,0z M264,440c0,13.255-10.745,24-24,24c-13.255,0-24-10.745-24-24s10.745-24,24-24
	C253.255,416,264,426.745,264,440z M128,400V88h224v312H128z M128,440v-24h80.208c-10.941,14.13-10.941,33.87,0,48H152
	C138.745,464,128,453.255,128,440z M352,440c0,13.255-10.745,24-24,24h-56.208c10.941-14.13,10.941-33.87,0-48H352V440z M128,72V40
	c0-13.255,10.745-24,24-24h176c13.255,0,24,10.745,24,24v32H128z"/>
<path d="M184,40h80v16h-80V40z"/>
<path d="M208,160h-32c-13.255,0-24,10.745-24,24v32c0,13.255,10.745,24,24,24l0,0h32c13.255,0,24-10.745,24-24l0,0v-32
	C232,170.745,221.255,160,208,160z M216,216c0,4.418-3.582,8-8,8h-32c-4.418,0-8-3.582-8-8v-32c0-4.418,3.582-8,8-8h32
	c4.418,0,8,3.582,8,8V216z"/>
<path d="M304,160h-32c-13.255,0-24,10.745-24,24v32c0,13.255,10.745,24,24,24l0,0h32c13.255,0,24-10.745,24-24l0,0v-32
	C328,170.745,317.255,160,304,160z M312,216c0,4.418-3.582,8-8,8h-32c-4.418,0-8-3.582-8-8v-32c0-4.418,3.582-8,8-8h32
	c4.418,0,8,3.582,8,8V216z"/>
<path d="M208,256h-32c-13.255,0-24,10.745-24,24v32c0,13.255,10.745,24,24,24h32c13.255,0,24-10.745,24-24v-32
	C232,266.745,221.255,256,208,256z M216,312c0,4.418-3.582,8-8,8h-32c-4.418,0-8-3.582-8-8v-32c0-4.418,3.582-8,8-8h32
	c4.418,0,8,3.582,8,8V312z"/>
<path d="M304,256h-32c-13.255,0-24,10.745-24,24v32c0,13.255,10.745,24,24,24h32c13.255,0,24-10.745,24-24v-32
	C328,266.745,317.255,256,304,256z M312,312c0,4.418-3.582,8-8,8h-32c-4.418,0-8-3.582-8-8v-32c0-4.418,3.582-8,8-8h32
	c4.418,0,8,3.582,8,8V312z"/>
<path d="M160,136v-16h16c4.418,0,8-3.582,8-8c0-4.418-3.582-8-8-8h-24c-4.418,0-8,3.582-8,8v24c0,4.418,3.582,8,8,8
	S160,140.418,160,136z"/>
<path d="M224,104h-16c-4.418,0-8,3.582-8,8c0,4.418,3.582,8,8,8h16c4.418,0,8-3.582,8-8C232,107.582,228.418,104,224,104z"/>
<path d="M280,40h16v16h-16V40z"/>
<g>
</g>
<g>
</g>
<g>
</g>
<g>
</g>
<g>
</g>
<g>
</g>
<g>
</g>
<g>
</g>
<g>
</g>
<g>
</g>
<g>
</g>
<g>
</g>
<g>
</g>
<g>
</g>
<g>
</g>
</svg>
