<?xml version="1.0" encoding="iso-8859-1"?>
<!-- Generator: Adobe Illustrator 19.0.0, SVG Export Plug-In . SVG Version: 6.00 Build 0)  -->
<svg version="1.1" id="Capa_1" xmlns="http://www.w3.org/2000/svg" xmlns:xlink="http://www.w3.org/1999/xlink" x="0px" y="0px"
	 viewBox="0 0 480 480" style="enable-background:new 0 0 480 480;" xml:space="preserve">
<path style="fill:#7D8D9C;" d="M152,8h176c17.673,0,32,14.327,32,32v400c0,17.673-14.327,32-32,32H152c-17.673,0-32-14.327-32-32V40
	C120,22.327,134.327,8,152,8z"/>
<path style="fill:#87CEE9;" d="M120,80h240v328H120V80z"/>
<g>
	<path style="fill:#AABECE;" d="M184,40h80v16h-80V40z"/>
	<circle style="fill:#AABECE;" cx="240" cy="440" r="32"/>
</g>
<g>
	<path style="fill:#E9686A;" d="M152,144c-4.418,0-8-3.582-8-8v-24c0-4.418,3.582-8,8-8h24c4.418,0,8,3.582,8,8c0,4.418-3.582,8-8,8
		h-16v16C160,140.418,156.418,144,152,144z"/>
	<path style="fill:#E9686A;" d="M224,120h-16c-4.418,0-8-3.582-8-8c0-4.418,3.582-8,8-8h16c4.418,0,8,3.582,8,8
		C232,116.418,228.418,120,224,120z"/>
</g>
<path style="fill:#AABECE;" d="M280,40h16v16h-16V40z"/>
<g>
	<path style="fill:#FDBD40;" d="M424,160c-4.418,0-8-3.582-8-8c0-13.255-10.745-24-24-24c-4.418,0-8-3.582-8-8s3.582-8,8-8
		c13.255,0,24-10.745,24-24c0-4.418,3.582-8,8-8s8,3.582,8,8c0,13.255,10.745,24,24,24c4.418,0,8,3.582,8,8s-3.582,8-8,8
		c-13.255,0-24,10.745-24,24C432,156.418,428.418,160,424,160z M416,120c3.031,2.276,5.724,4.969,8,8c2.276-3.031,4.969-5.724,8-8
		c-3.031-2.276-5.724-4.969-8-8C421.724,115.031,419.031,117.724,416,120z"/>
	<path style="fill:#FDBD40;" d="M56,408c-4.418,0-8-3.582-8-8c0-13.255-10.745-24-24-24c-4.418,0-8-3.582-8-8s3.582-8,8-8
		c13.255,0,24-10.745,24-24c0-4.418,3.582-8,8-8s8,3.582,8,8c0,13.255,10.745,24,24,24c4.418,0,8,3.582,8,8s-3.582,8-8,8
		c-13.255,0-24,10.745-24,24C64,404.418,60.418,408,56,408z M48,368c3.031,2.276,5.724,4.969,8,8c2.276-3.031,4.969-5.724,8-8
		c-3.031-2.276-5.724-4.969-8-8C53.724,363.031,51.031,365.724,48,368z"/>
</g>
<path style="fill:#E9686A;" d="M300,256l-16.856-22.472c-4.811-6.429-13.012-9.34-20.8-7.384l-14.4,3.592V216h32
	c3.029-0.002,5.798-1.714,7.152-4.424l16-32c1.975-3.952,0.372-8.757-3.58-10.732c-1.092-0.546-2.295-0.834-3.516-0.844h-56
	c-4.418,0-8,3.582-8,8v53.752l-14.4-3.592c-7.788-1.954-15.987,0.957-20.8,7.384L180,256c-2.593,3.464-3.997,7.673-4,12v30.28
	c-0.015,6.059,2.74,11.793,7.48,15.568l27.2,21.736c7.926,6.363,19.373,5.732,26.552-1.464c1.534-1.546,4.031-1.556,5.578-0.022
	c0.008,0.007,0.015,0.015,0.022,0.022c7.18,7.193,18.625,7.824,26.552,1.464l27.2-21.728c4.722-3.793,7.454-9.535,7.416-15.592V268
	C303.996,263.673,302.593,259.464,300,256L300,256z"/>
<path d="M152,480h176c22.08-0.026,39.974-17.92,40-40V40c-0.026-22.08-17.92-39.974-40-40H152c-22.08,0.026-39.974,17.92-40,40v400
	C112.026,462.08,129.92,479.974,152,480z M216,440c0-13.255,10.745-24,24-24c13.255,0,24,10.745,24,24s-10.745,24-24,24
	C226.745,464,216,453.255,216,440z M128,400V88h224v312H128z M352,440c0,13.255-10.745,24-24,24h-56.208
	c10.941-14.13,10.941-33.87,0-48H352V440z M128,40c0-13.255,10.745-24,24-24h176c13.255,0,24,10.745,24,24v32H128V40z M208.208,416
	c-10.941,14.13-10.941,33.87,0,48H152c-13.255,0-24-10.745-24-24v-24H208.208z"/>
<path d="M184,40h80v16h-80V40z"/>
<path d="M184,112c0-4.418-3.582-8-8-8h-24c-4.418,0-8,3.582-8,8v24c0,4.418,3.582,8,8,8s8-3.582,8-8v-16h16
	C180.418,120,184,116.418,184,112z"/>
<path d="M208,120h16c4.418,0,8-3.582,8-8c0-4.418-3.582-8-8-8h-16c-4.418,0-8,3.582-8,8C200,116.418,203.582,120,208,120z"/>
<path d="M280,40h16v16h-16V40z"/>
<path d="M392,128c13.255,0,24,10.745,24,24c0,4.418,3.582,8,8,8s8-3.582,8-8c0-13.255,10.745-24,24-24c4.418,0,8-3.582,8-8
	s-3.582-8-8-8c-13.255,0-24-10.745-24-24c0-4.418-3.582-8-8-8s-8,3.582-8,8c0,13.255-10.745,24-24,24c-4.418,0-8,3.582-8,8
	S387.582,128,392,128z M424,112c2.276,3.031,4.969,5.724,8,8c-3.031,2.276-5.724,4.969-8,8c-2.276-3.031-4.969-5.724-8-8
	C419.031,117.724,421.724,115.031,424,112z"/>
<path d="M24,376c13.255,0,24,10.745,24,24c0,4.418,3.582,8,8,8s8-3.582,8-8c0-13.255,10.745-24,24-24c4.418,0,8-3.582,8-8
	s-3.582-8-8-8c-13.255,0-24-10.745-24-24c0-4.418-3.582-8-8-8s-8,3.582-8,8c0,13.255-10.745,24-24,24c-4.418,0-8,3.582-8,8
	S19.582,376,24,376z M56,360c2.276,3.031,4.969,5.724,8,8c-3.031,2.276-5.724,4.969-8,8c-2.276-3.031-4.969-5.724-8-8
	C51.031,365.724,53.724,363.031,56,360z"/>
<path d="M283.152,233.544c-4.811-6.429-13.012-9.34-20.8-7.384l-14.4,3.592V216h32c3.029-0.002,5.798-1.714,7.152-4.424l16-32
	c1.975-3.952,0.372-8.757-3.58-10.732c-1.095-0.547-2.3-0.836-3.524-0.844h-56c-4.418,0-8,3.582-8,8v53.752l-14.4-3.592
	c-7.788-1.954-15.987,0.957-20.8,7.384L180,256c-2.593,3.464-3.997,7.673-4,12v30.28c-0.015,6.059,2.74,11.793,7.48,15.568
	l27.2,21.736c7.926,6.363,19.373,5.732,26.552-1.464c1.534-1.546,4.031-1.556,5.578-0.022c0.008,0.007,0.015,0.015,0.022,0.022
	c7.18,7.193,18.625,7.824,26.552,1.464l27.2-21.728c4.722-3.793,7.454-9.535,7.416-15.592V268c-0.004-4.327-1.407-8.536-4-12
	L283.152,233.544z M248,184h35.056l-8,16H248V184z M288,298.264c0.004,1.199-0.545,2.332-1.488,3.072l-27.2,21.744
	c-1.564,1.247-3.815,1.124-5.232-0.288c-7.803-7.765-20.413-7.765-28.216,0c-1.419,1.408-3.667,1.532-5.232,0.288l-27.2-21.744
	c-0.92-0.753-1.447-1.883-1.432-3.072V268c0-0.865,0.281-1.708,0.8-2.4l16.848-22.472c0.947-1.277,2.571-1.855,4.112-1.464
	l21.424,5.36c0.488,0.12,1,0.096,1.488,0.184c2.104,1.034,4.568,1.034,6.672,0c0.496-0.088,1.008-0.064,1.496-0.184l21.416-5.36
	c1.541-0.395,3.168,0.184,4.112,1.464L287.2,265.6c0.511,0.681,0.791,1.508,0.8,2.36L288,298.264z"/>
<g>
</g>
<g>
</g>
<g>
</g>
<g>
</g>
<g>
</g>
<g>
</g>
<g>
</g>
<g>
</g>
<g>
</g>
<g>
</g>
<g>
</g>
<g>
</g>
<g>
</g>
<g>
</g>
<g>
</g>
</svg>
