<?xml version="1.0" encoding="iso-8859-1"?>
<!-- Generator: Adobe Illustrator 19.0.0, SVG Export Plug-In . SVG Version: 6.00 Build 0)  -->
<svg version="1.1" id="Capa_1" xmlns="http://www.w3.org/2000/svg" xmlns:xlink="http://www.w3.org/1999/xlink" x="0px" y="0px"
	 viewBox="0 0 464 464" style="enable-background:new 0 0 464 464;" xml:space="preserve">
<path style="fill:#394D5C;" d="M168,424H56c-4.418,0-8-3.582-8-8v-72c0-4.418,3.582-8,8-8s8,3.582,8,8v64h104c4.418,0,8,3.582,8,8
	S172.418,424,168,424z"/>
<path style="fill:#2D75BB;" d="M64,184h32l0,0v160l0,0H64c-17.673,0-32-14.327-32-32v-96C32,198.327,46.327,184,64,184z"/>
<path style="fill:#FCF05A;" d="M168,392h80v48h-80V392z"/>
<path style="fill:#7D8D9C;" d="M64,88v96h32v-80c0-35.344,28.656-48,64-48h144c35.344,0,64,12.656,64,48v80h32V88
	c0-35.346-28.654-64-64-64H128C92.654,24,64,52.654,64,88z"/>
<path style="fill:#FCF05A;" d="M0,216h32v96H0V216z"/>
<path style="fill:#87CEE9;" d="M96,344V184c17.673,0,32,14.327,32,32v96C128,329.673,113.673,344,96,344z"/>
<path style="fill:#2D75BB;" d="M400,344h-32l0,0V184l0,0h32c17.673,0,32,14.327,32,32v96C432,329.673,417.673,344,400,344z"/>
<path style="fill:#FCF05A;" d="M464,312h-32v-96h32V312z"/>
<path style="fill:#87CEE9;" d="M368,344V184c-17.673,0-32,14.327-32,32v96C336,329.673,350.327,344,368,344z"/>
<g>
</g>
<g>
</g>
<g>
</g>
<g>
</g>
<g>
</g>
<g>
</g>
<g>
</g>
<g>
</g>
<g>
</g>
<g>
</g>
<g>
</g>
<g>
</g>
<g>
</g>
<g>
</g>
<g>
</g>
</svg>
