<?xml version="1.0" encoding="iso-8859-1"?>
<!-- Generator: Adobe Illustrator 19.0.0, SVG Export Plug-In . SVG Version: 6.00 Build 0)  -->
<svg version="1.1" id="Capa_1" xmlns="http://www.w3.org/2000/svg" xmlns:xlink="http://www.w3.org/1999/xlink" x="0px" y="0px"
	 viewBox="0 0 480 480" style="enable-background:new 0 0 480 480;" xml:space="preserve">
<path style="fill:#394D5C;" d="M176,432H64c-4.418,0-8-3.582-8-8v-72c0-4.418,3.582-8,8-8s8,3.582,8,8v64h104c4.418,0,8,3.582,8,8
	S180.418,432,176,432z"/>
<path style="fill:#2D75BB;" d="M72,192h32l0,0v160l0,0H72c-17.673,0-32-14.327-32-32v-96C40,206.327,54.327,192,72,192z"/>
<path style="fill:#FCF05A;" d="M176,400h80v48h-80V400z"/>
<path style="fill:#7D8D9C;" d="M72,96v96h32v-80c0-35.344,28.656-48,64-48h144c35.344,0,64,12.656,64,48v80h32V96
	c0-35.346-28.654-64-64-64H136C100.654,32,72,60.654,72,96z"/>
<path style="fill:#FCF05A;" d="M8,224h32v96H8V224z"/>
<path style="fill:#87CEE9;" d="M104,352V192c17.673,0,32,14.327,32,32v96C136,337.673,121.673,352,104,352z"/>
<path style="fill:#2D75BB;" d="M408,352h-32l0,0V192l0,0h32c17.673,0,32,14.327,32,32v96C440,337.673,425.673,352,408,352z"/>
<path style="fill:#FCF05A;" d="M472,320h-32v-96h32V320z"/>
<path style="fill:#87CEE9;" d="M376,352V192c-17.673,0-32,14.327-32,32v96C344,337.673,358.327,352,376,352z"/>
<path d="M472,216h-24.8c-3.236-15.698-15.502-27.964-31.2-31.2V96c-0.044-39.746-32.254-71.956-72-72H136
	c-39.746,0.044-71.956,32.254-72,72v88.8c-15.698,3.236-27.964,15.502-31.2,31.2H8c-4.418,0-8,3.582-8,8v96c0,4.418,3.582,8,8,8
	h24.8c2.639,12.733,11.287,23.396,23.2,28.608V424c0,4.418,3.582,8,8,8h104v16c0,4.418,3.582,8,8,8h80c4.418,0,8-3.582,8-8v-48
	c0-4.418-3.582-8-8-8h-80c-4.418,0-8,3.582-8,8v16H72v-56h32c22.08-0.026,39.974-17.92,40-40v-96
	c-0.024-19.001-13.389-35.373-32-39.2V112c0-26.536,18.84-40,56-40h144c37.152,0,56,13.464,56,40v72.8
	c-18.611,3.827-31.976,20.199-32,39.2v96c0.026,22.08,17.92,39.974,40,40h32c19.001-0.024,35.373-13.389,39.2-32H472
	c4.418,0,8-3.582,8-8v-96C480,219.582,476.418,216,472,216z M184,408h64v32h-64V408z M16,232h16v80H16V232z M48,320v-96
	c0-13.255,10.745-24,24-24h24v144H72C58.745,344,48,333.255,48,320z M128,224v96c-0.012,10.168-6.418,19.229-16,22.632V201.368
	C121.582,204.771,127.988,213.832,128,224L128,224z M312,56H168c-45.76,0-72,20.416-72,56v72H80V96c0.04-30.911,25.089-55.96,56-56
	h208c30.911,0.04,55.96,25.089,56,56v88h-16v-72C384,76.416,357.76,56,312,56z M352,320v-96c0.012-10.168,6.418-19.229,16-22.632
	v141.264C358.418,339.229,352.012,330.168,352,320L352,320z M408,344h-24V200h24c13.255,0,24,10.745,24,24v96
	C432,333.255,421.255,344,408,344z M464,312h-16v-80h16V312z"/>
<g>
</g>
<g>
</g>
<g>
</g>
<g>
</g>
<g>
</g>
<g>
</g>
<g>
</g>
<g>
</g>
<g>
</g>
<g>
</g>
<g>
</g>
<g>
</g>
<g>
</g>
<g>
</g>
<g>
</g>
</svg>
