<?xml version="1.0" encoding="iso-8859-1"?>
<!-- Generator: Adobe Illustrator 19.0.0, SVG Export Plug-In . SVG Version: 6.00 Build 0)  -->
<svg version="1.1" id="Capa_1" xmlns="http://www.w3.org/2000/svg" xmlns:xlink="http://www.w3.org/1999/xlink" x="0px" y="0px"
	 viewBox="0 0 464 464" style="enable-background:new 0 0 464 464;" xml:space="preserve">
<g>
	<path style="fill:#2D75BB;" d="M136,152c-4.418,0-8-3.582-7.999-8.001c0-2.334,1.02-4.552,2.791-6.071l56-48
		c3.462-2.745,8.494-2.165,11.239,1.297c2.6,3.279,2.234,8.007-0.839,10.847l-56,48C139.746,151.312,137.905,151.996,136,152
		L136,152z"/>
	<path style="fill:#2D75BB;" d="M368,216h-32c-4.418,0-8-3.582-8-8s3.582-8,8-8h32c4.418,0,8,3.582,8,8S372.418,216,368,216z"/>
	<path style="fill:#2D75BB;" d="M152,384c-4.418,0.004-8.004-3.574-8.008-7.992c-0.004-3.808,2.677-7.09,6.408-7.848l40-8
		c4.3-1.015,8.609,1.648,9.624,5.948c1.015,4.3-1.648,8.609-5.948,9.624c-0.179,0.042-0.359,0.078-0.54,0.108l-40,8
		C153.031,383.945,152.516,383.999,152,384z"/>
</g>
<g>
	<path style="fill:#87CEE9;" d="M128,0h176v96H128V0z"/>
	<path style="fill:#87CEE9;" d="M336,280H160v-96h176V280z"/>
	<path style="fill:#87CEE9;" d="M192,336h176v96H192V336z"/>
</g>
<g>
	<circle style="fill:#FFF69A;" cx="48" cy="48" r="48"/>
	<circle style="fill:#FFF69A;" cx="80" cy="304" r="48"/>
	<circle style="fill:#FFF69A;" cx="416" cy="144" r="48"/>
</g>
<path style="fill:#2D75BB;" d="M32,128h32c17.673,0,32,14.327,32,32v48l0,0H0l0,0v-48C0,142.327,14.327,128,32,128z"/>
<path style="fill:#FCF05A;" d="M48,176c-4.418,0-8-3.582-8-8v-40c0-4.418,3.582-8,8-8s8,3.582,8,8v40C56,172.418,52.418,176,48,176z
	"/>
<path style="fill:#2D75BB;" d="M40,48h16v16H40V48z"/>
<g>
	<path style="fill:#FCF05A;" d="M160,56h16v16h-16V56z"/>
	<path style="fill:#FCF05A;" d="M160,24h16v16h-16V24z"/>
	<path style="fill:#FCF05A;" d="M192,24h32v16h-32V24z"/>
	<path style="fill:#FCF05A;" d="M240,24h40v16h-40V24z"/>
	<path style="fill:#FCF05A;" d="M192,56h88v16h-88V56z"/>
	<path style="fill:#FCF05A;" d="M216,392h16v16h-16V392z"/>
	<path style="fill:#FCF05A;" d="M216,360h16v16h-16V360z"/>
	<path style="fill:#FCF05A;" d="M248,360h32v16h-32V360z"/>
	<path style="fill:#FCF05A;" d="M296,360h48v16h-48V360z"/>
	<path style="fill:#FCF05A;" d="M248,392h96v16h-96V392z"/>
	<path style="fill:#FCF05A;" d="M288,240h16v16h-16V240z"/>
	<path style="fill:#FCF05A;" d="M288,208h16v16h-16V208z"/>
	<path style="fill:#FCF05A;" d="M240,208h32v16h-32V208z"/>
	<path style="fill:#FCF05A;" d="M184,208h40v16h-40V208z"/>
	<path style="fill:#FCF05A;" d="M184,240h88v16h-88V240z"/>
</g>
<path style="fill:#2D75BB;" d="M64,384h32c17.673,0,32,14.327,32,32v48l0,0H32l0,0v-48C32,398.327,46.327,384,64,384z"/>
<path style="fill:#FCF05A;" d="M80,432c-4.418,0-8-3.582-8-8v-40c0-4.418,3.582-8,8-8s8,3.582,8,8v40C88,428.418,84.418,432,80,432z
	"/>
<g>
	<path style="fill:#2D75BB;" d="M72,304h16v16H72V304z"/>
	<path style="fill:#2D75BB;" d="M400,224h32c17.673,0,32,14.327,32,32v48l0,0h-96l0,0v-48C368,238.327,382.327,224,400,224z"/>
</g>
<path style="fill:#FCF05A;" d="M416,272c-4.418,0-8-3.582-8-8v-40c0-4.418,3.582-8,8-8s8,3.582,8,8v40
	C424,268.418,420.418,272,416,272z"/>
<path style="fill:#2D75BB;" d="M408,144h16v16h-16V144z"/>
<g>
</g>
<g>
</g>
<g>
</g>
<g>
</g>
<g>
</g>
<g>
</g>
<g>
</g>
<g>
</g>
<g>
</g>
<g>
</g>
<g>
</g>
<g>
</g>
<g>
</g>
<g>
</g>
<g>
</g>
</svg>
