<?xml version="1.0" encoding="iso-8859-1"?>
<!-- Generator: Adobe Illustrator 19.0.0, SVG Export Plug-In . SVG Version: 6.00 Build 0)  -->
<svg version="1.1" id="Capa_1" xmlns="http://www.w3.org/2000/svg" xmlns:xlink="http://www.w3.org/1999/xlink" x="0px" y="0px"
	 viewBox="0 0 480 480" style="enable-background:new 0 0 480 480;" xml:space="preserve">
<g>
	<path style="fill:#2D75BB;" d="M144,160c-4.418,0-8-3.582-7.999-8.001c0-2.334,1.02-4.552,2.791-6.071l56-48
		c3.462-2.745,8.494-2.165,11.239,1.297c2.6,3.279,2.234,8.007-0.839,10.847l-56,48C147.746,159.312,145.905,159.996,144,160
		L144,160z"/>
	<path style="fill:#2D75BB;" d="M376,224h-32c-4.418,0-8-3.582-8-8s3.582-8,8-8h32c4.418,0,8,3.582,8,8S380.418,224,376,224z"/>
	<path style="fill:#2D75BB;" d="M160,392c-4.418,0.004-8.004-3.574-8.008-7.992c-0.004-3.808,2.677-7.09,6.408-7.848l40-8
		c4.3-1.015,8.609,1.648,9.624,5.948c1.015,4.3-1.648,8.609-5.948,9.624c-0.179,0.042-0.359,0.078-0.54,0.108l-40,8
		C161.031,391.945,160.516,391.999,160,392z"/>
</g>
<g>
	<path style="fill:#87CEE9;" d="M136,8h176v96H136V8z"/>
	<path style="fill:#87CEE9;" d="M344,288H168v-96h176V288z"/>
	<path style="fill:#87CEE9;" d="M200,344h176v96H200V344z"/>
</g>
<g>
	<circle style="fill:#FFF69A;" cx="56" cy="56" r="48"/>
	<circle style="fill:#FFF69A;" cx="88" cy="312" r="48"/>
	<circle style="fill:#FFF69A;" cx="424" cy="152" r="48"/>
</g>
<path style="fill:#2D75BB;" d="M40,136h32c17.673,0,32,14.327,32,32v48l0,0H8l0,0v-48C8,150.327,22.327,136,40,136z"/>
<path style="fill:#FCF05A;" d="M56,184c-4.418,0-8-3.582-8-8v-40c0-4.418,3.582-8,8-8s8,3.582,8,8v40C64,180.418,60.418,184,56,184z
	"/>
<path style="fill:#2D75BB;" d="M48,56h16v16H48V56z"/>
<g>
	<g>
		<path id="SVGCleanerId_0" style="fill:#FCF05A;" d="M168,64h16v16h-16V64z"/>
	</g>
	<g>
		<path id="SVGCleanerId_1" style="fill:#FCF05A;" d="M168,32h16v16h-16V32z"/>
	</g>
	<g>
		<path id="SVGCleanerId_2" style="fill:#FCF05A;" d="M200,32h32v16h-32V32z"/>
	</g>
	<g>
		<path id="SVGCleanerId_3" style="fill:#FCF05A;" d="M248,32h40v16h-40V32z"/>
	</g>
	<g>
		<path id="SVGCleanerId_4" style="fill:#FCF05A;" d="M200,64h88v16h-88V64z"/>
	</g>
	<g>
		<path id="SVGCleanerId_5" style="fill:#FCF05A;" d="M224,400h16v16h-16V400z"/>
	</g>
	<g>
		<path id="SVGCleanerId_6" style="fill:#FCF05A;" d="M224,368h16v16h-16V368z"/>
	</g>
	<g>
		<path id="SVGCleanerId_7" style="fill:#FCF05A;" d="M256,368h32v16h-32V368z"/>
	</g>
	<g>
		<path id="SVGCleanerId_8" style="fill:#FCF05A;" d="M304,368h48v16h-48V368z"/>
	</g>
	<g>
		<path id="SVGCleanerId_9" style="fill:#FCF05A;" d="M256,400h96v16h-96V400z"/>
	</g>
	<g>
		<path id="SVGCleanerId_10" style="fill:#FCF05A;" d="M296,248h16v16h-16V248z"/>
	</g>
	<g>
		<path id="SVGCleanerId_11" style="fill:#FCF05A;" d="M296,216h16v16h-16V216z"/>
	</g>
	<g>
		<path id="SVGCleanerId_12" style="fill:#FCF05A;" d="M248,216h32v16h-32V216z"/>
	</g>
	<g>
		<path id="SVGCleanerId_13" style="fill:#FCF05A;" d="M192,216h40v16h-40V216z"/>
	</g>
	<g>
		<path id="SVGCleanerId_14" style="fill:#FCF05A;" d="M192,248h88v16h-88V248z"/>
	</g>
</g>
<path style="fill:#2D75BB;" d="M72,392h32c17.673,0,32,14.327,32,32v48l0,0H40l0,0v-48C40,406.327,54.327,392,72,392z"/>
<path style="fill:#FCF05A;" d="M88,440c-4.418,0-8-3.582-8-8v-40c0-4.418,3.582-8,8-8s8,3.582,8,8v40C96,436.418,92.418,440,88,440z
	"/>
<g>
	<path style="fill:#2D75BB;" d="M80,312h16v16H80V312z"/>
	<path style="fill:#2D75BB;" d="M408,232h32c17.673,0,32,14.327,32,32v48l0,0h-96l0,0v-48C376,246.327,390.327,232,408,232z"/>
</g>
<path style="fill:#FCF05A;" d="M424,280c-4.418,0-8-3.582-8-8v-40c0-4.418,3.582-8,8-8s8,3.582,8,8v40
	C432,276.418,428.418,280,424,280z"/>
<path style="fill:#2D75BB;" d="M416,152h16v16h-16V152z"/>
<path d="M56,112c30.928,0,56-25.072,56-56S86.928,0,56,0S0,25.072,0,56C0.035,86.913,25.087,111.965,56,112z M56,16
	c22.091,0,40,17.909,40,40S78.091,96,56,96S16,78.091,16,56C16.026,33.92,33.92,16.026,56,16z"/>
<path d="M112,168c-0.026-22.08-17.92-39.974-40-40H40c-22.08,0.026-39.974,17.92-40,40v56h112V168z M96,208H16v-40
	c0-13.255,10.745-24,24-24h8v32c0,4.418,3.582,8,8,8s8-3.582,8-8v-32h8c13.255,0,24,10.745,24,24V208z"/>
<path d="M48,56h16v16H48V56z"/>
<path d="M312,112c4.418,0,8-3.582,8-8V8c0-4.418-3.582-8-8-8H136c-4.418,0-8,3.582-8,8v96c0,4.418,3.582,8,8,8h42.4l-39.584,33.928
	c-3.462,2.745-4.042,7.777-1.297,11.239c2.745,3.462,7.777,4.042,11.239,1.297c0.158-0.125,0.31-0.256,0.458-0.392L202.952,112H312z
	 M144,16h160v80H144V16z"/>
<path id="SVGCleanerId_0_1_" d="M168,64h16v16h-16V64z"/>
<path id="SVGCleanerId_1_1_" d="M168,32h16v16h-16V32z"/>
<path id="SVGCleanerId_2_1_" d="M200,32h32v16h-32V32z"/>
<path id="SVGCleanerId_3_1_" d="M248,32h40v16h-40V32z"/>
<path id="SVGCleanerId_4_1_" d="M200,64h88v16h-88V64z"/>
<path id="SVGCleanerId_5_1_" d="M224,400h16v16h-16V400z"/>
<path id="SVGCleanerId_6_1_" d="M224,368h16v16h-16V368z"/>
<path id="SVGCleanerId_7_1_" d="M256,368h32v16h-32V368z"/>
<path id="SVGCleanerId_8_1_" d="M304,368h48v16h-48V368z"/>
<path id="SVGCleanerId_9_1_" d="M256,400h96v16h-96V400z"/>
<path d="M344,184H168c-4.418,0-8,3.582-8,8v96c0,4.418,3.582,8,8,8h176c4.418,0,8-3.582,8-8v-64h24c4.418,0,8-3.582,8-8
	s-3.582-8-8-8h-24v-16C352,187.582,348.418,184,344,184z M336,280H176v-80h160V280z"/>
<path id="SVGCleanerId_10_1_" d="M296,248h16v16h-16V248z"/>
<path id="SVGCleanerId_11_1_" d="M296,216h16v16h-16V216z"/>
<path id="SVGCleanerId_12_1_" d="M248,216h32v16h-32V216z"/>
<path id="SVGCleanerId_13_1_" d="M192,216h40v16h-40V216z"/>
<path id="SVGCleanerId_14_1_" d="M192,248h88v16h-88V248z"/>
<path d="M88,256c-30.928,0-56,25.072-56,56s25.072,56,56,56s56-25.072,56-56C143.965,281.087,118.913,256.035,88,256z M88,352
	c-22.091,0-40-17.909-40-40s17.909-40,40-40s40,17.909,40,40C127.974,334.08,110.08,351.974,88,352z"/>
<path d="M104,384H72c-22.08,0.026-39.974,17.92-40,40v56h112v-56C143.974,401.92,126.08,384.026,104,384z M128,464H48v-40
	c0-13.255,10.745-24,24-24h8v32c0,4.418,3.582,8,8,8s8-3.582,8-8v-32h8c13.255,0,24,10.745,24,24V464z"/>
<path d="M80,312h16v16H80V312z"/>
<path d="M424,96c-30.928,0-56,25.072-56,56s25.072,56,56,56s56-25.072,56-56C479.965,121.087,454.913,96.035,424,96z M424,192
	c-22.091,0-40-17.909-40-40s17.909-40,40-40s40,17.909,40,40C463.974,174.08,446.08,191.974,424,192z"/>
<path d="M440,224h-32c-22.08,0.026-39.974,17.92-40,40v56h112v-56C479.974,241.92,462.08,224.026,440,224z M464,304h-80v-40
	c0-13.255,10.745-24,24-24h8v32c0,4.418,3.582,8,8,8s8-3.582,8-8v-32h8c13.255,0,24,10.745,24,24V304z"/>
<path d="M416,152h16v16h-16V152z"/>
<path d="M376,336H200c-4.418,0-8,3.582-8,8v25.44l-33.6,6.72c-4.33,0.879-7.127,5.102-6.248,9.432
	c0.758,3.731,4.04,6.412,7.848,6.408c0.538,0.004,1.074-0.05,1.6-0.16l30.4-6.08V440c0,4.418,3.582,8,8,8h176c4.418,0,8-3.582,8-8
	v-96C384,339.582,380.418,336,376,336z M368,432H208v-80h160V432z"/>
<g>
</g>
<g>
</g>
<g>
</g>
<g>
</g>
<g>
</g>
<g>
</g>
<g>
</g>
<g>
</g>
<g>
</g>
<g>
</g>
<g>
</g>
<g>
</g>
<g>
</g>
<g>
</g>
<g>
</g>
</svg>
