<?xml version="1.0" encoding="iso-8859-1"?>
<!-- Generator: Adobe Illustrator 19.0.0, SVG Export Plug-In . SVG Version: 6.00 Build 0)  -->
<svg version="1.1" id="Capa_1" xmlns="http://www.w3.org/2000/svg" xmlns:xlink="http://www.w3.org/1999/xlink" x="0px" y="0px"
	 viewBox="0 0 480 480" style="enable-background:new 0 0 480 480;" xml:space="preserve">
<path style="fill:#FCF05A;" d="M40,104h400c17.673,0,32,14.327,32,32v240c0,17.673-14.327,32-32,32H40c-17.673,0-32-14.327-32-32
	V136C8,118.327,22.327,104,40,104z"/>
<path style="fill:#FDBD40;" d="M72,56h80c8.837,0,16,7.163,16,16v288c0,8.837-7.163,16-16,16H72c-8.837,0-16-7.163-16-16V72
	C56,63.163,63.163,56,72,56z"/>
<g>
	<path style="fill:#2D75BB;" d="M216,136h224v48H216V136z"/>
	<path style="fill:#2D75BB;" d="M232,216h48v32h-48V216z"/>
</g>
<path style="fill:#FDBD40;" d="M280,216h48v32h-48V216z"/>
<path style="fill:#2D75BB;" d="M328,216h48v32h-48V216z"/>
<g>
	<path style="fill:#FDBD40;" d="M376,216h48v32h-48V216z"/>
	<path style="fill:#FDBD40;" d="M232,248h48v32h-48V248z"/>
</g>
<path style="fill:#2D75BB;" d="M280,248h48v32h-48V248z"/>
<path style="fill:#FDBD40;" d="M328,248h48v32h-48V248z"/>
<g>
	<path style="fill:#2D75BB;" d="M376,248h48v32h-48V248z"/>
	<path style="fill:#2D75BB;" d="M232,280h48v32h-48V280z"/>
</g>
<path style="fill:#FDBD40;" d="M280,280h48v32h-48V280z"/>
<path style="fill:#2D75BB;" d="M328,280h48v32h-48V280z"/>
<path style="fill:#FDBD40;" d="M376,280h48v32h-48V280z"/>
<g>
	<path style="fill:#AABECE;" d="M232,344h192v128H232V344z"/>
	<path style="fill:#AABECE;" d="M232,8h192v96H232V8z"/>
</g>
<g>
	<g>
		<path id="SVGCleanerId_0" style="fill:#394D5C;" d="M256,368h16v16h-16V368z"/>
	</g>
	<g>
		<path id="SVGCleanerId_1" style="fill:#394D5C;" d="M288,368h112v16H288V368z"/>
	</g>
	<g>
		<path id="SVGCleanerId_2" style="fill:#394D5C;" d="M256,432h16v16h-16V432z"/>
	</g>
	<g>
		<path id="SVGCleanerId_3" style="fill:#394D5C;" d="M288,432h112v16H288V432z"/>
	</g>
	<g>
		<path id="SVGCleanerId_4" style="fill:#394D5C;" d="M256,400h16v16h-16V400z"/>
	</g>
	<g>
		<path id="SVGCleanerId_5" style="fill:#394D5C;" d="M288,400h112v16H288V400z"/>
	</g>
</g>
<g>
	<path style="fill:#2D75BB;" d="M80,328h16v16H80V328z"/>
	<path style="fill:#2D75BB;" d="M80,280h16v32H80V280z"/>
</g>
<path d="M208,192h240v-64H208V192z M224,144h208v32H224V144z"/>
<path d="M224,208v112h208V208H224z M336,224h32v16h-32V224z M368,272h-32v-16h32V272z M288,256h32v16h-32V256z M288,224h32v16h-32
	V224z M240,224h32v16h-32V224z M240,256h32v16h-32V256z M272,304h-32v-16h32V304z M320,304h-32v-16h32V304z M368,304h-32v-16h32V304
	z M416,304h-32v-16h32V304z M416,272h-32v-16h32V272z M416,224v16h-32v-16H416z"/>
<path id="SVGCleanerId_0_1_" d="M256,368h16v16h-16V368z"/>
<path id="SVGCleanerId_1_1_" d="M288,368h112v16H288V368z"/>
<path id="SVGCleanerId_2_1_" d="M256,432h16v16h-16V432z"/>
<path id="SVGCleanerId_3_1_" d="M288,432h112v16H288V432z"/>
<path id="SVGCleanerId_4_1_" d="M256,400h16v16h-16V400z"/>
<path id="SVGCleanerId_5_1_" d="M288,400h112v16H288V400z"/>
<path d="M80,328h16v16H80V328z"/>
<path d="M80,280h16v32H80V280z"/>
<path d="M440,96h-8V0H224v96h-48V72c0-13.255-10.745-24-24-24H72c-13.255,0-24,10.745-24,24v24h-8c-22.08,0.026-39.974,17.92-40,40
	v240c0.026,22.08,17.92,39.974,40,40h184v64h208v-64h8c22.08-0.026,39.974-17.92,40-40V136C479.974,113.92,462.08,96.026,440,96z
	 M240,16h176v80H240V16z M64,72c0-4.418,3.582-8,8-8h80c4.418,0,8,3.582,8,8v288c0,4.418-3.582,8-8,8H72c-4.418,0-8-3.582-8-8V72z
	 M416,464H240V352h176V464z M464,376c0,13.255-10.745,24-24,24h-8v-64H224v64H40c-13.255,0-24-10.745-24-24V136
	c0-13.255,10.745-24,24-24h8v248c0,13.255,10.745,24,24,24h80c13.255,0,24-10.745,24-24V112h264c13.255,0,24,10.745,24,24V376z"/>
<g>
</g>
<g>
</g>
<g>
</g>
<g>
</g>
<g>
</g>
<g>
</g>
<g>
</g>
<g>
</g>
<g>
</g>
<g>
</g>
<g>
</g>
<g>
</g>
<g>
</g>
<g>
</g>
<g>
</g>
</svg>
