<?xml version="1.0" encoding="iso-8859-1"?>
<!-- Generator: Adobe Illustrator 19.0.0, SVG Export Plug-In . SVG Version: 6.00 Build 0)  -->
<svg version="1.1" id="Capa_1" xmlns="http://www.w3.org/2000/svg" xmlns:xlink="http://www.w3.org/1999/xlink" x="0px" y="0px"
	 viewBox="0 0 464 464" style="enable-background:new 0 0 464 464;" xml:space="preserve">
<path style="fill:#FCF05A;" d="M32,96h400c17.673,0,32,14.327,32,32v240c0,17.673-14.327,32-32,32H32c-17.673,0-32-14.327-32-32V128
	C0,110.327,14.327,96,32,96z"/>
<path style="fill:#FDBD40;" d="M64,48h80c8.837,0,16,7.163,16,16v288c0,8.837-7.163,16-16,16H64c-8.837,0-16-7.163-16-16V64
	C48,55.163,55.163,48,64,48z"/>
<g>
	<path style="fill:#2D75BB;" d="M208,128h224v48H208V128z"/>
	<path style="fill:#2D75BB;" d="M224,208h48v32h-48V208z"/>
</g>
<path style="fill:#FDBD40;" d="M272,208h48v32h-48V208z"/>
<path style="fill:#2D75BB;" d="M320,208h48v32h-48V208z"/>
<g>
	<path style="fill:#FDBD40;" d="M368,208h48v32h-48V208z"/>
	<path style="fill:#FDBD40;" d="M224,240h48v32h-48V240z"/>
</g>
<path style="fill:#2D75BB;" d="M272,240h48v32h-48V240z"/>
<path style="fill:#FDBD40;" d="M320,240h48v32h-48V240z"/>
<g>
	<path style="fill:#2D75BB;" d="M368,240h48v32h-48V240z"/>
	<path style="fill:#2D75BB;" d="M224,272h48v32h-48V272z"/>
</g>
<path style="fill:#FDBD40;" d="M272,272h48v32h-48V272z"/>
<path style="fill:#2D75BB;" d="M320,272h48v32h-48V272z"/>
<path style="fill:#FDBD40;" d="M368,272h48v32h-48V272z"/>
<g>
	<path style="fill:#AABECE;" d="M224,336h192v128H224V336z"/>
	<path style="fill:#AABECE;" d="M224,0h192v96H224V0z"/>
</g>
<g>
	<path style="fill:#394D5C;" d="M248,360h16v16h-16V360z"/>
	<path style="fill:#394D5C;" d="M280,360h112v16H280V360z"/>
	<path style="fill:#394D5C;" d="M248,424h16v16h-16V424z"/>
	<path style="fill:#394D5C;" d="M280,424h112v16H280V424z"/>
	<path style="fill:#394D5C;" d="M248,392h16v16h-16V392z"/>
	<path style="fill:#394D5C;" d="M280,392h112v16H280V392z"/>
</g>
<g>
	<path style="fill:#2D75BB;" d="M72,320h16v16H72V320z"/>
	<path style="fill:#2D75BB;" d="M72,272h16v32H72V272z"/>
</g>
<g>
</g>
<g>
</g>
<g>
</g>
<g>
</g>
<g>
</g>
<g>
</g>
<g>
</g>
<g>
</g>
<g>
</g>
<g>
</g>
<g>
</g>
<g>
</g>
<g>
</g>
<g>
</g>
<g>
</g>
</svg>
