<?xml version="1.0" encoding="iso-8859-1"?>
<!-- Generator: Adobe Illustrator 19.0.0, SVG Export Plug-In . SVG Version: 6.00 Build 0)  -->
<svg xmlns="http://www.w3.org/2000/svg" xmlns:xlink="http://www.w3.org/1999/xlink" version="1.1" id="Capa_1" x="0px" y="0px" viewBox="0 0 512 512" style="enable-background:new 0 0 512 512;" xml:space="preserve">
<path style="fill:#303C42;" d="M384,0H128c-23.521,0-42.667,19.146-42.667,42.667v426.667C85.333,492.854,104.479,512,128,512h256  c23.521,0,42.667-19.146,42.667-42.667V42.667C426.667,19.146,407.521,0,384,0z"/>
<g>
	<path id="SVGCleanerId_0" style="fill:#5C6671;" d="M128,21.333h256c11.771,0,21.333,9.563,21.333,21.333v362.667H106.667V42.667   C106.667,30.896,116.229,21.333,128,21.333z"/>
</g>
<g>
	
		<linearGradient id="SVGCleanerId_0_3_" gradientUnits="userSpaceOnUse" x1="-43.6715" y1="640.4844" x2="-25.5757" y2="632.0474" gradientTransform="matrix(21.3333 0 0 -21.3333 996.3334 13791.667)">
		<stop offset="0" style="stop-color:#FFFFFF;stop-opacity:0.2"/>
		<stop offset="1" style="stop-color:#FFFFFF;stop-opacity:0"/>
	</linearGradient>
	<path id="SVGCleanerId_0_1_" style="fill:url(#SVGCleanerId_0_3_);" d="M128,21.333h256c11.771,0,21.333,9.563,21.333,21.333   v362.667H106.667V42.667C106.667,30.896,116.229,21.333,128,21.333z"/>
</g>
<g>
	
		<linearGradient id="SVGCleanerId_0_4_" gradientUnits="userSpaceOnUse" x1="-42.5557" y1="644.0458" x2="-26.8506" y2="628.3367" gradientTransform="matrix(21.3333 0 0 -21.3333 996.3334 13791.667)">
		<stop offset="0" style="stop-color:#FFFFFF;stop-opacity:0.2"/>
		<stop offset="1" style="stop-color:#FFFFFF;stop-opacity:0"/>
	</linearGradient>
	<path id="SVGCleanerId_0_2_" style="fill:url(#SVGCleanerId_0_4_);" d="M128,21.333h256c11.771,0,21.333,9.563,21.333,21.333   v362.667H106.667V42.667C106.667,30.896,116.229,21.333,128,21.333z"/>
</g>
<linearGradient id="SVGID_1_" gradientUnits="userSpaceOnUse" x1="-39.6642" y1="641.8632" x2="-34.5074" y2="639.462" gradientTransform="matrix(21.3333 0 0 -21.3333 996.3334 13791.667)">
	<stop offset="0" style="stop-color:#FFFFFF;stop-opacity:0.05"/>
	<stop offset="1" style="stop-color:#FFFFFF;stop-opacity:0"/>
</linearGradient>
<polygon style="fill:url(#SVGID_1_);" points="106.667,192 277.333,21.333 320,21.333 106.667,234.667 "/>
<linearGradient id="SVGID_2_" gradientUnits="userSpaceOnUse" x1="-38.5102" y1="639.8283" x2="-31.6507" y2="636.6281" gradientTransform="matrix(21.3333 0 0 -21.3333 996.3334 13791.667)">
	<stop offset="0" style="stop-color:#FFFFFF;stop-opacity:0.05"/>
	<stop offset="1" style="stop-color:#FFFFFF;stop-opacity:0"/>
</linearGradient>
<path style="fill:url(#SVGID_2_);" d="M384,21.333h-10.667L106.667,288v42.667L403.375,33.958  C400.026,26.552,392.641,21.333,384,21.333z"/>
<path style="fill:#303C42;" d="M245.333,64h21.333c5.896,0,10.667-4.771,10.667-10.667s-4.771-10.667-10.667-10.667h-21.333  c-5.896,0-10.667,4.771-10.667,10.667S239.438,64,245.333,64z"/>
<path style="fill:#F2F2F2;" d="M288,448h-64c-5.896,0-10.667,4.771-10.667,10.667c0,5.896,4.771,10.667,10.667,10.667h64  c5.896,0,10.667-4.771,10.667-10.667C298.667,452.771,293.896,448,288,448z"/>
<g>
	<circle style="fill:#303C42;" cx="373.333" cy="53.333" r="10.667"/>
	<path style="fill:#303C42;" d="M160,341.333h32c2.833,0,5.542-1.125,7.542-3.125l64.813-64.813   c7.688,2.625,15.615,3.938,23.646,3.938c41.167,0,74.667-33.5,74.667-74.667S329.167,128,288,128s-74.667,33.5-74.667,74.667   c0,8.042,1.323,15.958,3.927,23.646l-64.802,64.813c-2,2-3.125,4.708-3.125,7.542v32C149.333,336.563,154.104,341.333,160,341.333z   "/>
</g>
<path style="fill:#FFCA28;" d="M170.667,303.083l66.625-66.625c3.135-3.146,4.01-7.896,2.177-11.938  c-3.188-7.042-4.802-14.396-4.802-21.854c0-29.417,23.927-53.333,53.333-53.333s53.333,23.917,53.333,53.333S317.406,256,288,256  c-7.438,0-14.802-1.625-21.865-4.813c-4.01-1.771-8.771-0.958-11.927,2.188L187.583,320h-16.917V303.083z"/>
<path style="fill:#303C42;" d="M298.667,213.333c11.76,0,21.333-9.563,21.333-21.333c0-11.771-9.573-21.333-21.333-21.333  c-11.76,0-21.333,9.563-21.333,21.333C277.333,203.771,286.906,213.333,298.667,213.333z"/>
<linearGradient id="SVGID_3_" gradientUnits="userSpaceOnUse" x1="-45.2742" y1="639.4139" x2="-24.1321" y2="629.5549" gradientTransform="matrix(21.3333 0 0 -21.3333 996.3334 13791.667)">
	<stop offset="0" style="stop-color:#FFFFFF;stop-opacity:0.2"/>
	<stop offset="1" style="stop-color:#FFFFFF;stop-opacity:0"/>
</linearGradient>
<path style="fill:url(#SVGID_3_);" d="M384,0H128c-23.521,0-42.667,19.146-42.667,42.667v426.667  C85.333,492.854,104.479,512,128,512h256c23.521,0,42.667-19.146,42.667-42.667V42.667C426.667,19.146,407.521,0,384,0z"/>
<g>
</g>
<g>
</g>
<g>
</g>
<g>
</g>
<g>
</g>
<g>
</g>
<g>
</g>
<g>
</g>
<g>
</g>
<g>
</g>
<g>
</g>
<g>
</g>
<g>
</g>
<g>
</g>
<g>
</g>
</svg>
