<?xml version="1.0" encoding="iso-8859-1"?>
<!-- Generator: Adobe Illustrator 19.0.0, SVG Export Plug-In . SVG Version: 6.00 Build 0)  -->
<svg version="1.1" id="Capa_1" xmlns="http://www.w3.org/2000/svg" xmlns:xlink="http://www.w3.org/1999/xlink" x="0px" y="0px"
	 viewBox="0 0 480 480" style="enable-background:new 0 0 480 480;" xml:space="preserve">
<path style="fill:#7D8D9C;" d="M152,8h176c17.673,0,32,14.327,32,32v400c0,17.673-14.327,32-32,32H152c-17.673,0-32-14.327-32-32V40
	C120,22.327,134.327,8,152,8z"/>
<path style="fill:#87CEE9;" d="M120,80h240v328H120V80z"/>
<g>
	<path style="fill:#AABECE;" d="M184,40h112v16H184V40z"/>
	<path style="fill:#AABECE;" d="M224,432h32v16h-32V432z"/>
</g>
<path style="fill:#2D75BB;" d="M248,216v160H8V216H248z"/>
<g>
	<path style="fill:#FDBD40;" d="M248,248v48H8v-48H248z"/>
	<circle style="fill:#FDBD40;" cx="376" cy="208" r="96"/>
</g>
<circle style="fill:#FFF69A;" cx="376" cy="208" r="64"/>
<g>
	<path style="fill:#FDBD40;" d="M224,320v32h-32v-32H224z"/>
	<path style="fill:#FDBD40;" d="M400,200h-40v-16h40c4.418,0,8-3.582,8-8s-3.582-8-8-8h-16v-8c0-4.418-3.582-8-8-8s-8,3.582-8,8v8
		h-16c-4.418,0-8,3.582-8,8v32c0,4.418,3.582,8,8,8h40v16h-40c-4.418,0-8,3.582-8,8s3.582,8,8,8h16v8c0,4.418,3.582,8,8,8
		s8-3.582,8-8v-8h16c4.418,0,8-3.582,8-8v-32C408,203.582,404.418,200,400,200z"/>
</g>
<g>
	<path style="fill:#394D5C;" d="M288,120h-80c-4.418,0-8-3.582-8-8c0-4.418,3.582-8,8-8h80c4.418,0,8,3.582,8,8
		C296,116.418,292.418,120,288,120z"/>
	<path style="fill:#394D5C;" d="M272,152h-32c-4.418,0-8-3.582-8-8s3.582-8,8-8h32c4.418,0,8,3.582,8,8S276.418,152,272,152z"/>
	<path style="fill:#394D5C;" d="M328,344h-48c-4.418,0-8-3.582-8-8s3.582-8,8-8h48c4.418,0,8,3.582,8,8S332.418,344,328,344z"/>
	<path style="fill:#394D5C;" d="M312,376h-32c-4.418,0-8-3.582-8-8s3.582-8,8-8h32c4.418,0,8,3.582,8,8S316.418,376,312,376z"/>
</g>
<path d="M184,40h112v16H184V40z"/>
<path d="M224,432h32v16h-32V432z"/>
<path d="M376,104c-2.704,0-5.352,0.2-8,0.408V40c-0.026-22.08-17.92-39.974-40-40H152c-22.08,0.026-39.974,17.92-40,40v168H8
	c-4.418,0-8,3.582-8,8v160c0,4.418,3.582,8,8,8h104v56c0.026,22.08,17.92,39.974,40,40h176c22.08-0.026,39.974-17.92,40-40V311.592
	c2.648,0.208,5.296,0.408,8,0.408c57.438,0,104-46.562,104-104S433.438,104,376,104L376,104z M128,40c0-13.255,10.745-24,24-24h176
	c13.255,0,24,10.745,24,24v32H128V40z M240,224v16H16v-16H240z M16,256h224v32H16V256z M16,304h224v64H16V304z M352,440
	c0,13.255-10.745,24-24,24H152c-13.255,0-24-10.745-24-24v-24h224V440z M352,400H128v-16h120c4.418,0,8-3.582,8-8V216
	c0-4.418-3.582-8-8-8H128V88h224v18.904c-55.834,13.193-90.401,69.151-77.208,124.984c9.045,38.277,38.931,68.163,77.208,77.208V400
	z M376,296c-48.601,0-88-39.399-88-88s39.399-88,88-88s88,39.399,88,88C463.943,256.577,424.577,295.943,376,296z"/>
<path d="M376,136c-39.764,0-72,32.236-72,72s32.236,72,72,72s72-32.236,72-72C447.956,168.254,415.746,136.044,376,136z M376,264
	c-30.928,0-56-25.072-56-56s25.072-56,56-56s56,25.072,56,56C431.965,238.913,406.913,263.965,376,264z"/>
<path d="M224,312h-32c-4.418,0-8,3.582-8,8v32c0,4.418,3.582,8,8,8h32c4.418,0,8-3.582,8-8v-32C232,315.582,228.418,312,224,312z
	 M216,344h-16v-16h16V344z"/>
<path d="M384,256v-8h16c4.418,0,8-3.582,8-8v-32c0-4.418-3.582-8-8-8h-40v-16h40c4.418,0,8-3.582,8-8s-3.582-8-8-8h-16v-8
	c0-4.418-3.582-8-8-8s-8,3.582-8,8v8h-16c-4.418,0-8,3.582-8,8v32c0,4.418,3.582,8,8,8h40v16h-40c-4.418,0-8,3.582-8,8s3.582,8,8,8
	h16v8c0,4.418,3.582,8,8,8S384,260.418,384,256z"/>
<path d="M296,112c0-4.418-3.582-8-8-8h-80c-4.418,0-8,3.582-8,8c0,4.418,3.582,8,8,8h80C292.418,120,296,116.418,296,112z"/>
<path d="M280,144c0-4.418-3.582-8-8-8h-32c-4.418,0-8,3.582-8,8s3.582,8,8,8h32C276.418,152,280,148.418,280,144z"/>
<path d="M272,336c0,4.418,3.582,8,8,8h48c4.418,0,8-3.582,8-8s-3.582-8-8-8h-48C275.582,328,272,331.582,272,336z"/>
<path d="M312,360h-32c-4.418,0-8,3.582-8,8s3.582,8,8,8h32c4.418,0,8-3.582,8-8S316.418,360,312,360z"/>
<g>
</g>
<g>
</g>
<g>
</g>
<g>
</g>
<g>
</g>
<g>
</g>
<g>
</g>
<g>
</g>
<g>
</g>
<g>
</g>
<g>
</g>
<g>
</g>
<g>
</g>
<g>
</g>
<g>
</g>
</svg>
