<?xml version="1.0" encoding="iso-8859-1"?>
<!-- Generator: Adobe Illustrator 19.0.0, SVG Export Plug-In . SVG Version: 6.00 Build 0)  -->
<svg version="1.1" id="Capa_1" xmlns="http://www.w3.org/2000/svg" xmlns:xlink="http://www.w3.org/1999/xlink" x="0px" y="0px"
	 viewBox="0 0 464 464" style="enable-background:new 0 0 464 464;" xml:space="preserve">
<path style="fill:#7D8D9C;" d="M144,0h176c17.673,0,32,14.327,32,32v400c0,17.673-14.327,32-32,32H144c-17.673,0-32-14.327-32-32V32
	C112,14.327,126.327,0,144,0z"/>
<path style="fill:#87CEE9;" d="M112,72h240v328H112V72z"/>
<g>
	<path style="fill:#AABECE;" d="M176,32h112v16H176V32z"/>
	<path style="fill:#AABECE;" d="M216,424h32v16h-32V424z"/>
</g>
<path style="fill:#2D75BB;" d="M240,208v160H0V208H240z"/>
<g>
	<path style="fill:#FDBD40;" d="M240,240v48H0v-48H240z"/>
	<circle style="fill:#FDBD40;" cx="368" cy="200" r="96"/>
</g>
<circle style="fill:#FFF69A;" cx="368" cy="200" r="64"/>
<g>
	<path style="fill:#FDBD40;" d="M216,312v32h-32v-32H216z"/>
	<path style="fill:#FDBD40;" d="M392,192h-40v-16h40c4.418,0,8-3.582,8-8s-3.582-8-8-8h-16v-8c0-4.418-3.582-8-8-8s-8,3.582-8,8v8
		h-16c-4.418,0-8,3.582-8,8v32c0,4.418,3.582,8,8,8h40v16h-40c-4.418,0-8,3.582-8,8s3.582,8,8,8h16v8c0,4.418,3.582,8,8,8
		s8-3.582,8-8v-8h16c4.418,0,8-3.582,8-8v-32C400,195.582,396.418,192,392,192z"/>
</g>
<g>
	<path style="fill:#394D5C;" d="M280,112h-80c-4.418,0-8-3.582-8-8c0-4.418,3.582-8,8-8h80c4.418,0,8,3.582,8,8
		C288,108.418,284.418,112,280,112z"/>
	<path style="fill:#394D5C;" d="M264,144h-32c-4.418,0-8-3.582-8-8s3.582-8,8-8h32c4.418,0,8,3.582,8,8S268.418,144,264,144z"/>
	<path style="fill:#394D5C;" d="M320,336h-48c-4.418,0-8-3.582-8-8s3.582-8,8-8h48c4.418,0,8,3.582,8,8S324.418,336,320,336z"/>
	<path style="fill:#394D5C;" d="M304,368h-32c-4.418,0-8-3.582-8-8s3.582-8,8-8h32c4.418,0,8,3.582,8,8S308.418,368,304,368z"/>
</g>
<g>
</g>
<g>
</g>
<g>
</g>
<g>
</g>
<g>
</g>
<g>
</g>
<g>
</g>
<g>
</g>
<g>
</g>
<g>
</g>
<g>
</g>
<g>
</g>
<g>
</g>
<g>
</g>
<g>
</g>
</svg>
