<?xml version="1.0" encoding="iso-8859-1"?>
<!-- Generator: Adobe Illustrator 19.0.0, SVG Export Plug-In . SVG Version: 6.00 Build 0)  -->
<svg version="1.1" id="Capa_1" xmlns="http://www.w3.org/2000/svg" xmlns:xlink="http://www.w3.org/1999/xlink" x="0px" y="0px"
	 viewBox="0 0 480 480" style="enable-background:new 0 0 480 480;" xml:space="preserve">
<g>
	<path style="fill:#E9686A;" d="M124.003,240h-32c-4.418,0.002-8.001-3.579-8.003-7.997c0-1.018,0.193-2.026,0.571-2.971l32-80
		c1.639-4.105,6.295-6.103,10.4-4.464c4.105,1.639,6.103,6.295,4.464,10.4L103.819,224h20.184c4.418,0,8,3.582,8,8
		S128.421,240,124.003,240z"/>
	<path style="fill:#E9686A;" d="M364.003,112c-4.418,0-8-3.582-8-8V72c-0.04-30.911-25.089-55.96-56-56h-112
		c-30.911,0.04-55.96,25.089-56,56v32c0,4.418-3.582,8-8,8s-8-3.582-8-8V72c0.044-39.746,32.254-71.956,72-72h112
		c39.746,0.044,71.956,32.254,72,72v32C372.003,108.418,368.421,112,364.003,112z"/>
</g>
<g>
	<path style="fill:#2D75BB;" d="M124.003,96h32c4.418,0,8,3.582,8,8v48c0,4.418-3.582,8-8,8h-32c-4.418,0-8-3.582-8-8v-48
		C116.003,99.582,119.584,96,124.003,96z"/>
	<path style="fill:#2D75BB;" d="M332.003,96h32c4.418,0,8,3.582,8,8v48c0,4.418-3.582,8-8,8h-32c-4.418,0-8-3.582-8-8v-48
		C324.003,99.582,327.584,96,332.003,96z"/>
	<path style="fill:#2D75BB;" d="M164.003,312h160c35.346,0,64,28.654,64,64v96l0,0h-288l0,0v-96
		C100.003,340.654,128.656,312,164.003,312z"/>
</g>
<path style="fill:#FFF69A;" d="M188.003,40h112c17.673,0,32,14.327,32,32v176c0,17.673-14.327,32-32,32h-112
	c-17.673,0-32-14.327-32-32V72C156.003,54.327,170.329,40,188.003,40z"/>
<g>
	<path style="fill:#5A6470;" d="M204.003,160c-4.418,0-8-3.582-8-8v-16c0-4.418,3.582-8,8-8s8,3.582,8,8v16
		C212.003,156.418,208.421,160,204.003,160z"/>
	<path style="fill:#5A6470;" d="M284.003,160c-4.418,0-8-3.582-8-8v-16c0-4.418,3.582-8,8-8s8,3.582,8,8v16
		C292.003,156.418,288.421,160,284.003,160z"/>
	<path style="fill:#5A6470;" d="M252.003,224h-24c-4.418,0.002-8.001-3.579-8.003-7.997c0-1.018,0.193-2.026,0.571-2.971l16-40
		c1.639-4.105,6.295-6.103,10.4-4.464c4.105,1.639,6.103,6.295,4.464,10.4l0,0L239.819,208h12.184c4.418,0,8,3.582,8,8
		S256.421,224,252.003,224z"/>
	<path style="fill:#5A6470;" d="M332.003,72c0-17.673-14.327-32-32-32h-112c-17.673,0-32,14.327-32,32v32h176V72z"/>
	<path style="fill:#5A6470;" d="M268.003,256h-56c-4.418,0-8-3.582-8-8s3.582-8,8-8h54.112l14.312-7.16
		c3.954-1.975,8.761-0.37,10.736,3.584c1.975,3.954,0.37,8.761-3.584,10.736l0,0l-16,8C270.468,255.714,269.244,256.001,268.003,256
		L268.003,256z"/>
</g>
<path style="fill:#87CEE9;" d="M148.003,360h192v112h-192V360z"/>
<circle style="fill:#7D8D9C;" cx="244.003" cy="416" r="24"/>
<path style="fill:#2D75BB;" d="M124.003,208h32c4.418,0,8,3.582,8,8v32c0,4.418-3.582,8-8,8h-32c-4.418,0-8-3.582-8-8v-32
	C116.003,211.582,119.584,208,124.003,208z"/>
<path d="M212.003,152v-16c0-4.418-3.582-8-8-8s-8,3.582-8,8v16c0,4.418,3.582,8,8,8S212.003,156.418,212.003,152z"/>
<path d="M284.003,128c-4.418,0-8,3.582-8,8v16c0,4.418,3.582,8,8,8s8-3.582,8-8v-16C292.003,131.582,288.421,128,284.003,128z"/>
<path d="M228.003,224h24c4.418,0,8-3.582,8-8s-3.582-8-8-8h-12.184l11.616-29.032c1.639-4.105-0.359-8.761-4.464-10.4
	c-4.105-1.639-8.761,0.359-10.4,4.464l-16,40c-1.639,4.103,0.358,8.758,4.461,10.397C225.977,223.807,226.985,224,228.003,224
	L228.003,224z"/>
<path d="M280.427,232.84L266.115,240h-54.112c-4.418,0-8,3.582-8,8s3.582,8,8,8h56c1.238,0.014,2.462-0.26,3.576-0.8l16-8
	c3.954-1.975,5.559-6.782,3.584-10.736c-1.975-3.954-6.782-5.559-10.736-3.584L280.427,232.84z"/>
<path d="M324.003,304h-160c-39.746,0.044-71.956,32.254-72,72v96c0,4.418,3.582,8,8,8h288c4.418,0,8-3.582,8-8v-96
	C395.958,336.254,363.749,304.044,324.003,304z M156.003,464v-96h176v96H156.003z M380.003,464h-32V360c0-4.418-3.582-8-8-8h-192
	c-4.418,0-8,3.582-8,8v104h-32v-88c0.04-30.911,25.089-55.96,56-56h160c30.911,0.04,55.96,25.089,56,56V464z"/>
<path d="M244.003,384c-17.673,0-32,14.327-32,32s14.327,32,32,32s32-14.327,32-32S261.676,384,244.003,384z M244.003,432
	c-8.837,0-16-7.163-16-16s7.163-16,16-16c8.837,0,16,7.163,16,16S252.839,432,244.003,432z"/>
<path d="M116.003,240v8c0,4.418,3.582,8,8,8h24.8c3.827,18.611,20.199,31.976,39.2,32h112c22.08-0.026,39.974-17.92,40-40v-88h24
	c4.418,0,8-3.582,8-8V72c-0.044-39.746-32.254-71.956-72-72h-112c-39.746,0.044-71.956,32.254-72,72v78.456l-31.432,78.576
	c-1.639,4.103,0.358,8.758,4.461,10.397c0.945,0.378,1.953,0.571,2.971,0.571L116.003,240z M132.003,224h16v16h-16V224z
	 M132.003,144v-32h16v32H132.003z M324.003,96h-160V72c0-13.255,10.745-24,24-24h112c13.255,0,24,10.745,24,24V96z M324.003,248
	c0,13.255-10.745,24-24,24h-112c-13.255,0-24-10.745-24-24V112h160V248z M356.003,144h-16v-32h16V144z M188.003,16h112
	c30.911,0.04,55.96,25.089,56,56v24h-16V72c-0.026-22.08-17.92-39.974-40-40h-112c-22.08,0.026-39.974,17.92-40,40v24h-16V72
	C132.042,41.089,157.091,16.04,188.003,16z M129.419,160h18.584v48h-24c-4.418,0-8,3.582-8,8v8h-12.184L129.419,160z"/>
<g>
</g>
<g>
</g>
<g>
</g>
<g>
</g>
<g>
</g>
<g>
</g>
<g>
</g>
<g>
</g>
<g>
</g>
<g>
</g>
<g>
</g>
<g>
</g>
<g>
</g>
<g>
</g>
<g>
</g>
</svg>
