<?xml version="1.0" encoding="iso-8859-1"?>
<!-- Generator: Adobe Illustrator 19.0.0, SVG Export Plug-In . SVG Version: 6.00 Build 0)  -->
<svg version="1.1" id="Capa_1" xmlns="http://www.w3.org/2000/svg" xmlns:xlink="http://www.w3.org/1999/xlink" x="0px" y="0px"
	 viewBox="0 0 472 472" style="enable-background:new 0 0 472 472;" xml:space="preserve">
<g>
	<path style="fill:#E9686A;" d="M124.001,240h-32c-4.418,0.002-8.001-3.579-8.003-7.997c0-1.018,0.193-2.026,0.571-2.971l32-80
		c1.639-4.105,6.295-6.103,10.4-4.464c4.105,1.639,6.103,6.295,4.464,10.4L103.817,224h20.184c4.418,0,8,3.582,8,8
		S128.42,240,124.001,240z"/>
	<path style="fill:#E9686A;" d="M364.001,112c-4.418,0-8-3.582-8-8V72c-0.04-30.911-25.089-55.96-56-56h-112
		c-30.911,0.04-55.96,25.089-56,56v32c0,4.418-3.582,8-8,8c-4.418,0-8-3.582-8-8V72c0.044-39.746,32.254-71.956,72-72h112
		c39.746,0.044,71.956,32.254,72,72v32C372.001,108.418,368.42,112,364.001,112z"/>
</g>
<g>
	<path style="fill:#2D75BB;" d="M124.001,96h32c4.418,0,8,3.582,8,8v48c0,4.418-3.582,8-8,8h-32c-4.418,0-8-3.582-8-8v-48
		C116.001,99.582,119.583,96,124.001,96z"/>
	<path style="fill:#2D75BB;" d="M332.001,96h32c4.418,0,8,3.582,8,8v48c0,4.418-3.582,8-8,8h-32c-4.418,0-8-3.582-8-8v-48
		C324.001,99.582,327.583,96,332.001,96z"/>
	<path style="fill:#2D75BB;" d="M164.001,312h160c35.346,0,64,28.654,64,64v96l0,0h-288l0,0v-96
		C100.001,340.654,128.655,312,164.001,312z"/>
</g>
<path style="fill:#FFF69A;" d="M188.001,40h112c17.673,0,32,14.327,32,32v176c0,17.673-14.327,32-32,32h-112
	c-17.673,0-32-14.327-32-32V72C156.001,54.327,170.328,40,188.001,40z"/>
<g>
	<path style="fill:#5A6470;" d="M204.001,160c-4.418,0-8-3.582-8-8v-16c0-4.418,3.582-8,8-8s8,3.582,8,8v16
		C212.001,156.418,208.42,160,204.001,160z"/>
	<path style="fill:#5A6470;" d="M284.001,160c-4.418,0-8-3.582-8-8v-16c0-4.418,3.582-8,8-8s8,3.582,8,8v16
		C292.001,156.418,288.42,160,284.001,160z"/>
	<path style="fill:#5A6470;" d="M252.001,224h-24c-4.418,0.002-8.001-3.579-8.003-7.997c0-1.018,0.193-2.026,0.571-2.971l16-40
		c1.639-4.105,6.295-6.103,10.4-4.464c4.105,1.639,6.103,6.295,4.464,10.4l0,0L239.817,208h12.184c4.418,0,8,3.582,8,8
		S256.42,224,252.001,224z"/>
	<path style="fill:#5A6470;" d="M332.001,72c0-17.673-14.327-32-32-32h-112c-17.673,0-32,14.327-32,32v32h176V72z"/>
	<path style="fill:#5A6470;" d="M268.001,256h-56c-4.418,0-8-3.582-8-8s3.582-8,8-8h54.112l14.312-7.16
		c3.954-1.975,8.761-0.37,10.736,3.584c1.975,3.954,0.37,8.761-3.584,10.736l0,0l-16,8C270.467,255.714,269.243,256.001,268.001,256
		L268.001,256z"/>
</g>
<path style="fill:#87CEE9;" d="M148.001,360h192v112h-192V360z"/>
<circle style="fill:#7D8D9C;" cx="244.001" cy="416" r="24"/>
<path style="fill:#2D75BB;" d="M124.001,208h32c4.418,0,8,3.582,8,8v32c0,4.418-3.582,8-8,8h-32c-4.418,0-8-3.582-8-8v-32
	C116.001,211.582,119.583,208,124.001,208z"/>
<g>
</g>
<g>
</g>
<g>
</g>
<g>
</g>
<g>
</g>
<g>
</g>
<g>
</g>
<g>
</g>
<g>
</g>
<g>
</g>
<g>
</g>
<g>
</g>
<g>
</g>
<g>
</g>
<g>
</g>
</svg>
