<?xml version="1.0" encoding="iso-8859-1"?>
<!-- Generator: Adobe Illustrator 19.0.0, SVG Export Plug-In . SVG Version: 6.00 Build 0)  -->
<svg version="1.1" id="Capa_1" xmlns="http://www.w3.org/2000/svg" xmlns:xlink="http://www.w3.org/1999/xlink" x="0px" y="0px"
	 viewBox="0 0 480 480" style="enable-background:new 0 0 480 480;" xml:space="preserve">
<g>
	<path style="fill:#87CEE9;" d="M424,140.001h-80l128,80L424,140.001z"/>
	<path style="fill:#87CEE9;" d="M56,372.001h80l-128,80L56,372.001z"/>
</g>
<path style="fill:#2D75BB;" d="M184,28.001h256c17.673,0,32,14.327,32,32v48c0,17.673-14.327,32-32,32H184
	c-17.673,0-32-14.327-32-32v-48C152,42.328,166.327,28.001,184,28.001z"/>
<g>
	<path style="fill:#FCF05A;" d="M184,92.001h16v16h-16V92.001z"/>
	<path style="fill:#FCF05A;" d="M184,60.001h16v16h-16V60.001z"/>
	<path style="fill:#FCF05A;" d="M216,60.001h32v16h-32V60.001z"/>
	<path style="fill:#FCF05A;" d="M264,60.001h80v16h-80V60.001z"/>
	<path style="fill:#FCF05A;" d="M360,60.001h88v16h-88V60.001z"/>
	<path style="fill:#FCF05A;" d="M216,92.001h232v16H216V92.001z"/>
</g>
<path style="fill:#2D75BB;" d="M296,372.001H40c-17.673,0-32-14.327-32-32v-112c0-17.673,14.327-32,32-32h256
	c17.673,0,32,14.327,32,32v112C328,357.674,313.673,372.001,296,372.001z"/>
<g>
	<g>
		<path id="SVGCleanerId_0" style="fill:#FCF05A;" d="M232,292.001h32v16h-32V292.001z"/>
	</g>
	<g>
		<path id="SVGCleanerId_1" style="fill:#FCF05A;" d="M136,292.001h80v16h-80V292.001z"/>
	</g>
	<g>
		<path id="SVGCleanerId_2" style="fill:#FCF05A;" d="M64,292.001h56v16H64V292.001z"/>
	</g>
	<g>
		<path id="SVGCleanerId_3" style="fill:#FCF05A;" d="M64,324.001h200v16H64V324.001z"/>
	</g>
	<g>
		<path id="SVGCleanerId_4" style="fill:#FCF05A;" d="M232,228.001h32v16h-32V228.001z"/>
	</g>
	<g>
		<path id="SVGCleanerId_5" style="fill:#FCF05A;" d="M136,228.001h80v16h-80V228.001z"/>
	</g>
	<g>
		<path id="SVGCleanerId_6" style="fill:#FCF05A;" d="M64,228.001h56v16H64V228.001z"/>
	</g>
	<g>
		<path id="SVGCleanerId_7" style="fill:#FCF05A;" d="M64,260.001h200v16H64V260.001z"/>
	</g>
</g>
<path d="M440,20.001H184c-22.08,0.026-39.974,17.92-40,40v48c0.026,22.08,17.92,39.974,40,40h157.704l126.056,78.784
	c3.748,2.34,8.683,1.2,11.023-2.548c1.593-2.55,1.621-5.778,0.073-8.356l-40.728-67.88H440c22.08-0.026,39.974-17.92,40-40v-48
	C479.974,37.92,462.08,20.027,440,20.001z M448,195.577l-76.112-47.576h47.584L448,195.577z M464,108.001c0,13.255-10.745,24-24,24
	H184c-13.255,0-24-10.745-24-24v-48c0-13.255,10.745-24,24-24h256c13.255,0,24,10.745,24,24V108.001z"/>
<path d="M184,92.001h16v16h-16V92.001z"/>
<path d="M184,60.001h16v16h-16V60.001z"/>
<path d="M216,60.001h32v16h-32V60.001z"/>
<path d="M264,60.001h80v16h-80V60.001z"/>
<path d="M360,60.001h88v16h-88V60.001z"/>
<path d="M216,92.001h232v16H216V92.001z"/>
<path d="M40,380.001h1.872l-40.728,67.88c-2.275,3.788-1.048,8.702,2.74,10.977c2.578,1.548,5.806,1.52,8.356-0.073l126.048-78.784
	H296c22.08-0.026,39.974-17.92,40-40v-112c-0.026-22.08-17.92-39.974-40-40H40c-22.08,0.026-39.974,17.92-40,40v112
	C0.026,362.081,17.92,379.974,40,380.001z M32,427.577l28.528-47.576h47.584L32,427.577z M16,228.001c0-13.255,10.745-24,24-24l0,0
	h256c13.255,0,24,10.745,24,24l0,0v112c0,13.255-10.745,24-24,24H40c-13.255,0-24-10.745-24-24V228.001z"/>
<path id="SVGCleanerId_0_1_" d="M232,292.001h32v16h-32V292.001z"/>
<path id="SVGCleanerId_1_1_" d="M136,292.001h80v16h-80V292.001z"/>
<path id="SVGCleanerId_2_1_" d="M64,292.001h56v16H64V292.001z"/>
<path id="SVGCleanerId_3_1_" d="M64,324.001h200v16H64V324.001z"/>
<path id="SVGCleanerId_4_1_" d="M232,228.001h32v16h-32V228.001z"/>
<path id="SVGCleanerId_5_1_" d="M136,228.001h80v16h-80V228.001z"/>
<path id="SVGCleanerId_6_1_" d="M64,228.001h56v16H64V228.001z"/>
<path id="SVGCleanerId_7_1_" d="M64,260.001h200v16H64V260.001z"/>
<g>
</g>
<g>
</g>
<g>
</g>
<g>
</g>
<g>
</g>
<g>
</g>
<g>
</g>
<g>
</g>
<g>
</g>
<g>
</g>
<g>
</g>
<g>
</g>
<g>
</g>
<g>
</g>
<g>
</g>
</svg>
