<?xml version="1.0" encoding="iso-8859-1"?>
<!-- Generator: Adobe Illustrator 19.0.0, SVG Export Plug-In . SVG Version: 6.00 Build 0)  -->
<svg version="1.1" id="Capa_1" xmlns="http://www.w3.org/2000/svg" xmlns:xlink="http://www.w3.org/1999/xlink" x="0px" y="0px"
	 viewBox="0 0 464 464" style="enable-background:new 0 0 464 464;" xml:space="preserve">
<g>
	<path style="fill:#87CEE9;" d="M416,132h-80l128,80L416,132z"/>
	<path style="fill:#87CEE9;" d="M48,364h80L0,444L48,364z"/>
</g>
<path style="fill:#2D75BB;" d="M176,20h256c17.673,0,32,14.327,32,32v48c0,17.673-14.327,32-32,32H176c-17.673,0-32-14.327-32-32V52
	C144,34.327,158.327,20,176,20z"/>
<g>
	<path style="fill:#FCF05A;" d="M176,84h16v16h-16V84z"/>
	<path style="fill:#FCF05A;" d="M176,52h16v16h-16V52z"/>
	<path style="fill:#FCF05A;" d="M208,52h32v16h-32V52z"/>
	<path style="fill:#FCF05A;" d="M256,52h80v16h-80V52z"/>
	<path style="fill:#FCF05A;" d="M352,52h88v16h-88V52z"/>
	<path style="fill:#FCF05A;" d="M208,84h232v16H208V84z"/>
</g>
<path style="fill:#2D75BB;" d="M288,364H32c-17.673,0-32-14.327-32-32V220c0-17.673,14.327-32,32-32h256c17.673,0,32,14.327,32,32
	v112C320,349.673,305.673,364,288,364z"/>
<g>
	<path style="fill:#FCF05A;" d="M224,284h32v16h-32V284z"/>
	<path style="fill:#FCF05A;" d="M128,284h80v16h-80V284z"/>
	<path style="fill:#FCF05A;" d="M56,284h56v16H56V284z"/>
	<path style="fill:#FCF05A;" d="M56,316h200v16H56V316z"/>
	<path style="fill:#FCF05A;" d="M224,220h32v16h-32V220z"/>
	<path style="fill:#FCF05A;" d="M128,220h80v16h-80V220z"/>
	<path style="fill:#FCF05A;" d="M56,220h56v16H56V220z"/>
	<path style="fill:#FCF05A;" d="M56,252h200v16H56V252z"/>
</g>
<g>
</g>
<g>
</g>
<g>
</g>
<g>
</g>
<g>
</g>
<g>
</g>
<g>
</g>
<g>
</g>
<g>
</g>
<g>
</g>
<g>
</g>
<g>
</g>
<g>
</g>
<g>
</g>
<g>
</g>
</svg>
