<?xml version="1.0" encoding="iso-8859-1"?>
<!-- Generator: Adobe Illustrator 19.0.0, SVG Export Plug-In . SVG Version: 6.00 Build 0)  -->
<svg version="1.1" id="Capa_1" xmlns="http://www.w3.org/2000/svg" xmlns:xlink="http://www.w3.org/1999/xlink" x="0px" y="0px"
	 viewBox="0 0 479.907 479.907" style="enable-background:new 0 0 479.907 479.907;" xml:space="preserve">
<path style="fill:#2D75BB;" d="M159.953,7.953h160c35.346,0,64,28.654,64,64v336c0,35.346-28.654,64-64,64h-160
	c-35.346,0-64-28.654-64-64v-336C95.953,36.607,124.607,7.953,159.953,7.953z"/>
<path style="fill:#FCF05A;" d="M239.953,407.953c-4.418,0-8-3.582-8-8V259.265l-74.344,74.344
	c-3.178,3.069-8.243,2.982-11.312-0.196c-2.994-3.1-2.994-8.015,0-11.116l82.344-82.344l-82.344-82.344
	c-3.069-3.178-2.981-8.243,0.197-11.312c3.1-2.994,8.015-2.994,11.115,0l74.344,74.344V79.953c0.001-4.418,3.583-7.999,8.002-7.998
	c2.121,0,4.154,0.843,5.654,2.342l80,80c3.123,3.124,3.123,8.188,0,11.312l-74.344,74.344l74.344,74.344
	c3.123,3.124,3.123,8.188,0,11.312l-80,80C244.109,407.11,242.075,407.953,239.953,407.953L239.953,407.953z M247.953,259.265
	v121.376l60.688-60.688L247.953,259.265z M247.953,99.265v121.376l60.688-60.688L247.953,99.265z"/>
<g>
	<path style="fill:#FDBD40;" d="M427.105,285.609l-11.32-11.312c18.938-18.98,18.938-49.708,0-68.688l11.32-11.312
		C452.272,219.533,452.272,260.374,427.105,285.609z"/>
	<path style="fill:#FDBD40;" d="M451.105,309.609l-11.32-11.312c32.169-32.245,32.169-84.443,0-116.688l11.32-11.312
		C489.507,208.796,489.507,271.111,451.105,309.609z"/>
	<path style="fill:#FDBD40;" d="M52.801,285.609c-25.166-25.235-25.166-66.077,0-91.312l11.312,11.312
		c-18.929,18.984-18.929,49.704,0,68.688L52.801,285.609z"/>
	<path style="fill:#FDBD40;" d="M28.801,309.609c-38.402-38.498-38.402-100.814,0-139.312l11.312,11.312
		c-32.16,32.248-32.16,84.44,0,116.688L28.801,309.609z"/>
</g>
<g>
</g>
<g>
</g>
<g>
</g>
<g>
</g>
<g>
</g>
<g>
</g>
<g>
</g>
<g>
</g>
<g>
</g>
<g>
</g>
<g>
</g>
<g>
</g>
<g>
</g>
<g>
</g>
<g>
</g>
</svg>
