<?xml version="1.0" encoding="iso-8859-1"?>
<!-- Generator: Adobe Illustrator 19.0.0, SVG Export Plug-In . SVG Version: 6.00 Build 0)  -->
<svg version="1.1" id="Capa_1" xmlns="http://www.w3.org/2000/svg" xmlns:xlink="http://www.w3.org/1999/xlink" x="0px" y="0px"
	 viewBox="0 0 480 480" style="enable-background:new 0 0 480 480;" xml:space="preserve">
<path style="fill:#2D75BB;" d="M160,8h160c35.346,0,64,28.654,64,64v336c0,35.346-28.654,64-64,64H160c-35.346,0-64-28.654-64-64V72
	C96,36.654,124.654,8,160,8z"/>
<path style="fill:#FCF05A;" d="M240,408c-4.418,0-8-3.582-8-8V259.312l-74.344,74.344c-3.178,3.069-8.243,2.982-11.312-0.196
	c-2.994-3.1-2.994-8.015,0-11.116L228.688,240l-82.344-82.344c-3.069-3.178-2.981-8.243,0.197-11.312
	c3.1-2.994,8.015-2.994,11.115,0L232,220.688V80c0.001-4.418,3.583-7.999,8.002-7.998c2.121,0,4.154,0.843,5.654,2.342l80,80
	c3.123,3.124,3.123,8.188,0,11.312L251.312,240l74.344,74.344c3.123,3.124,3.123,8.188,0,11.312l-80,80
	C244.156,407.156,242.122,408,240,408L240,408z M248,259.312v121.376L308.688,320L248,259.312z M248,99.312v121.376L308.688,160
	L248,99.312z"/>
<g>
	<path style="fill:#FDBD40;" d="M427.152,285.656l-11.32-11.312c18.938-18.98,18.938-49.708,0-68.688l11.32-11.312
		C452.318,219.579,452.318,260.421,427.152,285.656z"/>
	<path style="fill:#FDBD40;" d="M451.152,309.656l-11.32-11.312c32.169-32.245,32.169-84.443,0-116.688l11.32-11.312
		C489.554,208.842,489.554,271.158,451.152,309.656z"/>
	<path style="fill:#FDBD40;" d="M52.848,285.656c-25.166-25.235-25.166-66.077,0-91.312l11.312,11.312
		c-18.929,18.984-18.929,49.704,0,68.688L52.848,285.656z"/>
	<path style="fill:#FDBD40;" d="M28.848,309.656c-38.402-38.498-38.402-100.814,0-139.312l11.312,11.312
		C8,213.904,8,266.096,40.16,298.344L28.848,309.656z"/>
</g>
<path d="M146.344,333.656c3.124,3.123,8.188,3.123,11.312,0L232,259.312V400c0.001,4.418,3.583,7.999,8.002,7.998
	c2.121,0,4.154-0.843,5.654-2.342l80-80c3.123-3.124,3.123-8.188,0-11.312L251.312,240l74.344-74.344
	c3.123-3.124,3.123-8.188,0-11.312l-80-80c-3.125-3.124-8.19-3.123-11.314,0.002C232.843,75.846,232,77.879,232,80v140.688
	l-74.344-74.344c-3.178-3.069-8.243-2.981-11.312,0.197c-2.994,3.1-2.994,8.015,0,11.115L228.688,240l-82.344,82.344
	C143.221,325.468,143.221,330.532,146.344,333.656L146.344,333.656z M248,99.312L308.688,160L248,220.688V99.312z M248,259.312
	L308.688,320L248,380.688V259.312z"/>
<path d="M88,408c0.044,39.746,32.254,71.956,72,72h160c39.746-0.044,71.956-32.254,72-72V72c-0.044-39.746-32.254-71.956-72-72H160
	c-39.746,0.044-71.956,32.254-72,72V408z M104,72c0.035-30.913,25.087-55.965,56-56h160c30.913,0.035,55.965,25.087,56,56v336
	c-0.035,30.913-25.087,55.965-56,56H160c-30.913-0.035-55.965-25.087-56-56V72z"/>
<path d="M427.152,285.656c25.166-25.235,25.166-66.077,0-91.312l-11.32,11.312c18.938,18.98,18.938,49.708,0,68.688L427.152,285.656
	z"/>
<path d="M451.152,170.344l-11.32,11.312c32.169,32.245,32.169,84.443,0,116.688l11.32,11.312
	C489.554,271.158,489.554,208.842,451.152,170.344L451.152,170.344z"/>
<path d="M52.848,194.344c-25.166,25.235-25.166,66.077,0,91.312l11.312-11.312c-18.929-18.984-18.929-49.704,0-68.688
	L52.848,194.344z"/>
<path d="M40.16,298.344C8,266.096,8,213.904,40.16,181.656l-11.312-11.312c-38.402,38.498-38.402,100.814,0,139.312L40.16,298.344z"
	/>
<g>
</g>
<g>
</g>
<g>
</g>
<g>
</g>
<g>
</g>
<g>
</g>
<g>
</g>
<g>
</g>
<g>
</g>
<g>
</g>
<g>
</g>
<g>
</g>
<g>
</g>
<g>
</g>
<g>
</g>
</svg>
