<?xml version="1.0" encoding="iso-8859-1"?>
<!-- Generator: Adobe Illustrator 19.0.0, SVG Export Plug-In . SVG Version: 6.00 Build 0)  -->
<svg version="1.1" id="Capa_1" xmlns="http://www.w3.org/2000/svg" xmlns:xlink="http://www.w3.org/1999/xlink" x="0px" y="0px"
	 viewBox="0 0 464 464" style="enable-background:new 0 0 464 464;" xml:space="preserve">
<path style="fill:#7D8D9C;" d="M144,0h176c17.673,0,32,14.327,32,32v400c0,17.673-14.327,32-32,32H144c-17.673,0-32-14.327-32-32V32
	C112,14.327,126.327,0,144,0z"/>
<path style="fill:#87CEE9;" d="M112,72h240v328H112V72z"/>
<g>
	<path style="fill:#AABECE;" d="M176,32h112v16H176V32z"/>
	<path style="fill:#AABECE;" d="M216,424h32v16h-32V424z"/>
</g>
<g>
	<path style="fill:#E9686A;" d="M136,96h32v16h-32V96z"/>
	<path style="fill:#E9686A;" d="M184,96h32v16h-32V96z"/>
</g>
<g>
	<path style="fill:#238892;" d="M192,232h80v80h-80V232z"/>
	<path style="fill:#238892;" d="M160,280c-4.418,0-8-3.582-8-8v-40c0-4.418,3.582-8,8-8s8,3.582,8,8v40
		C168,276.418,164.418,280,160,280z"/>
	<path style="fill:#238892;" d="M304,280c-4.418,0-8-3.582-8-8v-40c0-4.418,3.582-8,8-8s8,3.582,8,8v40
		C312,276.418,308.418,280,304,280z"/>
	<path style="fill:#238892;" d="M208,360c-4.418,0-8-3.582-8-8v-40c0-4.418,3.582-8,8-8s8,3.582,8,8v40
		C216,356.418,212.418,360,208,360z"/>
	<path style="fill:#238892;" d="M256,360c-4.418,0-8-3.582-8-8v-40c0-4.418,3.582-8,8-8s8,3.582,8,8v40
		C264,356.418,260.418,360,256,360z"/>
	<path style="fill:#238892;" d="M216,192c-4.418,0-8-3.582-8-8v-24c0-4.418,3.582-8,8-8s8,3.582,8,8v24
		C224,188.418,220.418,192,216,192z"/>
	<path style="fill:#238892;" d="M248,192c-4.418,0-8-3.582-8-8v-24c0-4.418,3.582-8,8-8s8,3.582,8,8v24
		C256,188.418,252.418,192,248,192z"/>
</g>
<path style="fill:#394D5C;" d="M208,184h48c8.837,0,16,7.163,16,16v32l0,0h-80l0,0v-32C192,191.163,199.163,184,208,184z"/>
<g>
</g>
<g>
</g>
<g>
</g>
<g>
</g>
<g>
</g>
<g>
</g>
<g>
</g>
<g>
</g>
<g>
</g>
<g>
</g>
<g>
</g>
<g>
</g>
<g>
</g>
<g>
</g>
<g>
</g>
</svg>
