<?xml version="1.0" encoding="iso-8859-1"?>
<!-- Generator: Adobe Illustrator 19.0.0, SVG Export Plug-In . SVG Version: 6.00 Build 0)  -->
<svg version="1.1" id="Capa_1" xmlns="http://www.w3.org/2000/svg" xmlns:xlink="http://www.w3.org/1999/xlink" x="0px" y="0px"
	 viewBox="0 0 480 480" style="enable-background:new 0 0 480 480;" xml:space="preserve">
<path style="fill:#7D8D9C;" d="M152,8h176c17.673,0,32,14.327,32,32v400c0,17.673-14.327,32-32,32H152c-17.673,0-32-14.327-32-32V40
	C120,22.327,134.327,8,152,8z"/>
<path style="fill:#87CEE9;" d="M120,80h240v328H120V80z"/>
<g>
	<path style="fill:#AABECE;" d="M184,40h112v16H184V40z"/>
	<path style="fill:#AABECE;" d="M224,432h32v16h-32V432z"/>
</g>
<g>
	<path style="fill:#E9686A;" d="M144,104h32v16h-32V104z"/>
	<path style="fill:#E9686A;" d="M192,104h32v16h-32V104z"/>
</g>
<g>
	<path style="fill:#238892;" d="M200,240h80v80h-80V240z"/>
	<path style="fill:#238892;" d="M168,288c-4.418,0-8-3.582-8-8v-40c0-4.418,3.582-8,8-8s8,3.582,8,8v40
		C176,284.418,172.418,288,168,288z"/>
	<path style="fill:#238892;" d="M312,288c-4.418,0-8-3.582-8-8v-40c0-4.418,3.582-8,8-8s8,3.582,8,8v40
		C320,284.418,316.418,288,312,288z"/>
	<path style="fill:#238892;" d="M216,368c-4.418,0-8-3.582-8-8v-40c0-4.418,3.582-8,8-8s8,3.582,8,8v40
		C224,364.418,220.418,368,216,368z"/>
	<path style="fill:#238892;" d="M264,368c-4.418,0-8-3.582-8-8v-40c0-4.418,3.582-8,8-8s8,3.582,8,8v40
		C272,364.418,268.418,368,264,368z"/>
	<path style="fill:#238892;" d="M224,200c-4.418,0-8-3.582-8-8v-24c0-4.418,3.582-8,8-8s8,3.582,8,8v24
		C232,196.418,228.418,200,224,200z"/>
	<path style="fill:#238892;" d="M256,200c-4.418,0-8-3.582-8-8v-24c0-4.418,3.582-8,8-8s8,3.582,8,8v24
		C264,196.418,260.418,200,256,200z"/>
</g>
<path style="fill:#394D5C;" d="M216,192h48c8.837,0,16,7.163,16,16v32l0,0h-80l0,0v-32C200,199.163,207.163,192,216,192z"/>
<path d="M368,40c-0.026-22.08-17.92-39.974-40-40H152c-22.08,0.026-39.974,17.92-40,40v400c0.026,22.08,17.92,39.974,40,40h176
	c22.08-0.026,39.974-17.92,40-40V40z M352,400H128V88h224V400z M128,40c0-13.255,10.745-24,24-24h176c13.255,0,24,10.745,24,24v32
	H128V40z M328,464H152c-13.255,0-24-10.745-24-24v-24h224v24C352,453.255,341.255,464,328,464z"/>
<path d="M184,40h112v16H184V40z"/>
<path d="M224,432h32v16h-32V432z"/>
<path d="M144,104h32v16h-32V104z"/>
<path d="M192,104h32v16h-32V104z"/>
<path d="M168,232c-4.418,0-8,3.582-8,8v40c0,4.418,3.582,8,8,8s8-3.582,8-8v-40C176,235.582,172.418,232,168,232z"/>
<path d="M312,288c4.418,0,8-3.582,8-8v-40c0-4.418-3.582-8-8-8s-8,3.582-8,8v40C304,284.418,307.582,288,312,288z"/>
<path d="M208,360c0,4.418,3.582,8,8,8s8-3.582,8-8v-32h32v32c0,4.418,3.582,8,8,8s8-3.582,8-8v-32h16V208c0-13.255-10.745-24-24-24
	v-16c0-4.418-3.582-8-8-8s-8,3.582-8,8v16h-16v-16c0-4.418-3.582-8-8-8s-8,3.582-8,8v16c-13.255,0-24,10.745-24,24v120h16V360z
	 M208,208c0-4.418,3.582-8,8-8h48c4.418,0,8,3.582,8,8v24h-64V208z M272,248v64h-64v-64H272z"/>
<g>
</g>
<g>
</g>
<g>
</g>
<g>
</g>
<g>
</g>
<g>
</g>
<g>
</g>
<g>
</g>
<g>
</g>
<g>
</g>
<g>
</g>
<g>
</g>
<g>
</g>
<g>
</g>
<g>
</g>
</svg>
