<?xml version="1.0" encoding="iso-8859-1"?>
<!-- Generator: Adobe Illustrator 19.0.0, SVG Export Plug-In . SVG Version: 6.00 Build 0)  -->
<svg version="1.1" id="Capa_1" xmlns="http://www.w3.org/2000/svg" xmlns:xlink="http://www.w3.org/1999/xlink" x="0px" y="0px"
	 viewBox="0 0 480 480" style="enable-background:new 0 0 480 480;" xml:space="preserve">
<path style="fill:#7D8D9C;" d="M152,8h176c17.673,0,32,14.327,32,32v400c0,17.673-14.327,32-32,32H152c-17.673,0-32-14.327-32-32V40
	C120,22.327,134.327,8,152,8z"/>
<path style="fill:#87CEE9;" d="M120,80h240v328H120V80z"/>
<g>
	<path style="fill:#AABECE;" d="M184,40h112v16H184V40z"/>
	<path style="fill:#AABECE;" d="M224,432h32v16h-32V432z"/>
</g>
<g>
	<path style="fill:#FDBD40;" d="M395.152,285.656l-11.312-11.312c18.929-18.984,18.929-49.704,0-68.688l11.312-11.312
		C420.318,219.579,420.318,260.421,395.152,285.656z"/>
	<path style="fill:#FDBD40;" d="M419.152,309.656l-11.312-11.312c32.169-32.245,32.169-84.443,0-116.688l11.312-11.312
		C457.558,208.84,457.558,271.16,419.152,309.656z"/>
	<path style="fill:#FDBD40;" d="M84.848,285.656c-25.166-25.235-25.166-66.077,0-91.312l11.312,11.312
		c-18.929,18.984-18.929,49.704,0,68.688L84.848,285.656z"/>
	<path style="fill:#FDBD40;" d="M60.848,309.656c-38.406-38.496-38.406-100.816,0-139.312l11.312,11.312
		c-32.16,32.248-32.16,84.44,0,116.688L60.848,309.656z"/>
</g>
<circle style="fill:#FFF69A;" cx="240" cy="264" r="80"/>
<path style="fill:#394D5C;" d="M288,272h-56v-64h16v48h40V272z"/>
<g>
	<path style="fill:#FCF05A;" d="M224,160l-48,16l-8-32l40-16L224,160z"/>
	<path style="fill:#FCF05A;" d="M256,160l48,16l8-32l-40-16L256,160z"/>
</g>
<path d="M328,0H152c-22.08,0.026-39.974,17.92-40,40v400c0.026,22.08,17.92,39.974,40,40h176c22.08-0.026,39.974-17.92,40-40V40
	C367.974,17.92,350.08,0.026,328,0z M128,88h224v312H128V88z M352,440c0,13.255-10.745,24-24,24H152c-13.255,0-24-10.745-24-24v-24
	h224V440z M128,72V40c0-13.255,10.745-24,24-24h176c13.255,0,24,10.745,24,24v32H128z"/>
<path d="M184,40h112v16H184V40z"/>
<path d="M224,432h32v16h-32V432z"/>
<path d="M395.152,285.656c25.166-25.235,25.166-66.077,0-91.312l-11.312,11.312c18.929,18.984,18.929,49.704,0,68.688
	L395.152,285.656z"/>
<path d="M419.152,170.344l-11.312,11.312c32.169,32.245,32.169,84.443,0,116.688l11.312,11.312
	C457.558,271.16,457.558,208.84,419.152,170.344L419.152,170.344z"/>
<path d="M84.848,194.344c-25.166,25.235-25.166,66.077,0,91.312l11.312-11.312c-18.929-18.984-18.929-49.704,0-68.688
	L84.848,194.344z"/>
<path d="M60.848,309.656l11.312-11.312c-32.16-32.248-32.16-84.44,0-116.688l-11.312-11.312
	C22.442,208.84,22.442,271.16,60.848,309.656z"/>
<path d="M240,176c-48.601,0-88,39.399-88,88s39.399,88,88,88s88-39.399,88-88C327.943,215.423,288.577,176.057,240,176z M240,336
	c-39.764,0-72-32.236-72-72s32.236-72,72-72s72,32.236,72,72C311.956,303.746,279.746,335.956,240,336z"/>
<path d="M248,208h-16v64h56v-16h-40V208z"/>
<path d="M168.24,177.936c0.889,3.563,4.088,6.063,7.76,6.064c0.86,0,1.714-0.14,2.528-0.416l48-16
	c4.192-1.396,6.459-5.926,5.063-10.118c-0.119-0.357-0.263-0.705-0.431-1.042l-16-32c-1.859-3.729-6.269-5.406-10.136-3.856l-40,16
	c-3.718,1.482-5.769,5.484-4.8,9.368L168.24,177.936z M204.136,138.168l8.584,17.16l-31.056,10.352l-4.208-16.88L204.136,138.168z"
	/>
<path d="M253.472,167.584l48,16C302.286,183.86,303.14,184,304,184c3.672-0.001,6.871-2.501,7.76-6.064l8-32
	c0.969-3.884-1.082-7.886-4.8-9.368l-40-16c-3.867-1.55-8.277,0.127-10.136,3.856l-16,32c-1.971,3.954-0.364,8.758,3.59,10.729
	c0.337,0.168,0.685,0.312,1.042,0.431L253.472,167.584z M275.872,138.168l26.672,10.632l-4.208,16.848l-31.056-10.32
	L275.872,138.168z"/>
<g>
</g>
<g>
</g>
<g>
</g>
<g>
</g>
<g>
</g>
<g>
</g>
<g>
</g>
<g>
</g>
<g>
</g>
<g>
</g>
<g>
</g>
<g>
</g>
<g>
</g>
<g>
</g>
<g>
</g>
</svg>
