<?xml version="1.0" encoding="iso-8859-1"?>
<!-- Generator: Adobe Illustrator 19.0.0, SVG Export Plug-In . SVG Version: 6.00 Build 0)  -->
<svg xmlns="http://www.w3.org/2000/svg" xmlns:xlink="http://www.w3.org/1999/xlink" version="1.1" id="Capa_1" x="0px" y="0px" viewBox="0 0 469.333 469.333" style="enable-background:new 0 0 469.333 469.333;" xml:space="preserve">
<path style="fill:#303C42;" d="M362.667,469.333h-256C83.135,469.333,64,450.198,64,426.667v-384C64,19.135,83.135,0,106.667,0  h181.292c2.833,0,5.542,1.125,7.542,3.125l106.708,106.667c2,2,3.125,4.708,3.125,7.542v309.333  C405.333,450.198,386.198,469.333,362.667,469.333z"/>
<path style="fill:#F2F2F2;" d="M106.667,21.333c-11.76,0-21.333,9.573-21.333,21.333v384c0,11.76,9.573,21.333,21.333,21.333h256  c11.76,0,21.333-9.573,21.333-21.333V121.75L283.542,21.333H106.667z"/>
<path style="fill:#303C42;" d="M309.333,170.667H160c-17.646,0-32,14.354-32,32v170.667c0,17.646,14.354,32,32,32h149.333  c17.646,0,32-14.354,32-32V202.667C341.333,185.021,326.979,170.667,309.333,170.667z"/>
<g>
	<path style="fill:#FFCA28;" d="M320,202.667v32h-42.667V192h32C315.219,192,320,196.781,320,202.667z"/>
	<rect x="213.333" y="192" style="fill:#FFCA28;" width="42.667" height="42.667"/>
	<path style="fill:#FFCA28;" d="M160,192h32v42.667h-42.667v-32C149.333,196.781,154.115,192,160,192z"/>
	<path style="fill:#FFCA28;" d="M149.333,373.333v-32H192V384h-32C154.115,384,149.333,379.219,149.333,373.333z"/>
	<rect x="213.333" y="341.333" style="fill:#FFCA28;" width="42.667" height="42.667"/>
	<path style="fill:#FFCA28;" d="M309.333,384h-32v-53.333c0-5.896-4.771-10.667-10.667-10.667H149.333v-64H320v117.333   C320,379.219,315.219,384,309.333,384z"/>
</g>
<linearGradient id="SVGID_1_" gradientUnits="userSpaceOnUse" x1="-56.2254" y1="610.8377" x2="-49.0809" y2="603.6932" gradientTransform="matrix(21.3333 0 0 -21.3333 1430.1112 13315.2227)">
	<stop offset="0" style="stop-color:#000000;stop-opacity:0.1"/>
	<stop offset="1" style="stop-color:#000000;stop-opacity:0"/>
</linearGradient>
<path style="fill:url(#SVGID_1_);" d="M333.208,181.445l-0.056,0.061c5.029,5.654,8.181,13.016,8.181,21.16v170.667  c0,17.646-14.354,32-32,32H160c-8.719,0-16.616-3.523-22.393-9.198L189.471,448h173.195c11.76,0,21.333-9.573,21.333-21.333V232.236  L333.208,181.445z"/>
<path style="fill:#303C42;" d="M458.667,469.333c-2.729,0-5.458-1.042-7.542-3.125l-448-448c-4.167-4.167-4.167-10.917,0-15.083  s10.917-4.167,15.083,0l448,448c4.167,4.167,4.167,10.917,0,15.083C464.125,468.292,461.396,469.333,458.667,469.333z"/>
<linearGradient id="SVGID_2_" gradientUnits="userSpaceOnUse" x1="-69.4785" y1="618.5253" x2="-43.2793" y2="606.3082" gradientTransform="matrix(21.3333 0 0 -21.3333 1430.1112 13315.2227)">
	<stop offset="0" style="stop-color:#FFFFFF;stop-opacity:0.2"/>
	<stop offset="1" style="stop-color:#FFFFFF;stop-opacity:0"/>
</linearGradient>
<path style="fill:url(#SVGID_2_);" d="M466.208,451.125l-60.875-60.875V117.333c0-2.833-1.125-5.542-3.125-7.542L295.5,3.125  c-2-2-4.708-3.125-7.542-3.125H106.667C83.135,0,64,19.135,64,42.667v6.25L18.208,3.125c-4.167-4.167-10.917-4.167-15.083,0  s-4.167,10.917,0,15.083L64,79.083v347.583c0,23.531,19.135,42.667,42.667,42.667h256c23.531,0,42.667-19.135,42.667-42.667v-6.25  l45.792,45.792c2.083,2.083,4.813,3.125,7.542,3.125c2.729,0,5.458-1.042,7.542-3.125  C470.375,462.042,470.375,455.292,466.208,451.125z"/>
<g>
</g>
<g>
</g>
<g>
</g>
<g>
</g>
<g>
</g>
<g>
</g>
<g>
</g>
<g>
</g>
<g>
</g>
<g>
</g>
<g>
</g>
<g>
</g>
<g>
</g>
<g>
</g>
<g>
</g>
</svg>
