<?xml version="1.0" encoding="iso-8859-1"?>
<!-- Generator: Adobe Illustrator 19.0.0, SVG Export Plug-In . SVG Version: 6.00 Build 0)  -->
<svg xmlns="http://www.w3.org/2000/svg" xmlns:xlink="http://www.w3.org/1999/xlink" version="1.1" id="Capa_1" x="0px" y="0px" viewBox="0 0 512 512" style="enable-background:new 0 0 512 512;" xml:space="preserve">
<path style="fill:#303C42;" d="M405.333,0h-256c-23.531,0-42.667,19.135-42.667,42.667v134.25l-39.542,39.542  c-2,2-3.125,4.708-3.125,7.542v32c0,2.833,1.125,5.542,3.125,7.542l18.208,18.208v33.833l-18.208,18.208  c-2,2-3.125,4.708-3.125,7.542v128C64,492.865,83.135,512,106.667,512h298.667C428.865,512,448,492.865,448,469.333V42.667  C448,19.135,428.865,0,405.333,0z"/>
<path style="fill:#546E7A;" d="M426.667,469.333c0,11.76-9.573,21.333-21.333,21.333H106.667c-11.76,0-21.333-9.573-21.333-21.333  V345.75l18.208-18.208c2-2,3.125-4.708,3.125-7.542v-42.667c0-2.833-1.125-5.542-3.125-7.542l-18.208-18.208v-23.167l39.542-39.542  c2-2,3.125-4.708,3.125-7.542V42.667c0-11.76,9.573-21.333,21.333-21.333h21.333v117.333c0,5.896,4.771,10.667,10.667,10.667  c5.896,0,10.667-4.771,10.667-10.667V21.333h42.667v117.333c0,5.896,4.771,10.667,10.667,10.667c5.896,0,10.667-4.771,10.667-10.667  V21.333h42.667v117.333c0,5.896,4.771,10.667,10.667,10.667S320,144.563,320,138.667V21.333h42.667v117.333  c0,5.896,4.771,10.667,10.667,10.667S384,144.563,384,138.667V21.333h21.333c11.76,0,21.333,9.573,21.333,21.333V469.333z"/>
<path style="opacity:0.1;enable-background:new    ;" d="M405.333,21.333H384v117.333v224C384,409.794,345.796,448,298.667,448  H85.333v21.333c0,11.76,9.573,21.333,21.333,21.333h298.667c11.76,0,21.333-9.573,21.333-21.333V42.667  C426.667,30.906,417.094,21.333,405.333,21.333z"/>
<linearGradient id="SVGID_1_" gradientUnits="userSpaceOnUse" x1="-44.4528" y1="639.0302" x2="-23.3106" y2="629.1725" gradientTransform="matrix(21.3333 0 0 -21.3333 996.3334 13791.667)">
	<stop offset="0" style="stop-color:#FFFFFF;stop-opacity:0.2"/>
	<stop offset="1" style="stop-color:#FFFFFF;stop-opacity:0"/>
</linearGradient>
<path style="fill:url(#SVGID_1_);" d="M405.333,0h-256c-23.531,0-42.667,19.135-42.667,42.667v134.25l-39.542,39.542  c-2,2-3.125,4.708-3.125,7.542v32c0,2.833,1.125,5.542,3.125,7.542l18.208,18.208v33.833l-18.208,18.208  c-2,2-3.125,4.708-3.125,7.542v128C64,492.865,83.135,512,106.667,512h298.667C428.865,512,448,492.865,448,469.333V42.667  C448,19.135,428.865,0,405.333,0z"/>
<g>
</g>
<g>
</g>
<g>
</g>
<g>
</g>
<g>
</g>
<g>
</g>
<g>
</g>
<g>
</g>
<g>
</g>
<g>
</g>
<g>
</g>
<g>
</g>
<g>
</g>
<g>
</g>
<g>
</g>
</svg>
