<?xml version="1.0" encoding="iso-8859-1"?>
<!-- Generator: Adobe Illustrator 19.0.0, SVG Export Plug-In . SVG Version: 6.00 Build 0)  -->
<svg xmlns="http://www.w3.org/2000/svg" xmlns:xlink="http://www.w3.org/1999/xlink" version="1.1" id="Capa_1" x="0px" y="0px" viewBox="0 0 512 512" style="enable-background:new 0 0 512 512;" xml:space="preserve">
<g>
	<path style="fill:#303C42;" d="M209.333,450.333c-4.604-3.667-11.302-2.896-15,1.667c-3.677,4.604-2.927,11.313,1.667,15   l26.635,21.302C108.99,472.052,21.333,374.073,21.333,256c0-5.896-4.771-10.667-10.667-10.667S0,250.104,0,256   c0,141.156,114.844,256,256,256c4.531,0,8.563-2.865,10.063-7.135s0.135-9.031-3.396-11.865L209.333,450.333z"/>
	<path style="fill:#303C42;" d="M387.125,365.792l-21.333,21.333c-4.167,4.167-4.167,10.917,0,15.083   c2.083,2.083,4.813,3.125,7.542,3.125s5.458-1.042,7.542-3.125l21.333-21.333c4.167-4.167,4.167-10.917,0-15.083   C398.042,361.625,391.292,361.625,387.125,365.792z"/>
	<path style="fill:#303C42;" d="M131.125,109.792l-21.333,21.333c-4.167,4.167-4.167,10.917,0,15.083   c2.083,2.083,4.813,3.125,7.542,3.125s5.458-1.042,7.542-3.125l21.333-21.333c4.167-4.167,4.167-10.917,0-15.083   C142.042,105.625,135.292,105.625,131.125,109.792z"/>
	<circle style="fill:#303C42;" cx="192" cy="64" r="10.667"/>
	<path style="fill:#303C42;" d="M214.646,30.409c-12.083-12.104-33.229-12.094-45.271-0.01L30.708,169.065   c-6.042,6.042-9.375,14.083-9.375,22.625s3.333,16.583,9.375,22.625l266.646,266.656c6.042,6.052,14.083,9.385,22.646,9.385   s16.604-3.333,22.625-9.375l138.667-138.667c6.042-6.042,9.375-14.083,9.375-22.625c0-8.542-3.333-16.583-9.375-22.625   L214.646,30.409z"/>
</g>
<g>
	<path id="SVGCleanerId_0" style="fill:#5C6671;" d="M42.667,191.69c0-2.844,1.104-5.521,3.125-7.542L184.479,45.471   c2-2.01,4.667-3.115,7.521-3.115c2.854,0,5.521,1.104,7.542,3.125l232.464,232.464l-153.75,153.75L45.792,199.232   C43.771,197.211,42.667,194.534,42.667,191.69z"/>
</g>
<g>
	
		<linearGradient id="SVGCleanerId_0_3_" gradientUnits="userSpaceOnUse" x1="-43.9383" y1="639.2504" x2="-27.3567" y2="631.5176" gradientTransform="matrix(21.3333 0 0 -21.3333 996.3334 13791.667)">
		<stop offset="0" style="stop-color:#FFFFFF;stop-opacity:0.2"/>
		<stop offset="1" style="stop-color:#FFFFFF;stop-opacity:0"/>
	</linearGradient>
	<path id="SVGCleanerId_0_1_" style="fill:url(#SVGCleanerId_0_3_);" d="M42.667,191.69c0-2.844,1.104-5.521,3.125-7.542   L184.479,45.471c2-2.01,4.667-3.115,7.521-3.115c2.854,0,5.521,1.104,7.542,3.125l232.464,232.464l-153.75,153.75L45.792,199.232   C43.771,197.211,42.667,194.534,42.667,191.69z"/>
</g>
<g>
	
		<linearGradient id="SVGCleanerId_0_4_" gradientUnits="userSpaceOnUse" x1="-41.307" y1="641.1023" x2="-30.056" y2="629.8522" gradientTransform="matrix(21.3333 0 0 -21.3333 996.3334 13791.667)">
		<stop offset="0" style="stop-color:#FFFFFF;stop-opacity:0.2"/>
		<stop offset="1" style="stop-color:#FFFFFF;stop-opacity:0"/>
	</linearGradient>
	<path id="SVGCleanerId_0_2_" style="fill:url(#SVGCleanerId_0_4_);" d="M42.667,191.69c0-2.844,1.104-5.521,3.125-7.542   L184.479,45.471c2-2.01,4.667-3.115,7.521-3.115c2.854,0,5.521,1.104,7.542,3.125l232.464,232.464l-153.75,153.75L45.792,199.232   C43.771,197.211,42.667,194.534,42.667,191.69z"/>
</g>
<path style="fill:#FFFFFF;" d="M387.125,365.482l-21.333,21.333c-4.167,4.167-4.167,10.917,0,15.083  c2.083,2.083,4.813,3.125,7.542,3.125s5.458-1.042,7.542-3.125l21.333-21.333c4.167-4.167,4.167-10.917,0-15.083  S391.292,361.315,387.125,365.482z"/>
<g>
	<path style="fill:#303C42;" d="M131.125,109.482l-21.333,21.333c-4.167,4.167-4.167,10.917,0,15.083   c2.083,2.083,4.813,3.125,7.542,3.125s5.458-1.042,7.542-3.125l21.333-21.333c4.167-4.167,4.167-10.917,0-15.083   C142.042,105.315,135.292,105.315,131.125,109.482z"/>
	<circle style="fill:#303C42;" cx="192" cy="63.68" r="10.667"/>
	<path style="fill:#303C42;" d="M490.667,85.333V74.667C490.667,33.5,457.167,0,416,0s-74.667,33.5-74.667,74.667v10.667   c-11.771,0-21.333,9.563-21.333,21.333v106.667c0,11.771,9.563,21.333,21.333,21.333h149.333c11.771,0,21.333-9.563,21.333-21.333   V106.667C512,94.896,502.438,85.333,490.667,85.333z M469.333,85.333H362.667V74.667c0-29.417,23.917-53.333,53.333-53.333   c29.417,0,53.333,23.917,53.333,53.333V85.333z"/>
</g>
<polygon style="fill:#E6E6E6;" points="341.333,106.667 490.667,106.667 490.667,213.333 341.333,213.333 341.333,106.667   341.313,106.667 "/>
<path style="fill:#303C42;" d="M405.333,167.392v13.941c0,5.896,4.771,10.667,10.667,10.667c5.896,0,10.667-4.771,10.667-10.667  v-13.941c6.259-3.721,10.667-10.258,10.667-18.059c0-11.771-9.563-21.333-21.333-21.333c-11.771,0-21.333,9.563-21.333,21.333  C394.667,157.134,399.074,163.671,405.333,167.392z"/>
<linearGradient id="SVGID_1_" gradientUnits="userSpaceOnUse" x1="-30.684" y1="636.3832" x2="-27.1067" y2="632.801" gradientTransform="matrix(21.3333 0 0 -21.3333 996.3334 13791.667)">
	<stop offset="0" style="stop-color:#000000;stop-opacity:0.1"/>
	<stop offset="1" style="stop-color:#000000;stop-opacity:0"/>
</linearGradient>
<path style="fill:url(#SVGID_1_);" d="M341.333,234.667c-5.225,0-9.848-2.1-13.56-5.227l76.368,76.368l27.863-27.863l-43.279-43.279  H341.333z"/>
<linearGradient id="SVGID_2_" gradientUnits="userSpaceOnUse" x1="-44.5195" y1="640.3713" x2="-23.8947" y2="630.7539" gradientTransform="matrix(21.3333 0 0 -21.3333 996.3334 13791.667)">
	<stop offset="0" style="stop-color:#FFFFFF;stop-opacity:0.2"/>
	<stop offset="1" style="stop-color:#FFFFFF;stop-opacity:0"/>
</linearGradient>
<path style="fill:url(#SVGID_2_);" d="M209.333,450.333c-4.604-3.667-11.302-2.896-15,1.667c-3.677,4.604-2.927,11.313,1.667,15  l26.635,21.302C108.99,472.052,21.333,374.073,21.333,256c0-5.896-4.771-10.667-10.667-10.667S0,250.104,0,256  c0,141.156,114.844,256,256,256c4.531,0,8.563-2.865,10.063-7.135s0.135-9.031-3.396-11.865L209.333,450.333z M490.667,85.333  V74.667C490.667,33.5,457.167,0,416,0s-74.667,33.5-74.667,74.667v10.667c-11.771,0-21.333,9.563-21.333,21.333v29.1L214.646,30.409  c-12.083-12.104-33.229-12.094-45.271-0.01L30.708,169.065c-6.042,6.042-9.375,14.083-9.375,22.625s3.333,16.583,9.375,22.625  l266.646,266.656c6.042,6.052,14.083,9.385,22.646,9.385s16.604-3.333,22.625-9.375l138.667-138.667  c6.042-6.042,9.375-14.083,9.375-22.625c0-8.542-3.333-16.583-9.375-22.625l-62.396-62.398h71.771  c11.771,0,21.333-9.563,21.333-21.333V106.667C512,94.896,502.438,85.333,490.667,85.333z M469.333,85.333H362.667V74.667  c0-29.417,23.917-53.333,53.333-53.333c29.417,0,53.333,23.917,53.333,53.333V85.333z"/>
<g>
</g>
<g>
</g>
<g>
</g>
<g>
</g>
<g>
</g>
<g>
</g>
<g>
</g>
<g>
</g>
<g>
</g>
<g>
</g>
<g>
</g>
<g>
</g>
<g>
</g>
<g>
</g>
<g>
</g>
</svg>
