<?xml version="1.0" encoding="iso-8859-1"?>
<!-- Generator: Adobe Illustrator 19.0.0, SVG Export Plug-In . SVG Version: 6.00 Build 0)  -->
<svg xmlns="http://www.w3.org/2000/svg" xmlns:xlink="http://www.w3.org/1999/xlink" version="1.1" id="Capa_1" x="0px" y="0px" viewBox="0 0 469.281 469.281" style="enable-background:new 0 0 469.281 469.281;" xml:space="preserve">
<path style="fill:#303C42;" d="M419.594,84.688C370.239,30.073,304.562,0,234.635,0C164.719,0,99.041,30.073,49.687,84.698  c-9.458,10.469-9.458,26.885,0,37.354l36.354,40.24c9.5,10.5,27.135,10.51,36.656-0.01c11.937-13.229,25.531-24.135,40.281-32.354  c8.448-4.583,13.698-13.74,13.583-22.365l5.208-35.771c37.74-12.417,68.365-12.438,105.75-0.021l5.083,34.25  c0,9.969,5.115,19.115,13.49,23.958c14.854,8.281,28.448,19.188,40.406,32.427c4.75,5.25,11.427,8.26,18.313,8.26  c6.896,0,13.573-3.01,18.333-8.271l36.448-40.344C429.052,111.583,429.052,95.167,419.594,84.688z"/>
<path style="fill:#4FC3F7;" d="M403.76,107.76l-36.438,40.333c-1.469,1.604-3.531,1.625-5,0.01  c-13.521-14.969-28.938-27.333-45.688-36.667c-1.667-0.969-2.698-3.042-2.813-6.958l-6.146-42.208  c-0.563-3.896-3.229-7.156-6.938-8.49c-23.365-8.427-44.625-12.635-65.938-12.635c-21.302,0-42.656,4.208-66.229,12.625  c-3.719,1.323-6.406,4.594-6.969,8.5l-6.26,43.75c0,2.594-1.313,4.49-2.635,5.208c-16.917,9.427-32.333,21.792-45.833,36.75  c-1.479,1.625-3.552,1.615-5.01,0.01L65.521,107.76c-2.073-2.292-2.073-6.479,0-8.76c45.25-50.083,105.313-77.667,169.115-77.667  c63.813,0,123.875,27.583,169.125,77.656C405.833,101.281,405.833,105.469,403.76,107.76z"/>
<path style="opacity:0.1;enable-background:new    ;" d="M127.983,113.988c-8.99,8.605-22.87,7.986-30.913-1.512L76.402,88.073  c-3.66,3.591-7.393,7.065-10.882,10.927c-2.073,2.281-2.073,6.469,0,8.76l36.344,40.229c1.458,1.604,3.531,1.615,5.01-0.01  c13.5-14.958,28.917-27.323,45.833-36.75c1.323-0.719,2.635-2.615,2.635-5.208l2.082-14.547  C146.962,97.738,137.103,105.259,127.983,113.988z"/>
<path style="opacity:0.1;enable-background:new    ;" d="M403.76,98.99c-3.487-3.858-7.217-7.331-10.875-10.919l-20.764,24.518  c-8.043,9.497-21.926,10.115-30.917,1.509c-9.095-8.707-18.901-16.191-29.241-22.385l1.859,12.767  c0.115,3.917,1.146,5.99,2.813,6.958c16.75,9.333,32.167,21.698,45.688,36.667c1.469,1.615,3.531,1.594,5-0.01l36.438-40.333  C405.833,105.469,405.833,101.281,403.76,98.99z"/>
<g>
	<path style="fill:#303C42;" d="M234.635,170.792c-11.76,0-21.333,9.573-21.333,21.333c0,11.76,9.573,21.333,21.333,21.333   s21.333-9.573,21.333-21.333C255.969,180.365,246.396,170.792,234.635,170.792z M245.301,192.125L245.301,192.125h0.001H245.301z"/>
	<path style="fill:#303C42;" d="M149.302,170.792c-11.76,0-21.333,9.573-21.333,21.333c0,11.76,9.573,21.333,21.333,21.333   c11.76,0,21.333-9.573,21.333-21.333C170.635,180.365,161.062,170.792,149.302,170.792z M159.967,192.125L159.967,192.125h0.001   H159.967z"/>
	<path style="fill:#303C42;" d="M319.969,170.792c-11.76,0-21.333,9.573-21.333,21.333c0,11.76,9.573,21.333,21.333,21.333   c11.76,0,21.333-9.573,21.333-21.333C341.302,180.365,331.729,170.792,319.969,170.792z M330.634,192.125L330.634,192.125h0.001   H330.634z"/>
	<path style="fill:#303C42;" d="M234.635,256.063c-11.76,0-21.333,9.573-21.333,21.333s9.573,21.333,21.333,21.333   s21.333-9.573,21.333-21.333S246.396,256.063,234.635,256.063z M245.302,277.396L245.302,277.396L245.302,277.396L245.302,277.396z   "/>
	<path style="fill:#303C42;" d="M149.302,256.063c-11.76,0-21.333,9.573-21.333,21.333s9.573,21.333,21.333,21.333   c11.76,0,21.333-9.573,21.333-21.333S161.062,256.063,149.302,256.063z M159.969,277.396L159.969,277.396L159.969,277.396   L159.969,277.396z"/>
	<path style="fill:#303C42;" d="M319.969,256.063c-11.76,0-21.333,9.573-21.333,21.333s9.573,21.333,21.333,21.333   c11.76,0,21.333-9.573,21.333-21.333S331.729,256.063,319.969,256.063z M330.635,277.396L330.635,277.396L330.635,277.396   L330.635,277.396z"/>
	<path style="fill:#303C42;" d="M234.635,341.333c-11.76,0-21.333,9.573-21.333,21.333c0,11.76,9.573,21.333,21.333,21.333   s21.333-9.573,21.333-21.333C255.969,350.906,246.396,341.333,234.635,341.333z M245.302,362.667L245.302,362.667L245.302,362.667   L245.302,362.667z"/>
	<path style="fill:#303C42;" d="M149.302,341.333c-11.76,0-21.333,9.573-21.333,21.333c0,11.76,9.573,21.333,21.333,21.333   c11.76,0,21.333-9.573,21.333-21.333C170.635,350.906,161.062,341.333,149.302,341.333z M159.969,362.667L159.969,362.667   L159.969,362.667L159.969,362.667z"/>
	<path style="fill:#303C42;" d="M319.969,341.333c-11.76,0-21.333,9.573-21.333,21.333c0,11.76,9.573,21.333,21.333,21.333   c11.76,0,21.333-9.573,21.333-21.333C341.302,350.906,331.729,341.333,319.969,341.333z M330.635,362.667L330.635,362.667   L330.635,362.667L330.635,362.667z"/>
	<circle style="fill:#303C42;" cx="234.64" cy="447.947" r="21.333"/>
</g>
<linearGradient id="SVGID_1_" gradientUnits="userSpaceOnUse" x1="-65.7236" y1="618.1554" x2="-49.3691" y2="610.5297" gradientTransform="matrix(21.3333 0 0 -21.3333 1430.6456 13314.5244)">
	<stop offset="0" style="stop-color:#FFFFFF;stop-opacity:0.2"/>
	<stop offset="1" style="stop-color:#FFFFFF;stop-opacity:0"/>
</linearGradient>
<path style="fill:url(#SVGID_1_);" d="M419.594,84.688C370.239,30.073,304.562,0,234.635,0C164.719,0,99.041,30.073,49.687,84.698  c-9.458,10.469-9.458,26.885,0,37.354l36.354,40.24c9.5,10.5,27.135,10.51,36.656-0.01c11.937-13.229,25.531-24.135,40.281-32.354  c8.448-4.583,13.698-13.74,13.583-22.365l5.208-35.771c37.74-12.417,68.365-12.438,105.75-0.021l5.083,34.25  c0,9.969,5.115,19.115,13.49,23.958c14.854,8.281,28.448,19.188,40.406,32.427c4.75,5.25,11.427,8.26,18.313,8.26  c6.896,0,13.573-3.01,18.333-8.271l36.448-40.344C429.052,111.583,429.052,95.167,419.594,84.688z M234.635,170.792  c-11.76,0-21.333,9.573-21.333,21.333c0,11.76,9.573,21.333,21.333,21.333s21.333-9.573,21.333-21.333  C255.969,180.365,246.396,170.792,234.635,170.792z M149.302,170.792c-11.76,0-21.333,9.573-21.333,21.333  c0,11.76,9.573,21.333,21.333,21.333c11.76,0,21.333-9.573,21.333-21.333C170.635,180.365,161.062,170.792,149.302,170.792z   M319.969,170.792c-11.76,0-21.333,9.573-21.333,21.333c0,11.76,9.573,21.333,21.333,21.333c11.76,0,21.333-9.573,21.333-21.333  C341.302,180.365,331.729,170.792,319.969,170.792z M234.635,256.063c-11.76,0-21.333,9.573-21.333,21.333  s9.573,21.333,21.333,21.333s21.333-9.573,21.333-21.333S246.396,256.063,234.635,256.063z M149.302,256.063  c-11.76,0-21.333,9.573-21.333,21.333s9.573,21.333,21.333,21.333c11.76,0,21.333-9.573,21.333-21.333  S161.062,256.063,149.302,256.063z M319.969,256.063c-11.76,0-21.333,9.573-21.333,21.333s9.573,21.333,21.333,21.333  c11.76,0,21.333-9.573,21.333-21.333S331.729,256.063,319.969,256.063z M234.635,341.333c-11.76,0-21.333,9.573-21.333,21.333  c0,11.76,9.573,21.333,21.333,21.333s21.333-9.573,21.333-21.333C255.969,350.906,246.396,341.333,234.635,341.333z   M149.302,341.333c-11.76,0-21.333,9.573-21.333,21.333c0,11.76,9.573,21.333,21.333,21.333c11.76,0,21.333-9.573,21.333-21.333  C170.635,350.906,161.062,341.333,149.302,341.333z M319.969,341.333c-11.76,0-21.333,9.573-21.333,21.333  c0,11.76,9.573,21.333,21.333,21.333c11.76,0,21.333-9.573,21.333-21.333C341.302,350.906,331.729,341.333,319.969,341.333z   M234.635,426.604c-11.76,0-21.333,9.573-21.333,21.333c0,11.76,9.573,21.333,21.333,21.333s21.333-9.573,21.333-21.333  C255.969,436.177,246.396,426.604,234.635,426.604z"/>
<g>
</g>
<g>
</g>
<g>
</g>
<g>
</g>
<g>
</g>
<g>
</g>
<g>
</g>
<g>
</g>
<g>
</g>
<g>
</g>
<g>
</g>
<g>
</g>
<g>
</g>
<g>
</g>
<g>
</g>
</svg>
