<?xml version="1.0" encoding="iso-8859-1"?>
<!-- Generator: Adobe Illustrator 19.0.0, SVG Export Plug-In . SVG Version: 6.00 Build 0)  -->
<svg xmlns="http://www.w3.org/2000/svg" xmlns:xlink="http://www.w3.org/1999/xlink" version="1.1" id="Capa_1" x="0px" y="0px" viewBox="0 0 469.333 469.333" style="enable-background:new 0 0 469.333 469.333;" xml:space="preserve">
<g>
	<circle style="fill:#303C42;" cx="234.667" cy="42.667" r="42.667"/>
	<circle style="fill:#303C42;" cx="106.667" cy="42.667" r="42.667"/>
	<circle style="fill:#303C42;" cx="362.667" cy="42.667" r="42.667"/>
	<circle style="fill:#303C42;" cx="234.667" cy="170.667" r="42.667"/>
	<circle style="fill:#303C42;" cx="106.667" cy="170.667" r="42.667"/>
	<circle style="fill:#303C42;" cx="362.667" cy="170.667" r="42.667"/>
	<circle style="fill:#303C42;" cx="234.667" cy="298.667" r="42.667"/>
	<circle style="fill:#303C42;" cx="106.667" cy="298.667" r="42.667"/>
	<circle style="fill:#303C42;" cx="362.667" cy="298.667" r="42.667"/>
	<circle style="fill:#303C42;" cx="234.667" cy="426.667" r="42.667"/>
</g>
<g>
	<circle style="fill:#78909C;" cx="106.667" cy="42.667" r="21.333"/>
	<circle style="fill:#78909C;" cx="234.667" cy="42.667" r="21.333"/>
	<circle style="fill:#78909C;" cx="362.667" cy="42.667" r="21.333"/>
	<circle style="fill:#78909C;" cx="106.667" cy="170.667" r="21.333"/>
	<circle style="fill:#78909C;" cx="234.667" cy="170.667" r="21.333"/>
	<circle style="fill:#78909C;" cx="362.667" cy="170.667" r="21.333"/>
	<circle style="fill:#78909C;" cx="106.667" cy="298.667" r="21.333"/>
	<circle style="fill:#78909C;" cx="234.667" cy="298.667" r="21.333"/>
	<circle style="fill:#78909C;" cx="362.667" cy="298.667" r="21.333"/>
	<circle style="fill:#78909C;" cx="234.667" cy="426.667" r="21.333"/>
</g>
<path style="opacity:0.2;fill:#FFFFFF;enable-background:new    ;" d="M234.667,408.973c11.76,0,21.333,7.94,21.333,17.694  c0-11.76-9.573-21.333-21.333-21.333s-21.333,9.573-21.333,21.333C213.333,416.913,222.906,408.973,234.667,408.973z"/>
<path style="opacity:0.1;enable-background:new    ;" d="M234.667,444.361c-11.76,0-21.333-7.94-21.333-17.694  c0,11.76,9.573,21.333,21.333,21.333S256,438.427,256,426.667C256,436.421,246.427,444.361,234.667,444.361z"/>
<linearGradient id="SVGID_1_" gradientUnits="userSpaceOnUse" x1="-65.6888" y1="619.051" x2="-47.6106" y2="610.6209" gradientTransform="matrix(21.3333 0 0 -21.3333 1430.1112 13315.2227)">
	<stop offset="0" style="stop-color:#FFFFFF;stop-opacity:0.2"/>
	<stop offset="1" style="stop-color:#FFFFFF;stop-opacity:0"/>
</linearGradient>
<path style="fill:url(#SVGID_1_);" d="M234.667,384C211.135,384,192,403.135,192,426.667s19.135,42.667,42.667,42.667  s42.667-19.135,42.667-42.667S258.198,384,234.667,384z M106.667,128C83.135,128,64,147.135,64,170.667s19.135,42.667,42.667,42.667  s42.667-19.135,42.667-42.667S130.198,128,106.667,128z M106.667,256C83.135,256,64,275.135,64,298.667s19.135,42.667,42.667,42.667  s42.667-19.135,42.667-42.667S130.198,256,106.667,256z M362.667,85.333c23.531,0,42.667-19.135,42.667-42.667S386.198,0,362.667,0  S320,19.135,320,42.667S339.135,85.333,362.667,85.333z M106.667,0C83.135,0,64,19.135,64,42.667s19.135,42.667,42.667,42.667  s42.667-19.135,42.667-42.667S130.198,0,106.667,0z M362.667,256C339.135,256,320,275.135,320,298.667s19.135,42.667,42.667,42.667  s42.667-19.135,42.667-42.667S386.198,256,362.667,256z M234.667,256C211.135,256,192,275.135,192,298.667  s19.135,42.667,42.667,42.667s42.667-19.135,42.667-42.667S258.198,256,234.667,256z M362.667,128  C339.135,128,320,147.135,320,170.667s19.135,42.667,42.667,42.667s42.667-19.135,42.667-42.667S386.198,128,362.667,128z   M234.667,0C211.135,0,192,19.135,192,42.667s19.135,42.667,42.667,42.667s42.667-19.135,42.667-42.667S258.198,0,234.667,0z   M234.667,128C211.135,128,192,147.135,192,170.667s19.135,42.667,42.667,42.667s42.667-19.135,42.667-42.667  S258.198,128,234.667,128z"/>
<g>
</g>
<g>
</g>
<g>
</g>
<g>
</g>
<g>
</g>
<g>
</g>
<g>
</g>
<g>
</g>
<g>
</g>
<g>
</g>
<g>
</g>
<g>
</g>
<g>
</g>
<g>
</g>
<g>
</g>
</svg>
