<?xml version="1.0" encoding="iso-8859-1"?>
<!-- Generator: Adobe Illustrator 19.0.0, SVG Export Plug-In . SVG Version: 6.00 Build 0)  -->
<svg xmlns="http://www.w3.org/2000/svg" xmlns:xlink="http://www.w3.org/1999/xlink" version="1.1" id="Capa_1" x="0px" y="0px" viewBox="0 0 384.004 384.004" style="enable-background:new 0 0 384.004 384.004;" xml:space="preserve">
<g>
	<path style="fill:#303C42;" d="M226.638,135.025c3.885,4.448,10.625,4.875,15.052,1.01l14.313-12.521v57.823   c0,4.104,2.354,7.833,6.042,9.615c1.479,0.708,3.052,1.052,4.625,1.052c2.375,0,4.74-0.792,6.667-2.333l53.333-42.667   c2.458-1.979,3.927-4.938,4-8.094c0.063-3.167-1.271-6.188-3.646-8.271L287.44,96.004l39.583-34.635   c2.375-2.083,3.708-5.104,3.646-8.271c-0.073-3.156-1.542-6.115-4-8.094L273.335,2.338c-3.219-2.563-7.614-3.063-11.292-1.281   c-3.688,1.781-6.042,5.51-6.042,9.615v57.823L241.69,55.973c-4.427-3.875-11.167-3.458-15.052,1.01   c-3.875,4.427-3.427,11.167,1.01,15.052l27.396,23.969l-27.396,23.969C223.211,123.859,222.763,130.598,226.638,135.025z    M277.336,32.869l26.052,20.833l-26.052,22.792V32.869z M277.336,115.515l26.052,22.792l-26.052,20.833V115.515z"/>
	<path style="fill:#303C42;" d="M353.19,252.057c-23.51,0-46.594-3.677-68.469-10.906c-10.906-3.719-23.323-0.833-30.438,6.417   l-43.177,32.594c-50.073-26.729-80.917-57.563-107.281-107.26l31.635-42.052c8.219-8.208,11.167-20.198,7.635-31.448   c-7.26-21.99-10.948-45.063-10.948-68.583c0-16.99-13.823-30.812-30.812-30.812H30.815c-16.99,0-30.813,13.823-30.813,30.812   c0,194.75,158.438,353.188,353.188,353.188c16.99,0,30.813-13.823,30.813-30.812v-70.323   C384.002,265.879,370.179,252.057,353.19,252.057z"/>
</g>
<path style="fill:#4FC3F7;" d="M362.669,353.192c0,5.229-4.25,9.479-9.479,9.479c-182.99,0-331.854-148.865-331.854-331.854  c0-5.229,4.25-9.479,9.479-9.479h70.521c5.229,0,9.479,4.25,9.479,9.479c0,25.802,4.052,51.125,11.979,75.115  c1.104,3.542,0.208,7.208-3.375,10.938l-36.667,48.562c-2.458,3.26-2.844,7.625-1,11.26  c29.927,58.823,66.292,95.188,125.531,125.542c3.604,1.885,8.021,1.49,11.292-0.979l49.677-37.635c2.51-2.51,6.271-3.406,9.667-2.25  c24.156,7.979,49.479,12.021,75.271,12.021c5.229,0,9.479,4.25,9.479,9.479V353.192z"/>
<path style="opacity:0.1;enable-background:new    ;" d="M353.19,273.39c-7.56,0-15.06-0.454-22.521-1.146v13.876  c0,25.544-22.375,45.284-47.751,42.357c-68.333-7.882-130.208-36.833-179.497-79.857c60.88,69.723,150.152,114.051,249.77,114.051  c5.229,0,9.479-4.25,9.479-9.479v-70.323C362.669,277.64,358.419,273.39,353.19,273.39z"/>
<linearGradient id="SVGID_1_" gradientUnits="userSpaceOnUse" x1="-108.4404" y1="576.7763" x2="-87.6222" y2="567.0687" gradientTransform="matrix(21.3333 0 0 -21.3333 2297.6218 12362.3828)">
	<stop offset="0" style="stop-color:#FFFFFF;stop-opacity:0.2"/>
	<stop offset="1" style="stop-color:#FFFFFF;stop-opacity:0"/>
</linearGradient>
<path style="fill:url(#SVGID_1_);" d="M226.638,135.025c3.885,4.448,10.625,4.875,15.052,1.01l14.313-12.521v57.823  c0,4.104,2.354,7.833,6.042,9.615c1.479,0.708,3.052,1.052,4.625,1.052c2.375,0,4.74-0.792,6.667-2.333l53.333-42.667  c2.458-1.979,3.927-4.938,4-8.094c0.063-3.167-1.271-6.188-3.646-8.271L287.44,96.004l39.583-34.635  c2.375-2.083,3.708-5.104,3.646-8.271c-0.073-3.156-1.542-6.115-4-8.094L273.335,2.338c-3.219-2.563-7.614-3.063-11.292-1.281  c-3.688,1.781-6.042,5.51-6.042,9.615v57.823L241.69,55.973c-4.427-3.875-11.167-3.458-15.052,1.01  c-3.875,4.427-3.427,11.167,1.01,15.052l27.396,23.969l-27.396,23.969C223.211,123.859,222.763,130.598,226.638,135.025z   M277.336,32.869l26.052,20.833l-26.052,22.792V32.869z M277.336,115.515l26.052,22.792l-26.052,20.833V115.515z M353.19,252.057  c-23.51,0-46.594-3.677-68.469-10.906c-10.906-3.719-23.323-0.833-30.438,6.417l-43.177,32.594  c-50.073-26.729-80.917-57.563-107.281-107.26l31.635-42.052c8.219-8.208,11.167-20.198,7.635-31.448  c-7.26-21.99-10.948-45.063-10.948-68.583c0-16.99-13.823-30.812-30.812-30.812H30.815c-16.99,0-30.813,13.823-30.813,30.812  c0,194.75,158.438,353.188,353.188,353.188c16.99,0,30.813-13.823,30.813-30.812v-70.323  C384.002,265.879,370.179,252.057,353.19,252.057z"/>
<g>
</g>
<g>
</g>
<g>
</g>
<g>
</g>
<g>
</g>
<g>
</g>
<g>
</g>
<g>
</g>
<g>
</g>
<g>
</g>
<g>
</g>
<g>
</g>
<g>
</g>
<g>
</g>
<g>
</g>
</svg>
