<?xml version="1.0" encoding="iso-8859-1"?>
<!-- Generator: Adobe Illustrator 19.0.0, SVG Export Plug-In . SVG Version: 6.00 Build 0)  -->
<svg xmlns="http://www.w3.org/2000/svg" xmlns:xlink="http://www.w3.org/1999/xlink" version="1.1" id="Capa_1" x="0px" y="0px" viewBox="0 0 512 512" style="enable-background:new 0 0 512 512;" xml:space="preserve">
<path style="fill:#303C42;" d="M384,64h-42.667V10.679c0-5.903-4.063-10.679-9.958-10.679H181.333  c-5.896,0-10.667,4.777-10.667,10.679V64H128c-23.521,0-42.667,18.62-42.667,42.18v363.103C85.333,492.842,104.479,512,128,512h256  c23.521,0,42.667-19.158,42.667-42.718V106.18C426.667,82.62,407.521,64,384,64z"/>
<rect x="192" y="21.333" style="fill:#F2F2F2;" width="128" height="42.667"/>
<path style="fill:#E6E6E6;" d="M405.333,469.333c0,11.76-9.563,21.333-21.333,21.333H128c-11.771,0-21.333-9.573-21.333-21.333  V106.667c0-11.76,9.563-21.333,21.333-21.333h256c11.771,0,21.333,9.573,21.333,21.333V469.333z"/>
<path style="opacity:0.1;enable-background:new    ;" d="M384,85.333h-32v292.889c0,32.646-26.465,59.111-59.111,59.111H106.667v32  c0,11.782,9.551,21.333,21.333,21.333h256c11.782,0,21.333-9.551,21.333-21.333V106.667C405.333,94.885,395.782,85.333,384,85.333z"/>
<path style="fill:#303C42;" d="M330.667,256h-53.333v-85.333c0-4.771-3.167-8.969-7.76-10.26c-4.583-1.26-9.49,0.604-11.99,4.667  L172.25,303.74c-2.031,3.292-2.115,7.427-0.229,10.802c1.885,3.365,5.448,5.458,9.313,5.458h53.333v85.333  c0,4.771,3.167,8.969,7.76,10.26c0.969,0.271,1.938,0.406,2.906,0.406c3.635,0,7.104-1.865,9.083-5.073L339.75,272.26  c2.031-3.292,2.115-7.427,0.229-10.802C338.094,258.094,334.531,256,330.667,256z"/>
<path style="fill:#FFCA28;" d="M256,367.646v-58.313c0-5.896-4.771-10.667-10.667-10.667h-44.906L256,208.354v58.313  c0,5.896,4.771,10.667,10.667,10.667h44.906L256,367.646z"/>
<polygon style="opacity:0.2;fill:#FFFFFF;enable-background:new    ;" points="200.427,298.667 234.667,298.667 256,208.354 "/>
<polygon style="opacity:0.1;enable-background:new    ;" points="277.333,277.333 256,367.646 311.573,277.333 "/>
<linearGradient id="SVGID_1_" gradientUnits="userSpaceOnUse" x1="-44.383" y1="638.3443" x2="-24.383" y2="629.0183" gradientTransform="matrix(21.3333 0 0 -21.3333 996.3334 13791.667)">
	<stop offset="0" style="stop-color:#FFFFFF;stop-opacity:0.2"/>
	<stop offset="1" style="stop-color:#FFFFFF;stop-opacity:0"/>
</linearGradient>
<path style="fill:url(#SVGID_1_);" d="M384,64h-42.667V10.679c0-5.903-4.063-10.679-9.958-10.679H181.333  c-5.896,0-10.667,4.777-10.667,10.679V64H128c-23.521,0-42.667,18.62-42.667,42.18v363.103C85.333,492.842,104.479,512,128,512h256  c23.521,0,42.667-19.158,42.667-42.718V106.18C426.667,82.62,407.521,64,384,64z"/>
<g>
</g>
<g>
</g>
<g>
</g>
<g>
</g>
<g>
</g>
<g>
</g>
<g>
</g>
<g>
</g>
<g>
</g>
<g>
</g>
<g>
</g>
<g>
</g>
<g>
</g>
<g>
</g>
<g>
</g>
</svg>
