<?xml version="1.0" encoding="iso-8859-1"?>
<!-- Generator: Adobe Illustrator 19.0.0, SVG Export Plug-In . SVG Version: 6.00 Build 0)  -->
<svg xmlns="http://www.w3.org/2000/svg" xmlns:xlink="http://www.w3.org/1999/xlink" version="1.1" id="Capa_1" x="0px" y="0px" viewBox="0 0 512 512" style="enable-background:new 0 0 512 512;" xml:space="preserve">
<path style="fill:#303C42;" d="M384,0H128c-23.521,0-42.667,19.146-42.667,42.667v426.667C85.333,492.854,104.479,512,128,512h256  c23.521,0,42.667-19.146,42.667-42.667V42.667C426.667,19.146,407.521,0,384,0z"/>
<g>
	<path id="SVGCleanerId_0" style="fill:#5C6671;" d="M128,21.333h256c11.771,0,21.333,9.563,21.333,21.333v362.667H106.667V42.667   C106.667,30.896,116.229,21.333,128,21.333z"/>
</g>
<g>
	
		<linearGradient id="SVGCleanerId_0_3_" gradientUnits="userSpaceOnUse" x1="-43.6715" y1="640.4844" x2="-25.5757" y2="632.0474" gradientTransform="matrix(21.3333 0 0 -21.3333 996.3334 13791.667)">
		<stop offset="0" style="stop-color:#FFFFFF;stop-opacity:0.2"/>
		<stop offset="1" style="stop-color:#FFFFFF;stop-opacity:0"/>
	</linearGradient>
	<path id="SVGCleanerId_0_1_" style="fill:url(#SVGCleanerId_0_3_);" d="M128,21.333h256c11.771,0,21.333,9.563,21.333,21.333   v362.667H106.667V42.667C106.667,30.896,116.229,21.333,128,21.333z"/>
</g>
<g>
	
		<linearGradient id="SVGCleanerId_0_4_" gradientUnits="userSpaceOnUse" x1="-42.5557" y1="644.0458" x2="-26.8506" y2="628.3367" gradientTransform="matrix(21.3333 0 0 -21.3333 996.3334 13791.667)">
		<stop offset="0" style="stop-color:#FFFFFF;stop-opacity:0.2"/>
		<stop offset="1" style="stop-color:#FFFFFF;stop-opacity:0"/>
	</linearGradient>
	<path id="SVGCleanerId_0_2_" style="fill:url(#SVGCleanerId_0_4_);" d="M128,21.333h256c11.771,0,21.333,9.563,21.333,21.333   v362.667H106.667V42.667C106.667,30.896,116.229,21.333,128,21.333z"/>
</g>
<linearGradient id="SVGID_1_" gradientUnits="userSpaceOnUse" x1="-39.6642" y1="641.8632" x2="-34.5074" y2="639.462" gradientTransform="matrix(21.3333 0 0 -21.3333 996.3334 13791.667)">
	<stop offset="0" style="stop-color:#FFFFFF;stop-opacity:0.05"/>
	<stop offset="1" style="stop-color:#FFFFFF;stop-opacity:0"/>
</linearGradient>
<polygon style="fill:url(#SVGID_1_);" points="106.667,192 277.333,21.333 320,21.333 106.667,234.667 "/>
<linearGradient id="SVGID_2_" gradientUnits="userSpaceOnUse" x1="-38.5102" y1="639.8283" x2="-31.6507" y2="636.6281" gradientTransform="matrix(21.3333 0 0 -21.3333 996.3334 13791.667)">
	<stop offset="0" style="stop-color:#FFFFFF;stop-opacity:0.05"/>
	<stop offset="1" style="stop-color:#FFFFFF;stop-opacity:0"/>
</linearGradient>
<path style="fill:url(#SVGID_2_);" d="M384,21.333h-10.667L106.667,288v42.667L403.375,33.958  C400.026,26.552,392.641,21.333,384,21.333z"/>
<path style="fill:#303C42;" d="M245.333,64h21.333c5.896,0,10.667-4.771,10.667-10.667s-4.771-10.667-10.667-10.667h-21.333  c-5.896,0-10.667,4.771-10.667,10.667S239.438,64,245.333,64z"/>
<path style="fill:#F2F2F2;" d="M288,448h-64c-5.896,0-10.667,4.771-10.667,10.667c0,5.896,4.771,10.667,10.667,10.667h64  c5.896,0,10.667-4.771,10.667-10.667C298.667,452.771,293.896,448,288,448z"/>
<g>
	<circle style="fill:#303C42;" cx="373.333" cy="53.333" r="10.667"/>
	<circle style="fill:#303C42;" cx="224" cy="181.333" r="53.333"/>
</g>
<circle style="fill:#F2F2F2;" cx="224" cy="181.333" r="32"/>
<path style="opacity:0.1;enable-background:new    ;" d="M245.076,157.444c0.069,0.858,0.258,1.681,0.258,2.556  c0,17.646-14.354,32-32,32c-8.105,0-15.431-3.126-21.076-8.111c1.328,16.435,14.971,29.444,31.742,29.444c17.646,0,32-14.354,32-32  C256,171.793,251.719,163.311,245.076,157.444z"/>
<path style="fill:#303C42;" d="M150.854,341.333h146.292c12.604,0,22.854-11.063,22.854-24.667v-6.833  c0-17.823-8.833-34.104-23.042-42.49c-17.042-10.042-43.542-22.01-72.958-22.01s-55.917,11.969-72.958,22.01  C136.833,275.729,128,292.01,128,309.833v6.833C128,330.271,138.25,341.333,150.854,341.333z"/>
<path style="fill:#F2F2F2;" d="M149.333,309.833c0-10.156,4.917-19.615,12.542-24.115c14.75-8.688,37.5-19.052,62.125-19.052  s47.375,10.365,62.125,19.052c7.625,4.5,12.542,13.958,12.542,24.115v6.833c0,2.219-1.271,3.333-1.521,3.333H150.854  c-0.25,0-1.521-1.115-1.521-3.333V309.833z"/>
<path style="opacity:0.1;enable-background:new    ;" d="M286.125,285.719c-14.75-8.688-37.5-19.052-62.125-19.052  c-3.643,0-7.125,0.624-10.667,1.039c20.395,2.389,38.891,10.611,51.458,18.013c7.625,4.5,12.542,13.958,12.542,24.115v6.833  c0,2.219-1.271,3.333-1.521,3.333h21.333c0.25,0,1.521-1.115,1.521-3.333v-6.833C298.667,299.677,293.75,290.219,286.125,285.719z"/>
<path style="fill:#303C42;" d="M309.333,192h21.333v21.344c0,5.896,4.771,10.667,10.667,10.667S352,219.24,352,213.344V192h21.333  c5.896,0,10.667-4.771,10.667-10.667c0-5.896-4.771-10.667-10.667-10.667H352v-21.354c0-5.896-4.771-10.667-10.667-10.667  s-10.667,4.771-10.667,10.667v21.354h-21.333c-5.896,0-10.667,4.771-10.667,10.667C298.667,187.229,303.438,192,309.333,192z"/>
<linearGradient id="SVGID_3_" gradientUnits="userSpaceOnUse" x1="-45.2742" y1="639.4139" x2="-24.1321" y2="629.5549" gradientTransform="matrix(21.3333 0 0 -21.3333 996.3334 13791.667)">
	<stop offset="0" style="stop-color:#FFFFFF;stop-opacity:0.2"/>
	<stop offset="1" style="stop-color:#FFFFFF;stop-opacity:0"/>
</linearGradient>
<path style="fill:url(#SVGID_3_);" d="M384,0H128c-23.521,0-42.667,19.146-42.667,42.667v426.667  C85.333,492.854,104.479,512,128,512h256c23.521,0,42.667-19.146,42.667-42.667V42.667C426.667,19.146,407.521,0,384,0z"/>
<g>
</g>
<g>
</g>
<g>
</g>
<g>
</g>
<g>
</g>
<g>
</g>
<g>
</g>
<g>
</g>
<g>
</g>
<g>
</g>
<g>
</g>
<g>
</g>
<g>
</g>
<g>
</g>
<g>
</g>
</svg>
