<?xml version="1.0" encoding="iso-8859-1"?>
<!-- Generator: Adobe Illustrator 19.0.0, SVG Export Plug-In . SVG Version: 6.00 Build 0)  -->
<svg xmlns="http://www.w3.org/2000/svg" xmlns:xlink="http://www.w3.org/1999/xlink" version="1.1" id="Capa_1" x="0px" y="0px" viewBox="0 0 469.336 469.336" style="enable-background:new 0 0 469.336 469.336;" xml:space="preserve">
<g>
	<path style="fill:#303C42;" d="M85.333,170.668h-32c-5.896,0-10.667,4.771-10.667,10.667c0,5.896,4.771,10.667,10.667,10.667h32   c23.521,0,42.667-19.135,42.667-42.667c0-12.729-5.604-24.177-14.479-32c8.875-7.823,14.479-19.271,14.479-32   c0-23.531-19.146-42.667-42.667-42.667h-32c-5.896,0-10.667,4.771-10.667,10.667s4.771,10.667,10.667,10.667h32   c11.771,0,21.333,9.573,21.333,21.333s-9.563,21.333-21.333,21.333H74.667c-5.896,0-10.667,4.771-10.667,10.667   s4.771,10.667,10.667,10.667h10.667c11.771,0,21.333,9.573,21.333,21.333C106.667,161.095,97.104,170.668,85.333,170.668z"/>
	<path style="fill:#303C42;" d="M192,192.001c23.521,0,42.667-19.135,42.667-42.667v-21.333c0-5.896-4.771-10.667-10.667-10.667   h-21.333c-5.896,0-10.667,4.771-10.667,10.667c0,5.896,4.771,10.667,10.667,10.667h10.667v10.667   c0,11.76-9.563,21.333-21.333,21.333c-11.771,0-21.333-9.573-21.333-21.333v-64c0-11.76,9.563-21.333,21.333-21.333   c11.771,0,21.333,9.573,21.333,21.333c0,5.896,4.771,10.667,10.667,10.667c5.896,0,10.667-4.771,10.667-10.667   c0-23.531-19.146-42.667-42.667-42.667s-42.667,19.135-42.667,42.667v64C149.333,172.866,168.479,192.001,192,192.001z"/>
	<path style="fill:#303C42;" d="M462.752,0.825c-3.99-1.677-8.573-0.74-11.625,2.312l-448,447.989   c-3.052,3.052-3.969,7.635-2.313,11.625c1.646,3.99,5.542,6.583,9.854,6.583h448c5.896,0,10.667-4.771,10.667-10.666V10.679   C469.336,6.367,466.742,2.471,462.752,0.825z"/>
</g>
<polygon style="fill:#01579B;" points="128.002,448.001 36.419,448.001 128.002,356.418 "/>
<polygon style="fill:#0288D1;" points="234.669,448.001 149.336,448.001 149.336,335.085 234.669,249.751 "/>
<polygon style="fill:#80C3E8;" points="341.336,448.001 256.002,448.001 256.002,228.418 341.336,143.085 "/>
<polygon style="fill:#CCE7F6;" points="448.002,448.001 362.669,448.001 362.669,121.751 448.002,36.418 "/>
<linearGradient id="SVGID_1_" gradientUnits="userSpaceOnUse" x1="-66.7259" y1="618.14" x2="-42.9358" y2="607.0404" gradientTransform="matrix(21.3333 0 0 -21.3333 1430.085 13315.252)">
	<stop offset="0" style="stop-color:#FFFFFF;stop-opacity:0.2"/>
	<stop offset="1" style="stop-color:#FFFFFF;stop-opacity:0"/>
</linearGradient>
<path style="fill:url(#SVGID_1_);" d="M85.333,170.668h-32c-5.896,0-10.667,4.771-10.667,10.667c0,5.896,4.771,10.667,10.667,10.667  h32c23.521,0,42.667-19.135,42.667-42.667c0-12.729-5.604-24.177-14.479-32c8.875-7.823,14.479-19.271,14.479-32  c0-23.531-19.146-42.667-42.667-42.667h-32c-5.896,0-10.667,4.771-10.667,10.667s4.771,10.667,10.667,10.667h32  c11.771,0,21.333,9.573,21.333,21.333s-9.563,21.333-21.333,21.333H74.667c-5.896,0-10.667,4.771-10.667,10.667  s4.771,10.667,10.667,10.667h10.667c11.771,0,21.333,9.573,21.333,21.333C106.667,161.095,97.104,170.668,85.333,170.668z   M192,192.001c23.521,0,42.667-19.135,42.667-42.667v-21.333c0-5.896-4.771-10.667-10.667-10.667h-21.333  c-5.896,0-10.667,4.771-10.667,10.667c0,5.896,4.771,10.667,10.667,10.667h10.667v10.667c0,11.76-9.563,21.333-21.333,21.333  c-11.771,0-21.333-9.573-21.333-21.333v-64c0-11.76,9.563-21.333,21.333-21.333c11.771,0,21.333,9.573,21.333,21.333  c0,5.896,4.771,10.667,10.667,10.667c5.896,0,10.667-4.771,10.667-10.667c0-23.531-19.146-42.667-42.667-42.667  s-42.667,19.135-42.667,42.667v64C149.333,172.866,168.479,192.001,192,192.001z M462.753,0.826  c-3.99-1.677-8.573-0.74-11.625,2.313l-448,447.988c-3.052,3.052-3.969,7.635-2.313,11.625c1.646,3.99,5.542,6.583,9.854,6.583h448  c5.896,0,10.667-4.771,10.667-10.667V10.678C469.336,6.367,466.742,2.471,462.753,0.826z"/>
<g>
</g>
<g>
</g>
<g>
</g>
<g>
</g>
<g>
</g>
<g>
</g>
<g>
</g>
<g>
</g>
<g>
</g>
<g>
</g>
<g>
</g>
<g>
</g>
<g>
</g>
<g>
</g>
<g>
</g>
</svg>
