<?xml version="1.0" ?><svg id="Layer_1" style="enable-background:new 0 0 59.5 82.9;" version="1.1" viewBox="0 0 59.5 82.9" xml:space="preserve" xmlns="http://www.w3.org/2000/svg" xmlns:xlink="http://www.w3.org/1999/xlink"><title/><path d="M29.8,48c-3.6,0-6.5-2.9-6.5-6.5s2.9-6.5,6.5-6.5c3.6,0,6.5,2.9,6.5,6.5C36.3,45,33.4,47.9,29.8,48z M29.8,36.4  c-2.8,0-5,2.2-5,5c0,2.8,2.2,5,5,5c2.8,0,5-2.2,5-5C34.8,38.7,32.5,36.4,29.8,36.4L29.8,36.4z"/><path d="M41.4,30.9c-0.2,0-0.4-0.1-0.5-0.2C34.5,25,25,25,18.6,30.7c-0.3,0.3-0.8,0.2-1.1-0.1l-5.3-5.9c-0.3-0.3-0.3-0.8,0.1-1.1  c0,0,0,0,0,0c9.9-8.9,24.9-8.9,34.9,0c0.3,0.3,0.3,0.8,0.1,1.1c0,0,0,0,0,0l-5.3,5.9C41.8,30.8,41.6,30.9,41.4,30.9z M29.8,24.9  c4.2,0,8.3,1.5,11.5,4.1l4.3-4.8c-9.2-7.7-22.6-7.7-31.7,0l4.3,4.8C21.5,26.4,25.5,24.9,29.8,24.9z"/><path d="M53.3,18.8c-0.2,0-0.4-0.1-0.5-0.2C39.9,6.4,19.7,6.4,6.7,18.6c-0.1,0.1-0.3,0.2-0.5,0.2c-0.2,0-0.4-0.1-0.5-0.2l-5.5-5.8  c-0.3-0.3-0.3-0.8,0-1.1c0,0,0,0,0,0c16.6-15.6,42.5-15.6,59,0c0.3,0.3,0.3,0.8,0,1.1c0,0,0,0,0,0l-5.5,5.8  C53.7,18.7,53.5,18.8,53.3,18.8L53.3,18.8z M29.8,8c8.7,0,17.1,3.2,23.5,9l4.4-4.7c-15.8-14.4-40-14.4-55.9,0L6.2,17  C12.7,11.2,21.1,7.9,29.8,8z"/><path d="M29.8,65.9c-6.4,0-12.6-2.4-17.4-6.7c-0.3-0.3-0.3-0.8-0.1-1.1c0,0,0,0,0,0l5.3-5.9c0.3-0.3,0.8-0.3,1.1-0.1  c6.3,5.7,15.9,5.7,22.2,0c0.3-0.3,0.8-0.3,1.1,0.1l5.3,5.9c0.3,0.3,0.3,0.8-0.1,1.1c0,0,0,0,0,0C42.4,63.5,36.2,65.9,29.8,65.9z   M13.9,58.6c9.2,7.7,22.6,7.7,31.7,0l-4.3-4.8c-6.7,5.5-16.4,5.5-23.1,0L13.9,58.6z"/><path d="M29.8,82.9c-11,0-21.5-4.2-29.5-11.7c-0.3-0.3-0.3-0.8,0-1.1c0,0,0,0,0,0l5.5-5.8c0.3-0.3,0.8-0.3,1.1,0c0,0,0,0,0,0  c12.9,12.2,33.1,12.2,46.1,0c0.3-0.3,0.8-0.3,1.1,0c0,0,0,0,0,0l5.5,5.8c0.3,0.3,0.3,0.8,0,1.1c0,0,0,0,0,0  C51.3,78.7,40.7,82.9,29.8,82.9z M1.8,70.6c15.8,14.4,40,14.4,55.9,0l-4.4-4.7c-13.4,12-33.7,12-47,0L1.8,70.6z"/></svg>