<?xml version="1.0" ?><svg id="Layer_1" style="enable-background:new 0 0 73.4 59.1;" version="1.1" viewBox="0 0 73.4 59.1" xml:space="preserve" xmlns="http://www.w3.org/2000/svg" xmlns:xlink="http://www.w3.org/1999/xlink"><title/><path d="M36.7,59.1c-4.4,0-7.9-3.5-7.9-7.9s3.5-7.9,7.9-7.9s7.9,3.5,7.9,7.9l0,0C44.6,55.6,41.1,59.1,36.7,59.1z M36.7,44.8  c-3.5,0-6.4,2.9-6.4,6.4s2.9,6.4,6.4,6.4s6.4-2.9,6.4-6.4l0,0C43.1,47.7,40.3,44.8,36.7,44.8z"/><path d="M51.1,37.9c-0.2,0-0.4-0.1-0.5-0.2c-7.9-7.1-19.9-7.1-27.8,0c-0.1,0.1-0.3,0.2-0.5,0.2s-0.4-0.1-0.5-0.2l-6.6-7.3  c-0.3-0.3-0.3-0.8,0.1-1.1c12.2-11,30.8-11,43,0c0.3,0.3,0.3,0.8,0.1,1.1l-6.6,7.3C51.5,37.8,51.4,37.9,51.1,37.9L51.1,37.9z   M36.7,30.9c5.2,0,10.3,1.8,14.3,5.2l5.6-6.2c-11.5-9.8-28.4-9.8-39.9,0l5.6,6.2C26.4,32.8,31.5,30.9,36.7,30.9z"/><path d="M65.9,23c-0.2,0-0.4-0.1-0.5-0.2C49.3,7.6,24.1,7.6,8,22.7C7.9,22.9,7.7,23,7.5,23S7.1,22.9,7,22.8l-6.8-7.2  c-0.3-0.3-0.3-0.8,0-1.1l0,0c20.5-19.3,52.5-19.3,73,0c0.3,0.3,0.3,0.8,0,1.1l0,0l-6.8,7.2C66.3,22.9,66.1,22.9,65.9,23L65.9,23z   M36.7,9.9c10.8,0,21.2,4,29.2,11.3l5.7-6.1C51.9-3,21.6-3,1.8,15.1l5.7,6.1C15.5,13.9,25.9,9.9,36.7,9.9z"/></svg>