<?xml version="1.0" encoding="iso-8859-1"?>
<!-- Generator: Adobe Illustrator 22.1.0, SVG Export Plug-In . SVG Version: 6.00 Build 0)  -->
<svg xmlns="http://www.w3.org/2000/svg" xmlns:xlink="http://www.w3.org/1999/xlink" version="1.1" id="Layer_1_1_" x="0px" y="0px" viewBox="0 0 64 64" style="enable-background:new 0 0 64 64;" xml:space="preserve" width="512" height="512">
<g>
	<g>
		<path style="fill:#F0BC5E;" d="M22,25H12v-2c0-2.761,2.239-5,5-5h0c2.761,0,5,2.239,5,5V25z"/>
	</g>
	<g>
		<path style="fill:#F0BC5E;" d="M47,41c-6.617,0-12-5.383-12-12s5.383-12,12-12s12,5.383,12,12S53.617,41,47,41z"/>
	</g>
	<g>
		<path d="M26.465,27l1.703,2.555l1.664-1.109L27.535,25H23.22L23,23.901V23c0-2.289-1.289-4.281-3.179-5.292L22,16.618V13h-2v2.382    l-3,1.5l-3-1.5V13h-2v3.618l2.179,1.089C12.289,18.719,11,20.711,11,23v0.901L10.78,25H6.465l-2.297,3.445l1.664,1.109L7.535,27    h2.845l-0.8,4H6.465l-2.297,3.445l1.664,1.109L7.535,33H9.18l-0.266,1.329l0.379,0.378C9.732,35.146,13.682,39,17,39    s7.268-3.854,7.707-4.293l0.379-0.378L24.82,33h1.645l1.703,2.555l1.664-1.109L27.535,31H24.42l-0.8-4H26.465z M18,36.823V29h-2    v7.822c-1.762-0.522-3.837-2.173-4.912-3.165l1.893-9.461L13,23c0-2.206,1.794-4,4-4s4,1.794,4,4v1l1.912,9.658    C21.838,34.65,19.765,36.301,18,36.823z"/>
		<rect x="5" y="5" width="2" height="2"/>
		<rect x="9" y="5" width="2" height="2"/>
		<rect x="13" y="5" width="2" height="2"/>
		<path d="M63,29c0-5.039-2.347-9.535-6-12.47V1H1v37c0,2.757,2.243,5,5,5h33.271c1.453,0.806,3.045,1.387,4.729,1.708V47h-2v11    c0,2.757,2.243,5,5,5s5-2.243,5-5V47h-2v-2.292C57.392,43.299,63,36.796,63,29z M61,29c0,7.72-6.28,14-14,14s-14-6.28-14-14    s6.28-14,14-14S61,21.28,61,29z M55,3v6H3V3H55z M6,41c-1.654,0-3-1.346-3-3V11h52v4.165C52.643,13.797,49.916,13,47,13    c-8.822,0-16,7.178-16,16c0,4.78,2.118,9.066,5.453,12H6z M50,58c0,1.654-1.346,3-3,3s-3-1.346-3-3v-9h6V58z M48,47h-2v-2.051    C46.332,44.97,46.662,45,47,45s0.668-0.03,1-0.051V47z"/>
		<circle cx="47" cy="58" r="1"/>
		<rect x="37.597" y="26" transform="matrix(0.6247 -0.7809 0.7809 0.6247 -4.57 44.4915)" width="12.806" height="2"/>
		<rect x="43.597" y="30" transform="matrix(0.6244 -0.7811 0.7811 0.6244 -5.4342 50.699)" width="12.806" height="2"/>
	</g>
</g>
</svg>
