<?xml version="1.0" encoding="iso-8859-1"?>
<!-- Generator: Adobe Illustrator 22.1.0, SVG Export Plug-In . SVG Version: 6.00 Build 0)  -->
<svg xmlns="http://www.w3.org/2000/svg" xmlns:xlink="http://www.w3.org/1999/xlink" version="1.1" id="Layer_1_1_" x="0px" y="0px" viewBox="0 0 64 64" style="enable-background:new 0 0 64 64;" xml:space="preserve" width="512" height="512">
<g>
	<path d="M44,58c0,1.654,1.346,3,3,3s3-1.346,3-3v-9h-6V58z M47,57c0.552,0,1,0.448,1,1c0,0.552-0.448,1-1,1s-1-0.448-1-1   C46,57.448,46.448,57,47,57z"/>
	<path d="M12.82,25l-1.732,8.657c1.075,0.992,3.15,2.643,4.912,3.165V29h2v7.823c1.765-0.522,3.838-2.172,4.912-3.165L21.198,25   H12.82z"/>
	<path d="M47,45c-0.679,0-1.343-0.056-2-0.139V47h4v-2.139C48.343,44.944,47.679,45,47,45z"/>
	<path d="M17,19c-2.206,0-4,1.794-4,4h8C21,20.794,19.206,19,17,19z"/>
	<path d="M31,29c0-8.822,7.178-16,16-16c2.916,0,5.643,0.797,8,2.165V11H3v27c0,1.654,1.346,3,3,3h30.453   C33.118,38.066,31,33.78,31,29z M24.42,31h3.115l2.297,3.445l-1.664,1.109L26.465,33H24.82l0.266,1.329l-0.379,0.378   C24.268,35.146,20.318,39,17,39s-7.268-3.854-7.707-4.293l-0.379-0.378L9.18,33H7.535l-1.703,2.555l-1.664-1.109L6.465,31H9.58   l0.8-4H7.535l-1.703,2.555l-1.664-1.109L6.465,25h4.315L11,23.901V23c0-2.289,1.289-4.281,3.179-5.292L12,16.618V13h2v2.382l3,1.5   l3-1.5V13h2v3.618l-2.179,1.089C21.711,18.719,23,20.711,23,23v0.901L23.22,25h4.315l2.297,3.445l-1.664,1.109L26.465,27H23.62   L24.42,31z"/>
	<path d="M47,15c-7.72,0-14,6.28-14,14s6.28,14,14,14s14-6.28,14-14S54.72,15,47,15z M47,41c-6.617,0-12-5.383-12-12s5.383-12,12-12   s12,5.383,12,12S53.617,41,47,41z"/>
	<path d="M47,19c-5.514,0-10,4.486-10,10s4.486,10,10,10s10-4.486,10-10S52.514,19,47,19z M39.219,31.375l8-10l1.562,1.249l-8,10   L39.219,31.375z M46.781,36.625l-1.562-1.249l8-10l1.562,1.249L46.781,36.625z"/>
	<path d="M55,3H3v6h52V3z M7,7H5V5h2V7z M11,7H9V5h2V7z M15,7h-2V5h2V7z"/>
</g>
</svg>
