<?xml version="1.0" encoding="iso-8859-1"?>
<!-- Generator: Adobe Illustrator 22.1.0, SVG Export Plug-In . SVG Version: 6.00 Build 0)  -->
<svg xmlns="http://www.w3.org/2000/svg" xmlns:xlink="http://www.w3.org/1999/xlink" version="1.1" id="Layer_1_1_" x="0px" y="0px" viewBox="0 0 64 64" style="enable-background:new 0 0 64 64;" xml:space="preserve" width="512" height="512">
<linearGradient id="SVGID_1_" gradientUnits="userSpaceOnUse" x1="32" y1="63" x2="32" y2="1">
	<stop offset="0" style="stop-color:#9F2FFF"/>
	<stop offset="1" style="stop-color:#0BB1D3"/>
</linearGradient>
<path style="fill:url(#SVGID_1_);" d="M26.465,27l1.703,2.555l1.664-1.109L27.535,25H23.22L23,23.901V23  c0-2.289-1.289-4.281-3.179-5.292L22,16.618V13h-2v2.382l-3,1.5l-3-1.5V13h-2v3.618l2.179,1.089C12.289,18.719,11,20.711,11,23  v0.901L10.78,25H6.465l-2.297,3.445l1.664,1.109L7.535,27h2.845l-0.8,4H6.465l-2.297,3.445l1.664,1.109L7.535,33H9.18l-0.266,1.329  l0.379,0.378C9.732,35.146,13.682,39,17,39s7.268-3.854,7.707-4.293l0.379-0.378L24.82,33h1.645l1.703,2.555l1.664-1.109L27.535,31  H24.42l-0.8-4H26.465z M17,19c2.206,0,4,1.794,4,4h-8C13,20.794,14.794,19,17,19z M18,36.823V29h-2v7.822  c-1.762-0.522-3.837-2.173-4.912-3.165L12.82,25h8.378l1.714,8.658C21.838,34.65,19.765,36.301,18,36.823z M6,43h33.271  c1.453,0.806,3.045,1.387,4.729,1.708V47h-2v11c0,2.757,2.243,5,5,5s5-2.243,5-5V47h-2v-2.292C57.392,43.299,63,36.796,63,29  c0-5.039-2.347-9.535-6-12.47V1H1v37C1,40.757,3.243,43,6,43z M50,58c0,1.654-1.346,3-3,3s-3-1.346-3-3v-9h6V58z M48,47h-2v-2.051  C46.332,44.97,46.662,45,47,45s0.668-0.03,1-0.051V47z M61,29c0,7.72-6.28,14-14,14s-14-6.28-14-14s6.28-14,14-14S61,21.28,61,29z   M47,13c-8.822,0-16,7.178-16,16c0,4.78,2.118,9.066,5.453,12H6c-1.654,0-3-1.346-3-3V11h52v4.165C52.643,13.797,49.916,13,47,13z   M55,3v6H3V3H55z M7,7H5V5h2V7z M11,7H9V5h2V7z M15,7h-2V5h2V7z M47,17c-6.617,0-12,5.383-12,12s5.383,12,12,12s12-5.383,12-12  S53.617,17,47,17z M47,39c-5.514,0-10-4.486-10-10s4.486-10,10-10s10,4.486,10,10S52.514,39,47,39z M46,58c0-0.552,0.448-1,1-1  s1,0.448,1,1c0,0.552-0.448,1-1,1S46,58.552,46,58z M48.781,22.625l-8,10l-1.562-1.249l8-10L48.781,22.625z M53.219,25.375  l1.562,1.249l-8,10l-1.562-1.249L53.219,25.375z"/>
</svg>
