<?xml version="1.0" encoding="iso-8859-1"?>
<!-- Generator: Adobe Illustrator 22.1.0, SVG Export Plug-In . SVG Version: 6.00 Build 0)  -->
<svg xmlns="http://www.w3.org/2000/svg" xmlns:xlink="http://www.w3.org/1999/xlink" version="1.1" id="Layer_1_1_" x="0px" y="0px" viewBox="0 0 64 64" style="enable-background:new 0 0 64 64;" xml:space="preserve" width="512" height="512">
<g>
	<circle style="fill:#F0BC5E;" cx="24" cy="25" r="10"/>
	<rect x="5" y="39" style="fill:#F0BC5E;" width="38" height="6"/>
	<g>
		<path style="fill:#F0BC5E;" d="M56,62L56,62c-3.314,0-6-2.686-6-6v-3h12v3C62,59.314,59.314,62,56,62z"/>
	</g>
	<g>
		<path d="M61,25H51v8h-2v23c0,3.859,3.14,7,7,7s7-3.141,7-7V33h-2V25z M53,27h6v6h-6V27z M61,56c0,2.757-2.243,5-5,5s-5-2.243-5-5    V35h10V56z"/>
		<path d="M23,16.233v6.686l-3.375-2.7l-1.249,1.562L22.399,25l-4.024,3.219l1.249,1.562l3.375-2.7v6.686l7.748-4.649L25.601,25    l5.147-4.117L23,16.233z M27.252,28.883L25,30.233v-3.152L27.252,28.883z M25,22.919v-3.152l2.252,1.351L25,22.919z"/>
		<path d="M53,20c0,1.654,1.346,3,3,3s3-1.346,3-3s-1.346-3-3-3S53,18.346,53,20z M57,20c0,0.552-0.449,1-1,1s-1-0.448-1-1    s0.449-1,1-1S57,19.448,57,20z"/>
		<path d="M56,15c2.757,0,5,2.243,5,5h2c0-3.859-3.14-7-7-7s-7,3.141-7,7h2C51,17.243,53.243,15,56,15z"/>
		<path d="M27,12c0-1.654-1.346-3-3-3s-3,1.346-3,3s1.346,3,3,3S27,13.654,27,12z M23,12c0-0.552,0.449-1,1-1s1,0.448,1,1    s-0.449,1-1,1S23,12.552,23,12z"/>
		<path d="M24,5c-3.86,0-7,3.141-7,7h2c0-2.757,2.243-5,5-5s5,2.243,5,5h2C31,8.141,27.86,5,24,5z"/>
		<path d="M42,9h-5v2h5c1.654,0,3,1.346,3,3v21h-2V13h-6v2h4v20H7V15h4v-2H5v22H3V14c0-1.654,1.346-3,3-3h5V9H6    c-2.757,0-5,2.243-5,5v38c0,2.757,2.243,5,5,5h36c2.757,0,5-2.243,5-5V14C47,11.243,44.757,9,42,9z M45,37v10H28.382l-0.276,0.553    C27.659,48.445,26.762,49,25.764,49h-3.528c-0.998,0-1.895-0.555-2.341-1.447L19.618,47H3V37H45z M42,55H6c-1.654,0-3-1.346-3-3    v-3h15.431c0.854,1.247,2.261,2,3.805,2h3.528c1.544,0,2.951-0.753,3.805-2H45v3C45,53.654,43.654,55,42,55z"/>
		<rect x="7" y="51" width="2" height="2"/>
		<rect x="11" y="51" width="2" height="2"/>
		<rect x="15" y="51" width="2" height="2"/>
		<path d="M55,49h2c1.103,0,2-0.897,2-2v-8c0-1.103-0.897-2-2-2h-2c-1.103,0-2,0.897-2,2v8C53,48.103,53.897,49,55,49z M55,39h2    l0.001,8H55V39z"/>
		<rect x="41" y="43" width="2" height="2"/>
		<rect x="37" y="43" width="2" height="2"/>
		<rect x="33" y="43" width="2" height="2"/>
		<rect x="29" y="43" width="2" height="2"/>
		<rect x="25" y="43" width="2" height="2"/>
		<rect x="21" y="43" width="2" height="2"/>
		<rect x="17" y="43" width="2" height="2"/>
		<rect x="13" y="43" width="2" height="2"/>
		<rect x="9" y="43" width="2" height="2"/>
		<rect x="5" y="43" width="2" height="2"/>
		<rect x="41" y="39" width="2" height="2"/>
		<rect x="37" y="39" width="2" height="2"/>
		<rect x="33" y="39" width="2" height="2"/>
		<rect x="29" y="39" width="2" height="2"/>
		<rect x="25" y="39" width="2" height="2"/>
		<rect x="21" y="39" width="2" height="2"/>
		<rect x="17" y="39" width="2" height="2"/>
		<rect x="13" y="39" width="2" height="2"/>
		<rect x="9" y="39" width="2" height="2"/>
		<rect x="5" y="39" width="2" height="2"/>
		<path d="M24,3c4.962,0,9,4.037,9,9h2c0-6.065-4.935-11-11-11S13,5.935,13,12h2C15,7.037,19.038,3,24,3z"/>
	</g>
</g>
</svg>
