<?xml version="1.0" encoding="iso-8859-1"?>
<!-- Generator: Adobe Illustrator 22.1.0, SVG Export Plug-In . SVG Version: 6.00 Build 0)  -->
<svg xmlns="http://www.w3.org/2000/svg" xmlns:xlink="http://www.w3.org/1999/xlink" version="1.1" id="Layer_1_1_" x="0px" y="0px" viewBox="0 0 64 64" style="enable-background:new 0 0 64 64;" xml:space="preserve" width="512" height="512">
<linearGradient id="SVGID_1_" gradientUnits="userSpaceOnUse" x1="32" y1="63" x2="32" y2="1">
	<stop offset="0" style="stop-color:#9F2FFF"/>
	<stop offset="1" style="stop-color:#0BB1D3"/>
</linearGradient>
<path style="fill:url(#SVGID_1_);" d="M61,25H51v8h-2v23c0,3.859,3.14,7,7,7s7-3.141,7-7V33h-2V25z M53,27h6v6h-6V27z M61,35v18H51  V35H61z M56,61c-2.757,0-5-2.243-5-5v-1h10v1C61,58.757,58.757,61,56,61z M23,16.233v6.686l-3.375-2.7l-1.249,1.562L22.399,25  l-4.024,3.219l1.249,1.562l3.375-2.7v6.686l7.748-4.649L25.601,25l5.147-4.117L23,16.233z M27.252,28.883L25,30.233v-3.152  L27.252,28.883z M25,22.919v-3.152l2.252,1.351L25,22.919z M59,20c0-1.654-1.346-3-3-3s-3,1.346-3,3s1.346,3,3,3S59,21.654,59,20z   M55,20c0-0.552,0.449-1,1-1s1,0.448,1,1s-0.449,1-1,1S55,20.552,55,20z M63,20h-2c0-2.757-2.243-5-5-5s-5,2.243-5,5h-2  c0-3.859,3.14-7,7-7S63,16.141,63,20z M27,12c0-1.654-1.346-3-3-3s-3,1.346-3,3s1.346,3,3,3S27,13.654,27,12z M23,12  c0-0.552,0.449-1,1-1s1,0.448,1,1s-0.449,1-1,1S23,12.552,23,12z M31,12h-2c0-2.757-2.243-5-5-5s-5,2.243-5,5h-2c0-3.859,3.14-7,7-7  S31,8.141,31,12z M42,9h-5v2h5c1.654,0,3,1.346,3,3v21h-2V13h-6v2h4v20H7V15h4v-2H5v22H3V14c0-1.654,1.346-3,3-3h5V9H6  c-2.757,0-5,2.243-5,5v38c0,2.757,2.243,5,5,5h36c2.757,0,5-2.243,5-5V14C47,11.243,44.757,9,42,9z M45,37v10H28.382l-0.276,0.553  C27.659,48.445,26.762,49,25.764,49h-3.528c-0.998,0-1.895-0.555-2.341-1.447L19.618,47H3V37H45z M42,55H6c-1.654,0-3-1.346-3-3v-3  h15.431c0.854,1.247,2.261,2,3.805,2h3.528c1.544,0,2.951-0.753,3.805-2H45v3C45,53.654,43.654,55,42,55z M7,51h2v2H7V51z M11,51h2  v2h-2V51z M15,51h2v2h-2V51z M55,49h2c1.103,0,2-0.897,2-2v-8c0-1.103-0.897-2-2-2h-2c-1.103,0-2,0.897-2,2v8  C53,48.103,53.897,49,55,49z M55,39h2l0.001,8H55V39z M43,45h-2v-2h2V45z M39,45h-2v-2h2V45z M35,45h-2v-2h2V45z M31,45h-2v-2h2V45z   M27,45h-2v-2h2V45z M23,45h-2v-2h2V45z M19,45h-2v-2h2V45z M15,45h-2v-2h2V45z M11,45H9v-2h2V45z M5,45v-2h2v2H5z M43,41h-2v-2h2  V41z M39,41h-2v-2h2V41z M35,41h-2v-2h2V41z M31,41h-2v-2h2V41z M27,41h-2v-2h2V41z M23,41h-2v-2h2V41z M19,41h-2v-2h2V41z M15,41  h-2v-2h2V41z M11,41H9v-2h2V41z M7,41H5v-2h2V41z M33,12c0-4.963-4.038-9-9-9s-9,4.037-9,9h-2c0-6.065,4.935-11,11-11  s11,4.935,11,11H33z"/>
</svg>
