<?xml version="1.0" encoding="iso-8859-1"?>
<!-- Generator: Adobe Illustrator 22.1.0, SVG Export Plug-In . SVG Version: 6.00 Build 0)  -->
<svg xmlns="http://www.w3.org/2000/svg" xmlns:xlink="http://www.w3.org/1999/xlink" version="1.1" id="Layer_1_1_" x="0px" y="0px" viewBox="0 0 64 64" style="enable-background:new 0 0 64 64;" xml:space="preserve" width="512" height="512">
<g>
	<path d="M57,21c0-1.654-1.346-3-3-3s-3,1.346-3,3s1.346,3,3,3S57,22.654,57,21z M53,21c0-0.552,0.449-1,1-1s1,0.448,1,1   s-0.449,1-1,1S53,21.552,53,21z"/>
	<path d="M54,14c-3.86,0-7,3.141-7,7h2c0-2.757,2.243-5,5-5s5,2.243,5,5h2C61,17.141,57.86,14,54,14z"/>
	<path d="M21,13c0,1.654,1.346,3,3,3s3-1.346,3-3s-1.346-3-3-3S21,11.346,21,13z M25,13c0,0.552-0.449,1-1,1s-1-0.448-1-1   s0.449-1,1-1S25,12.448,25,13z"/>
	<path d="M29,13h2c0-3.859-3.14-7-7-7s-7,3.141-7,7h2c0-2.757,2.243-5,5-5S29,10.243,29,13z"/>
	<path d="M49,57c0,2.757,2.243,5,5,5s5-2.243,5-5v-1H49V57z"/>
	<rect x="53" y="40" width="2.001" height="8"/>
	<path d="M49,54h10V36H49V54z M51,40c0-1.103,0.897-2,2-2h2c1.103,0,2,0.897,2,2v8c0,1.103-0.897,2-2,2h-2c-1.103,0-2-0.897-2-2V40z   "/>
	<rect x="51" y="28" width="6" height="6"/>
	<path d="M25.764,58h-3.528c-1.544,0-2.951-0.753-3.805-2H3v3c0,1.654,1.346,3,3,3h36c1.654,0,3-1.346,3-3v-3H29.569   C28.715,57.247,27.308,58,25.764,58z M9,60H7v-2h2V60z M13,60h-2v-2h2V60z M17,60h-2v-2h2V60z"/>
	<path d="M7,22v20h34V22H7z M30.748,36.117L23,40.767v-6.686l-3.375,2.7l-1.249-1.562L22.399,32l-4.024-3.219l1.249-1.562l3.375,2.7   v-6.686l7.748,4.649L25.601,32L30.748,36.117z"/>
	<path d="M3,54h16.618l0.276,0.553C20.341,55.445,21.238,56,22.236,56h3.528c0.998,0,1.895-0.555,2.341-1.447L28.382,54H45V44H3V54z    M41,46h2v2h-2V46z M41,50h2v2h-2V50z M37,46h2v2h-2V46z M37,50h2v2h-2V50z M33,46h2v2h-2V46z M33,50h2v2h-2V50z M29,46h2v2h-2V46z    M29,50h2v2h-2V50z M25,46h2v2h-2V46z M25,50h2v2h-2V50z M21,46h2v2h-2V46z M21,50h2v2h-2V50z M17,46h2v2h-2V46z M17,50h2v2h-2V50z    M13,46h2v2h-2V46z M13,50h2v2h-2V50z M9,46h2v2H9V46z M9,50h2v2H9V50z M5,46h2v2H5V46z M5,50h2v2H5V50z"/>
	<path d="M42,18H6c-1.654,0-3,1.346-3,3v21h2V20h38v22h2V21C45,19.346,43.654,18,42,18z"/>
	<polygon points="25,26.767 25,29.919 27.252,28.117  "/>
	<polygon points="25,37.233 27.252,35.883 25,34.081  "/>
	<path d="M24,4c4.962,0,9,4.037,9,9h2c0-6.065-4.935-11-11-11S13,6.935,13,13h2C15,8.037,19.038,4,24,4z"/>
</g>
</svg>
