<?xml version="1.0" encoding="iso-8859-1"?>
<!-- Generator: Adobe Illustrator 22.1.0, SVG Export Plug-In . SVG Version: 6.00 Build 0)  -->
<svg xmlns="http://www.w3.org/2000/svg" xmlns:xlink="http://www.w3.org/1999/xlink" version="1.1" id="Layer_1_1_" x="0px" y="0px" viewBox="0 0 64 64" style="enable-background:new 0 0 64 64;" xml:space="preserve" width="512" height="512">
<g>
	<path d="M32,43c3.309,0,6-2.691,6-6s-2.691-6-6-6s-6,2.691-6,6S28.691,43,32,43z M32,33c2.206,0,4,1.794,4,4s-1.794,4-4,4   s-4-1.794-4-4S29.794,33,32,33z"/>
	<circle cx="44" cy="20" r="1"/>
	<circle cx="32" cy="37" r="2"/>
	<circle cx="52" cy="20" r="1"/>
	<polygon points="56,27 8,27 9.5,29 54.5,29  "/>
	<path d="M16,37c0,8.822,7.178,16,16,16s16-7.178,16-16c0-2.083-0.412-4.094-1.185-6h-9.541C38.941,32.467,40,34.61,40,37   c0,4.411-3.589,8-8,8s-8-3.589-8-8c0-2.39,1.059-4.533,2.726-6h-9.541C16.412,32.906,16,34.917,16,37z M20,37   c0,6.617,5.383,12,12,12v2c-7.72,0-14-6.28-14-14H20z"/>
	<path d="M12,31v26h43.798L52,51.303V31h-3.042C49.639,32.921,50,34.93,50,37c0,9.925-8.075,18-18,18s-18-8.075-18-18   c0-2.07,0.361-4.079,1.042-6H12z"/>
	<rect x="10" y="59" width="46" height="2"/>
	<path d="M7,25h50V15H7V25z M52,17c1.654,0,3,1.346,3,3s-1.346,3-3,3s-3-1.346-3-3S50.346,17,52,17z M44,17c1.654,0,3,1.346,3,3   s-1.346,3-3,3s-3-1.346-3-3S42.346,17,44,17z M9,17h16v6H9V17z"/>
	<rect x="19" y="19" width="4" height="2"/>
	<path d="M56,3H8C7.448,3,7,3.449,7,4v9h50V4C57,3.449,56.552,3,56,3z"/>
	<rect x="11" y="19" width="2" height="2"/>
	<rect x="15" y="19" width="2" height="2"/>
</g>
</svg>
