<?xml version="1.0" encoding="iso-8859-1"?>
<!-- Generator: Adobe Illustrator 22.1.0, SVG Export Plug-In . SVG Version: 6.00 Build 0)  -->
<svg xmlns="http://www.w3.org/2000/svg" xmlns:xlink="http://www.w3.org/1999/xlink" version="1.1" id="Layer_1_1_" x="0px" y="0px" viewBox="0 0 64 64" style="enable-background:new 0 0 64 64;" xml:space="preserve" width="512" height="512">
<g>
	<path d="M4,9c-1.654,0-3,1.346-3,3v40c0,1.654,1.346,3,3,3h59V9H4z M9,17H3v-2h6V17z M9,19v2H3v-2H9z M9,23v2H3v-2H9z M9,27v2H3v-2   H9z M9,31v2H3v-2H9z M9,35v2H3v-2H9z M9,39v2H3v-2H9z M9,43v2H3v-2H9z M9,47v2H3v-2H9z M11,11h2v42h-2V11z M4,11h5v2H3v-1   C3,11.448,3.448,11,4,11z M3,52v-1h6v2H4C3.448,53,3,52.552,3,52z M61,53H15V11h46V53z"/>
	<path d="M38,35c1.654,0,3-1.346,3-3s-1.346-3-3-3s-3,1.346-3,3S36.346,35,38,35z M38,31c0.552,0,1,0.448,1,1s-0.448,1-1,1   s-1-0.448-1-1S37.448,31,38,31z"/>
	<path d="M38,51c10.477,0,19-8.523,19-19s-8.523-19-19-19s-19,8.523-19,19S27.523,51,38,51z M21,32c0-1.955,0.349-3.827,0.959-5.577   l9.407,3.36C31.132,30.481,31,31.225,31,32c0,3.859,3.141,7,7,7c0.775,0,1.519-0.132,2.217-0.366l3.36,9.407   C41.827,48.651,39.955,49,38,49C28.626,49,21,41.374,21,32z M38,27c2.757,0,5,2.243,5,5s-2.243,5-5,5s-5-2.243-5-5S35.243,27,38,27   z M42.184,37.598l7.09,7.09c-1.155,1.027-2.448,1.896-3.851,2.581l-3.409-9.545C42.073,37.684,42.128,37.641,42.184,37.598z    M43.598,36.184c0.042-0.056,0.086-0.112,0.127-0.169l9.545,3.409c-0.685,1.403-1.554,2.696-2.581,3.851L43.598,36.184z M55,32   c0,1.955-0.349,3.827-0.959,5.577l-9.407-3.36C44.868,33.519,45,32.775,45,32c0-3.859-3.141-7-7-7   c-0.775,0-1.519,0.132-2.217,0.366l-3.36-9.407C34.173,15.349,36.045,15,38,15C47.374,15,55,22.626,55,32z M30.576,16.73   l3.409,9.545c-0.664,0.467-1.243,1.046-1.71,1.71l-9.545-3.409C24.396,21.164,27.164,18.396,30.576,16.73z"/>
	<rect x="57" y="13" width="2" height="2"/>
	<rect x="57" y="49" width="2" height="2"/>
	<rect x="17" y="49" width="2" height="2"/>
	<rect x="17" y="13" width="2" height="2"/>
</g>
</svg>
