<?xml version="1.0" encoding="iso-8859-1"?>
<!-- Generator: Adobe Illustrator 22.1.0, SVG Export Plug-In . SVG Version: 6.00 Build 0)  -->
<svg xmlns="http://www.w3.org/2000/svg" xmlns:xlink="http://www.w3.org/1999/xlink" version="1.1" id="Layer_1_1_" x="0px" y="0px" viewBox="0 0 64 64" style="enable-background:new 0 0 64 64;" xml:space="preserve" width="512" height="512">
<g>
	<rect x="11" y="11" width="2" height="42"/>
	<rect x="3" y="31" width="6" height="2"/>
	<rect x="3" y="19" width="6" height="2"/>
	<path d="M3,12v1h6v-2H4C3.448,11,3,11.448,3,12z"/>
	<rect x="3" y="15" width="6" height="2"/>
	<rect x="3" y="27" width="6" height="2"/>
	<path d="M3,52c0,0.552,0.448,1,1,1h5v-2H3V52z"/>
	<rect x="3" y="47" width="6" height="2"/>
	<rect x="3" y="35" width="6" height="2"/>
	<rect x="3" y="43" width="6" height="2"/>
	<rect x="3" y="39" width="6" height="2"/>
	<rect x="3" y="23" width="6" height="2"/>
	<path d="M43.598,36.184l7.09,7.09c1.027-1.155,1.896-2.448,2.581-3.851l-9.545-3.409C43.684,36.073,43.641,36.128,43.598,36.184z"/>
	<path d="M42.015,37.725l3.409,9.545c1.403-0.685,2.696-1.554,3.851-2.581l-7.09-7.09C42.128,37.641,42.073,37.684,42.015,37.725z"/>
	<path d="M38,15c-1.955,0-3.827,0.349-5.577,0.959l3.36,9.407C36.481,25.132,37.225,25,38,25c3.859,0,7,3.141,7,7   c0,0.775-0.132,1.519-0.366,2.217l9.407,3.36C54.651,35.827,55,33.955,55,32C55,22.626,47.374,15,38,15z"/>
	<path d="M15,11v42h46V11H15z M17,13h2v2h-2V13z M19,51h-2v-2h2V51z M38,51c-10.477,0-19-8.523-19-19s8.523-19,19-19s19,8.523,19,19   S48.477,51,38,51z M59,51h-2v-2h2V51z M59,15h-2v-2h2V15z"/>
	<path d="M38,39c-3.859,0-7-3.141-7-7c0-0.775,0.132-1.519,0.366-2.217l-9.407-3.36C21.349,28.173,21,30.045,21,32   c0,9.374,7.626,17,17,17c1.955,0,3.827-0.349,5.577-0.959l-3.36-9.407C39.519,38.868,38.775,39,38,39z"/>
	<path d="M38,37c2.757,0,5-2.243,5-5s-2.243-5-5-5s-5,2.243-5,5S35.243,37,38,37z M38,29c1.654,0,3,1.346,3,3s-1.346,3-3,3   s-3-1.346-3-3S36.346,29,38,29z"/>
	<circle cx="38" cy="32" r="1"/>
	<path d="M33.985,26.275l-3.409-9.545c-3.412,1.666-6.18,4.434-7.846,7.846l9.545,3.409C32.742,27.321,33.321,26.742,33.985,26.275z   "/>
</g>
</svg>
