<?xml version="1.0" encoding="iso-8859-1"?>
<!-- Generator: Adobe Illustrator 22.1.0, SVG Export Plug-In . SVG Version: 6.00 Build 0)  -->
<svg xmlns="http://www.w3.org/2000/svg" xmlns:xlink="http://www.w3.org/1999/xlink" version="1.1" id="Layer_1_1_" x="0px" y="0px" viewBox="0 0 64 64" style="enable-background:new 0 0 64 64;" xml:space="preserve" width="512" height="512">
<g>
	<path d="M55.5,31l3.5-4.667V4c0-1.654-1.346-3-3-3H8C6.346,1,5,2.346,5,4v22.333L8.5,31H10v26H8v6h50v-5v-1v-0.303l-4-6V31H55.5z    M7,25V15h50v10H7z M8,3h48c0.552,0,1,0.449,1,1v9H7V4C7,3.449,7.448,3,8,3z M8,27h48l-1.5,2h-45L8,27z M48,37   c0,8.822-7.178,16-16,16s-16-7.178-16-16c0-2.083,0.412-4.094,1.185-6h9.541C25.059,32.467,24,34.61,24,37c0,4.411,3.589,8,8,8   s8-3.589,8-8c0-2.39-1.059-4.533-2.726-6h9.541C47.588,32.906,48,34.917,48,37z M38,37c0,3.309-2.691,6-6,6s-6-2.691-6-6   s2.691-6,6-6S38,33.691,38,37z M56,61H10v-2h46V61z M55.798,57H12V31h3.042C14.361,32.921,14,34.93,14,37c0,9.925,8.075,18,18,18   s18-8.075,18-18c0-2.07-0.361-4.079-1.042-6H52v20.303L55.798,57z"/>
	<path d="M32,41c2.206,0,4-1.794,4-4s-1.794-4-4-4s-4,1.794-4,4S29.794,41,32,41z M32,35c1.103,0,2,0.897,2,2s-0.897,2-2,2   s-2-0.897-2-2S30.897,35,32,35z"/>
	<path d="M20,37h-2c0,7.72,6.28,14,14,14v-2C25.383,49,20,43.617,20,37z"/>
	<path d="M9,23h16v-6H9V23z M15,21v-2h2v2H15z M23,21h-4v-2h4V21z M11,19h2v2h-2V19z"/>
	<path d="M52,17c-1.654,0-3,1.346-3,3s1.346,3,3,3s3-1.346,3-3S53.654,17,52,17z M52,21c-0.552,0-1-0.449-1-1s0.448-1,1-1   s1,0.449,1,1S52.552,21,52,21z"/>
	<path d="M44,17c-1.654,0-3,1.346-3,3s1.346,3,3,3s3-1.346,3-3S45.654,17,44,17z M44,21c-0.552,0-1-0.449-1-1s0.448-1,1-1   s1,0.449,1,1S44.552,21,44,21z"/>
</g>
</svg>
