<?xml version="1.0" encoding="iso-8859-1"?>
<!-- Generator: Adobe Illustrator 22.1.0, SVG Export Plug-In . SVG Version: 6.00 Build 0)  -->
<svg xmlns="http://www.w3.org/2000/svg" xmlns:xlink="http://www.w3.org/1999/xlink" version="1.1" id="Layer_1_1_" x="0px" y="0px" viewBox="0 0 64 64" style="enable-background:new 0 0 64 64;" xml:space="preserve" width="512" height="512">
<g>
	<path d="M61,41.184V10c0-2.757-2.243-5-5-5H40.779C38.254,2.53,34.804,1,31,1s-7.254,1.53-9.779,4H8c-2.757,0-5,2.243-5,5v31.184   C1.839,41.599,1,42.699,1,44v9.667c0,1.075,0.355,2.141,1,2.999l1.999,2.667V63h16v-3.667l2-2.666   c0.374-0.498,0.637-1.069,0.803-1.667h18.391c0.166,0.598,0.432,1.165,0.808,1.666l2,2.667V63h16v-3.667L62,56.667   c0.645-0.859,1-1.925,1-3V44C63,42.699,62.161,41.599,61,41.184z M56,39c-0.395,0-0.77,0.081-1.116,0.22   C54.539,37.945,53.383,37,52,37c-0.352,0-0.686,0.072-1,0.184V33h8v8.181c-0.038,0.014-0.079,0.02-0.117,0.035   C58.536,39.944,57.382,39,56,39z M45.184,31H18.816c-0.414-1.161-1.514-2-2.816-2s-2.402,0.839-2.816,2H9V11h8.59   C17.21,12.269,17,13.61,17,15c0,7.72,6.28,14,14,14s14-6.28,14-14c0-1.39-0.21-2.731-0.59-4H55v20h-4.184   c-0.414-1.161-1.514-2-2.816-2S45.598,29.839,45.184,31z M9.116,39.22C8.77,39.081,8.395,39,8,39c-1.382,0-2.536,0.944-2.883,2.217   C5.079,41.202,5.038,41.195,5,41.182V33h8v4.184C12.686,37.072,12.352,37,12,37C10.617,37,9.462,37.945,9.116,39.22z M59,10v21h-2   V11c0-1.103-0.897-2-2-2H43.63c-0.334-0.7-0.717-1.37-1.157-2H56C57.654,7,59,8.346,59,10z M31,3c6.617,0,12,5.383,12,12   s-5.383,12-12,12s-12-5.383-12-12S24.383,3,31,3z M8,7h11.527c-0.441,0.63-0.823,1.3-1.157,2H9c-1.103,0-2,0.897-2,2v20H5V10   C5,8.346,6.346,7,8,7z M20.999,53.667c0,0.645-0.213,1.284-0.6,1.8l-2.4,3.2V61h-12v-2.333L3.6,55.466   C3.213,54.951,3,54.312,3,53.667V44c0-0.551,0.448-0.999,1-1h0.001c0.267,0,0.517,0.104,0.706,0.293C4.896,43.481,5,43.733,5,44v4   v2h2v-2v-4v-2c0-0.552,0.448-1,1-1s1,0.448,1,1v8h2v-8v-2c0-0.552,0.448-1,1-1s1,0.448,1,1v6v4h2v-4v-6v-8c0-0.551,0.448-1,1-1   s1,0.449,1,1v11h-0.001v10H17h1.999H19v-8h1c0.552,0,1,0.448,1,1L20.999,53.667z M20,43h-1V33h26v10h-1   c-1.302,0-2.401,0.838-2.815,2h-3.803l-0.276,0.553C36.659,46.445,35.762,47,34.764,47h-5.527c-0.998,0-1.896-0.555-2.342-1.447   L26.618,45h-3.802C22.402,43.839,21.302,43,20,43z M23,47h2.431c0.854,1.247,2.262,2,3.806,2h5.527c1.544,0,2.951-0.753,3.806-2   h2.433l0.014,6H22.999L23,47z M61,53.667c0,0.645-0.213,1.284-0.6,1.8l-2.399,3.2V61h-12v-2.333l-2.4-3.201   c-0.339-0.451-0.542-0.986-0.586-1.468L43,46c0-0.552,0.448-1,1-1h1v8h0.001H47h0.001V43H47V32c0-0.551,0.448-1,1-1s1,0.449,1,1v8   v6v4h2v-4v-6c0-0.552,0.448-1,1-1s1,0.448,1,1v2v8h2v-8c0-0.552,0.448-1,1-1s1,0.448,1,1v2v4v2h2v-2v-4   c0-0.268,0.104-0.519,0.293-0.707C59.481,43.104,59.732,43,59.999,43H60c0.552,0.001,1,0.449,1,1V53.667z"/>
	<rect x="21" y="35" width="2" height="2"/>
	<rect x="21" y="39" width="2" height="2"/>
	<rect x="25" y="35" width="2" height="2"/>
	<rect x="25" y="39" width="2" height="2"/>
	<rect x="29" y="35" width="2" height="2"/>
	<rect x="29" y="39" width="2" height="2"/>
	<rect x="33" y="35" width="2" height="2"/>
	<rect x="33" y="39" width="2" height="2"/>
	<rect x="29" y="43" width="6" height="2"/>
	<rect x="37" y="35" width="2" height="2"/>
	<rect x="37" y="39" width="2" height="2"/>
	<rect x="41" y="35" width="2" height="2"/>
	<rect x="41" y="39" width="2" height="2"/>
	<rect x="20.802" y="14" transform="matrix(0.1963 -0.9805 0.9805 0.1963 10.2064 42.4523)" width="20.396" height="2"/>
	<polygon points="35.707,19.707 40.414,15 35.707,10.293 34.293,11.707 37.586,15 34.293,18.293  "/>
	<polygon points="26.293,19.707 27.707,18.293 24.414,15 27.707,11.707 26.293,10.293 21.586,15  "/>
</g>
</svg>
