<?xml version="1.0" encoding="iso-8859-1"?>
<!-- Generator: Adobe Illustrator 22.1.0, SVG Export Plug-In . SVG Version: 6.00 Build 0)  -->
<svg xmlns="http://www.w3.org/2000/svg" xmlns:xlink="http://www.w3.org/1999/xlink" version="1.1" id="Layer_1_1_" x="0px" y="0px" viewBox="0 0 64 64" style="enable-background:new 0 0 64 64;" xml:space="preserve" width="512" height="512">
<g>
	<path d="M31,27c6.617,0,12-5.383,12-12S37.617,3,31,3S19,8.383,19,15S24.383,27,31,27z M34.293,11.707l1.414-1.414L40.414,15   l-4.707,4.707l-1.414-1.414L37.586,15L34.293,11.707z M32.02,4.804l1.961,0.393l-4,20l-1.961-0.393L32.02,4.804z M26.293,10.293   l1.414,1.414L24.414,15l3.293,3.293l-1.414,1.414L21.586,15L26.293,10.293z"/>
	<path d="M8,39c0.395,0,0.77,0.081,1.116,0.22C9.462,37.945,10.617,37,12,37c0.352,0,0.686,0.072,1,0.184V33H5v8.182   c0.038,0.014,0.079,0.02,0.117,0.035C5.464,39.944,6.618,39,8,39z"/>
	<path d="M7,11c0-1.103,0.897-2,2-2h9.37c0.334-0.7,0.717-1.37,1.157-2H8c-1.654,0-3,1.346-3,3v21h2V11z"/>
	<path d="M20,45h-1v8h-0.001H17h-0.001V43H17V32c0-0.551-0.448-1-1-1s-1,0.449-1,1v8v6v4h-2v-4v-6c0-0.552-0.448-1-1-1s-1,0.448-1,1   v2v8H9v-8c0-0.552-0.448-1-1-1s-1,0.448-1,1v2v4v2H5v-2v-4c0-0.267-0.104-0.519-0.293-0.707C4.518,43.104,4.268,43,4.001,43H4   c-0.552,0.001-1,0.449-1,1v9.667c0,0.645,0.213,1.284,0.6,1.799l2.399,3.201V61h12v-2.333l2.4-3.2c0.387-0.516,0.6-1.155,0.6-1.8   L21,46C21,45.448,20.552,45,20,45z"/>
	<path d="M38.569,47c-0.854,1.247-2.262,2-3.806,2h-5.527c-1.544,0-2.951-0.753-3.806-2H23l-0.001,6h18.017l-0.014-6H38.569z"/>
	<path d="M45,43V33H19v10h1c1.302,0,2.402,0.839,2.816,2h3.802l0.276,0.553C27.341,46.445,28.238,47,29.236,47h5.527   c0.998,0,1.896-0.555,2.342-1.447L37.382,45h3.803c0.414-1.162,1.514-2,2.815-2H45z M23,41h-2v-2h2V41z M23,37h-2v-2h2V37z M27,41   h-2v-2h2V41z M27,37h-2v-2h2V37z M29,35h2v2h-2V35z M29,39h2v2h-2V39z M35,45h-6v-2h6V45z M35,41h-2v-2h2V41z M35,37h-2v-2h2V37z    M39,41h-2v-2h2V41z M39,37h-2v-2h2V37z M43,41h-2v-2h2V41z M43,37h-2v-2h2V37z"/>
	<path d="M60,43L60,43c-0.268,0-0.519,0.104-0.707,0.293C59.104,43.481,59,43.732,59,44v4v2h-2v-2v-4v-2c0-0.552-0.448-1-1-1   s-1,0.448-1,1v8h-2v-8v-2c0-0.552-0.448-1-1-1s-1,0.448-1,1v6v4h-2v-4v-6v-8c0-0.551-0.448-1-1-1s-1,0.449-1,1v11h0.001v10H47   h-1.999H45v-8h-1c-0.552,0-1,0.448-1,1l0.015,7.998c0.044,0.481,0.247,1.017,0.586,1.468l2.4,3.201V61h12v-2.333l2.399-3.2   c0.387-0.516,0.6-1.155,0.6-1.8V44C61,43.449,60.552,43.001,60,43z"/>
	<path d="M55,9c1.103,0,2,0.897,2,2v20h2V10c0-1.654-1.346-3-3-3H42.473c0.441,0.63,0.823,1.3,1.157,2H55z"/>
	<path d="M9,11v20h4.184c0.414-1.161,1.514-2,2.816-2s2.402,0.839,2.816,2h26.369c0.414-1.161,1.514-2,2.816-2s2.402,0.839,2.816,2   H55V11H44.41C44.79,12.269,45,13.61,45,15c0,7.72-6.28,14-14,14s-14-6.28-14-14c0-1.39,0.21-2.731,0.59-4H9z"/>
	<path d="M54.884,39.22C55.23,39.081,55.605,39,56,39c1.382,0,2.536,0.944,2.883,2.217c0.038-0.015,0.078-0.022,0.117-0.035V33h-8   v4.184C51.314,37.072,51.648,37,52,37C53.383,37,54.539,37.945,54.884,39.22z"/>
</g>
</svg>
