<?xml version="1.0" encoding="iso-8859-1"?>
<!-- Generator: Adobe Illustrator 22.1.0, SVG Export Plug-In . SVG Version: 6.00 Build 0)  -->
<svg xmlns="http://www.w3.org/2000/svg" xmlns:xlink="http://www.w3.org/1999/xlink" version="1.1" id="Layer_1_1_" x="0px" y="0px" viewBox="0 0 64 64" style="enable-background:new 0 0 64 64;" xml:space="preserve" width="512" height="512">
<g>
	<rect x="21" y="35" style="fill:#F0BC5E;" width="22" height="6"/>
	<g>
		<rect x="21" y="35" width="2" height="2"/>
	</g>
	<g>
		<rect x="21" y="39" width="2" height="2"/>
	</g>
	<g>
		<rect x="25" y="35" width="2" height="2"/>
	</g>
	<g>
		<rect x="25" y="39" width="2" height="2"/>
	</g>
	<g>
		<rect x="29" y="35" width="2" height="2"/>
	</g>
	<g>
		<rect x="29" y="39" width="2" height="2"/>
	</g>
	<g>
		<rect x="33" y="35" width="2" height="2"/>
	</g>
	<g>
		<rect x="33" y="39" width="2" height="2"/>
	</g>
	<g>
		<rect x="29" y="43" width="6" height="2"/>
	</g>
	<g>
		<rect x="37" y="35" width="2" height="2"/>
	</g>
	<g>
		<rect x="37" y="39" width="2" height="2"/>
	</g>
	<g>
		<rect x="41" y="35" width="2" height="2"/>
	</g>
	<g>
		<rect x="41" y="39" width="2" height="2"/>
	</g>
	<path d="M61,41.184V10c0-2.757-2.243-5-5-5H40.377v2H56c1.654,0,3,1.346,3,3v21h-2V11c0-1.103-0.897-2-2-2H43.003v2H55v20h-4.184   c-0.414-1.161-1.514-2-2.816-2s-2.402,0.839-2.816,2H18.816c-0.414-1.161-1.514-2-2.816-2s-2.402,0.839-2.816,2H9V11h9.997V9H9   c-1.103,0-2,0.897-2,2v20H5V10c0-1.654,1.346-3,3-3h13.626V5H8c-2.757,0-5,2.243-5,5v31.184C1.839,41.599,1,42.699,1,44v9.667   c0,1.075,0.355,2.141,1,2.999l1.999,2.667V63h16v-3.667l2-2.666c0.374-0.498,0.637-1.069,0.803-1.667h18.391   c0.166,0.598,0.432,1.165,0.808,1.666l2,2.667V63h16v-3.667L62,56.667c0.645-0.859,1-1.925,1-3V44   C63,42.699,62.161,41.599,61,41.184z M51,33h8v8.181c-0.038,0.014-0.079,0.02-0.117,0.035C58.536,39.944,57.382,39,56,39   c-0.395,0-0.77,0.081-1.116,0.22C54.539,37.945,53.383,37,52,37c-0.352,0-0.686,0.072-1,0.184V33z M5,33h8v4.184   C12.686,37.072,12.352,37,12,37c-1.383,0-2.538,0.945-2.884,2.22C8.77,39.081,8.395,39,8,39c-1.382,0-2.536,0.944-2.883,2.217   C5.079,41.202,5.038,41.195,5,41.182V33z M20.999,53.667c0,0.645-0.213,1.284-0.6,1.8l-2.4,3.2V61h-12v-2.333L3.6,55.466   C3.213,54.951,3,54.312,3,53.667V44c0-0.551,0.448-0.999,1-1h0.001c0.267,0,0.517,0.104,0.706,0.293C4.896,43.481,5,43.733,5,44v4   v2h2v-2v-4v-2c0-0.552,0.448-1,1-1s1,0.448,1,1v8h2v-8v-2c0-0.552,0.448-1,1-1s1,0.448,1,1v6v4h2v-4v-6v-8c0-0.551,0.448-1,1-1   s1,0.449,1,1v11h-0.001v10H17h1.999H19v-8h1c0.552,0,1,0.448,1,1L20.999,53.667z M20,43h-1V33h26v10h-1   c-1.302,0-2.401,0.838-2.815,2h-3.803l-0.276,0.553C36.659,46.445,35.762,47,34.764,47h-5.527c-0.998,0-1.896-0.555-2.342-1.447   L26.618,45h-3.802C22.402,43.839,21.302,43,20,43z M23,47h2.431c0.854,1.247,2.262,2,3.806,2h5.527c1.544,0,2.951-0.753,3.806-2   h2.433l0.014,6H22.999L23,47z M61,53.667c0,0.645-0.213,1.284-0.6,1.8l-2.399,3.2V61h-12v-2.333l-2.4-3.201   c-0.339-0.451-0.542-0.986-0.586-1.468L43,46c0-0.552,0.448-1,1-1h1v8h0.001H47h0.001V43H47V32c0-0.551,0.448-1,1-1s1,0.449,1,1v8   v6v4h2v-4v-6c0-0.552,0.448-1,1-1s1,0.448,1,1v2v8h2v-8c0-0.552,0.448-1,1-1s1,0.448,1,1v2v4v2h2v-2v-4   c0-0.268,0.104-0.519,0.293-0.707C59.481,43.104,59.732,43,59.999,43H60c0.552,0.001,1,0.449,1,1V53.667z"/>
	<path style="fill:#F0BC5E;" d="M31,29c-7.72,0-14-6.28-14-14S23.28,1,31,1s14,6.28,14,14S38.72,29,31,29z"/>
	<g>
		<rect x="20.802" y="14" transform="matrix(0.1963 -0.9805 0.9805 0.1963 10.2064 42.4523)" width="20.396" height="2"/>
	</g>
	<g>
		<polygon points="35.707,19.707 34.293,18.293 37.586,15 34.293,11.707 35.707,10.293 40.414,15   "/>
	</g>
	<g>
		<polygon points="26.293,19.707 21.586,15 26.293,10.293 27.707,11.707 24.414,15 27.707,18.293   "/>
	</g>
</g>
</svg>
