<?xml version="1.0" encoding="iso-8859-1"?>
<!-- Generator: Adobe Illustrator 22.1.0, SVG Export Plug-In . SVG Version: 6.00 Build 0)  -->
<svg xmlns="http://www.w3.org/2000/svg" xmlns:xlink="http://www.w3.org/1999/xlink" version="1.1" id="Layer_1_1_" x="0px" y="0px" viewBox="0 0 64 64" style="enable-background:new 0 0 64 64;" xml:space="preserve" width="512" height="512">
<g>
	<polygon points="57,25 45,25 41,25 40.998,25 41,27 57,27  "/>
	<rect x="43" y="29" width="12" height="2"/>
	<path d="M14.697,49H3v3c0,1.654,1.346,3,3,3h14h1h37c1.654,0,3-1.346,3-3v-1H17.697L14.697,49z M7,53H5v-2h2V53z M11,53H9v-2h2V53z    M15,53h-2v-2h2V53z"/>
	<polygon points="57,33 41,33 40.998,33 41,35 57,35  "/>
	<polygon points="43,57 21,57 21,59 17,59 17,61 21,61 43,61 47,61 47,59 43,59  "/>
	<path d="M30.503,10.581L31,10.87v2.884l-4.841,1.384C24.888,15.501,24,16.678,24,18v1h16v-1c0-1.322-0.888-2.499-2.159-2.862   L33,13.754V10.87l0.497-0.289C34.438,10.033,35,9.068,35,8V6.207c0-1.659-1.198-3.062-2.729-3.195   C31.421,2.94,30.6,3.213,29.974,3.788C29.354,4.355,29,5.161,29,6v2C29,9.068,29.562,10.033,30.503,10.581z"/>
	<path d="M58,17H48v5c0,0.352-0.072,0.686-0.184,1H57c1.103,0,2,0.897,2,2v2c0,1.103-0.897,2-2,2v2c1.103,0,2,0.897,2,2v2   c0,1.103-0.897,2-2,2v2c1.103,0,2,0.897,2,2v2c0,1.103-0.897,2-2,2H41c-1.103,0-2-0.897-2-2v-2c0-1.103,0.897-2,2-2v-2   c-1.103,0-2-0.897-2-2v-2c0-1.103,0.897-2,2-2v-2c-1.103,0-2-0.897-2-2v-2h-4v4.618L25.764,25H19c-1.654,0-3-1.346-3-3v-5H6   c-1.654,0-3,1.346-3,3v27h12.303l3,2H61V20C61,18.346,59.654,17,58,17z M7,45H5v-2h2V45z M7,41H5v-2h2V41z M7,37H5v-2h2V37z M7,33   H5v-2h2V33z M7,29H5v-2h2V29z M25,45H9v-2h16V45z M25,41H9v-2h16V41z M25,37H9v-2h16V37z M25,33H9v-2h16V33z M25,29H9v-2h16V29z"/>
	<path d="M19,23h7.236L33,26.382V23h8h4c0.552,0,1-0.448,1-1V8c0-0.552-0.448-1-1-1h-8v1c0,1.563-0.754,3.04-2,3.979v0.267   l3.39,0.968C40.516,13.822,42,15.79,42,18v3H22v-3c0-2.21,1.484-4.178,3.61-4.786L29,12.246v-0.267C27.754,11.04,27,9.563,27,8V7   h-8c-0.552,0-1,0.448-1,1v7v1v6C18,22.552,18.448,23,19,23z"/>
	<polygon points="40.998,41 41,43 57,43 57,41 41,41  "/>
	<rect x="43" y="37" width="12" height="2"/>
</g>
</svg>
