<?xml version="1.0" encoding="iso-8859-1"?>
<!-- Generator: Adobe Illustrator 22.1.0, SVG Export Plug-In . SVG Version: 6.00 Build 0)  -->
<svg xmlns="http://www.w3.org/2000/svg" xmlns:xlink="http://www.w3.org/1999/xlink" version="1.1" id="Layer_1_1_" x="0px" y="0px" viewBox="0 0 64 64" style="enable-background:new 0 0 64 64;" xml:space="preserve" width="512" height="512">
<g>
	<path style="fill:#F0BC5E;" d="M45,5h-9h-0.188C35.924,5.388,36,5.791,36,6.207V8c0,1.477-0.809,2.752-2,3.445V13l4.115,1.176   C39.823,14.664,41,16.224,41,18v2H23v-2c0-1.776,1.177-3.336,2.885-3.824L30,13v-1.555C28.809,10.752,28,9.477,28,8V6   c0-0.347,0.057-0.679,0.14-1H28h-9c-1.654,0-3,1.346-3,3v14c0,1.654,1.346,3,3,3h6.764L35,30v-5h10c1.654,0,3-1.346,3-3V8   C48,6.346,46.654,5,45,5z"/>
	<g>
		<path d="M42,18c0-2.21-1.484-4.178-3.61-4.786L35,12.246v-0.267C36.246,11.04,37,9.563,37,8V6.207    c0-2.688-2.001-4.966-4.555-5.188c-1.406-0.121-2.794,0.351-3.823,1.294C27.591,3.259,27,4.603,27,6v2c0,1.563,0.754,3.04,2,3.979    v0.267l-3.39,0.968C23.484,13.822,22,15.79,22,18v3h20V18z M40,19H24v-1c0-1.322,0.888-2.499,2.159-2.862L31,13.754V10.87    l-0.497-0.289C29.562,10.033,29,9.068,29,8V6c0-0.839,0.354-1.645,0.974-2.212c0.626-0.575,1.447-0.848,2.298-0.776    C33.802,3.145,35,4.548,35,6.207V8c0,1.068-0.562,2.033-1.503,2.581L33,10.87v2.884l4.841,1.384C39.112,15.501,40,16.678,40,18V19    z"/>
		<rect x="13" y="51" width="2" height="2"/>
		<rect x="9" y="51" width="2" height="2"/>
		<rect x="5" y="51" width="2" height="2"/>
		<path d="M58,15H48v2h10c1.654,0,3,1.346,3,3v29H18.303l-3-2H3V20c0-1.654,1.346-3,3-3h10v-2H6c-2.757,0-5,2.243-5,5v32    c0,2.757,2.243,5,5,5h13v4h-4v2h34v-2h-4v-4h13c2.757,0,5-2.243,5-5V20C63,17.243,60.757,15,58,15z M58,55H23v2h20v4H21v-6H6    c-1.654,0-3-1.346-3-3v-3h11.697l3,2H61v1C61,53.654,59.654,55,58,55z"/>
		<path d="M59,29v-2c0-1.103-0.897-2-2-2H41c-1.103,0-2,0.897-2,2v2c0,1.103,0.897,2,2,2v2c-1.103,0-2,0.897-2,2v2    c0,1.103,0.897,2,2,2v2c-1.103,0-2,0.897-2,2v2c0,1.103,0.897,2,2,2h16c1.103,0,2-0.897,2-2v-2c0-1.103-0.897-2-2-2v-2    c1.103,0,2-0.897,2-2v-2c0-1.103-0.897-2-2-2v-2C58.103,31,59,30.103,59,29z M40.998,27H41h16v2H41L40.998,27z M57,45H41l-0.002-2    H41h16V45z M55,41H43v-2h12V41z M57,37H41l-0.002-2H41h16V37z M55,33H43v-2h12V33z"/>
		<rect x="5" y="43" width="2" height="2"/>
		<rect x="9" y="43" width="16" height="2"/>
		<rect x="5" y="39" width="2" height="2"/>
		<rect x="9" y="39" width="16" height="2"/>
		<rect x="5" y="35" width="2" height="2"/>
		<rect x="9" y="35" width="16" height="2"/>
		<rect x="5" y="31" width="2" height="2"/>
		<rect x="9" y="31" width="16" height="2"/>
		<rect x="5" y="27" width="2" height="2"/>
		<rect x="9" y="27" width="16" height="2"/>
	</g>
</g>
</svg>
