<?xml version="1.0" encoding="iso-8859-1"?>
<!-- Generator: Adobe Illustrator 22.1.0, SVG Export Plug-In . SVG Version: 6.00 Build 0)  -->
<svg xmlns="http://www.w3.org/2000/svg" xmlns:xlink="http://www.w3.org/1999/xlink" version="1.1" id="Layer_1_1_" x="0px" y="0px" viewBox="0 0 64 64" style="enable-background:new 0 0 64 64;" xml:space="preserve" width="512" height="512">
<g>
	<path style="fill:#F0BC5E;" d="M58,10H6c-0.552,0-1,0.448-1,1v28h10l3,2h41V11C59,10.448,58.552,10,58,10z"/>
	<g>
		<rect x="13" y="42" width="2" height="2"/>
		<rect x="9" y="42" width="2" height="2"/>
		<rect x="5" y="42" width="2" height="2"/>
		<path d="M58,6H6c-2.757,0-5,2.243-5,5v32c0,2.757,2.243,5,5,5h13v4h-2c-1.654,0-3,1.346-3,3v3h36v-3c0-1.654-1.346-3-3-3h-2v-4h13    c2.757,0,5-2.243,5-5V11C63,8.243,60.757,6,58,6z M6,8h52c1.654,0,3,1.346,3,3v29H18.303l-3-2H3V11C3,9.346,4.346,8,6,8z M48,55v1    H16v-1c0-0.551,0.449-1,1-1h30C47.551,54,48,54.449,48,55z M58,46H23v2h20v4H21v-6H6c-1.654,0-3-1.346-3-3v-3h11.697l3,2H61v1    C61,44.654,59.654,46,58,46z"/>
		<rect x="55" y="12" width="2" height="2"/>
		<rect x="22" y="12" width="31" height="2"/>
	</g>
</g>
</svg>
