<?xml version="1.0" encoding="iso-8859-1"?>
<!-- Generator: Adobe Illustrator 22.1.0, SVG Export Plug-In . SVG Version: 6.00 Build 0)  -->
<svg xmlns="http://www.w3.org/2000/svg" xmlns:xlink="http://www.w3.org/1999/xlink" version="1.1" id="Layer_1_1_" x="0px" y="0px" viewBox="0 0 64 64" style="enable-background:new 0 0 64 64;" xml:space="preserve" width="512" height="512">
<g>
	<path d="M14.697,40H3v3c0,1.654,1.346,3,3,3h14h38c1.654,0,3-1.346,3-3v-1H17.697L14.697,40z M7,44H5v-2h2V44z M11,44H9v-2h2V44z    M15,44h-2v-2h2V44z"/>
	<path d="M58,8H6c-1.654,0-3,1.346-3,3v27h12.303l3,2H61V11C61,9.346,59.654,8,58,8z M53,14H22v-2h31V14z M57,14h-2v-2h2V14z"/>
	<path d="M47,54H17c-0.551,0-1,0.449-1,1v1h32v-1C48,54.449,47.551,54,47,54z"/>
	<rect x="21" y="48" width="22" height="4"/>
</g>
</svg>
