<?xml version="1.0" encoding="iso-8859-1"?>
<!-- Generator: Adobe Illustrator 22.1.0, SVG Export Plug-In . SVG Version: 6.00 Build 0)  -->
<svg xmlns="http://www.w3.org/2000/svg" xmlns:xlink="http://www.w3.org/1999/xlink" version="1.1" id="Layer_1_1_" x="0px" y="0px" viewBox="0 0 64 64" style="enable-background:new 0 0 64 64;" xml:space="preserve" width="512" height="512">
<linearGradient id="SVGID_1_" gradientUnits="userSpaceOnUse" x1="32" y1="63" x2="32" y2="1">
	<stop offset="0" style="stop-color:#9F2FFF"/>
	<stop offset="1" style="stop-color:#0BB1D3"/>
</linearGradient>
<path style="fill:url(#SVGID_1_);" d="M44,1H20c-2.757,0-5,2.243-5,5v52.236L17.382,63h29.236L49,58.236V6C49,3.243,46.757,1,44,1z   M20,3h24c1.654,0,3,1.346,3,3v51H17v-2h18V39H17V6C17,4.346,18.346,3,20,3z M17,53V41h16v12H17z M18.618,61l-1-2h28.764l-1,2  H18.618z M27,43c-2.206,0-4,1.794-4,4s1.794,4,4,4s4-1.794,4-4S29.206,43,27,43z M28,48.722V47h-2v1.722  c-0.595-0.347-1-0.985-1-1.722c0-1.103,0.897-2,2-2s2,0.897,2,2C29,47.737,28.595,48.375,28,48.722z M19,43h2v2h-2V43z M19,47h2v2  h-2V47z M45,5H19v30h26V5z M43,7v6H21V7H43z M21,33V15h22v18H21z M37,55h8V39h-8V55z M39,41h4v12h-4V41z M27,11h-4V9h4V11z M33,11  h-4V9h4V11z M37,11h-2V9h2V11z M41,11h-2V9h2V11z M23,23h18v-6H23V23z M25,19h14v2H25V19z M23,31h18v-6H23V31z M25,27h14v2H25V27z"/>
</svg>
