<?xml version="1.0" encoding="iso-8859-1"?>
<!-- Generator: Adobe Illustrator 22.1.0, SVG Export Plug-In . SVG Version: 6.00 Build 0)  -->
<svg xmlns="http://www.w3.org/2000/svg" xmlns:xlink="http://www.w3.org/1999/xlink" version="1.1" id="Layer_1_1_" x="0px" y="0px" viewBox="0 0 64 64" style="enable-background:new 0 0 64 64;" xml:space="preserve" width="512" height="512">
<g>
	<rect x="39" y="41" width="4" height="12"/>
	<rect x="25" y="27" width="14" height="2"/>
	<polygon points="18.618,61 45.382,61 46.382,59 17.618,59  "/>
	<path d="M43,7H21v6h22V7z M27,11h-4V9h4V11z M33,11h-4V9h4V11z M37,11h-2V9h2V11z M41,11h-2V9h2V11z"/>
	<path d="M33,41H17v12h16V41z M21,49h-2v-2h2V49z M21,45h-2v-2h2V45z M27,51c-2.206,0-4-1.794-4-4s1.794-4,4-4s4,1.794,4,4   S29.206,51,27,51z"/>
	<path d="M27,45c-1.103,0-2,0.897-2,2c0,0.737,0.405,1.375,1,1.722V47h2v1.722c0.595-0.347,1-0.985,1-1.722   C29,45.897,28.103,45,27,45z"/>
	<path d="M44,3H20c-1.654,0-3,1.346-3,3v33h18v16H17v2h30V6C47,4.346,45.654,3,44,3z M45,55h-8V39h8V55z M45,35H19V5h26V35z"/>
	<rect x="25" y="19" width="14" height="2"/>
	<path d="M43,15H21v18h22V15z M41,31H23v-6h18V31z M41,23H23v-6h18V23z"/>
</g>
</svg>
