<?xml version="1.0" encoding="iso-8859-1"?>
<!-- Generator: Adobe Illustrator 22.1.0, SVG Export Plug-In . SVG Version: 6.00 Build 0)  -->
<svg xmlns="http://www.w3.org/2000/svg" xmlns:xlink="http://www.w3.org/1999/xlink" version="1.1" id="Layer_1_1_" x="0px" y="0px" viewBox="0 0 64 64" style="enable-background:new 0 0 64 64;" xml:space="preserve" width="512" height="512">
<linearGradient id="SVGID_1_" gradientUnits="userSpaceOnUse" x1="32" y1="63" x2="32" y2="1">
	<stop offset="0" style="stop-color:#9F2FFF"/>
	<stop offset="1" style="stop-color:#0BB1D3"/>
</linearGradient>
<path style="fill:url(#SVGID_1_);" d="M58,39V19c0-2.206-1.794-4-4-4s-4,1.794-4,4v10c0,1.103-0.897,2-2,2s-2-0.897-2-2V5  c0-2.206-1.794-4-4-4H22c-2.206,0-4,1.794-4,4v2.101C15.721,7.566,14,9.586,14,12v1H6c-2.757,0-5,2.243-5,5v8v4v28  c0,2.757,2.243,5,5,5h26c2.757,0,5-2.243,5-5V18c0-2.757-2.243-5-5-5h-8v-1c0-2.414-1.721-4.434-4-4.899V5c0-1.103,0.897-2,2-2h20  c1.103,0,2,0.897,2,2v24c0,2.206,1.794,4,4,4s4-1.794,4-4V19c0-1.103,0.897-2,2-2s2,0.897,2,2v20c-2.757,0-5,2.243-5,5v11h2v8h8v-8  h2V44C63,41.243,60.757,39,58,39z M3,23h32v6H9v1c0,1.654-1.346,3-3,3s-3-1.346-3-3v-4V23z M32,61H6c-1.654,0-3-1.346-3-3V33.974  C3.838,34.609,4.87,35,6,35c2.415,0,4.435-1.721,4.899-4H35v27C35,59.654,33.654,61,32,61z M24,19v-4h8c1.654,0,3,1.346,3,3v3H3v-3  c0-1.654,1.346-3,3-3h8v4H24z M22,12v5h-6v-5c0-1.654,1.346-3,3-3S22,10.346,22,12z M56,41h2c1.654,0,3,1.346,3,3v5h-8v-5  C53,42.346,54.346,41,56,41z M59,61h-4v-6h4V61z M53,53v-2h8v2H53z M5,59h16v-6H5V59z M11,57v-2h2v2H11z M19,57h-4v-2h4V57z M7,55h2  v2H7V55z M5,17h2v2H5V17z M9,17h2v2H9V17z M5,30c0-0.552,0.448-1,1-1s1,0.448,1,1c0,0.552-0.448,1-1,1S5,30.552,5,30z M33,27h-4v-2  h4V27z M27,27h-4v-2h4V27z M21,27h-4v-2h4V27z M29,51c-2.206,0-4,1.794-4,4s1.794,4,4,4s4-1.794,4-4S31.206,51,29,51z M30,56.722V55  h-2v1.722c-0.595-0.347-1-0.985-1-1.722c0-1.103,0.897-2,2-2s2,0.897,2,2C31,55.737,30.595,56.375,30,56.722z"/>
</svg>
