<?xml version="1.0" encoding="iso-8859-1"?>
<!-- Generator: Adobe Illustrator 22.1.0, SVG Export Plug-In . SVG Version: 6.00 Build 0)  -->
<svg xmlns="http://www.w3.org/2000/svg" xmlns:xlink="http://www.w3.org/1999/xlink" version="1.1" id="Layer_1_1_" x="0px" y="0px" viewBox="0 0 64 64" style="enable-background:new 0 0 64 64;" xml:space="preserve" width="512" height="512">
<g>
	<rect x="51" y="55" width="8" height="6"/>
	<rect x="49" y="49" width="12" height="4"/>
	<path d="M56,37V19c0-2.206-1.794-4-4-4s-4,1.794-4,4v10c0,1.103-0.897,2-2,2s-2-0.897-2-2V7c0-2.206-1.794-4-4-4H22   c-2.206,0-4,1.794-4,4v2.184c-1.161,0.414-2,1.514-2,2.816v5h6v-5c0-1.302-0.839-2.402-2-2.816V7c0-1.103,0.897-2,2-2h18   c1.103,0,2,0.897,2,2v22c0,2.206,1.794,4,4,4s4-1.794,4-4V19c0-1.103,0.897-2,2-2s2,0.897,2,2v18c-2.757,0-5,2.243-5,5v5h12v-5   C61,39.243,58.757,37,56,37z"/>
	<rect x="11" y="55" width="2" height="2"/>
	<rect x="7" y="55" width="2" height="2"/>
	<path d="M6,35c-1.13,0-2.162-0.391-3-1.026V58c0,1.654,1.346,3,3,3h26c1.654,0,3-1.346,3-3V31H10.899C10.435,33.279,8.415,35,6,35z    M29,51c2.206,0,4,1.794,4,4s-1.794,4-4,4s-4-1.794-4-4S26.794,51,29,51z M21,59H5v-6h16V59z"/>
	<path d="M28,56.722V55h2v1.722c0.595-0.347,1-0.985,1-1.722c0-1.103-0.897-2-2-2s-2,0.897-2,2C27,55.737,27.405,56.375,28,56.722z"/>
	<rect x="15" y="55" width="4" height="2"/>
	<path d="M3,26v4c0,1.654,1.346,3,3,3s3-1.346,3-3v-1h26v-6H3V26z M29,25h4v2h-4V25z M23,25h4v2h-4V25z M17,25h4v2h-4V25z M6,29   c0.552,0,1,0.448,1,1c0,0.552-0.448,1-1,1s-1-0.448-1-1C5,29.448,5.448,29,6,29z"/>
	<path d="M32,15h-8v4H14v-4H6c-1.654,0-3,1.346-3,3v3h32v-3C35,16.346,33.654,15,32,15z M7,19H5v-2h2V19z M11,19H9v-2h2V19z"/>
</g>
</svg>
