<?xml version="1.0" encoding="iso-8859-1"?>
<!-- Generator: Adobe Illustrator 22.1.0, SVG Export Plug-In . SVG Version: 6.00 Build 0)  -->
<svg xmlns="http://www.w3.org/2000/svg" xmlns:xlink="http://www.w3.org/1999/xlink" version="1.1" id="Layer_1_1_" x="0px" y="0px" viewBox="0 0 64 64" style="enable-background:new 0 0 64 64;" xml:space="preserve" width="512" height="512">
<g>
	<rect x="52" y="49" style="fill:#F0BC5E;" width="10" height="5"/>
	<path style="fill:#F0BC5E;" d="M36,30H10v0c0,2.209-1.791,4-4,4h0c-2.209,0-4-1.791-4-4v-4v-5h34V30z"/>
	<rect x="6" y="54" style="fill:#F0BC5E;" width="8" height="4"/>
	<g>
		<path d="M63,44c0-2.757-2.243-5-5-5V19c0-2.206-1.794-4-4-4s-4,1.794-4,4v10c0,1.103-0.897,2-2,2s-2-0.897-2-2V5    c0-2.206-1.794-4-4-4H22c-2.206,0-4,1.794-4,4v2.101C15.721,7.566,14,9.586,14,12v1H6c-2.757,0-5,2.243-5,5v8v4v28    c0,2.757,2.243,5,5,5h26c2.757,0,5-2.243,5-5V18c0-2.757-2.243-5-5-5h-8v-1c0-2.414-1.721-4.434-4-4.899V5c0-1.103,0.897-2,2-2h20    c1.103,0,2,0.897,2,2v24c0,2.206,1.794,4,4,4s4-1.794,4-4V19c0-1.103,0.897-2,2-2s2,0.897,2,2v20c-2.757,0-5,2.243-5,5v11h2v8h8    v-8h2V44z M32,61H6c-1.654,0-3-1.346-3-3V33.974C3.838,34.609,4.87,35,6,35c2.415,0,4.435-1.721,4.899-4H35v27    C35,59.654,33.654,61,32,61z M24,19v-4h8c1.654,0,3,1.346,3,3v11H9v1c0,1.654-1.346,3-3,3s-3-1.346-3-3v-4v-8c0-1.654,1.346-3,3-3    h8v4H24z M22,12v5h-6v-5c0-1.654,1.346-3,3-3S22,10.346,22,12z M59,61h-4v-6h4V61z M61,53h-8v-9c0-1.654,1.346-3,3-3h2    c1.654,0,3,1.346,3,3V53z"/>
		<path d="M5,59h16v-6H5V59z M19,57h-4v-2h4V57z M7,55h6v2H7V55z"/>
		<rect x="5" y="17" width="2" height="2"/>
		<rect x="9" y="17" width="2" height="2"/>
		<circle cx="6" cy="30" r="1"/>
		<rect x="29" y="25" width="4" height="2"/>
		<rect x="23" y="25" width="4" height="2"/>
		<rect x="17" y="25" width="4" height="2"/>
		<path d="M29,51c-2.206,0-4,1.794-4,4s1.794,4,4,4s4-1.794,4-4S31.206,51,29,51z M30,56.722V55h-2v1.722    c-0.595-0.347-1-0.985-1-1.722c0-1.103,0.897-2,2-2s2,0.897,2,2C31,55.737,30.595,56.375,30,56.722z"/>
	</g>
</g>
</svg>
