<?xml version="1.0" encoding="iso-8859-1"?>
<!-- Generator: Adobe Illustrator 22.1.0, SVG Export Plug-In . SVG Version: 6.00 Build 0)  -->
<svg xmlns="http://www.w3.org/2000/svg" xmlns:xlink="http://www.w3.org/1999/xlink" version="1.1" id="Layer_1_1_" x="0px" y="0px" viewBox="0 0 64 64" style="enable-background:new 0 0 64 64;" xml:space="preserve" width="512" height="512">
<g>
	<path d="M18.519,41.899c0,0.427,0.166,0.827,0.468,1.129l2.321,2.321c0.438,0.438,1.148,0.438,1.586,0   c0.211-0.212,0.328-0.493,0.328-0.793c0-2.99,1.04-5.82,2.948-8.077c-2.72,0.824-5.186,2.295-7.183,4.291   C18.685,41.072,18.519,41.473,18.519,41.899z"/>
	<path d="M35,16.597C35,15.716,34.284,15,33.403,15h-3.282C29.503,15,29,15.503,29,16.121c0,0.3,0.117,0.581,0.328,0.793   c2.114,2.114,3.38,4.851,3.627,7.796C34.296,22.204,35,19.42,35,16.597z"/>
	<path d="M29,47.403C29,48.284,29.716,49,30.597,49h3.282C34.497,49,35,48.497,35,47.879c0-0.295-0.12-0.584-0.328-0.793   c-2.114-2.114-3.38-4.851-3.627-7.797C29.704,41.796,29,44.58,29,47.403z"/>
	<path d="M23.229,18.987c-0.302-0.302-0.703-0.468-1.129-0.468c-0.427,0-0.828,0.166-1.129,0.468l-2.32,2.321   c-0.212,0.212-0.329,0.493-0.329,0.793c0,0.299,0.117,0.581,0.329,0.793c0.212,0.211,0.493,0.328,0.793,0.328   c2.99,0,5.82,1.04,8.078,2.948C26.697,23.45,25.226,20.984,23.229,18.987z"/>
	<path d="M15,30.597v3.282C15,34.497,15.503,35,16.121,35c0.3,0,0.581-0.116,0.793-0.328c2.114-2.114,4.851-3.38,7.796-3.627   C22.205,29.704,19.42,29,16.597,29C15.716,29,15,29.716,15,30.597z"/>
	<path d="M4,11c-0.551,0-1,0.449-1,1v8.586L12.586,11H4z M6,15c-0.552,0-1-0.448-1-1c0-0.552,0.448-1,1-1s1,0.448,1,1   C7,14.552,6.552,15,6,15z"/>
	<path d="M9,32c0-9.349,5.61-17.407,13.637-21h-7.223L3,23.414v17.172L15.414,53h7.223C14.61,49.407,9,41.349,9,32z"/>
	<path d="M45.481,22.101c0-0.427-0.166-0.828-0.468-1.129l-2.321-2.32c-0.212-0.212-0.493-0.329-0.793-0.329   c-0.299,0-0.581,0.117-0.793,0.329c-0.212,0.211-0.328,0.493-0.328,0.793c0,2.99-1.04,5.82-2.948,8.077   c2.72-0.825,5.187-2.295,7.183-4.292C45.315,22.928,45.481,22.527,45.481,22.101z"/>
	<circle cx="32" cy="32" r="1"/>
	<path d="M49,33.403v-3.282C49,29.503,48.497,29,47.879,29c-0.3,0-0.581,0.117-0.793,0.328c-2.114,2.115-4.851,3.381-7.797,3.627   C41.795,34.296,44.58,35,47.403,35C48.284,35,49,34.284,49,33.403z"/>
	<path d="M3,52c0,0.552,0.449,1,1,1h8.586L3,43.414V52z M6,49c0.552,0,1,0.448,1,1c0,0.552-0.448,1-1,1s-1-0.448-1-1   C5,49.448,5.448,49,6,49z"/>
	<path d="M41.363,11C49.39,14.593,55,22.651,55,32c0,9.349-5.61,17.407-13.637,21h7.223L61,40.586V23.414L48.586,11H41.363z"/>
	<path d="M53,32c0-11.58-9.42-21-21-21s-21,9.42-21,21c0,11.579,9.42,21,21,21S53,43.579,53,32z M44.443,46.427   c-0.679,0.68-1.583,1.054-2.543,1.054s-1.864-0.374-2.543-1.054c-2.208-2.208-3.838-4.931-4.762-7.931   c-0.495,0.198-1.017,0.338-1.56,0.419c0.165,2.552,1.227,4.932,3.052,6.757C36.667,46.253,37,47.057,37,47.879   C37,49.6,35.6,51,33.879,51h-3.282C28.613,51,27,49.387,27,47.403c0-3.122,0.772-6.199,2.239-8.973   c-0.499-0.215-0.965-0.492-1.396-0.812c-1.69,1.922-2.621,4.356-2.621,6.938c0,0.833-0.324,1.617-0.914,2.207   c-0.609,0.608-1.409,0.912-2.208,0.912s-1.598-0.304-2.207-0.912l-2.321-2.321c-0.679-0.679-1.054-1.582-1.054-2.543   s0.375-1.864,1.054-2.543c2.208-2.208,4.931-3.838,7.931-4.763c-0.198-0.495-0.338-1.018-0.419-1.56   c-2.553,0.165-4.932,1.227-6.757,3.052C17.739,36.676,16.955,37,16.121,37C14.4,37,13,35.6,13,33.879v-3.282   C13,28.613,14.613,27,16.597,27c3.123,0,6.199,0.772,8.973,2.239c0.215-0.499,0.491-0.965,0.811-1.396   c-1.922-1.689-4.356-2.621-6.937-2.621c-0.834,0-1.618-0.325-2.207-0.914c-0.59-0.589-0.915-1.374-0.915-2.207   c0-0.834,0.325-1.618,0.915-2.208l2.32-2.32c1.358-1.359,3.729-1.358,5.086,0c2.209,2.209,3.839,4.931,4.763,7.931   c0.495-0.198,1.017-0.338,1.56-0.419c-0.165-2.553-1.227-4.931-3.052-6.757C27.325,17.739,27,16.955,27,16.121   C27,14.4,28.4,13,30.121,13h3.282C35.387,13,37,14.613,37,16.597c0,3.122-0.772,6.199-2.239,8.973   c0.499,0.215,0.965,0.491,1.396,0.811c1.689-1.922,2.621-4.356,2.621-6.937c0-0.834,0.325-1.619,0.915-2.208   c1.179-1.179,3.235-1.178,4.414,0l2.32,2.32c0.68,0.679,1.054,1.583,1.054,2.543s-0.375,1.864-1.054,2.543   c-2.208,2.208-4.931,3.838-7.931,4.763c0.198,0.495,0.338,1.017,0.419,1.56c2.553-0.165,4.931-1.227,6.757-3.052   C46.261,27.325,47.045,27,47.879,27C49.6,27,51,28.4,51,30.121v3.282C51,35.387,49.387,37,47.403,37   c-3.122,0-6.199-0.772-8.973-2.239c-0.215,0.499-0.491,0.964-0.811,1.396c1.922,1.689,4.356,2.621,6.937,2.621   c0.834,0,1.618,0.324,2.207,0.914c0.59,0.589,0.915,1.373,0.915,2.207s-0.325,1.618-0.915,2.207L44.443,46.427z"/>
	<path d="M60,53c0.551,0,1-0.448,1-1v-8.586L51.414,53H60z M58,49c0.552,0,1,0.448,1,1c0,0.552-0.448,1-1,1s-1-0.448-1-1   C57,49.448,57.448,49,58,49z"/>
	<path d="M60,11h-8.586L61,20.586V12C61,11.449,60.551,11,60,11z M58,15c-0.552,0-1-0.448-1-1c0-0.552,0.448-1,1-1s1,0.448,1,1   C59,14.552,58.552,15,58,15z"/>
	<path d="M32,27c-2.757,0-5,2.243-5,5s2.243,5,5,5s5-2.243,5-5S34.757,27,32,27z M32,35c-1.654,0-3-1.346-3-3s1.346-3,3-3   s3,1.346,3,3S33.654,35,32,35z"/>
	<path d="M44.556,40.778c-2.989,0-5.819-1.04-8.078-2.948c0.825,2.72,2.296,5.187,4.292,7.183c0.604,0.604,1.655,0.604,2.258,0   l2.321-2.32c0.212-0.212,0.329-0.493,0.329-0.793s-0.117-0.581-0.329-0.793S44.856,40.778,44.556,40.778z"/>
</g>
</svg>
