<?xml version="1.0" encoding="iso-8859-1"?>
<!-- Generator: Adobe Illustrator 22.1.0, SVG Export Plug-In . SVG Version: 6.00 Build 0)  -->
<svg xmlns="http://www.w3.org/2000/svg" xmlns:xlink="http://www.w3.org/1999/xlink" version="1.1" id="Layer_1_1_" x="0px" y="0px" viewBox="0 0 64 64" style="enable-background:new 0 0 64 64;" xml:space="preserve" width="512" height="512">
<g>
	<g>
		<path style="fill:#F0BC5E;" d="M37.282,29.74l-0.311-1.298l-0.022,0.022l-1.414-1.414l0.157-0.157    c1.99-1.99,3.086-4.636,3.086-7.45c0-0.832,0.324-1.616,0.913-2.206c1.18-1.182,3.237-1.181,4.415-0.001l2.32,2.321    c0.68,0.679,1.054,1.582,1.054,2.543s-0.374,1.864-1.054,2.543C43.924,27.146,40.762,28.909,37.282,29.74z"/>
	</g>
	<g>
		<path style="fill:#F0BC5E;" d="M47.403,37c-3.539,0-7.021-0.989-10.068-2.86l0.7-1.14H38v-2h0.222c2.814,0,5.46-1.096,7.45-3.086    C46.253,27.333,47.057,27,47.879,27C49.6,27,51,28.4,51,30.121v3.282C51,35.387,49.387,37,47.403,37z"/>
	</g>
	<g>
		<path style="fill:#F0BC5E;" d="M41.899,47.48c-0.961,0-1.864-0.374-2.543-1.054c-2.503-2.503-4.266-5.665-5.097-9.145l1.298-0.311    l-0.022-0.022l1.414-1.414l0.157,0.157c1.99,1.99,4.636,3.086,7.45,3.086c0.832,0,1.616,0.324,2.206,0.913    c0.591,0.59,0.915,1.374,0.915,2.208s-0.324,1.618-0.914,2.207l-2.321,2.32C43.764,47.106,42.86,47.48,41.899,47.48z"/>
	</g>
	<g>
		<path style="fill:#F0BC5E;" d="M33.879,51h-3.282C28.613,51,27,49.387,27,47.403c0-3.539,0.989-7.021,2.86-10.068l1.14,0.7V38h2    v0.222c0,2.814,1.096,5.46,3.086,7.45C36.667,46.253,37,47.057,37,47.879C37,49.6,35.6,51,33.879,51z"/>
	</g>
	<g>
		<path style="fill:#F0BC5E;" d="M22.101,47.678c-0.834,0-1.618-0.324-2.207-0.914l-2.32-2.321c-0.68-0.679-1.054-1.582-1.054-2.543    s0.374-1.864,1.054-2.543c2.503-2.503,5.665-4.266,9.145-5.097l0.311,1.298l0.022-0.022l1.414,1.414l-0.157,0.157    c-1.99,1.99-3.086,4.636-3.086,7.45c0,0.832-0.324,1.616-0.913,2.206C23.719,47.354,22.935,47.678,22.101,47.678z"/>
	</g>
	<g>
		<path style="fill:#F0BC5E;" d="M16.121,37C14.4,37,13,35.6,13,33.879v-3.282C13,28.613,14.613,27,16.597,27    c3.539,0,7.021,0.989,10.068,2.86l-0.7,1.14H26v2h-0.222c-2.814,0-5.46,1.096-7.45,3.086C17.747,36.667,16.943,37,16.121,37z"/>
	</g>
	<g>
		<path style="fill:#F0BC5E;" d="M27.051,28.465l-0.157-0.157c-1.99-1.99-4.636-3.086-7.45-3.086c-0.832,0-1.616-0.324-2.206-0.913    c-0.591-0.59-0.915-1.374-0.915-2.208s0.324-1.618,0.914-2.207l2.321-2.32c1.357-1.359,3.729-1.359,5.086,0    c2.503,2.503,4.266,5.665,5.097,9.145l-1.298,0.311l0.022,0.022L27.051,28.465z"/>
	</g>
	<g>
		<path style="fill:#F0BC5E;" d="M34.14,26.665l-1.14-0.7V26h-2v-0.222c0-2.814-1.096-5.46-3.086-7.45    C27.333,17.747,27,16.943,27,16.121C27,14.4,28.4,13,30.121,13h3.282C35.387,13,37,14.613,37,16.597    C37,20.136,36.011,23.617,34.14,26.665z"/>
	</g>
	<g>
		<path d="M32,39c3.86,0,7-3.141,7-7c0-3.86-3.14-7-7-7s-7,3.14-7,7C25,35.859,28.14,39,32,39z M32,27c2.757,0,5,2.243,5,5    s-2.243,5-5,5s-5-2.243-5-5S29.243,27,32,27z"/>
		<path d="M60,9H4c-1.654,0-3,1.346-3,3v40c0,1.654,1.346,3,3,3h56c1.654,0,3-1.346,3-3V12C63,10.346,61.654,9,60,9z M61,12v8.586    L51.414,11H60C60.551,11,61,11.449,61,12z M4,11h8.586L3,20.586V12C3,11.449,3.449,11,4,11z M3,52v-8.586L12.586,53H4    C3.449,53,3,52.552,3,52z M15.414,53L3,40.586V23.414L15.414,11h7.223C14.61,14.593,9,22.651,9,32c0,9.349,5.61,17.407,13.637,21    H15.414z M32,11c11.58,0,21,9.42,21,21c0,11.579-9.42,21-21,21s-21-9.421-21-21C11,20.42,20.42,11,32,11z M55,32    c0-9.349-5.61-17.407-13.637-21h7.223L61,23.414v17.172L48.586,53h-7.223C49.39,49.407,55,41.349,55,32z M60,53h-8.586L61,43.414    V52C61,52.552,60.551,53,60,53z"/>
		<circle cx="58" cy="14" r="1"/>
		<circle cx="6" cy="14" r="1"/>
		<circle cx="6" cy="50" r="1"/>
		<circle cx="58" cy="50" r="1"/>
		<path d="M32,35c1.654,0,3-1.346,3-3s-1.346-3-3-3s-3,1.346-3,3S30.346,35,32,35z M32,31c0.551,0,1,0.449,1,1s-0.449,1-1,1    s-1-0.449-1-1S31.449,31,32,31z"/>
	</g>
</g>
</svg>
