<?xml version="1.0" encoding="iso-8859-1"?>
<!-- Generator: Adobe Illustrator 22.1.0, SVG Export Plug-In . SVG Version: 6.00 Build 0)  -->
<svg xmlns="http://www.w3.org/2000/svg" xmlns:xlink="http://www.w3.org/1999/xlink" version="1.1" id="Layer_1_1_" x="0px" y="0px" viewBox="0 0 64 64" style="enable-background:new 0 0 64 64;" xml:space="preserve" width="512" height="512">
<g>
	<path d="M60,9H4c-1.654,0-3,1.346-3,3v40c0,1.654,1.346,3,3,3h56c1.654,0,3-1.346,3-3V12C63,10.346,61.654,9,60,9z M61,12v8.586   L51.414,11H60C60.551,11,61,11.449,61,12z M4,11h8.586L3,20.586V12C3,11.449,3.449,11,4,11z M3,52v-8.586L12.586,53H4   C3.449,53,3,52.552,3,52z M15.414,53L3,40.586V23.414L15.414,11h7.223C14.61,14.593,9,22.651,9,32c0,9.349,5.61,17.407,13.637,21   H15.414z M32,11c11.58,0,21,9.42,21,21c0,11.579-9.42,21-21,21s-21-9.421-21-21C11,20.42,20.42,11,32,11z M55,32   c0-9.349-5.61-17.407-13.637-21h7.223L61,23.414v17.172L48.586,53h-7.223C49.39,49.407,55,41.349,55,32z M60,53h-8.586L61,43.414   V52C61,52.552,60.551,53,60,53z"/>
	<circle cx="58" cy="14" r="1"/>
	<circle cx="6" cy="14" r="1"/>
	<circle cx="6" cy="50" r="1"/>
	<circle cx="58" cy="50" r="1"/>
	<path d="M29,32c0,1.654,1.346,3,3,3s3-1.346,3-3s-1.346-3-3-3S29,30.346,29,32z M33,32c0,0.551-0.449,1-1,1s-1-0.449-1-1   s0.449-1,1-1S33,31.449,33,32z"/>
	<path d="M16.121,37c0.834,0,1.618-0.324,2.207-0.914c1.825-1.825,4.204-2.887,6.757-3.052c0.081,0.543,0.221,1.065,0.419,1.56   c-3,0.924-5.723,2.554-7.931,4.763c-0.679,0.679-1.054,1.582-1.054,2.543s0.375,1.864,1.054,2.543l2.321,2.321   c0.608,0.608,1.407,0.912,2.207,0.912s1.599-0.304,2.208-0.912c0.589-0.59,0.914-1.374,0.914-2.207   c0-2.582,0.932-5.016,2.621-6.938c0.431,0.32,0.897,0.596,1.396,0.812C27.772,41.205,27,44.281,27,47.403   C27,49.387,28.613,51,30.597,51h3.282C35.6,51,37,49.6,37,47.879c0-0.822-0.333-1.626-0.914-2.207   c-1.825-1.825-2.887-4.205-3.052-6.757c0.542-0.081,1.065-0.221,1.56-0.419c0.925,3,2.554,5.722,4.762,7.931   c0.679,0.68,1.583,1.054,2.543,1.054s1.864-0.374,2.543-1.054l2.32-2.32c0.59-0.589,0.915-1.373,0.915-2.207   s-0.325-1.618-0.915-2.207c-0.589-0.59-1.373-0.914-2.207-0.914c-2.582,0-5.015-0.932-6.937-2.621   c0.32-0.431,0.596-0.897,0.811-1.396C41.204,36.228,44.281,37,47.403,37C49.387,37,51,35.387,51,33.403v-3.282   C51,28.4,49.6,27,47.879,27c-0.834,0-1.618,0.325-2.207,0.914c-1.825,1.825-4.204,2.887-6.757,3.052   c-0.081-0.543-0.221-1.065-0.419-1.56c3-0.925,5.723-2.554,7.931-4.763c0.679-0.679,1.054-1.582,1.054-2.543   s-0.374-1.864-1.054-2.543l-2.32-2.32c-1.179-1.179-3.235-1.179-4.414,0c-0.59,0.589-0.915,1.373-0.915,2.208   c0,2.582-0.932,5.015-2.621,6.937c-0.431-0.32-0.897-0.596-1.396-0.811C36.228,22.795,37,19.719,37,16.597   C37,14.613,35.387,13,33.403,13h-3.282C28.4,13,27,14.4,27,16.121c0,0.834,0.325,1.618,0.914,2.207   c1.825,1.825,2.887,4.204,3.052,6.757c-0.542,0.081-1.065,0.221-1.56,0.419c-0.924-3-2.554-5.722-4.763-7.931   c-1.357-1.358-3.728-1.359-5.086,0l-2.32,2.32c-0.59,0.59-0.915,1.374-0.915,2.208c0,0.833,0.325,1.618,0.915,2.207   c0.589,0.589,1.373,0.914,2.207,0.914c2.582,0,5.015,0.932,6.937,2.621c-0.32,0.431-0.596,0.897-0.811,1.396   C22.796,27.772,19.719,27,16.597,27C14.613,27,13,28.613,13,30.597v3.282C13,35.6,14.4,37,16.121,37z M23.222,44.557   c0,0.3-0.117,0.581-0.328,0.793c-0.438,0.438-1.148,0.438-1.586,0l-2.321-2.321c-0.302-0.302-0.468-0.702-0.468-1.129   s0.166-0.827,0.468-1.129c1.997-1.996,4.463-3.467,7.183-4.291C24.261,38.736,23.222,41.566,23.222,44.557z M35,47.879   C35,48.497,34.497,49,33.879,49h-3.282C29.716,49,29,48.284,29,47.403c0-2.823,0.704-5.607,2.044-8.114   c0.247,2.946,1.513,5.683,3.627,7.797C34.88,47.295,35,47.584,35,47.879z M45.349,41.106c0.212,0.212,0.329,0.493,0.329,0.793   s-0.117,0.581-0.329,0.793l-2.321,2.32c-0.603,0.604-1.654,0.604-2.258,0c-1.996-1.996-3.467-4.463-4.292-7.183   c2.258,1.908,5.088,2.948,8.078,2.948C44.856,40.778,45.137,40.895,45.349,41.106z M47.086,29.328   C47.298,29.117,47.579,29,47.879,29C48.497,29,49,29.503,49,30.121v3.282C49,34.284,48.284,35,47.403,35   c-2.824,0-5.608-0.704-8.114-2.044C42.235,32.709,44.972,31.443,47.086,29.328z M40.778,19.444c0-0.3,0.116-0.582,0.328-0.793   c0.212-0.212,0.494-0.329,0.793-0.329c0.3,0,0.581,0.117,0.793,0.329l2.321,2.32c0.302,0.302,0.468,0.703,0.468,1.129   c0,0.426-0.166,0.827-0.468,1.129c-1.997,1.996-4.463,3.467-7.183,4.292C39.738,25.264,40.778,22.434,40.778,19.444z M37,32   c0,2.757-2.243,5-5,5s-5-2.243-5-5s2.243-5,5-5S37,29.243,37,32z M29,16.121C29,15.503,29.503,15,30.121,15h3.282   C34.284,15,35,15.716,35,16.597c0,2.823-0.704,5.607-2.044,8.114c-0.247-2.946-1.513-5.682-3.627-7.796   C29.117,16.702,29,16.421,29,16.121z M18.651,22.894c-0.212-0.212-0.329-0.494-0.329-0.793c0-0.3,0.117-0.581,0.329-0.793   l2.32-2.321c0.302-0.302,0.703-0.468,1.129-0.468c0.426,0,0.827,0.166,1.129,0.468c1.997,1.997,3.468,4.463,4.292,7.183   c-2.258-1.909-5.088-2.948-8.078-2.948C19.144,23.222,18.863,23.105,18.651,22.894z M15,30.597C15,29.716,15.716,29,16.597,29   c2.824,0,5.608,0.704,8.114,2.044c-2.946,0.247-5.683,1.513-7.796,3.627C16.702,34.884,16.421,35,16.121,35   C15.503,35,15,34.497,15,33.879V30.597z"/>
</g>
</svg>
