<?xml version="1.0" encoding="iso-8859-1"?>
<!-- Generator: Adobe Illustrator 22.1.0, SVG Export Plug-In . SVG Version: 6.00 Build 0)  -->
<svg xmlns="http://www.w3.org/2000/svg" xmlns:xlink="http://www.w3.org/1999/xlink" version="1.1" id="Layer_1_1_" x="0px" y="0px" viewBox="0 0 64 64" style="enable-background:new 0 0 64 64;" xml:space="preserve" width="512" height="512">
<linearGradient id="SVGID_1_" gradientUnits="userSpaceOnUse" x1="32" y1="63" x2="32" y2="1">
	<stop offset="0" style="stop-color:#9F2FFF"/>
	<stop offset="1" style="stop-color:#0BB1D3"/>
</linearGradient>
<path style="fill:url(#SVGID_1_);" d="M9,57h2v2H9V57z M13,59h2v-2h-2V59z M17,59h2v-2h-2V59z M47,59h8v-2h-8V59z M45,1h18v26h-4v26  h2v5c0,2.757-2.243,5-5,5H8c-2.757,0-5-2.243-5-5v-5h2V27H1V1h18v18h4V1h18v18h4V1z M41,21v2h4v-2H41z M25,25h14V3H25V25z M19,21v2  h4v-2H19z M3,25h14V3H3V25z M7,53h2V27H7V53z M59,55h-6V27h-8v-2h-4v2H23v-2h-4v2h-8v26h15.618l0.276,0.553  C27.341,54.445,28.238,55,29.236,55h5.527c0.998,0,1.896-0.555,2.342-1.447L37.382,53H51v2H38.569c-0.854,1.247-2.262,2-3.806,2  h-5.527c-1.544,0-2.951-0.753-3.806-2H5v3c0,1.654,1.346,3,3,3h48c1.654,0,3-1.346,3-3V55z M57,27h-2v26h2V27z M47,25h14V3H47V25z   M5,7h10V5H5V7z M5,11h10V9H5V11z M5,15h10v-2H5V15z M5,19h10v-2H5V19z M5,23h10v-2H5V23z M27,7h10V5H27V7z M27,11h10V9H27V11z   M27,15h10v-2H27V15z M27,19h10v-2H27V19z M27,23h10v-2H27V23z M49,7h10V5H49V7z M49,11h10V9H49V11z M49,15h10v-2H49V15z M49,19h10  v-2H49V19z M49,23h10v-2H49V23z M15,29h-2v2h2V29z M17,31h16v-2H17V31z M15,33h-2v2h2V33z M17,35h16v-2H17V35z M15,37h-2v2h2V37z   M17,39h16v-2H17V39z M13,41h20v10H13V41z M15,49h16v-6H15V49z M35,37c0-4.411,3.589-8,8-8s8,3.589,8,8s-3.589,8-8,8  S35,41.411,35,37z M37,37c0,3.309,2.691,6,6,6s6-2.691,6-6s-2.691-6-6-6S37,33.691,37,37z M51,47H35v2h16V47z"/>
</svg>
