<?xml version="1.0" encoding="iso-8859-1"?>
<!-- Generator: Adobe Illustrator 22.1.0, SVG Export Plug-In . SVG Version: 6.00 Build 0)  -->
<svg xmlns="http://www.w3.org/2000/svg" xmlns:xlink="http://www.w3.org/1999/xlink" version="1.1" id="Layer_1_1_" x="0px" y="0px" viewBox="0 0 64 64" style="enable-background:new 0 0 64 64;" xml:space="preserve" width="512" height="512">
<g>
	<rect x="13" y="29" style="fill:#F0BC5E;" width="20" height="10"/>
	<rect x="5" y="6" style="fill:#F0BC5E;" width="10" height="16"/>
	<rect x="27" y="6" style="fill:#F0BC5E;" width="10" height="16"/>
	<rect x="49" y="6" style="fill:#F0BC5E;" width="10" height="16"/>
	<g>
		<path style="fill:#F0BC5E;" d="M43,45c-4.411,0-8-3.589-8-8s3.589-8,8-8s8,3.589,8,8S47.411,45,43,45z"/>
	</g>
	<g>
		<rect x="9" y="57" width="2" height="2"/>
		<rect x="13" y="57" width="2" height="2"/>
		<rect x="17" y="57" width="2" height="2"/>
		<rect x="47" y="57" width="8" height="2"/>
		<path d="M63,27V1H45v18h-4V1H23v18h-4V1H1v26h4v26H3v5c0,2.757,2.243,5,5,5h48c2.757,0,5-2.243,5-5v-5h-2V27H63z M47,3h14v22H47V3    z M45,21v2h-4v-2H45z M25,3h14v22H25V3z M23,21v2h-4v-2H23z M3,3h14v22H3V3z M7,27h2v26H7V27z M59,58c0,1.654-1.346,3-3,3H8    c-1.654,0-3-1.346-3-3v-3h20.431c0.854,1.247,2.262,2,3.806,2h5.527c1.544,0,2.951-0.753,3.806-2H51v-2H37.382l-0.276,0.553    C36.659,54.445,35.762,55,34.764,55h-5.527c-0.998,0-1.896-0.555-2.342-1.447L26.618,53H11V27h8v-2h4v2h18v-2h4v2h8v28h6V58z     M57,53h-2V27h2V53z"/>
		<rect x="5" y="5" width="10" height="2"/>
		<rect x="5" y="9" width="10" height="2"/>
		<rect x="5" y="13" width="10" height="2"/>
		<rect x="5" y="17" width="10" height="2"/>
		<rect x="5" y="21" width="10" height="2"/>
		<rect x="27" y="5" width="10" height="2"/>
		<rect x="27" y="9" width="10" height="2"/>
		<rect x="27" y="13" width="10" height="2"/>
		<rect x="27" y="17" width="10" height="2"/>
		<rect x="27" y="21" width="10" height="2"/>
		<rect x="49" y="5" width="10" height="2"/>
		<rect x="49" y="9" width="10" height="2"/>
		<rect x="49" y="13" width="10" height="2"/>
		<rect x="49" y="17" width="10" height="2"/>
		<rect x="49" y="21" width="10" height="2"/>
		<rect x="13" y="29" width="2" height="2"/>
		<rect x="17" y="29" width="16" height="2"/>
		<rect x="13" y="33" width="2" height="2"/>
		<rect x="17" y="33" width="16" height="2"/>
		<rect x="13" y="37" width="2" height="2"/>
		<rect x="17" y="37" width="16" height="2"/>
		<path d="M13,51h20V41H13V51z M15,43h16v6H15V43z"/>
		<rect x="35" y="47" width="16" height="2"/>
	</g>
</g>
</svg>
