<?xml version="1.0" encoding="iso-8859-1"?>
<!-- Generator: Adobe Illustrator 22.1.0, SVG Export Plug-In . SVG Version: 6.00 Build 0)  -->
<svg xmlns="http://www.w3.org/2000/svg" xmlns:xlink="http://www.w3.org/1999/xlink" version="1.1" id="Layer_1_1_" x="0px" y="0px" viewBox="0 0 64 64" style="enable-background:new 0 0 64 64;" xml:space="preserve" width="512" height="512">
<g>
	<path d="M47,3v22h14V3H47z M59,23H49v-2h10V23z M59,19H49v-2h10V19z M59,15H49v-2h10V15z M59,11H49V9h10V11z M59,7H49V5h10V7z"/>
	<path d="M11,53h15.618l0.276,0.553C27.341,54.445,28.238,55,29.236,55h5.527c0.998,0,1.896-0.555,2.342-1.447L37.382,53H53V27h-8   v-2h-4v2H23v-2h-4v2h-8V53z M43,29c4.411,0,8,3.589,8,8s-3.589,8-8,8s-8-3.589-8-8S38.589,29,43,29z M35,47h16v2H35V47z M17,29h16   v2H17V29z M17,33h16v2H17V33z M17,37h16v2H17V37z M13,29h2v2h-2V29z M13,33h2v2h-2V33z M13,37h2v2h-2V37z M13,41h20v10H13V41z"/>
	<rect x="7" y="27" width="2" height="26"/>
	<rect x="55" y="27" width="2" height="26"/>
	<path d="M17,3H3v22h14V3z M15,23H5v-2h10V23z M15,19H5v-2h10V19z M15,15H5v-2h10V15z M15,11H5V9h10V11z M15,7H5V5h10V7z"/>
	<path d="M34.764,57h-5.527c-1.544,0-2.951-0.753-3.806-2H5v3c0,1.654,1.346,3,3,3h48c1.654,0,3-1.346,3-3v-3H38.569   C37.715,56.247,36.308,57,34.764,57z M11,59H9v-2h2V59z M15,59h-2v-2h2V59z M19,59h-2v-2h2V59z M47,57h8v2h-8V57z"/>
	<rect x="41" y="21" width="4" height="2"/>
	<path d="M39,3H25v22h14V3z M37,23H27v-2h10V23z M37,19H27v-2h10V19z M37,15H27v-2h10V15z M37,11H27V9h10V11z M37,7H27V5h10V7z"/>
	<rect x="15" y="43" width="16" height="6"/>
	<rect x="19" y="21" width="4" height="2"/>
	<circle cx="43" cy="37" r="6"/>
</g>
</svg>
