<?xml version="1.0" encoding="iso-8859-1"?>
<!-- Generator: Adobe Illustrator 19.0.0, SVG Export Plug-In . SVG Version: 6.00 Build 0)  -->
<svg version="1.1" id="Layer_1" xmlns="http://www.w3.org/2000/svg" xmlns:xlink="http://www.w3.org/1999/xlink" x="0px" y="0px"
	 viewBox="0 0 512 512" style="enable-background:new 0 0 512 512;" xml:space="preserve">
<rect x="12.09" y="7.885" style="fill:#E5E5E5;" width="487.819" height="496.23"/>
<rect x="12.09" y="7.885" style="fill:#F7D04A;" width="69.388" height="262.834"/>
<rect x="81.478" y="7.885" style="fill:#EF9D3C;" width="69.388" height="185.035"/>
<rect x="81.478" y="192.92" style="fill:#F7D04A;" width="69.388" height="311.195"/>
<rect x="150.867" y="342.209" style="fill:#EF9D3C;" width="69.388" height="161.906"/>
<rect x="150.867" y="91.992" style="fill:#F7D04A;" width="69.388" height="250.218"/>
<rect x="12.09" y="270.719" style="fill:#EF9D3C;" width="69.388" height="233.396"/>
<rect x="220.255" y="270.719" style="fill:#F7D04A;" width="69.388" height="233.396"/>
<path style="fill:#C74B38;" d="M390.571,72.614c-37.97,0.877-69.367,29.871-69.367,139.209c0,48.186,21.006,117.771,21.006,117.771
	h96.723c0,0,21.006-69.585,21.006-117.771C459.938,102.484,428.541,73.49,390.571,72.614z"/>
<path style="fill:#EB6836;" d="M362.149,304.361c-5.959-26.316-15.712-61.533-15.712-92.538c0-58.758,9.553-77.184,17.568-92.496
	c10.556-20.17,22.085-21.329,26.567-21.472c4.482,0.143,16.011,1.303,26.567,21.472c8.014,15.313,17.568,33.739,17.568,92.496
	c0,31.006-9.753,66.221-15.712,92.538H362.149z"/>
<path style="fill:#C74B38;" d="M393.725,455.754h-6.308c-26.129,0-47.31-21.181-47.31-47.31v-49.413h100.928v49.413
	C441.035,434.572,419.854,455.754,393.725,455.754z"/>
<path style="fill:#EB6836;" d="M387.417,430.522c-12.173,0-22.078-9.904-22.078-22.078v-24.181h50.464v24.181
	c0,12.174-9.905,22.078-22.078,22.078H387.417z"/>
<path d="M499.91,422.637c-4.356,0-7.885,3.53-7.885,7.885v65.708H297.528V270.719c0-4.355-3.529-7.885-7.885-7.885H228.14V91.992
	c0-4.355-3.529-7.885-7.885-7.885h-61.503V15.77h135.097c4.356,0,7.885-3.53,7.885-7.885S298.204,0,293.848,0H12.09
	C7.735,0,4.205,3.53,4.205,7.885v496.23c0,4.355,3.529,7.885,7.885,7.885H499.91c4.356,0,7.885-3.53,7.885-7.885v-73.593
	C507.795,426.167,504.265,422.637,499.91,422.637z M212.37,99.877v234.448h-53.618V99.877H212.37z M142.982,185.035H89.363V15.77
	h53.618V185.035z M19.975,15.77h53.618v247.064H19.975V15.77z M19.975,278.604h53.618V496.23H19.975V278.604z M89.363,200.805
	h53.618V496.23H89.363V200.805z M158.752,350.094h53.618V496.23h-53.618V350.094z M228.14,496.23V278.604h53.618V496.23H228.14z"/>
<path d="M499.91,0H335.901c-4.356,0-7.885,3.53-7.885,7.885s3.529,7.885,7.885,7.885h156.123v372.698
	c0,4.355,3.529,7.885,7.885,7.885s7.885-3.53,7.885-7.885V7.885C507.795,3.53,504.265,0,499.91,0z"/>
<path d="M438.932,337.478h-96.723c-3.478,0-6.545-2.278-7.549-5.607c-0.872-2.887-21.342-71.259-21.342-120.049
	c0-97.78,25.21-145.895,77.07-147.093c0.121-0.003,0.242-0.003,0.364,0c51.86,1.199,77.07,49.313,77.07,147.093
	c0,48.789-20.471,117.162-21.342,120.049C445.477,335.2,442.41,337.478,438.932,337.478z M348.144,321.708h84.853
	c4.868-17.339,19.055-71.211,19.055-109.885c0-49.083-6.501-84.822-19.325-106.226c-9.966-16.634-23.365-24.613-42.157-25.096
	c-18.793,0.484-32.192,8.462-42.157,25.096c-12.823,21.404-19.325,57.144-19.325,106.226
	C329.09,250.528,343.277,304.374,348.144,321.708z"/>
<path d="M393.725,463.639h-6.308c-30.434,0-55.195-24.76-55.195-55.195v-49.413c0-4.355,3.529-7.885,7.885-7.885h100.928
	c4.356,0,7.885,3.53,7.885,7.885v49.413C448.92,438.879,424.159,463.639,393.725,463.639z M347.992,366.916v41.528
	c0,21.74,17.686,39.425,39.425,39.425h6.308c21.74,0,39.425-17.686,39.425-39.425v-41.528H347.992z"/>
<g>
</g>
<g>
</g>
<g>
</g>
<g>
</g>
<g>
</g>
<g>
</g>
<g>
</g>
<g>
</g>
<g>
</g>
<g>
</g>
<g>
</g>
<g>
</g>
<g>
</g>
<g>
</g>
<g>
</g>
</svg>
