<?xml version="1.0" encoding="iso-8859-1"?>
<!-- Generator: Adobe Illustrator 22.1.0, SVG Export Plug-In . SVG Version: 6.00 Build 0)  -->
<svg xmlns="http://www.w3.org/2000/svg" xmlns:xlink="http://www.w3.org/1999/xlink" version="1.1" id="Layer_1_1_" x="0px" y="0px" viewBox="0 0 64 64" style="enable-background:new 0 0 64 64;" xml:space="preserve" width="512" height="512">
<g>
	<path style="fill:#F0BC5E;" d="M59.33,53c0.86,0,1.55,0.08,2.14,0.21c-0.43,1.44-1.09,2.8-1.96,4C57.94,59.4,55.68,61.1,53,62   c-4.13-1.38-7.23-4.66-8.44-8.69c2.04,0.56,2.85,1.69,6.1,1.69C55,55,55,53,59.33,53z"/>
	<path style="fill:#F0BC5E;" d="M20,25c0-0.898-0.595-1.648-1.41-1.901c0.397-0.755,0.287-1.707-0.347-2.341   s-1.586-0.744-2.341-0.347C15.648,19.595,14.898,19,14,19s-1.648,0.595-1.901,1.41c-0.755-0.397-1.707-0.287-2.341,0.347   s-0.744,1.586-0.347,2.341C8.595,23.352,8,24.102,8,25c0,0.898,0.595,1.648,1.41,1.901c-0.397,0.755-0.287,1.707,0.348,2.341   c0.635,0.635,1.586,0.744,2.341,0.347C12.352,30.405,13.102,31,14,31s1.648-0.595,1.901-1.41c0.755,0.397,1.707,0.287,2.341-0.347   c0.635-0.635,0.745-1.586,0.348-2.341C19.405,26.648,20,25.898,20,25z"/>
	<g>
		<rect x="13" y="38" width="2" height="2"/>
		<rect x="9" y="38" width="2" height="2"/>
		<rect x="5" y="38" width="2" height="2"/>
		<path d="M60.748,39.718c-1.124-0.899-2.397-1.587-3.748-2.048V36c0-1.654-1.346-3-3-3c0-1.103,0.897-2,2-2h3c2.206,0,4-1.794,4-4    s-1.794-4-4-4H49c-1.103,0-2-0.897-2-2V11c0-1.103,0.897-2,2-2h7c2.206,0,4-1.794,4-4s-1.794-4-4-4H33c-2.206,0-4,1.794-4,4v0.101    C26.721,5.566,25,7.586,25,10v4H6c-2.757,0-5,2.243-5,5v20c0,2.757,2.243,5,5,5h10v4h-4v2h20v-2h-4v-4h10c2.757,0,5-2.243,5-5V19    c0-2.757-2.243-5-5-5h-3v-4c0-2.414-1.721-4.434-4-4.899V5c0-1.103,0.897-2,2-2h23c1.103,0,2,0.897,2,2s-0.897,2-2,2h-7    c-2.206,0-4,1.794-4,4v10c0,2.206,1.794,4,4,4h10c1.103,0,2,0.897,2,2s-0.897,2-2,2h-3c-2.206,0-4,1.794-4,4c-1.654,0-3,1.346-3,3    v1.67c-1.351,0.461-2.624,1.149-3.748,2.048v0C43.821,40.863,43,42.57,43,44.403v5.11c0,6.105,3.892,11.505,9.684,13.436    L53,63.054l0.316-0.105C59.108,61.018,63,55.619,63,49.513v-5.11C63,42.571,62.179,40.863,60.748,39.718z M32.132,27L30,30.197    L27.868,27H32.132z M33,25h-2V13h2V25z M29,25h-2V13h2V25z M38,42H20v2h6v4h-8v-6H6c-1.654,0-3-1.346-3-3v-3h11.697l3,2H41v1    C41,40.654,39.654,42,38,42z M38,16c1.654,0,3,1.346,3,3v17H18.303l-3-2H3V19c0-1.654,1.346-3,3-3h19v10.303l5,7.5l5-7.5V16H38z     M33,10v1h-6v-1c0-1.654,1.346-3,3-3S33,8.346,33,10z M61,44.403V45h-5c0-1.103-0.897-2-2-2v-3.947    c2,0.195,3.923,0.966,5.499,2.227C60.453,42.043,61,43.182,61,44.403z M54,45l0.001,4H52v-4H54z M51,36c0-0.551,0.449-1,1-1h2    c0.551,0,1,0.449,1,1v1.167C54.341,37.059,53.672,37,53,37s-1.341,0.059-2,0.167V36z M46.501,41.279    C48.077,40.019,50,39.248,52,39.053V43c-1.103,0-2,0.897-2,2h-5v-0.597C45,43.182,45.547,42.043,46.501,41.279z M53,60.941    c-4.799-1.746-8-6.296-8-11.428V47h5v2c0,1.103,0.897,2,2,2h2c1.103,0,2-0.897,2-2v-2h5v2.513C61,54.645,57.799,59.195,53,60.941z    "/>
		<path d="M14,22c-1.654,0-3,1.346-3,3s1.346,3,3,3s3-1.346,3-3S15.654,22,14,22z M14,26c-0.551,0-1-0.449-1-1s0.449-1,1-1    s1,0.449,1,1S14.551,26,14,26z"/>
	</g>
</g>
</svg>
