<?xml version="1.0" encoding="iso-8859-1"?>
<!-- Generator: Adobe Illustrator 22.1.0, SVG Export Plug-In . SVG Version: 6.00 Build 0)  -->
<svg xmlns="http://www.w3.org/2000/svg" xmlns:xlink="http://www.w3.org/1999/xlink" version="1.1" id="Layer_1_1_" x="0px" y="0px" viewBox="0 0 64 64" style="enable-background:new 0 0 64 64;" xml:space="preserve" width="512" height="512">
<g>
	<rect x="51" y="45" width="2.001" height="4"/>
	<path d="M51,39.053c-2,0.195-3.923,0.966-5.499,2.226C44.547,42.043,44,43.182,44,44.403V45h5c0-1.103,0.897-2,2-2V39.053z"/>
	<path d="M55,49c0,1.103-0.897,2-2,2h-2c-1.103,0-2-0.897-2-2v-2h-5v2.513c0,1.032,0.135,2.038,0.381,3.005   c0.508,0.176,0.944,0.377,1.369,0.574C46.805,53.579,47.716,54,49.663,54c1.948,0,2.859-0.421,3.916-0.908   C54.688,52.58,55.945,52,58.332,52c0.495,0,0.951,0.031,1.389,0.081C59.9,51.248,60,50.39,60,49.513V47h-5V49z"/>
	<path d="M53,39.053V43c1.103,0,2,0.897,2,2h5v-0.597c0-1.222-0.547-2.36-1.501-3.124C56.923,40.019,55,39.248,53,39.053z"/>
	<path d="M54.416,54.908C53.307,55.42,52.049,56,49.663,56c-2.065,0-3.283-0.435-4.292-0.884c1.374,2.648,3.702,4.759,6.629,5.825   c3.317-1.207,5.868-3.754,7.129-6.905C58.873,54.017,58.615,54,58.332,54C56.384,54,55.472,54.421,54.416,54.908z"/>
	<path d="M14.697,38H3v3c0,1.654,1.346,3,3,3h11h1h20c1.654,0,3-1.346,3-3v-1H17.697L14.697,38z M7,42H5v-2h2V42z M11,42H9v-2h2V42z    M15,42h-2v-2h2V42z"/>
	<rect x="27" y="15" width="2" height="12"/>
	<polygon points="26,46 18,46 18,48 14,48 14,50 18,50 26,50 30,50 30,48 26,48  "/>
	<rect x="31" y="15" width="2" height="12"/>
	<path d="M33,12c0-1.302-0.839-2.402-2-2.816V7c0-1.103,0.897-2,2-2h23c1.103,0,2,0.897,2,2s-0.897,2-2,2h-7c-2.206,0-4,1.794-4,4v8   c0,2.206,1.794,4,4,4h8c1.103,0,2,0.897,2,2s-0.897,2-2,2h-2c-2.206,0-4,1.794-4,4v2c-0.551,0-1,0.449-1,1v1.167   C50.659,37.059,51.328,37,52,37s1.341,0.059,2,0.167V36c0-0.551-0.449-1-1-1v-2c0-1.103,0.897-2,2-2h2c2.206,0,4-1.794,4-4   s-1.794-4-4-4h-8c-1.103,0-2-0.897-2-2v-8c0-1.103,0.897-2,2-2h7c2.206,0,4-1.794,4-4s-1.794-4-4-4H33c-2.206,0-4,1.794-4,4v2.184   c-1.161,0.414-2,1.514-2,2.816v1h6V12z"/>
	<polygon points="30,32.197 32.132,29 27.868,29  "/>
	<circle cx="14" cy="27" r="1"/>
	<path d="M18.293,26.054l-1.149-0.357l0.561-1.064c0.206-0.392,0.138-0.861-0.169-1.168c-0.308-0.307-0.778-0.377-1.169-0.169   l-1.064,0.559l-0.356-1.148C14.815,22.284,14.435,22,14,22s-0.815,0.284-0.946,0.706l-0.356,1.148l-1.064-0.559   c-0.392-0.207-0.862-0.138-1.169,0.169c-0.307,0.308-0.375,0.777-0.169,1.168l0.561,1.064l-1.149,0.357C9.284,26.185,9,26.565,9,27   c0,0.435,0.284,0.815,0.706,0.946l1.148,0.356l-0.559,1.064c-0.206,0.392-0.138,0.861,0.169,1.169   c0.308,0.308,0.778,0.375,1.168,0.169l1.064-0.561l0.356,1.149C13.185,31.716,13.565,32,14,32s0.815-0.284,0.946-0.707l0.356-1.149   l1.064,0.561c0.392,0.205,0.861,0.138,1.168-0.169c0.307-0.308,0.375-0.777,0.169-1.169l-0.559-1.064l1.148-0.356   C18.716,27.815,19,27.435,19,27C19,26.565,18.716,26.185,18.293,26.054z M14,30c-1.654,0-3-1.346-3-3s1.346-3,3-3s3,1.346,3,3   S15.654,30,14,30z"/>
	<path d="M38,18h-3v10.303l-5,7.5l-5-7.5V18H6c-1.654,0-3,1.346-3,3v15h12.303l3,2H41V21C41,19.346,39.654,18,38,18z M19.792,29.399   c0.138,0.919-0.157,1.865-0.842,2.55c-0.686,0.685-1.635,0.979-2.55,0.842C15.847,33.54,14.969,34,14,34s-1.847-0.46-2.399-1.208   c-0.917,0.138-1.865-0.157-2.55-0.842c-0.685-0.685-0.98-1.631-0.842-2.55C7.46,28.847,7,27.969,7,27   c0-0.969,0.46-1.847,1.208-2.399C8.07,23.682,8.365,22.735,9.05,22.05s1.632-0.98,2.55-0.842C12.153,20.46,13.031,20,14,20   s1.847,0.46,2.399,1.208c0.922-0.138,1.866,0.157,2.55,0.842c0.686,0.685,0.98,1.631,0.842,2.551C20.54,25.153,21,26.031,21,27   C21,27.969,20.54,28.847,19.792,29.399z"/>
</g>
</svg>
