<?xml version="1.0" encoding="iso-8859-1"?>
<!-- Generator: Adobe Illustrator 22.1.0, SVG Export Plug-In . SVG Version: 6.00 Build 0)  -->
<svg xmlns="http://www.w3.org/2000/svg" xmlns:xlink="http://www.w3.org/1999/xlink" version="1.1" id="Layer_1_1_" x="0px" y="0px" viewBox="0 0 64 64" style="enable-background:new 0 0 64 64;" xml:space="preserve" width="512" height="512">
<g>
	<rect x="22" y="29" style="fill:#F0BC5E;" width="6" height="13"/>
	<g>
		<path style="fill:#F0BC5E;" d="M48,39c-6.065,0-11-4.935-11-11s4.935-11,11-11s11,4.935,11,11S54.065,39,48,39z"/>
	</g>
	<g>
		<path d="M22,21.512V24c0,1.654,1.346,3,3,3h4c1.654,0,3-1.346,3-3v-2.488c1.888-1.46,3-3.708,3-6.117v-0.657    C35,10.471,31.529,7,27.263,7h-0.525C22.471,7,19,10.471,19,14.737v0.657C19,17.804,20.112,20.052,22,21.512z M21,14.737    C21,11.574,23.574,9,26.737,9h0.525C30.426,9,33,11.574,33,14.737v0.657c0,1.923-0.955,3.707-2.555,4.773L30,20.465V24    c0,0.552-0.448,1-1,1h-1v-4h-2v4h-1c-0.552,0-1-0.448-1-1v-3.535l-0.445-0.297C21.955,19.102,21,17.317,21,15.395V14.737z"/>
		<rect x="26" y="29" width="2" height="10"/>
		<rect x="22" y="35" width="2" height="2"/>
		<rect x="22" y="31" width="2" height="2"/>
		<path d="M63,28c0-7.269-5.198-13.342-12.072-14.709C50.58,10.872,48.514,9,46,9h-8.548c-1.64-3.386-4.5-6.133-8.187-7.632    c-1.461-0.488-3.011-0.511-4.591,0.022C21.025,2.876,18.18,5.617,16.545,9H8c-2.757,0-5,2.243-5,5v25H1v5c0,2.757,2.243,5,5,5h37    v9c0,2.757,2.243,5,5,5s5-2.243,5-5V45h-2v-2.302C57.839,41.304,63,35.244,63,28z M61,28c0,7.168-5.832,13-13,13s-13-5.832-13-13    s5.832-13,13-13S61,20.832,61,28z M46,11c1.317,0,2.427,0.859,2.829,2.042C48.553,13.027,48.28,13,48,13    c-3.379,0-6.49,1.136-9,3.028v-0.256c0-1.654-0.264-3.258-0.75-4.772H46z M25.369,3.265c1.051-0.352,2.271-0.329,3.202-0.022    C33.691,5.326,37,10.244,37,15.772v2.064c-2.474,2.676-4,6.24-4,10.164c0,4.348,1.871,8.258,4.836,11h-4.25l-0.293,0.293    C32.208,40.378,30.706,41,29.172,41h-4.344c-1.534,0-3.036-0.622-4.121-1.707L20.414,39H13v-2.568    c0-2.209,1.418-4.129,3.529-4.778l3.688-1.136l-0.676-1.1C17.879,26.713,17,23.615,17,20.459v-4.687    C17,10.244,20.309,5.326,25.369,3.265z M17.204,29.353l-1.263,0.389C12.985,30.65,11,33.339,11,36.432V39H9V15h6.029    C15.016,15.257,15,15.513,15,15.772v4.687C15,23.56,15.759,26.608,17.204,29.353z M5,14c0-1.654,1.346-3,3-3h7.75    c-0.209,0.65-0.371,1.319-0.494,2H9c-1.103,0-2,0.897-2,2v24H5V14z M43,45v2H6c-1.654,0-3-1.346-3-3v-3h16.603    c1.427,1.275,3.308,2,5.226,2h4.344c1.918,0,3.799-0.725,5.226-2h6.151c1.366,0.786,2.86,1.373,4.452,1.698V45H43z M51,58    c0,1.654-1.346,3-3,3s-3-1.346-3-3V47h6V58z M49,45h-2v-2.051C47.332,42.971,47.662,43,48,43s0.668-0.029,1-0.051V45z"/>
		<rect x="7" y="43" width="2" height="2"/>
		<rect x="11" y="43" width="2" height="2"/>
		<rect x="15" y="43" width="2" height="2"/>
		<rect x="39.169" y="25" transform="matrix(0.5146 -0.8574 0.8574 0.5146 -0.4513 51.2027)" width="11.662" height="2"/>
		<rect x="45.169" y="29" transform="matrix(0.5145 -0.8575 0.8575 0.5145 -0.9641 58.2973)" width="11.662" height="2"/>
	</g>
</g>
</svg>
