<?xml version="1.0" encoding="iso-8859-1"?>
<!-- Generator: Adobe Illustrator 22.1.0, SVG Export Plug-In . SVG Version: 6.00 Build 0)  -->
<svg xmlns="http://www.w3.org/2000/svg" xmlns:xlink="http://www.w3.org/1999/xlink" version="1.1" id="Layer_1_1_" x="0px" y="0px" viewBox="0 0 64 64" style="enable-background:new 0 0 64 64;" xml:space="preserve" width="512" height="512">
<g>
	<path d="M7,15c0-1.103,0.897-2,2-2h6.256c0.122-0.681,0.285-1.35,0.494-2H8c-1.654,0-3,1.346-3,3v25h2V15z"/>
	<path d="M45,58c0,1.654,1.346,3,3,3s3-1.346,3-3V47h-6V58z"/>
	<path d="M45,42.698c-1.592-0.324-3.086-0.912-4.452-1.698h-6.151c-1.427,1.275-3.308,2-5.226,2h-4.344   c-1.918,0-3.799-0.725-5.226-2H3v3c0,1.654,1.346,3,3,3h37v-2h2V42.698z M9,45H7v-2h2V45z M13,45h-2v-2h2V45z M17,45h-2v-2h2V45z"/>
	<path d="M15.029,15H9v24h2v-2.568c0-3.093,1.985-5.781,4.941-6.69l1.263-0.389C15.759,26.608,15,23.56,15,20.459v-4.687   C15,15.513,15.016,15.257,15.029,15z"/>
	<path d="M23.555,20.168L24,20.465V24c0,0.552,0.448,1,1,1h1v-4h2v4h1c0.552,0,1-0.448,1-1v-3.535l0.445-0.297   c1.6-1.066,2.555-2.851,2.555-4.773v-0.657C33,11.574,30.426,9,27.263,9h-0.525C23.574,9,21,11.574,21,14.737v0.657   C21,17.317,21.955,19.102,23.555,20.168z"/>
	<path d="M20.217,30.518l-3.688,1.136C14.418,32.303,13,34.223,13,36.432V39h7.414l0.293,0.293C21.792,40.378,23.294,41,24.828,41   h4.344c1.534,0,3.036-0.622,4.121-1.707L33.586,39h4.25C34.871,36.258,33,32.348,33,28c0-3.923,1.526-7.488,4-10.164v-2.064   c0-5.528-3.309-10.446-8.429-12.53c-0.932-0.307-2.151-0.329-3.202,0.022C20.309,5.326,17,10.244,17,15.772v4.687   c0,3.156,0.879,6.254,2.541,8.959L20.217,30.518z M24,37h-2v-2h2V37z M24,33h-2v-2h2V33z M28,39h-2V29h2V39z M19,14.737   C19,10.471,22.471,7,26.737,7h0.525C31.529,7,35,10.471,35,14.737v0.657c0,2.409-1.112,4.657-3,6.117V24c0,1.654-1.346,3-3,3h-4   c-1.654,0-3-1.346-3-3v-2.488c-1.888-1.46-3-3.708-3-6.117V14.737z"/>
	<path d="M48,15c-7.168,0-13,5.832-13,13s5.832,13,13,13s13-5.832,13-13S55.168,15,48,15z M48,39c-6.065,0-11-4.935-11-11   s4.935-11,11-11s11,4.935,11,11S54.065,39,48,39z"/>
	<path d="M48,19c-4.963,0-9,4.037-9,9s4.037,9,9,9s9-4.037,9-9S52.963,19,48,19z M41.143,30.485l6-10l1.715,1.029l-6,10   L41.143,30.485z M48.857,35.515l-1.715-1.029l6-10l1.715,1.029L48.857,35.515z"/>
	<path d="M39,16.028C41.51,14.136,44.621,13,48,13c0.28,0,0.553,0.027,0.829,0.042C48.427,11.859,47.317,11,46,11h-7.75   c0.487,1.514,0.75,3.118,0.75,4.772V16.028z"/>
	<path d="M48,43c-0.338,0-0.668-0.029-1-0.051V45h2v-2.051C48.668,42.971,48.338,43,48,43z"/>
</g>
</svg>
