<?xml version="1.0" encoding="iso-8859-1"?>
<!-- Generator: Adobe Illustrator 22.1.0, SVG Export Plug-In . SVG Version: 6.00 Build 0)  -->
<svg xmlns="http://www.w3.org/2000/svg" xmlns:xlink="http://www.w3.org/1999/xlink" version="1.1" id="Layer_1_1_" x="0px" y="0px" viewBox="0 0 64 64" style="enable-background:new 0 0 64 64;" xml:space="preserve" width="512" height="512">
<linearGradient id="SVGID_1_" gradientUnits="userSpaceOnUse" x1="32" y1="63" x2="32" y2="0.9963">
	<stop offset="0" style="stop-color:#9F2FFF"/>
	<stop offset="1" style="stop-color:#0BB1D3"/>
</linearGradient>
<path style="fill:url(#SVGID_1_);" d="M22,21.512V24c0,1.654,1.346,3,3,3h4c1.654,0,3-1.346,3-3v-2.488c1.888-1.46,3-3.708,3-6.117  v-0.657C35,10.471,31.529,7,27.263,7h-0.525C22.471,7,19,10.471,19,14.737v0.657C19,17.804,20.112,20.052,22,21.512z M21,14.737  C21,11.574,23.574,9,26.737,9h0.525C30.426,9,33,11.574,33,14.737v0.657c0,1.923-0.955,3.707-2.555,4.773L30,20.465V24  c0,0.552-0.448,1-1,1h-1v-4h-2v4h-1c-0.552,0-1-0.448-1-1v-3.535l-0.445-0.297C21.955,19.102,21,17.317,21,15.395V14.737z M26,29h2  v10h-2V29z M22,35h2v2h-2V35z M22,31h2v2h-2V31z M50.928,13.291C50.58,10.872,48.514,9,46,9h-8.548  c-1.64-3.386-4.5-6.133-8.187-7.632c-1.461-0.488-3.011-0.511-4.591,0.022C21.025,2.876,18.18,5.617,16.545,9H8  c-2.757,0-5,2.243-5,5v25H1v5c0,2.757,2.243,5,5,5h37v9c0,2.757,2.243,5,5,5s5-2.243,5-5V45h-2v-2.302  C57.839,41.304,63,35.244,63,28C63,20.731,57.802,14.658,50.928,13.291z M46,11c1.317,0,2.427,0.859,2.829,2.042  C48.553,13.027,48.28,13,48,13c-3.379,0-6.49,1.136-9,3.028v-0.256c0-1.654-0.264-3.258-0.75-4.772H46z M25.369,3.265  c1.051-0.352,2.271-0.329,3.202-0.022C33.691,5.326,37,10.244,37,15.772v2.064c-2.474,2.676-4,6.24-4,10.164  c0,4.348,1.871,8.258,4.836,11h-4.25l-0.293,0.293C32.208,40.378,30.706,41,29.172,41h-4.344c-1.534,0-3.036-0.622-4.121-1.707  L20.414,39H13v-2.568c0-2.209,1.418-4.129,3.529-4.778l3.688-1.136l-0.676-1.1C17.879,26.713,17,23.615,17,20.459v-4.687  C17,10.244,20.309,5.326,25.369,3.265z M17.204,29.353l-1.263,0.389C12.985,30.65,11,33.339,11,36.432V39H9V15h6.029  C15.016,15.257,15,15.513,15,15.772v4.687C15,23.56,15.759,26.608,17.204,29.353z M5,14c0-1.654,1.346-3,3-3h7.75  c-0.209,0.65-0.371,1.319-0.494,2H9c-1.103,0-2,0.897-2,2v24H5V14z M43,45v2H6c-1.654,0-3-1.346-3-3v-3h16.603  c1.427,1.275,3.308,2,5.226,2h4.344c1.918,0,3.799-0.725,5.226-2h6.151c1.366,0.786,2.86,1.373,4.452,1.698V45H43z M51,58  c0,1.654-1.346,3-3,3s-3-1.346-3-3V47h6V58z M49,45h-2v-2.051C47.332,42.971,47.662,43,48,43s0.668-0.029,1-0.051V45z M48,41  c-7.168,0-13-5.832-13-13s5.832-13,13-13s13,5.832,13,13S55.168,41,48,41z M48,17c-6.065,0-11,4.935-11,11s4.935,11,11,11  s11-4.935,11-11S54.065,17,48,17z M48,37c-4.963,0-9-4.037-9-9s4.037-9,9-9s9,4.037,9,9S52.963,37,48,37z M7,43h2v2H7V43z M11,43h2  v2h-2V43z M15,43h2v2h-2V43z M48.857,21.515l-6,10l-1.715-1.029l6-10L48.857,21.515z M53.143,24.485l1.715,1.029l-6,10l-1.715-1.029  L53.143,24.485z"/>
</svg>
