<?xml version="1.0" encoding="iso-8859-1"?>
<!-- Generator: Adobe Illustrator 22.1.0, SVG Export Plug-In . SVG Version: 6.00 Build 0)  -->
<svg xmlns="http://www.w3.org/2000/svg" xmlns:xlink="http://www.w3.org/1999/xlink" version="1.1" id="Layer_1_1_" x="0px" y="0px" viewBox="0 0 64 64" style="enable-background:new 0 0 64 64;" xml:space="preserve" width="512" height="512">
<g>
	<path d="M31,55h10c1.103,0,2-0.897,2-2v-2c0-1.103-0.897-2-2-2H31c-1.103,0-2,0.897-2,2v2C29,54.103,29.897,55,31,55z M41.001,53   H37v-2h4L41.001,53z M31,51h4v2h-4V51z"/>
	<path d="M59,25h-2c-1.103,0-2-0.897-2-2v-2h4v-2.395c0-2.161,0.633-4.253,1.832-6.051L61,12.303V7h-2V1H49v6h-2v5.303l0.168,0.252   C48.367,14.353,49,16.444,49,18.605V21h4v2c0,2.206,1.794,4,4,4h2c1.103,0,2,0.897,2,2s-0.897,2-2,2h-8c-2.206,0-4,1.794-4,4   s1.794,4,4,4h4c1.103,0,2,0.897,2,2v8c0,1.103-0.897,2-2,2h-5.767c-2.062-3.871-5.767-6.773-10.233-7.685V41h-2V22   c0-6.065-4.935-11-11-11h-8.026C17.061,9.793,15.627,9,14,9h-2c-2.757,0-5,2.243-5,5v7.08C3.613,21.568,1,24.481,1,28v3h7.101   c0.465,2.279,2.484,4,4.899,4s4.434-1.721,4.899-4H25v-3c0-3.519-2.613-6.432-6-6.92V17h3c1.654,0,3-1.346,3-3v-1h1   c4.962,0,9,4.037,9,9v19h-2v2.315C26.103,44.722,21,50.878,21,58v0.236L23.382,63h25.236L51,58.236V58c0-1.744-0.316-3.426-0.878-5   H55c2.206,0,4-1.794,4-4v-8c0-2.206-1.794-4-4-4h-4c-1.103,0-2-0.897-2-2s0.897-2,2-2h8c2.206,0,4-1.794,4-4S61.206,25,59,25z    M51,3h6v4h-6V3z M59,9v2H49V9H59z M49.712,13h8.576C57.446,14.742,57,16.649,57,18.605V19h-6v-0.395   C51,16.649,50.554,14.742,49.712,13z M12,11h2c1.654,0,3,1.346,3,3v3h-6v2h6v2H9v-7C9,12.346,10.346,11,12,11z M13,33   c-1.302,0-2.402-0.839-2.816-2h5.631C15.402,32.161,14.302,33,13,33z M21.974,25H18v2h4.899C22.965,27.323,23,27.658,23,28v1H3v-1   c0-0.342,0.035-0.677,0.101-1H16v-2H4.026C4.939,23.793,6.373,23,8,23h10C19.627,23,21.061,23.793,21.974,25z M23,14   c0,0.552-0.449,1-1,1h-3v-1c0-0.342-0.035-0.677-0.101-1H23V14z M35,43h2v2h-2V43z M33,45.349V47h6v-1.651   c5.453,1.292,9.512,6.043,9.949,11.651H23.051C23.488,51.392,27.547,46.641,33,45.349z M24.618,61l-1-2h24.764l-1,2H24.618z"/>
	<rect x="12" y="37" width="2" height="6"/>
	<rect x="19.071" y="34.071" transform="matrix(0.7071 -0.7071 0.7071 0.7071 -20.3354 25.0526)" width="2" height="6"/>
	<rect x="2.929" y="36.071" transform="matrix(0.7071 -0.7071 0.7071 0.7071 -24.4768 15.0503)" width="6" height="2"/>
</g>
</svg>
