<?xml version="1.0" encoding="iso-8859-1"?>
<!-- Generator: Adobe Illustrator 22.1.0, SVG Export Plug-In . SVG Version: 6.00 Build 0)  -->
<svg xmlns="http://www.w3.org/2000/svg" xmlns:xlink="http://www.w3.org/1999/xlink" version="1.1" id="Layer_1_1_" x="0px" y="0px" viewBox="0 0 64 64" style="enable-background:new 0 0 64 64;" xml:space="preserve" width="512" height="512">
<g>
	<rect x="37" y="51" width="4.001" height="2"/>
	<rect x="31" y="51" width="4" height="2"/>
	<polygon points="24.618,61 47.382,61 48.382,59 23.618,59  "/>
	<rect x="35" y="43" width="2" height="2"/>
	<rect x="49" y="3" width="6" height="4"/>
	<rect x="47" y="9" width="10" height="2"/>
	<path d="M57,25h-2c-1.103,0-2-0.897-2-2v-4h2v-0.395c0-1.957,0.446-3.864,1.288-5.605h-8.576C48.554,14.742,49,16.649,49,18.605V19   h2v4c0,2.206,1.794,4,4,4h2c1.103,0,2,0.897,2,2s-0.897,2-2,2h-8c-2.206,0-4,1.794-4,4s1.794,4,4,4h4c1.103,0,2,0.897,2,2v8   c0,1.103-0.897,2-2,2h-6.081c-1.783-2.778-4.588-4.862-7.919-5.651V47h-6v-1.651c-5.453,1.292-9.512,6.043-9.949,11.651h25.898   c-0.109-1.4-0.444-2.747-0.971-4H53c2.206,0,4-1.794,4-4v-8c0-2.206-1.794-4-4-4h-4c-1.103,0-2-0.897-2-2s0.897-2,2-2h8   c2.206,0,4-1.794,4-4S59.206,25,57,25z M43,53c0,1.103-0.897,2-2,2H31c-1.103,0-2-0.897-2-2v-2c0-1.103,0.897-2,2-2h10   c1.103,0,2,0.897,2,2V53z"/>
	<rect x="12" y="36" width="2" height="6"/>
	<rect x="19.071" y="33.071" transform="matrix(0.7071 -0.7071 0.7071 0.7071 -19.6282 24.7597)" width="2" height="6"/>
	<rect x="2.929" y="35.071" transform="matrix(0.7071 -0.7071 0.7071 0.7071 -23.7697 14.7574)" width="6" height="2"/>
	<path d="M17,18h-6v-2h6v-3c0-1.654-1.346-3-3-3h-2c-1.654,0-3,1.346-3,3v7h8V18z"/>
	<path d="M18,26v-2h3.974c-0.914-1.207-2.348-2-3.974-2H8c-1.627,0-3.061,0.793-3.974,2H16v2H3.101C3.035,26.323,3,26.658,3,27v1h20   v-1c0-0.342-0.035-0.677-0.101-1H18z"/>
	<path d="M13,32c1.302,0,2.402-0.839,2.816-2h-5.631C10.598,31.161,11.698,32,13,32z"/>
	<path d="M19,15h3c1.105,0,2-0.895,2-2h2c4.962,0,9,4.037,9,9v19h2V22c0-6.065-4.935-11-11-11h-2h-1h-4.424   C18.846,11.614,19,12.288,19,13V15z"/>
</g>
</svg>
