<?xml version="1.0" encoding="iso-8859-1"?>
<!-- Generator: Adobe Illustrator 22.1.0, SVG Export Plug-In . SVG Version: 6.00 Build 0)  -->
<svg xmlns="http://www.w3.org/2000/svg" xmlns:xlink="http://www.w3.org/1999/xlink" version="1.1" id="Layer_1_1_" x="0px" y="0px" viewBox="0 0 64 64" style="enable-background:new 0 0 64 64;" xml:space="preserve" width="512" height="512">
<linearGradient id="SVGID_1_" gradientUnits="userSpaceOnUse" x1="32" y1="55" x2="32" y2="9">
	<stop offset="0" style="stop-color:#9F2FFF"/>
	<stop offset="1" style="stop-color:#0BB1D3"/>
</linearGradient>
<path style="fill:url(#SVGID_1_);" d="M1,12.586V55h62V9H4.586L1,12.586z M3,23h2v18H3V23z M61,40.382l-2-1V24.618l2-1V40.382z   M61,11v10.382l-4,2v17.236l4,2V53H3V43h4V21H3v-7.586L5.414,11H61z M7,15H5v-2h2V15z M59,15h-2v-2h2V15z M5,49h2v2H5V49z M59,51h-2  v-2h2V51z M11,51H9V13h2V51z M15,51h-2V13h2V51z M19,31h10v-2h2v-2h-2v-2h2v-2h-2v-2h2v-2h-2v-2h2v-2h-2v-2H19v2h-2v2h2v2h-2v2h2v2  h-2v2h2v2h-2v2h2V31z M21,15h6v14h-6V15z M23,17h2v10h-2V17z M19,51h10v-2h2v-2h-2v-2h2v-2h-2v-2h2v-2h-2v-2h2v-2h-2v-2H19v2h-2v2h2  v2h-2v2h2v2h-2v2h2v2h-2v2h2V51z M21,35h6v14h-6V35z M23,37h2v10h-2V37z M35,25h2v-2h2v2h2v-2h2v2h2v-2h2v2h2v-2h2v2h2v-2h2v-8h-2  v-2h-2v2h-2v-2h-2v2h-2v-2h-2v2h-2v-2h-2v2h-2v-2h-2v2h-2v8h2V25z M35,17h18v4H35V17z M35,39h2v-2h2v2h2v-2h2v2h2v-2h2v2h2v-2h2v2h2  v-2h2v-8h-2v-2h-2v2h-2v-2h-2v2h-2v-2h-2v2h-2v-2h-2v2h-2v-2h-2v2h-2v8h2V39z M35,31h18v4H35V31z M38,51c2.757,0,5-2.243,5-5  s-2.243-5-5-5s-5,2.243-5,5S35.243,51,38,51z M38,43c1.654,0,3,1.346,3,3s-1.346,3-3,3s-3-1.346-3-3S36.346,43,38,43z M39,47h-2v-2  h2V47z M50,41c-2.757,0-5,2.243-5,5s2.243,5,5,5s5-2.243,5-5S52.757,41,50,41z M50,49c-1.654,0-3-1.346-3-3s1.346-3,3-3s3,1.346,3,3  S51.654,49,50,49z M49,45h2v2h-2V45z"/>
</svg>
