<?xml version="1.0" encoding="iso-8859-1"?>
<!-- Generator: Adobe Illustrator 22.1.0, SVG Export Plug-In . SVG Version: 6.00 Build 0)  -->
<svg xmlns="http://www.w3.org/2000/svg" xmlns:xlink="http://www.w3.org/1999/xlink" version="1.1" id="Layer_1_1_" x="0px" y="0px" viewBox="0 0 64 64" style="enable-background:new 0 0 64 64;" xml:space="preserve" width="512" height="512">
<g>
	<path d="M4.586,9L1,12.586V55h62V9H4.586z M3,23h2v18H3V23z M3,53V43h4V21H3v-7.586L5.414,11H61v10.382l-4,2v17.236l4,2V53H3z    M61,23.618v16.764l-2-1V24.618L61,23.618z"/>
	<rect x="5" y="13" width="2" height="2"/>
	<rect x="57" y="13" width="2" height="2"/>
	<rect x="5" y="49" width="2" height="2"/>
	<rect x="57" y="49" width="2" height="2"/>
	<rect x="9" y="13" width="2" height="38"/>
	<rect x="13" y="13" width="2" height="38"/>
	<path d="M29,13H19v2h-2v2h2v2h-2v2h2v2h-2v2h2v2h-2v2h2v2h10v-2h2v-2h-2v-2h2v-2h-2v-2h2v-2h-2v-2h2v-2h-2V13z M27,29h-6V15h6V29z"/>
	<rect x="23" y="17" width="2" height="10"/>
	<path d="M29,33H19v2h-2v2h2v2h-2v2h2v2h-2v2h2v2h-2v2h2v2h10v-2h2v-2h-2v-2h2v-2h-2v-2h2v-2h-2v-2h2v-2h-2V33z M27,49h-6V35h6V49z"/>
	<rect x="23" y="37" width="2" height="10"/>
	<path d="M53,13h-2v2h-2v-2h-2v2h-2v-2h-2v2h-2v-2h-2v2h-2v-2h-2v2h-2v8h2v2h2v-2h2v2h2v-2h2v2h2v-2h2v2h2v-2h2v2h2v-2h2v-8h-2V13z    M53,21H35v-4h18V21z"/>
	<path d="M53,27h-2v2h-2v-2h-2v2h-2v-2h-2v2h-2v-2h-2v2h-2v-2h-2v2h-2v8h2v2h2v-2h2v2h2v-2h2v2h2v-2h2v2h2v-2h2v2h2v-2h2v-8h-2V27z    M53,35H35v-4h18V35z"/>
	<path d="M38,41c-2.757,0-5,2.243-5,5s2.243,5,5,5s5-2.243,5-5S40.757,41,38,41z M38,49c-1.654,0-3-1.346-3-3s1.346-3,3-3   s3,1.346,3,3S39.654,49,38,49z"/>
	<rect x="37" y="45" width="2" height="2"/>
	<path d="M50,41c-2.757,0-5,2.243-5,5s2.243,5,5,5s5-2.243,5-5S52.757,41,50,41z M50,49c-1.654,0-3-1.346-3-3s1.346-3,3-3   s3,1.346,3,3S51.654,49,50,49z"/>
	<rect x="49" y="45" width="2" height="2"/>
</g>
</svg>
