<?xml version="1.0" encoding="iso-8859-1"?>
<!-- Generator: Adobe Illustrator 22.1.0, SVG Export Plug-In . SVG Version: 6.00 Build 0)  -->
<svg xmlns="http://www.w3.org/2000/svg" xmlns:xlink="http://www.w3.org/1999/xlink" version="1.1" id="Layer_1_1_" x="0px" y="0px" viewBox="0 0 64 64" style="enable-background:new 0 0 64 64;" xml:space="preserve" width="512" height="512">
<g>
	<path d="M50,43c-1.654,0-3,1.346-3,3s1.346,3,3,3s3-1.346,3-3S51.654,43,50,43z M51,47h-2v-2h2V47z"/>
	<polygon points="59,39.382 61,40.382 61,23.618 59,24.618  "/>
	<rect x="35" y="31" width="18" height="4"/>
	<path d="M21,29h6V15h-6V29z M23,17h2v10h-2V17z"/>
	<path d="M21,49h6V35h-6V49z M23,37h2v10h-2V37z"/>
	<path d="M38,43c-1.654,0-3,1.346-3,3s1.346,3,3,3s3-1.346,3-3S39.654,43,38,43z M39,47h-2v-2h2V47z"/>
	<rect x="35" y="17" width="18" height="4"/>
	<rect x="3" y="23" width="2" height="18"/>
	<path d="M5.414,11L3,13.414V21h4v22H3v10h58V42.618l-4-2V23.382l4-2V11H5.414z M7,51H5v-2h2V51z M7,15H5v-2h2V15z M11,51H9V13h2V51   z M15,51h-2V13h2V51z M31,37h-2v2h2v2h-2v2h2v2h-2v2h2v2h-2v2H19v-2h-2v-2h2v-2h-2v-2h2v-2h-2v-2h2v-2h-2v-2h2v-2h10v2h2V37z    M31,17h-2v2h2v2h-2v2h2v2h-2v2h2v2h-2v2H19v-2h-2v-2h2v-2h-2v-2h2v-2h-2v-2h2v-2h-2v-2h2v-2h10v2h2V17z M38,51   c-2.757,0-5-2.243-5-5s2.243-5,5-5s5,2.243,5,5S40.757,51,38,51z M50,51c-2.757,0-5-2.243-5-5s2.243-5,5-5s5,2.243,5,5   S52.757,51,50,51z M55,37h-2v2h-2v-2h-2v2h-2v-2h-2v2h-2v-2h-2v2h-2v-2h-2v2h-2v-2h-2v-8h2v-2h2v2h2v-2h2v2h2v-2h2v2h2v-2h2v2h2v-2   h2v2h2V37z M55,23h-2v2h-2v-2h-2v2h-2v-2h-2v2h-2v-2h-2v2h-2v-2h-2v2h-2v-2h-2v-8h2v-2h2v2h2v-2h2v2h2v-2h2v2h2v-2h2v2h2v-2h2v2h2   V23z M59,49v2h-2v-2H59z M59,15h-2v-2h2V15z"/>
</g>
</svg>
