<?xml version="1.0" encoding="iso-8859-1"?>
<!-- Generator: Adobe Illustrator 22.1.0, SVG Export Plug-In . SVG Version: 6.00 Build 0)  -->
<svg xmlns="http://www.w3.org/2000/svg" xmlns:xlink="http://www.w3.org/1999/xlink" version="1.1" id="Layer_1_1_" x="0px" y="0px" viewBox="0 0 64 64" style="enable-background:new 0 0 64 64;" xml:space="preserve" width="512" height="512">
<g>
	<rect x="20" y="17" style="fill:#F0BC5E;" width="8" height="10"/>
	<rect x="20" y="37" style="fill:#F0BC5E;" width="8" height="10"/>
	<rect x="2" y="21" style="fill:#F0BC5E;" width="5" height="22"/>
	<polygon style="fill:#F0BC5E;" points="57,23 57,41 62,43 62,21  "/>
	<g>
		<path style="fill:#F0BC5E;" d="M38,51c-2.757,0-5-2.243-5-5s2.243-5,5-5s5,2.243,5,5S40.757,51,38,51z M38,43    c-1.654,0-3,1.346-3,3s1.346,3,3,3s3-1.346,3-3S39.654,43,38,43z"/>
	</g>
	<g>
		<path style="fill:#F0BC5E;" d="M50,51c-2.757,0-5-2.243-5-5s2.243-5,5-5s5,2.243,5,5S52.757,51,50,51z M50,43    c-1.654,0-3,1.346-3,3s1.346,3,3,3s3-1.346,3-3S51.654,43,50,43z"/>
	</g>
	<g>
		<path d="M4.586,9L1,12.586V55h62V9H4.586z M61,53H3V13.414L5.414,11H61V53z"/>
		<rect x="5" y="13" width="2" height="2"/>
		<rect x="57" y="13" width="2" height="2"/>
		<rect x="5" y="49" width="2" height="2"/>
		<rect x="57" y="49" width="2" height="2"/>
		<rect x="9" y="13" width="2" height="38"/>
		<rect x="13" y="13" width="2" height="38"/>
		<path d="M19,31h10v-2h2v-2h-2v-2h2v-2h-2v-2h2v-2h-2v-2h2v-2h-2v-2H19v2h-2v2h2v2h-2v2h2v2h-2v2h2v2h-2v2h2V31z M21,15h6v14h-6V15    z"/>
		<rect x="23" y="17" width="2" height="10"/>
		<path d="M19,51h10v-2h2v-2h-2v-2h2v-2h-2v-2h2v-2h-2v-2h2v-2h-2v-2H19v2h-2v2h2v2h-2v2h2v2h-2v2h2v2h-2v2h2V51z M21,35h6v14h-6V35    z"/>
		<rect x="23" y="37" width="2" height="10"/>
		<path d="M35,25h2v-2h2v2h2v-2h2v2h2v-2h2v2h2v-2h2v2h2v-2h2v-8h-2v-2h-2v2h-2v-2h-2v2h-2v-2h-2v2h-2v-2h-2v2h-2v-2h-2v2h-2v8h2V25    z M35,17h18v4H35V17z"/>
		<path d="M35,39h2v-2h2v2h2v-2h2v2h2v-2h2v2h2v-2h2v2h2v-2h2v-8h-2v-2h-2v2h-2v-2h-2v2h-2v-2h-2v2h-2v-2h-2v2h-2v-2h-2v2h-2v8h2V39    z M35,31h18v4H35V31z"/>
		<rect x="37" y="45" width="2" height="2"/>
		<rect x="49" y="45" width="2" height="2"/>
	</g>
</g>
</svg>
