<?xml version="1.0" encoding="iso-8859-1"?>
<!-- Generator: Adobe Illustrator 22.1.0, SVG Export Plug-In . SVG Version: 6.00 Build 0)  -->
<svg xmlns="http://www.w3.org/2000/svg" xmlns:xlink="http://www.w3.org/1999/xlink" version="1.1" id="Layer_1_1_" x="0px" y="0px" viewBox="0 0 64 64" style="enable-background:new 0 0 64 64;" xml:space="preserve" width="512" height="512">
<linearGradient id="SVGID_1_" gradientUnits="userSpaceOnUse" x1="32" y1="63" x2="32" y2="1">
	<stop offset="0" style="stop-color:#9F2FFF"/>
	<stop offset="1" style="stop-color:#0BB1D3"/>
</linearGradient>
<path style="fill:url(#SVGID_1_);" d="M47.414,51L51,47.414V16.586L47.414,13H16.586L13,16.586v30.828L16.586,51H47.414z M15,17.414  L17.414,15h29.172L49,17.414v29.172L46.586,49H17.414L15,46.586V17.414z M8.586,1L5,4.586V63h54V1H8.586z M57,61H7V5.414L9.414,3H57  V61z M10,5c0.552,0,1,0.448,1,1c0,0.552-0.448,1-1,1S9,6.552,9,6C9,5.448,9.448,5,10,5z M53,6c0-0.552,0.448-1,1-1s1,0.448,1,1  c0,0.552-0.448,1-1,1S53,6.552,53,6z M11,58c0,0.552-0.448,1-1,1s-1-0.448-1-1c0-0.552,0.448-1,1-1S11,57.448,11,58z M53,58  c0-0.552,0.448-1,1-1s1,0.448,1,1c0,0.552-0.448,1-1,1S53,58.552,53,58z M19,45h2v2h2v-2h2v2h2v-2h2v2h2v-2h2v2h2v-2h2v2h2v-2h2v2h2  v-2h2v-2h2v-2h-2v-2h2v-2h-2v-2h2v-2h-2v-2h2v-2h-2v-2h2v-2h-2v-2h2v-2h-2v-2h-2v-2h-2v2h-2v-2h-2v2h-2v-2h-2v2h-2v-2h-2v2h-2v-2h-2  v2h-2v-2h-2v2h-2v2h-2v2h2v2h-2v2h2v2h-2v2h2v2h-2v2h2v2h-2v2h2v2h-2v2h2V45z M21,21h22v22H21V21z M27.659,31.139  C28.03,32.252,29.067,33,30.24,33h3.52c1.173,0,2.21-0.748,2.581-1.86l1.52-4.558c0.093-0.278,0.14-0.568,0.14-0.861  c0-1.5-1.221-2.721-2.721-2.721h-6.559C27.221,23,26,24.221,26,25.721c0,0.293,0.047,0.583,0.14,0.861L27.659,31.139z M28.721,25  h6.559C35.677,25,36,25.323,36,25.721c0,0.078-0.013,0.154-0.037,0.228l-1.52,4.559C34.345,30.802,34.07,31,33.76,31h-3.52  c-0.311,0-0.585-0.198-0.684-0.493l-1.52-4.558C28.013,25.875,28,25.798,28,25.721C28,25.323,28.323,25,28.721,25z M25,37h-2v-2h2  V37z M27,35h14v2H27V35z M39,39h2v2h-2V39z M23,39h14v2H23V39z M15,7h-2V5h2V7z M19,7h-2V5h2V7z M23,7h-2V5h2V7z M27,7h-2V5h2V7z   M31,7h-2V5h2V7z M35,7h-2V5h2V7z M39,7h-2V5h2V7z M43,7h-2V5h2V7z M47,7h-2V5h2V7z M51,7h-2V5h2V7z M15,59h-2v-2h2V59z M17,57h2v2  h-2V57z M21,57h2v2h-2V57z M25,57h2v2h-2V57z M29,57h2v2h-2V57z M33,57h2v2h-2V57z M37,57h2v2h-2V57z M41,57h2v2h-2V57z M45,57h2v2  h-2V57z M49,57h2v2h-2V57z M28,11h-4V9h4V11z M30,9h4v2h-4V9z M40,11h-4V9h4V11z M34,55h-4v-2h4V55z M36,53h4v2h-4V53z M24,53h4v2  h-4V53z M55,55h-2v-2h2V55z M55,51h-2v-2h2V51z M55,47h-2v-2h2V47z M55,43h-2v-2h2V43z M55,39h-2v-2h2V39z M55,35h-2v-2h2V35z   M55,31h-2v-2h2V31z M55,27h-2v-2h2V27z M55,23h-2v-2h2V23z M55,19h-2v-2h2V19z M55,15h-2v-2h2V15z M55,11h-2V9h2V11z M9,53h2v2H9  V53z M9,49h2v2H9V49z M9,45h2v2H9V45z M9,41h2v2H9V41z M9,37h2v2H9V37z M9,33h2v2H9V33z M9,29h2v2H9V29z M9,25h2v2H9V25z M9,21h2v2  H9V21z M9,17h2v2H9V17z M9,13h2v2H9V13z M9,9h2v2H9V9z"/>
</svg>
