<?xml version="1.0" encoding="iso-8859-1"?>
<!-- Generator: Adobe Illustrator 22.1.0, SVG Export Plug-In . SVG Version: 6.00 Build 0)  -->
<svg xmlns="http://www.w3.org/2000/svg" xmlns:xlink="http://www.w3.org/1999/xlink" version="1.1" id="Layer_1_1_" x="0px" y="0px" viewBox="0 0 64 64" style="enable-background:new 0 0 64 64;" xml:space="preserve" width="512" height="512">
<g>
	<path d="M47.414,51L51,47.414V16.586L47.414,13H16.586L13,16.586v30.828L16.586,51H47.414z M15,17.414L17.414,15h29.172L49,17.414   v29.172L46.586,49H17.414L15,46.586V17.414z"/>
	<path d="M8.586,1L5,4.586V63h54V1H8.586z M57,61H7V5.414L9.414,3H57V61z"/>
	<circle cx="10" cy="6" r="1"/>
	<circle cx="54" cy="6" r="1"/>
	<circle cx="10" cy="58" r="1"/>
	<circle cx="54" cy="58" r="1"/>
	<path d="M19,45h2v2h2v-2h2v2h2v-2h2v2h2v-2h2v2h2v-2h2v2h2v-2h2v2h2v-2h2v-2h2v-2h-2v-2h2v-2h-2v-2h2v-2h-2v-2h2v-2h-2v-2h2v-2h-2   v-2h2v-2h-2v-2h-2v-2h-2v2h-2v-2h-2v2h-2v-2h-2v2h-2v-2h-2v2h-2v-2h-2v2h-2v-2h-2v2h-2v2h-2v2h2v2h-2v2h2v2h-2v2h2v2h-2v2h2v2h-2v2   h2v2h-2v2h2V45z M21,21h22v22H21V21z"/>
	<path d="M27.659,31.139C28.03,32.252,29.067,33,30.24,33h3.52c1.173,0,2.21-0.748,2.581-1.86l1.52-4.558   c0.093-0.278,0.14-0.568,0.14-0.861c0-1.5-1.221-2.721-2.721-2.721h-6.559C27.221,23,26,24.221,26,25.721   c0,0.293,0.047,0.583,0.14,0.861L27.659,31.139z M28.721,25h6.559C35.677,25,36,25.323,36,25.721c0,0.078-0.013,0.154-0.037,0.228   l-1.52,4.559C34.345,30.802,34.07,31,33.76,31h-3.52c-0.311,0-0.585-0.198-0.684-0.493l-1.52-4.558   C28.013,25.875,28,25.798,28,25.721C28,25.323,28.323,25,28.721,25z"/>
	<rect x="23" y="35" width="2" height="2"/>
	<rect x="27" y="35" width="14" height="2"/>
	<rect x="39" y="39" width="2" height="2"/>
	<rect x="23" y="39" width="14" height="2"/>
	<rect x="13" y="5" width="2" height="2"/>
	<rect x="17" y="5" width="2" height="2"/>
	<rect x="21" y="5" width="2" height="2"/>
	<rect x="25" y="5" width="2" height="2"/>
	<rect x="29" y="5" width="2" height="2"/>
	<rect x="33" y="5" width="2" height="2"/>
	<rect x="37" y="5" width="2" height="2"/>
	<rect x="41" y="5" width="2" height="2"/>
	<rect x="45" y="5" width="2" height="2"/>
	<rect x="49" y="5" width="2" height="2"/>
	<rect x="13" y="57" width="2" height="2"/>
	<rect x="17" y="57" width="2" height="2"/>
	<rect x="21" y="57" width="2" height="2"/>
	<rect x="25" y="57" width="2" height="2"/>
	<rect x="29" y="57" width="2" height="2"/>
	<rect x="33" y="57" width="2" height="2"/>
	<rect x="37" y="57" width="2" height="2"/>
	<rect x="41" y="57" width="2" height="2"/>
	<rect x="45" y="57" width="2" height="2"/>
	<rect x="49" y="57" width="2" height="2"/>
	<rect x="24" y="9" width="4" height="2"/>
	<rect x="30" y="9" width="4" height="2"/>
	<rect x="36" y="9" width="4" height="2"/>
	<rect x="30" y="53" width="4" height="2"/>
	<rect x="36" y="53" width="4" height="2"/>
	<rect x="24" y="53" width="4" height="2"/>
	<rect x="53" y="53" width="2" height="2"/>
	<rect x="53" y="49" width="2" height="2"/>
	<rect x="53" y="45" width="2" height="2"/>
	<rect x="53" y="41" width="2" height="2"/>
	<rect x="53" y="37" width="2" height="2"/>
	<rect x="53" y="33" width="2" height="2"/>
	<rect x="53" y="29" width="2" height="2"/>
	<rect x="53" y="25" width="2" height="2"/>
	<rect x="53" y="21" width="2" height="2"/>
	<rect x="53" y="17" width="2" height="2"/>
	<rect x="53" y="13" width="2" height="2"/>
	<rect x="53" y="9" width="2" height="2"/>
	<rect x="9" y="53" width="2" height="2"/>
	<rect x="9" y="49" width="2" height="2"/>
	<rect x="9" y="45" width="2" height="2"/>
	<rect x="9" y="41" width="2" height="2"/>
	<rect x="9" y="37" width="2" height="2"/>
	<rect x="9" y="33" width="2" height="2"/>
	<rect x="9" y="29" width="2" height="2"/>
	<rect x="9" y="25" width="2" height="2"/>
	<rect x="9" y="21" width="2" height="2"/>
	<rect x="9" y="17" width="2" height="2"/>
	<rect x="9" y="13" width="2" height="2"/>
	<rect x="9" y="9" width="2" height="2"/>
</g>
</svg>
