<?xml version="1.0" encoding="iso-8859-1"?>
<!-- Generator: Adobe Illustrator 22.1.0, SVG Export Plug-In . SVG Version: 6.00 Build 0)  -->
<svg xmlns="http://www.w3.org/2000/svg" xmlns:xlink="http://www.w3.org/1999/xlink" version="1.1" id="Layer_1_1_" x="0px" y="0px" viewBox="0 0 64 64" style="enable-background:new 0 0 64 64;" xml:space="preserve" width="512" height="512">
<g>
	<path d="M17.414,15L15,17.414v29.172L17.414,49h29.172L49,46.586V17.414L46.586,15H17.414z M47,23h-2v2h2v2h-2v2h2v2h-2v2h2v2h-2v2   h2v2h-2v2h2v2h-2v2h-2v2h-2v-2h-2v2h-2v-2h-2v2h-2v-2h-2v2h-2v-2h-2v2h-2v-2h-2v2h-2v-2h-2v-2h-2v-2h2v-2h-2v-2h2v-2h-2v-2h2v-2h-2   v-2h2v-2h-2v-2h2v-2h-2v-2h2v-2h2v-2h2v2h2v-2h2v2h2v-2h2v2h2v-2h2v2h2v-2h2v2h2v-2h2v2h2v2h2V23z"/>
	<path d="M29.557,30.507C29.655,30.802,29.93,31,30.24,31h3.52c0.311,0,0.585-0.198,0.684-0.493l1.52-4.559   C35.987,25.875,36,25.798,36,25.721C36,25.323,35.677,25,35.279,25h-6.559C28.323,25,28,25.323,28,25.721   c0,0.078,0.013,0.154,0.037,0.228L29.557,30.507z"/>
	<path d="M21,43h22V21H21V43z M41,41h-2v-2h2V41z M41,37H27v-2h14V37z M28.721,23h6.559c1.5,0,2.721,1.221,2.721,2.721   c0,0.293-0.047,0.583-0.14,0.861l-1.52,4.558C35.97,32.252,34.933,33,33.76,33h-3.52c-1.173,0-2.21-0.748-2.581-1.861l-1.52-4.558   C26.047,26.303,26,26.014,26,25.721C26,24.221,27.221,23,28.721,23z M23,35h2v2h-2V35z M23,39h14v2H23V39z"/>
	<path d="M9.414,3L7,5.414V61h50V3H9.414z M45,5h2v2h-2V5z M41,5h2v2h-2V5z M37,5h2v2h-2V5z M36,9h4v2h-4V9z M33,5h2v2h-2V5z M34,9   v2h-4V9H34z M29,5h2v2h-2V5z M25,5h2v2h-2V5z M24,9h4v2h-4V9z M21,5h2v2h-2V5z M17,5h2v2h-2V5z M13,5h2v2h-2V5z M10,59   c-0.552,0-1-0.448-1-1c0-0.552,0.448-1,1-1s1,0.448,1,1C11,58.552,10.552,59,10,59z M11,55H9v-2h2V55z M11,51H9v-2h2V51z M11,47H9   v-2h2V47z M11,43H9v-2h2V43z M11,39H9v-2h2V39z M11,35H9v-2h2V35z M11,31H9v-2h2V31z M11,27H9v-2h2V27z M11,23H9v-2h2V23z M11,19H9   v-2h2V19z M11,15H9v-2h2V15z M11,11H9V9h2V11z M10,7C9.448,7,9,6.552,9,6c0-0.552,0.448-1,1-1s1,0.448,1,1C11,6.552,10.552,7,10,7z    M15,59h-2v-2h2V59z M19,59h-2v-2h2V59z M23,59h-2v-2h2V59z M27,59h-2v-2h2V59z M28,55h-4v-2h4V55z M31,59h-2v-2h2V59z M30,55v-2h4   v2H30z M35,59h-2v-2h2V59z M39,59h-2v-2h2V59z M40,55h-4v-2h4V55z M43,59h-2v-2h2V59z M47,59h-2v-2h2V59z M51,59h-2v-2h2V59z    M51,47.414L47.414,51H16.586L13,47.414V16.586L16.586,13h30.828L51,16.586V47.414z M51,7h-2V5h2V7z M54,59c-0.552,0-1-0.448-1-1   c0-0.552,0.448-1,1-1s1,0.448,1,1C55,58.552,54.552,59,54,59z M55,55h-2v-2h2V55z M55,51h-2v-2h2V51z M55,47h-2v-2h2V47z M55,43h-2   v-2h2V43z M55,39h-2v-2h2V39z M55,35h-2v-2h2V35z M55,31h-2v-2h2V31z M55,27h-2v-2h2V27z M55,23h-2v-2h2V23z M55,19h-2v-2h2V19z    M55,15h-2v-2h2V15z M55,11h-2V9h2V11z M54,7c-0.552,0-1-0.448-1-1c0-0.552,0.448-1,1-1s1,0.448,1,1C55,6.552,54.552,7,54,7z"/>
</g>
</svg>
