<?xml version="1.0" encoding="iso-8859-1"?>
<!-- Generator: Adobe Illustrator 22.1.0, SVG Export Plug-In . SVG Version: 6.00 Build 0)  -->
<svg xmlns="http://www.w3.org/2000/svg" xmlns:xlink="http://www.w3.org/1999/xlink" version="1.1" id="Layer_1_1_" x="0px" y="0px" viewBox="0 0 64 64" style="enable-background:new 0 0 64 64;" xml:space="preserve" width="512" height="512">
<g>
	<g>
		<path d="M58,55H6c-1.654,0-3-1.346-3-3v-3h1c1.654,0,3-1.346,3-3s-1.346-3-3-3H3v-7h2v5.101C7.279,41.565,9,43.585,9,46    s-1.721,4.435-4,4.899V52c0,0.551,0.449,1,1,1h52c0.551,0,1-0.449,1-1V37h2v15C61,53.654,59.654,55,58,55z"/>
	</g>
	<g>
		<path style="fill:#F0BC5E;" d="M28,32h12V20H28V32z M47,39H21V13h26V39z"/>
	</g>
	<g>
		<rect x="3" y="24" width="2" height="6"/>
	</g>
	<g>
		<path d="M61,27h-2V12c0-0.551-0.449-1-1-1H6c-0.551,0-1,0.449-1,1v6H3v-6c0-1.654,1.346-3,3-3h52c1.654,0,3,1.346,3,3V27z"/>
	</g>
	<g>
		<path style="fill:#F0BC5E;" d="M7,37H1v-8h6V37z"/>
	</g>
	<g>
		<path style="fill:#F0BC5E;" d="M63,38h-6V26h6V38z"/>
	</g>
	<g>
		<path style="fill:#F0BC5E;" d="M7,25H1v-8h6V25z"/>
	</g>
	<g>
		<rect x="53" y="13" width="2" height="38"/>
	</g>
	<g>
		<rect x="49" y="13" width="2" height="38"/>
	</g>
	<g>
		<rect x="9" y="13" width="4" height="2"/>
	</g>
	<g>
		<rect x="15" y="13" width="4" height="2"/>
	</g>
	<g>
		<rect x="9" y="17" width="4" height="2"/>
	</g>
	<g>
		<rect x="15" y="17" width="4" height="2"/>
	</g>
	<g>
		<path d="M13,29c-2.206,0-4-1.794-4-4s1.794-4,4-4s4,1.794,4,4S15.206,29,13,29z M13,23c-1.103,0-2,0.897-2,2s0.897,2,2,2    s2-0.897,2-2S14.103,23,13,23z"/>
	</g>
	<g>
		<path d="M19,39H9v-8h10V39z M11,37h6v-4h-6V37z"/>
	</g>
	<g>
		<rect x="11" y="41" width="4" height="2"/>
	</g>
	<g>
		<rect x="11" y="45" width="4" height="2"/>
	</g>
	<g>
		<rect x="11" y="49" width="4" height="2"/>
	</g>
	<g>
		<path d="M27,33h2v2h2v-2h2v2h2v-2h2v2h2v-2h2v-2h2v-2h-2v-2h2v-2h-2v-2h2v-2h-2v-2h-2v-2h-2v2h-2v-2h-2v2h-2v-2h-2v2h-2v2h-2v2h2    v2h-2v2h2v2h-2v2h2V33z M29,21h10v10H29V21z"/>
		<rect x="31" y="23" width="6" height="2"/>
		<rect x="31" y="27" width="6" height="2"/>
		<path d="M17,41v10h30V41H17z M45,45h-2v-2h2V45z M33,45h-2v-2h2V45z M35,43h2v2h-2V43z M29,45h-2v-2h2V45z M25,45h-2v-2h2V45z     M25,47v2h-2v-2H25z M27,47h2v2h-2V47z M31,47h2v2h-2V47z M35,47h2v2h-2V47z M39,47h2v2h-2V47z M39,45v-2h2v2H39z M21,43v2h-2v-2    H21z M19,47h2v2h-2V47z M43,49v-2h2v2H43z"/>
	</g>
</g>
</svg>
