<?xml version="1.0" encoding="iso-8859-1"?>
<!-- Generator: Adobe Illustrator 22.1.0, SVG Export Plug-In . SVG Version: 6.00 Build 0)  -->
<svg xmlns="http://www.w3.org/2000/svg" xmlns:xlink="http://www.w3.org/1999/xlink" version="1.1" id="Layer_1_1_" x="0px" y="0px" viewBox="0 0 64 64" style="enable-background:new 0 0 64 64;" xml:space="preserve" width="512" height="512">
<g>
	<path style="fill:#F0BC5E;" d="M52,58.37l0.06,0.08C49.31,60.67,45.81,62,42,62c-3.85,0-7.39-1.36-10.15-3.63   C33.76,56.9,35,54.6,35,52c0-0.18-0.01-0.34-0.02-0.51C36.91,53.07,39.36,54,42,54c2.57,0,4.96-0.88,6.86-2.39   c-0.01,0.13-0.01,0.25-0.01,0.39C48.85,54.6,50.08,56.9,52,58.37z"/>
	<path style="fill:#F0BC5E;" d="M48.86,51.61C46.96,53.12,44.57,54,42,54c-2.64,0-5.09-0.93-7.02-2.51v-0.01   c-1.89-1.55-3.26-3.75-3.79-6.3L28.47,32l-0.78-3.78c5.53,0.93,10.27,4.67,12.4,9.99l0.05,0.15C38.3,39.09,37,40.9,37,43   c0,2.76,2.24,5,5,5s5-2.24,5-5c0-2.1-1.3-3.91-3.14-4.64l0.05-0.15c2.13-5.32,6.87-9.06,12.4-9.99L55.53,32l-2.72,13.18   c-0.53,2.57-1.92,4.78-3.83,6.34C48.94,51.55,48.9,51.58,48.86,51.61z"/>
	<rect x="6" y="31" style="fill:#F0BC5E;" width="16" height="5"/>
	<g>
		<path d="M20,25H8c-1.654,0-3,1.346-3,3v9h2v8h14v-8h2v-9C23,26.346,21.654,25,20,25z M19,43H9v-6h10V43z M21,35H7v-7    c0-0.551,0.448-1,1-1h12c0.552,0,1,0.449,1,1V35z"/>
		<rect x="11" y="39" width="2" height="2"/>
		<rect x="15" y="39" width="2" height="2"/>
		<path d="M59,18.37V18c0-9.374-7.626-17-17-17S25,8.626,25,18v0.37c0,1.148,0.117,2.302,0.35,3.428l2.1,10.201l-2.1,10.202    C25.117,43.328,25,44.481,25,45.63V46c0,9.374,7.626,17,17,17s17-7.626,17-17v-0.37c0-1.149-0.117-2.302-0.35-3.428l-2.1-10.202    l2.1-10.201C58.883,20.672,59,19.519,59,18.37z M56.949,17H46v-2c0-1.858-1.279-3.411-3-3.858V3.051    C50.473,3.547,56.453,9.528,56.949,17z M43,29l0.001,2H41v-2H43z M42,23c-1.103,0-2-0.897-2-2v-6c0-1.103,0.897-2,2-2s2,0.897,2,2    v6C44,22.103,43.103,23,42,23z M41,3.051v8.091c-1.721,0.447-3,2-3,3.858v2H27.051C27.547,9.528,33.527,3.547,41,3.051z     M56.691,42.605C56.896,43.599,57,44.616,57,45.63V46c0,8.271-6.729,15-15,15s-15-6.729-15-15v-0.37    c0-1.014,0.104-2.031,0.309-3.025l1.162-5.646l1.735,8.428C31.353,50.957,36.312,55,42,55s10.647-4.043,11.794-9.613l1.735-8.428    L56.691,42.605z M51.835,44.983C50.879,49.628,46.742,53,42,53s-8.879-3.372-9.835-8.017l-4.856-23.588    c-0.163-0.788-0.242-1.591-0.276-2.395H38v2c0,1.858,1.279,3.411,3,3.858V27c-1.103,0-2,0.897-2,2v2c0,1.103,0.897,2,2,2h2    c1.103,0,2-0.897,2-2v-2c0-1.103-0.897-2-2-2v-2.142c1.721-0.447,3-2,3-3.858v-2h10.968c-0.034,0.804-0.114,1.607-0.276,2.395    L51.835,44.983z"/>
		<rect x="41" y="57" width="2" height="2"/>
		<rect x="45" y="57" width="2" height="2"/>
		<rect x="37" y="57" width="2" height="2"/>
		<path d="M42,37c-3.309,0-6,2.691-6,6s2.691,6,6,6s6-2.691,6-6S45.309,37,42,37z M42,47c-2.206,0-4-1.794-4-4s1.794-4,4-4    s4,1.794,4,4S44.206,47,42,47z"/>
	</g>
</g>
</svg>
