<?xml version="1.0" encoding="iso-8859-1"?>
<!-- Generator: Adobe Illustrator 22.1.0, SVG Export Plug-In . SVG Version: 6.00 Build 0)  -->
<svg xmlns="http://www.w3.org/2000/svg" xmlns:xlink="http://www.w3.org/1999/xlink" version="1.1" id="Layer_1_1_" x="0px" y="0px" viewBox="0 0 64 64" style="enable-background:new 0 0 64 64;" xml:space="preserve" width="512" height="512">
<g>
	<path d="M20,25H8c-1.654,0-3,1.346-3,3v9h2v8h14v-8h2v-9C23,26.346,21.654,25,20,25z M19,43H9v-6h10V43z M21,35H7v-2h12v-2H7v-3   c0-0.551,0.448-1,1-1h12c0.552,0,1,0.449,1,1V35z"/>
	<rect x="11" y="39" width="2" height="2"/>
	<rect x="15" y="39" width="2" height="2"/>
	<path d="M59,18.37V18c0-9.374-7.626-17-17-17S25,8.626,25,18v0.37c0,1.148,0.117,2.302,0.35,3.428l2.1,10.201l-2.1,10.202   C25.117,43.328,25,44.481,25,45.63V46c0,9.374,7.626,17,17,17s17-7.626,17-17v-0.37c0-1.149-0.117-2.302-0.35-3.428l-2.1-10.202   l2.1-10.201C58.883,20.672,59,19.519,59,18.37z M56.949,17H46v-2c0-1.858-1.279-3.411-3-3.858V3.051   C50.473,3.547,56.453,9.528,56.949,17z M43,29l0.001,2H41v-2H43z M42,23c-1.103,0-2-0.897-2-2v-6c0-1.103,0.897-2,2-2s2,0.897,2,2   v6C44,22.103,43.103,23,42,23z M41,3.051v8.091c-1.721,0.447-3,2-3,3.858v2H27.051C27.547,9.528,33.527,3.547,41,3.051z M46,43   c0,2.206-1.794,4-4,4s-4-1.794-4-4s1.794-4,4-4S46,40.794,46,43z M36,43c0,3.309,2.691,6,6,6s6-2.691,6-6   c0-2.155-1.145-4.042-2.856-5.1c1.883-4.1,5.537-7.179,9.87-8.361l-3.18,15.445C50.879,49.628,46.742,53,42,53   s-8.879-3.372-9.835-8.017l-3.18-15.444c4.333,1.181,7.986,4.26,9.87,8.361C37.145,38.958,36,40.845,36,43z M27,46v-0.37   c0-1.014,0.104-2.031,0.309-3.025l1.162-5.646l1.735,8.428c0.535,2.6,1.908,4.86,3.792,6.539C33.998,51.95,34,51.975,34,52   c0,1.924-0.768,3.715-2.131,5.03C28.885,54.286,27,50.364,27,46z M33.425,58.29c1.338-1.36,2.195-3.088,2.469-4.973   C37.701,54.386,39.794,55,42,55c2.149,0,4.192-0.578,5.967-1.597c0.293,1.882,1.163,3.605,2.517,4.955   C48.069,60.021,45.148,61,42,61C38.811,61,35.858,59.992,33.425,58.29z M56.691,42.605C56.896,43.599,57,44.616,57,45.63V46   c0,4.401-1.916,8.352-4.945,11.099c-1.395-1.307-2.189-3.102-2.206-5.038c1.963-1.691,3.395-4.004,3.945-6.674l1.735-8.428   L56.691,42.605z M55.46,27.375c-5.35,1.126-9.911,4.79-12.168,9.769C42.876,37.052,42.444,37,42,37s-0.876,0.052-1.293,0.144   c-2.257-4.98-6.818-8.642-12.167-9.769l-1.231-5.98c-0.163-0.788-0.242-1.591-0.276-2.395H38v2c0,1.858,1.279,3.411,3,3.858V27   c-1.103,0-2,0.897-2,2v2c0,1.103,0.897,2,2,2h2c1.103,0,2-0.897,2-2v-2c0-1.103-0.897-2-2-2v-2.142c1.721-0.447,3-2,3-3.858v-2   h10.968c-0.034,0.804-0.114,1.607-0.276,2.395L55.46,27.375z"/>
	<rect x="41" y="57" width="2" height="2"/>
	<rect x="45" y="57" width="2" height="2"/>
	<rect x="37" y="57" width="2" height="2"/>
</g>
</svg>
