<?xml version="1.0" encoding="iso-8859-1"?>
<!-- Generator: Adobe Illustrator 22.1.0, SVG Export Plug-In . SVG Version: 6.00 Build 0)  -->
<svg xmlns="http://www.w3.org/2000/svg" xmlns:xlink="http://www.w3.org/1999/xlink" version="1.1" id="Layer_1_1_" x="0px" y="0px" viewBox="0 0 64 64" style="enable-background:new 0 0 64 64;" xml:space="preserve" width="512" height="512">
<g>
	<path d="M9,43h10v-6H9V43z M15,39h2v2h-2V39z M11,39h2v2h-2V39z"/>
	<path d="M20,27H8c-0.552,0-1,0.449-1,1v3h12v2H7v2h14v-7C21,27.449,20.552,27,20,27z"/>
	<rect x="41" y="29" width="2" height="2"/>
	<path d="M38,15c0-1.858,1.279-3.411,3-3.858V3.051C33.527,3.547,27.547,9.528,27.051,17H38V15z"/>
	<path d="M28.54,27.375c5.349,1.126,9.91,4.789,12.167,9.769C41.124,37.052,41.556,37,42,37s0.876,0.052,1.293,0.144   c2.256-4.979,6.818-8.643,12.168-9.769l1.231-5.98c0.163-0.788,0.242-1.591,0.276-2.395H46v2c0,1.858-1.279,3.411-3,3.858V27   c1.103,0,2,0.897,2,2v2c0,1.103-0.897,2-2,2h-2c-1.103,0-2-0.897-2-2v-2c0-1.103,0.897-2,2-2v-2.142c-1.721-0.447-3-2-3-3.858v-2   H27.032c0.034,0.804,0.114,1.607,0.276,2.395L28.54,27.375z"/>
	<path d="M28.985,29.539l3.18,15.444C33.121,49.628,37.258,53,42,53s8.879-3.372,9.835-8.017l3.18-15.445   c-4.333,1.181-7.987,4.26-9.87,8.361C46.855,38.958,48,40.845,48,43c0,3.309-2.691,6-6,6s-6-2.691-6-6   c0-2.155,1.145-4.042,2.856-5.1C36.972,33.799,33.318,30.72,28.985,29.539z"/>
	<path d="M40,15v6c0,1.103,0.897,2,2,2s2-0.897,2-2v-6c0-1.103-0.897-2-2-2S40,13.897,40,15z"/>
	<circle cx="42" cy="43" r="4"/>
	<path d="M33.998,51.925c-1.883-1.679-3.256-3.938-3.792-6.539l-1.735-8.428l-1.162,5.646C27.104,43.599,27,44.616,27,45.63V46   c0,4.364,1.885,8.286,4.869,11.03C33.232,55.715,34,53.924,34,52C34,51.975,33.998,51.95,33.998,51.925z"/>
	<path d="M42,55c-2.206,0-4.299-0.614-6.106-1.684c-0.274,1.885-1.131,3.613-2.469,4.973C35.858,59.992,38.811,61,42,61   c3.148,0,6.069-0.979,8.484-2.642c-1.354-1.349-2.225-3.072-2.517-4.955C46.192,54.422,44.149,55,42,55z M39,59h-2v-2h2V59z M43,59   h-2v-2h2V59z M47,59h-2v-2h2V59z"/>
	<path d="M56.691,42.605l-1.162-5.646l-1.735,8.428c-0.55,2.671-1.982,4.983-3.945,6.674c0.017,1.935,0.81,3.731,2.206,5.038   C55.084,54.352,57,50.401,57,46v-0.37C57,44.616,56.896,43.599,56.691,42.605z"/>
	<path d="M46,15v2h10.949C56.453,9.528,50.473,3.547,43,3.051v8.091C44.721,11.589,46,13.142,46,15z"/>
</g>
</svg>
