<?xml version="1.0" encoding="iso-8859-1"?>
<!-- Generator: Adobe Illustrator 22.1.0, SVG Export Plug-In . SVG Version: 6.00 Build 0)  -->
<svg xmlns="http://www.w3.org/2000/svg" xmlns:xlink="http://www.w3.org/1999/xlink" version="1.1" id="Layer_1_1_" x="0px" y="0px" viewBox="0 0 64 64" style="enable-background:new 0 0 64 64;" xml:space="preserve" width="512" height="512">
<g>
	<path d="M34.707,7.879L39.586,3H24.414l4.879,4.879C30.739,9.325,33.261,9.325,34.707,7.879z"/>
	<path d="M27.879,9.293L23,4.414v9.537l5.391-4.207C28.214,9.604,28.041,9.455,27.879,9.293z"/>
	<path d="M35.609,9.744L41,13.951V4.414l-4.879,4.879C35.959,9.455,35.786,9.604,35.609,9.744z"/>
	<path d="M54,3c-3.86,0-7,3.14-7,7c0,2.713,1.554,5.065,3.817,6.227L33,27.807V15h6.093l-5.434-4.24C33.127,10.917,32.57,11,32,11   s-1.127-0.083-1.659-0.24L24.907,15H31v12.891L8.245,16.969C8.709,16.441,9,15.757,9,15V9.198l9,1.636v1.35   C17.686,12.072,17.352,12,17,12c-1.654,0-3,1.346-3,3s1.346,3,3,3s3-1.346,3-3V5.166L7,2.802v9.383C6.686,12.072,6.352,12,6,12   c-1.654,0-3,1.346-3,3c0,1.556,1.195,2.824,2.712,2.971L28.69,29H14c-1.654,0-3,1.346-3,3v15h6.035C17.013,46.667,17,46.333,17,46   c0-8.271,6.729-15,15-15s15,6.729,15,15c0,1.013-0.107,2.016-0.307,3H53V32c0-1.654-1.346-3-3-3H34.835l18.512-12.033   C53.562,16.987,53.78,17,54,17c3.86,0,7-3.14,7-7S57.86,3,54,3z M17,16c-0.551,0-1-0.449-1-1s0.449-1,1-1s1,0.449,1,1   S17.551,16,17,16z M18,6.834v1.967L9,7.165V5.198L18,6.834z M5,15c0-0.551,0.449-1,1-1s1,0.449,1,1s-0.449,1-1,1S5,15.551,5,15z    M52,14V6l6,4L52,14z"/>
	<path d="M26.262,34.353l1.65,1.979C28.613,37.174,29,38.241,29,39.338c0,2.023-1.29,3.812-3.209,4.452   c-1.456,0.486-2.494,1.732-2.736,3.21h0.248l2.708,1.805l0.53-1.589C26.982,45.891,28.218,45,29.615,45   c0.473,0,0.898-0.263,1.109-0.686l0.788-1.576C32.049,41.666,33.127,41,34.326,41c1.445,0,2.7,0.979,3.051,2.383L38.781,49h5.865   c0.156-0.661,0.264-1.333,0.315-2.014c-2.831-0.072-5.318-1.892-6.218-4.592c-0.369-1.106-1.13-2.034-2.143-2.613l-2.208-1.262   c-1.983-1.133-3.24-3.206-3.368-5.47C29.325,33.176,27.719,33.632,26.262,34.353z"/>
	<polygon points="38,57 26,57 26,59 22,59 22,61 26,61 38,61 42,61 42,59 38,59  "/>
	<path d="M22.697,49H11v3c0,1.654,1.346,3,3,3h11h25c1.654,0,3-1.346,3-3v-1H25.697L22.697,49z M15,53h-2v-2h2V53z M19,53h-2v-2h2   V53z M23,53h-2v-2h2V53z"/>
	<path d="M34.326,43c-0.437,0-0.829,0.242-1.024,0.633l-0.788,1.576C31.961,46.313,30.851,47,29.615,47   c-0.535,0-1.008,0.341-1.177,0.849L28.054,49h8.665l-1.283-5.133C35.309,43.356,34.852,43,34.326,43z"/>
	<path d="M19,46c0,0.333,0.015,0.667,0.04,1h2.012c0.256-2.342,1.831-4.349,4.106-5.106C26.26,41.525,27,40.499,27,39.338   c0-0.629-0.222-1.242-0.625-1.725l-1.856-2.227C21.186,37.742,19,41.617,19,46z"/>
	<path d="M35.386,36.783l2.208,1.262c1.44,0.823,2.523,2.144,3.048,3.717c0.626,1.877,2.343,3.147,4.307,3.224   c-0.494-6.355-5.569-11.434-11.923-11.933C33.151,34.598,34.025,36.006,35.386,36.783z"/>
</g>
</svg>
