<?xml version="1.0" encoding="iso-8859-1"?>
<!-- Generator: Adobe Illustrator 22.1.0, SVG Export Plug-In . SVG Version: 6.00 Build 0)  -->
<svg xmlns="http://www.w3.org/2000/svg" xmlns:xlink="http://www.w3.org/1999/xlink" version="1.1" id="Layer_1_1_" x="0px" y="0px" viewBox="0 0 64 64" style="enable-background:new 0 0 64 64;" xml:space="preserve" width="512" height="512">
<g>
	<path style="fill:#F0BC5E;" d="M27.49,47.53c0.3-0.91,1.16-1.53,2.13-1.53c0.84,0,1.62-0.48,2-1.24l0.79-1.57   c0.36-0.73,1.1-1.19,1.92-1.19c0.98,0,1.84,0.67,2.08,1.62L38,50H26.91v-0.73L27.49,47.53z"/>
	<path style="fill:#F0BC5E;" d="M46,46h-0.87c-2.47,0-4.66-1.58-5.44-3.92c-0.44-1.34-1.37-2.47-2.59-3.17l-2.21-1.26   C33.1,36.63,32,34.73,32,32.67V32C39.73,32,46,38.27,46,46z"/>
	<path style="fill:#F0BC5E;" d="M28,39.34c0,1.59-1.02,3-2.53,3.5C23.4,43.53,22,45.48,22,47.66V48h-3.86   C18.05,47.35,18,46.68,18,46c0-5.06,2.69-9.49,6.71-11.95l0.01,0.01l2.42,2.91C27.7,37.64,28,38.47,28,39.34z"/>
	<path style="fill:#F0BC5E;" d="M42,2H22l-0.707,0.707l6.586,6.586C28.964,10.378,30.466,11,32,11s3.036-0.622,4.121-1.707   l6.586-6.586L42,2z"/>
	<g>
		<rect x="21" y="51" width="2" height="2"/>
		<rect x="17" y="51" width="2" height="2"/>
		<rect x="13" y="51" width="2" height="2"/>
		<path d="M50,27H36.765l15.049-8.6l-0.992-1.736L33,26.848V17h10V1H21v16h10v9.906L6.285,15.921C6.724,15.399,7,14.734,7,14V7.18    l10,1.667v2.337C16.686,11.072,16.352,11,16,11c-1.654,0-3,1.346-3,3s1.346,3,3,3s3-1.346,3-3V3.166L7.179,1.016L5,1v10.184    C4.686,11.072,4.352,11,4,11c-1.654,0-3,1.346-3,3c0,1.56,1.202,2.831,2.726,2.972L26.288,27H14c-2.757,0-5,2.243-5,5v20    c0,2.757,2.243,5,5,5h10v4h-4v2h24v-2h-4v-4h10c2.757,0,5-2.243,5-5V32C55,29.243,52.757,27,50,27z M41,3v10.951l-5.393-4.208    c-0.582,0.457-1.246,0.802-1.954,1.013L39.093,15H24.907l5.439-4.244c-0.707-0.211-1.372-0.555-1.954-1.013L23,13.951V3H41z     M16,15c-0.551,0-1-0.449-1-1s0.449-1,1-1s1,0.449,1,1S16.551,15,16,15z M17,4.834V6.82L7,5.153V3.017L17,4.834z M3,14    c0-0.551,0.449-1,1-1s1,0.449,1,1s-0.449,1-1,1S3,14.551,3,14z M14,29h36c1.654,0,3,1.346,3,3v17h-6.307    c0.2-0.984,0.307-1.987,0.307-3c0-8.271-6.729-15-15-15s-15,6.729-15,15c0,0.333,0.013,0.667,0.035,1H11V32    C11,30.346,12.346,29,14,29z M19.04,47C19.015,46.667,19,46.333,19,46c0-7.168,5.832-13,13-13s13,5.832,13,13    c0,1.016-0.122,2.021-0.354,3H26.303l-3-2H19.04z M50,55H28v2h10v4H26v-6H14c-1.654,0-3-1.346-3-3v-3h11.697l3,2H53v1    C53,53.654,51.654,55,50,55z"/>
	</g>
	<path style="fill:#F0BC5E;" d="M54,19c-4.963,0-9-4.037-9-9s4.037-9,9-9s9,4.037,9,9S58.963,19,54,19z"/>
	<g>
		<path d="M51,15.869V4.131L59.803,10L51,15.869z M53,7.869v4.263L56.197,10L53,7.869z"/>
	</g>
</g>
</svg>
