<?xml version="1.0" encoding="iso-8859-1"?>
<!-- Generator: Adobe Illustrator 22.1.0, SVG Export Plug-In . SVG Version: 6.00 Build 0)  -->
<svg xmlns="http://www.w3.org/2000/svg" xmlns:xlink="http://www.w3.org/1999/xlink" version="1.1" id="Layer_1_1_" x="0px" y="0px" viewBox="0 0 64 64" style="enable-background:new 0 0 64 64;" xml:space="preserve" width="512" height="512">
<g>
	<rect x="21" y="51" width="2" height="2"/>
	<rect x="17" y="51" width="2" height="2"/>
	<rect x="13" y="51" width="2" height="2"/>
	<path d="M54,19c4.962,0,9-4.038,9-9s-4.038-9-9-9s-9,4.038-9,9c0,3.194,1.677,5.997,4.193,7.595L33,26.848V17h10V1H21v16h10v9.906   L6.285,15.921C6.724,15.399,7,14.734,7,14V7.18l10,1.667v2.337C16.686,11.072,16.352,11,16,11c-1.654,0-3,1.346-3,3s1.346,3,3,3   s3-1.346,3-3V3.166L7.179,1.016L5,1v10.184C4.686,11.072,4.352,11,4,11c-1.654,0-3,1.346-3,3c0,1.56,1.202,2.831,2.726,2.972   L26.288,27H14c-2.757,0-5,2.243-5,5v20c0,2.757,2.243,5,5,5h10v4h-4v2h24v-2h-4v-4h10c2.757,0,5-2.243,5-5V32c0-2.757-2.243-5-5-5   H36.765l14.663-8.379C52.244,18.865,53.106,19,54,19z M35.609,9.744c0.177-0.141,0.35-0.289,0.512-0.451L41,4.414v9.537   L35.609,9.744z M34.707,7.879c-1.446,1.446-3.968,1.446-5.414,0L24.414,3h15.172L34.707,7.879z M27.879,9.293   c0.162,0.162,0.335,0.311,0.512,0.451L23,13.951V4.414L27.879,9.293z M30.341,10.76C30.873,10.917,31.43,11,32,11   s1.127-0.083,1.659-0.24L39.093,15H24.907L30.341,10.76z M16,15c-0.551,0-1-0.449-1-1s0.449-1,1-1s1,0.449,1,1S16.551,15,16,15z    M17,4.834V6.82L7,5.153V3.017L17,4.834z M3,14c0-0.551,0.449-1,1-1s1,0.449,1,1s-0.449,1-1,1S3,14.551,3,14z M50,55H28v2h10v4H26   v-6H14c-1.654,0-3-1.346-3-3v-3h11.697l3,2H53v1C53,53.654,51.654,55,50,55z M19,46c0-4.383,2.186-8.258,5.519-10.614l1.856,2.227   C26.778,38.096,27,38.709,27,39.338c0,1.161-0.74,2.188-1.842,2.556c-2.274,0.757-3.85,2.764-4.106,5.106H19.04   C19.015,46.667,19,46.333,19,46z M31.025,33.049c0.129,2.264,1.385,4.337,3.368,5.47l2.208,1.262   c1.013,0.579,1.773,1.507,2.143,2.613c0.9,2.7,3.387,4.519,6.218,4.592c-0.051,0.68-0.159,1.353-0.315,2.014h-5.865l-1.404-5.617   C37.026,41.979,35.771,41,34.326,41c-1.199,0-2.277,0.666-2.813,1.738l-0.788,1.576C30.513,44.737,30.088,45,29.615,45   c-1.397,0-2.633,0.891-3.075,2.216l-0.53,1.589L23.303,47h-0.248c0.242-1.478,1.28-2.724,2.736-3.21   C27.71,43.15,29,41.361,29,39.338c0-1.097-0.387-2.164-1.088-3.006l-1.65-1.979C27.719,33.632,29.325,33.176,31.025,33.049z    M33.026,33.052c6.354,0.5,11.429,5.579,11.923,11.933c-1.964-0.077-3.681-1.347-4.307-3.224c-0.525-1.573-1.607-2.894-3.048-3.717   l-2.208-1.262C34.025,36.006,33.151,34.598,33.026,33.052z M36.719,49h-8.665l0.384-1.151C28.607,47.341,29.08,47,29.615,47   c1.235,0,2.346-0.687,2.898-1.791l0.788-1.576C33.497,43.242,33.889,43,34.326,43c0.526,0,0.983,0.356,1.11,0.867L36.719,49z    M53,32v17h-6.307c0.2-0.984,0.307-1.987,0.307-3c0-8.271-6.729-15-15-15s-15,6.729-15,15c0,0.333,0.013,0.667,0.035,1H11V32   c0-1.654,1.346-3,3-3h36C51.654,29,53,30.346,53,32z M47,10c0-3.86,3.14-7,7-7s7,3.14,7,7s-3.14,7-7,7S47,13.86,47,10z"/>
	<path d="M51,4.131v11.737L59.803,10L51,4.131z M53,7.869L56.197,10L53,12.131V7.869z"/>
</g>
</svg>
