<?xml version="1.0" encoding="iso-8859-1"?>
<!-- Generator: Adobe Illustrator 22.1.0, SVG Export Plug-In . SVG Version: 6.00 Build 0)  -->
<svg xmlns="http://www.w3.org/2000/svg" xmlns:xlink="http://www.w3.org/1999/xlink" version="1.1" id="Layer_1_1_" x="0px" y="0px" viewBox="0 0 64 64" style="enable-background:new 0 0 64 64;" xml:space="preserve" width="512" height="512">
<linearGradient id="SVGID_1_" gradientUnits="userSpaceOnUse" x1="32" y1="63" x2="32" y2="1">
	<stop offset="0" style="stop-color:#9F2FFF"/>
	<stop offset="1" style="stop-color:#0BB1D3"/>
</linearGradient>
<path style="fill:url(#SVGID_1_);" d="M21,51h2v2h-2V51z M17,53h2v-2h-2V53z M13,53h2v-2h-2V53z M63,10c0,4.962-4.038,9-9,9  c-0.894,0-1.756-0.135-2.571-0.379L36.765,27H50c2.757,0,5,2.243,5,5v20c0,2.757-2.243,5-5,5H40v4h4v2H20v-2h4v-4H14  c-2.757,0-5-2.243-5-5V32c0-2.757,2.243-5,5-5h12.288L3.726,16.972C2.202,16.831,1,15.56,1,14c0-1.654,1.346-3,3-3  c0.352,0,0.686,0.072,1,0.184V1l2.179,0.016L19,3.166V14c0,1.654-1.346,3-3,3s-3-1.346-3-3s1.346-3,3-3c0.352,0,0.686,0.072,1,0.184  V8.847L7,7.18V14c0,0.734-0.276,1.399-0.715,1.921L31,26.906V17H21V1h22v16H33v9.848l16.193-9.253C46.677,15.997,45,13.194,45,10  c0-4.962,4.038-9,9-9S63,5.038,63,10z M41,13.951V4.414l-4.879,4.879c-0.162,0.162-0.335,0.311-0.512,0.451L41,13.951z M39.586,3  H24.414l4.879,4.879c1.446,1.446,3.968,1.446,5.414,0L39.586,3z M23,4.414v9.537l5.391-4.207c-0.177-0.141-0.35-0.289-0.512-0.451  L23,4.414z M24.907,15h14.185l-5.434-4.24C33.127,10.917,32.57,11,32,11s-1.127-0.083-1.659-0.24L24.907,15z M17,14  c0-0.551-0.449-1-1-1s-1,0.449-1,1s0.449,1,1,1S17,14.551,17,14z M7,3.017v2.136L17,6.82V4.834L7,3.017z M4,15c0.551,0,1-0.449,1-1  s-0.449-1-1-1s-1,0.449-1,1S3.449,15,4,15z M53,52v-1H25.697l-3-2H11v3c0,1.654,1.346,3,3,3h12v6h12v-4H28v-2h22  C51.654,55,53,53.654,53,52z M19.04,47h2.012c0.256-2.342,1.831-4.349,4.106-5.106C26.26,41.525,27,40.499,27,39.338  c0-0.629-0.222-1.242-0.625-1.725l-1.856-2.227C21.186,37.742,19,41.617,19,46C19,46.333,19.015,46.667,19.04,47z M26.262,34.353  l1.65,1.979C28.613,37.174,29,38.241,29,39.338c0,2.023-1.29,3.812-3.209,4.452c-1.456,0.486-2.494,1.732-2.736,3.21h0.248  l2.708,1.805l0.53-1.589C26.982,45.891,28.218,45,29.615,45c0.473,0,0.898-0.263,1.109-0.686l0.788-1.576  C32.049,41.666,33.127,41,34.326,41c1.445,0,2.7,0.979,3.051,2.383L38.781,49h5.865c0.156-0.661,0.264-1.333,0.315-2.014  c-2.831-0.072-5.318-1.892-6.218-4.592c-0.369-1.106-1.13-2.034-2.143-2.613l-2.208-1.262c-1.983-1.133-3.24-3.206-3.368-5.47  C29.325,33.176,27.719,33.632,26.262,34.353z M35.386,36.783l2.208,1.262c1.44,0.823,2.523,2.144,3.048,3.717  c0.626,1.877,2.343,3.147,4.307,3.224c-0.494-6.355-5.569-11.434-11.923-11.933C33.151,34.598,34.025,36.006,35.386,36.783z   M35.436,43.867C35.309,43.356,34.852,43,34.326,43c-0.437,0-0.829,0.242-1.024,0.633l-0.788,1.576  C31.961,46.313,30.851,47,29.615,47c-0.535,0-1.008,0.341-1.177,0.849L28.054,49h8.665L35.436,43.867z M50,29H14  c-1.654,0-3,1.346-3,3v15h6.035C17.013,46.667,17,46.333,17,46c0-8.271,6.729-15,15-15s15,6.729,15,15c0,1.013-0.107,2.016-0.307,3  H53V32C53,30.346,51.654,29,50,29z M61,10c0-3.86-3.14-7-7-7s-7,3.14-7,7s3.14,7,7,7S61,13.86,61,10z M51,4.131L59.803,10L51,15.869  V4.131z M53,12.131L56.197,10L53,7.869V12.131z"/>
</svg>
