<?xml version="1.0" encoding="iso-8859-1"?>
<!-- Generator: Adobe Illustrator 22.1.0, SVG Export Plug-In . SVG Version: 6.00 Build 0)  -->
<svg xmlns="http://www.w3.org/2000/svg" xmlns:xlink="http://www.w3.org/1999/xlink" version="1.1" id="Layer_1_1_" x="0px" y="0px" viewBox="0 0 64 64" style="enable-background:new 0 0 64 64;" xml:space="preserve" width="512" height="512">
<linearGradient id="SVGID_1_" gradientUnits="userSpaceOnUse" x1="32" y1="63" x2="32" y2="1">
	<stop offset="0" style="stop-color:#9F2FFF"/>
	<stop offset="1" style="stop-color:#0BB1D3"/>
</linearGradient>
<path style="fill:url(#SVGID_1_);" d="M60,35H46c-1.562,0-2.834,1.204-2.973,2.731L34.801,31h16.817L54,26.236V20  c0-1.654-1.346-3-3-3h-7v-6.184c1.161-0.414,2-1.514,2-2.816c0-1.654-1.346-3-3-3s-3,1.346-3,3c0,1.302,0.839,2.402,2,2.816V17H13  c-1.654,0-3,1.346-3,3v6.236L12.382,31h16.817l-9.778,8H4c-1.654,0-3,1.346-3,3v14c0,1.654,1.346,3,3,3h6v2H6v2h16v-2h-4v-2h6  c1.654,0,3-1.346,3-3V42c0-1.654-1.346-3-3-3h-1.422L32,31.292l11,9V60c0,1.654,1.346,3,3,3h14c1.654,0,3-1.346,3-3V38  C63,36.346,61.654,35,60,35z M43,7c0.552,0,1,0.449,1,1s-0.448,1-1,1s-1-0.449-1-1S42.448,7,43,7z M16,61h-4v-2h4V61z M24,57H4  c-0.552,0-1-0.449-1-1v-1h22v1C25,56.551,24.552,57,24,57z M25,42v11H3V42c0-0.551,0.448-1,1-1h20C24.552,41,25,41.449,25,42z   M46,37h14c0.552,0,1,0.449,1,1v3H45v-3C45,37.449,45.448,37,46,37z M45,43h16v10H45V43z M13,19h38c0.552,0,1,0.449,1,1v5H12v-5  C12,19.449,12.448,19,13,19z M12.618,27h38.764l-1,2H13.618L12.618,27z M60,61H46c-0.552,0-1-0.449-1-1v-5h16v5  C61,60.551,60.552,61,60,61z M51,57h4v2h-4V57z M50,23h-6v-2h6V23z M16,23h-2v-2h2V23z M20,23h-2v-2h2V23z M24,23h-2v-2h2V23z M51,8  c0-2.757-2.243-5-5-5V1c3.859,0,7,3.14,7,7s-3.141,7-7,7v-2C48.757,13,51,10.757,51,8z M35,8c0,2.757,2.243,5,5,5v2  c-3.859,0-7-3.14-7-7s3.141-7,7-7v2C37.243,3,35,5.243,35,8z"/>
</svg>
