<?xml version="1.0" encoding="iso-8859-1"?>
<!-- Generator: Adobe Illustrator 22.1.0, SVG Export Plug-In . SVG Version: 6.00 Build 0)  -->
<svg xmlns="http://www.w3.org/2000/svg" xmlns:xlink="http://www.w3.org/1999/xlink" version="1.1" id="Layer_1_1_" x="0px" y="0px" viewBox="0 0 64 64" style="enable-background:new 0 0 64 64;" xml:space="preserve" width="512" height="512">
<g>
	<rect x="47" y="42" style="fill:#F0BC5E;" width="12" height="12"/>
	<rect x="5" y="43" style="fill:#F0BC5E;" width="18" height="11"/>
	<rect x="14" y="18" style="fill:#F0BC5E;" width="10" height="8"/>
	<g>
		<path d="M60,35H46c-1.562,0-2.834,1.204-2.973,2.731L34.801,31h16.817L54,26.236V20c0-1.654-1.346-3-3-3h-7v-6.184    c1.161-0.414,2-1.514,2-2.816c0-1.654-1.346-3-3-3s-3,1.346-3,3c0,1.302,0.839,2.402,2,2.816V17H13c-1.654,0-3,1.346-3,3v6.236    L12.382,31h16.817l-9.778,8H4c-1.654,0-3,1.346-3,3v14c0,1.654,1.346,3,3,3h6v2H6v2h16v-2h-4v-2h6c1.654,0,3-1.346,3-3V42    c0-1.654-1.346-3-3-3h-1.422L32,31.292l11,9V60c0,1.654,1.346,3,3,3h14c1.654,0,3-1.346,3-3V38C63,36.346,61.654,35,60,35z M43,7    c0.552,0,1,0.449,1,1s-0.448,1-1,1s-1-0.449-1-1S42.448,7,43,7z M16,61h-4v-2h4V61z M24,57H4c-0.552,0-1-0.449-1-1v-1h22v1    C25,56.551,24.552,57,24,57z M25,42v11H3V42c0-0.551,0.448-1,1-1h20C24.552,41,25,41.449,25,42z M46,37h14c0.552,0,1,0.449,1,1v3    H45v-3C45,37.449,45.448,37,46,37z M45,43h16v10H45V43z M13,19h38c0.552,0,1,0.449,1,1v5H12v-5C12,19.449,12.448,19,13,19z     M12.618,27h38.764l-1,2H13.618L12.618,27z M60,61H46c-0.552,0-1-0.449-1-1v-5h16v5C61,60.551,60.552,61,60,61z"/>
		<rect x="51" y="57" width="4" height="2"/>
		<rect x="44" y="21" width="6" height="2"/>
		<rect x="14" y="21" width="2" height="2"/>
		<rect x="18" y="21" width="2" height="2"/>
		<rect x="22" y="21" width="2" height="2"/>
		<path d="M51,8c0,2.757-2.243,5-5,5v2c3.859,0,7-3.14,7-7s-3.141-7-7-7v2C48.757,3,51,5.243,51,8z"/>
		<path d="M40,15v-2c-2.757,0-5-2.243-5-5s2.243-5,5-5V1c-3.859,0-7,3.14-7,7S36.141,15,40,15z"/>
	</g>
</g>
</svg>
