<?xml version="1.0" encoding="iso-8859-1"?>
<!-- Generator: Adobe Illustrator 22.1.0, SVG Export Plug-In . SVG Version: 6.00 Build 0)  -->
<svg xmlns="http://www.w3.org/2000/svg" xmlns:xlink="http://www.w3.org/1999/xlink" version="1.1" id="Layer_1_1_" x="0px" y="0px" viewBox="0 0 64 64" style="enable-background:new 0 0 64 64;" xml:space="preserve" width="512" height="512">
<g>
	<path d="M41,59c0,1.654,1.346,3,3,3h14c1.654,0,3-1.346,3-3v-3H41V59z M49,58h4v2h-4V58z"/>
	<path d="M58,34H44c-1.654,0-3,1.346-3,3v0.072L34.801,32H52l2-4H10l2,4h17.199l-7.334,6H6c-1.654,0-3,1.346-3,3v11h26V41   c0-1.654-1.346-3-3-3h-0.977L32,32.292l9,7.363V40h20v-3C61,35.346,59.654,34,58,34z"/>
	<rect x="41" y="42" width="20" height="12"/>
	<path d="M54,21c0-1.654-1.346-3-3-3h-7v-6.184c1.161-0.414,2-1.514,2-2.816c0-1.654-1.346-3-3-3s-3,1.346-3,3   c0,1.302,0.839,2.402,2,2.816V18H13c-1.654,0-3,1.346-3,3v5h44V21z M43,8c0.552,0,1,0.449,1,1s-0.448,1-1,1s-1-0.449-1-1   S42.448,8,43,8z M16,24h-2v-2h2V24z M20,24h-2v-2h2V24z M24,24h-2v-2h2V24z M50,24h-6v-2h6V24z"/>
	<path d="M51,9c0,2.757-2.243,5-5,5v2c3.859,0,7-3.14,7-7s-3.141-7-7-7v2C48.757,4,51,6.243,51,9z"/>
	<path d="M40,16v-2c-2.757,0-5-2.243-5-5s2.243-5,5-5V2c-3.859,0-7,3.14-7,7S36.141,16,40,16z"/>
	<path d="M3,55c0,1.654,1.346,3,3,3h6v2H8v2h16v-2h-4v-2h6c1.654,0,3-1.346,3-3v-1H3V55z"/>
</g>
</svg>
