<?xml version="1.0" encoding="iso-8859-1"?>
<!-- Generator: Adobe Illustrator 22.1.0, SVG Export Plug-In . SVG Version: 6.00 Build 0)  -->
<svg xmlns="http://www.w3.org/2000/svg" xmlns:xlink="http://www.w3.org/1999/xlink" version="1.1" id="Layer_1_1_" x="0px" y="0px" viewBox="0 0 64 64" style="enable-background:new 0 0 64 64;" xml:space="preserve" width="512" height="512">
<g>
	<path d="M18,48.798V29c-4.963,0-9-4.037-9-9c0-1.053,0.191-2.06,0.525-3H6c-1.654,0-3,1.346-3,3v27h12.303L18,48.798z"/>
	<path d="M44,49V17H20v32H44z M23.687,31.443L23.983,31H26v-6c0-3.309,2.691-6,6-6s6,2.691,6,6v6h2.017l0.297,0.443   C41.417,33.092,42,35.013,42,37c0,5.514-4.486,10-10,10s-10-4.486-10-10C22,35.013,22.583,33.092,23.687,31.443z"/>
	<path d="M32,45c4.411,0,8-3.589,8-8c0-1.414-0.369-2.787-1.072-4H25.072C24.369,34.213,24,35.586,24,37C24,41.411,27.589,45,32,45z    M32,35c1.654,0,3,1.346,3,3c0,1.302-0.839,2.402-2,2.816V43h-2v-2.184c-1.161-0.414-2-1.514-2-2.816C29,36.346,30.346,35,32,35z"/>
	<circle cx="32" cy="38" r="1"/>
	<path d="M18,27V15h28v12h1c3.859,0,7-3.141,7-7c0-3.636-2.728-6.631-6.345-6.966l-0.704-0.065l-0.174-0.686   C45.992,9.173,43.205,7,40,7c-0.788,0-1.576,0.139-2.343,0.412l-0.736,0.262l-0.433-0.65C34.812,4.504,32.014,3,29,3   c-4.963,0-9,4.037-9,9v1.133l-1.124-0.076C18.589,13.021,18.297,13,18,13c-3.859,0-7,3.141-7,7S14.141,27,18,27z"/>
	<path d="M36,25c0-2.206-1.794-4-4-4s-4,1.794-4,4v6h8V25z"/>
	<polygon points="43,57 21,57 21,59 17,59 17,61 21,61 43,61 47,61 47,59 43,59  "/>
	<path d="M14.697,49H3v3c0,1.654,1.346,3,3,3h14h1h37c1.654,0,3-1.346,3-3v-1H17.697L14.697,49z M7,53H5v-2h2V53z M11,53H9v-2h2V53z    M15,53h-2v-2h2V53z"/>
	<path d="M58,17h-2.512C55.817,17.939,56,18.948,56,20c0,4.963-4.037,9-9,9h-1v20h15V20C61,18.346,59.654,17,58,17z"/>
</g>
</svg>
