<?xml version="1.0" encoding="iso-8859-1"?>
<!-- Generator: Adobe Illustrator 22.1.0, SVG Export Plug-In . SVG Version: 6.00 Build 0)  -->
<svg xmlns="http://www.w3.org/2000/svg" xmlns:xlink="http://www.w3.org/1999/xlink" version="1.1" id="Layer_1_1_" x="0px" y="0px" viewBox="0 0 64 64" style="enable-background:new 0 0 64 64;" xml:space="preserve" width="512" height="512">
<g>
	<rect x="13" y="51" width="2" height="2"/>
	<rect x="9" y="51" width="2" height="2"/>
	<rect x="5" y="51" width="2" height="2"/>
	<path d="M58,15h-3.509c-1.335-2.005-3.455-3.445-5.968-3.868C47.302,7.489,43.891,5,40,5c-0.768,0-1.533,0.102-2.286,0.301   C35.637,2.595,32.432,1,29,1c-5.71,0-10.418,4.373-10.95,10c-0.017,0-0.033,0-0.05,0c-3.114,0-5.862,1.59-7.478,4H6   c-2.757,0-5,2.243-5,5v32c0,2.757,2.243,5,5,5h13v4h-4v2h34v-2h-4v-4h13c2.757,0,5-2.243,5-5V20C63,17.243,60.757,15,58,15z M58,17   c1.654,0,3,1.346,3,3v29H46V29h1c4.963,0,9-4.037,9-9c0-1.052-0.183-2.061-0.512-3H58z M44,49H20V17h24V49z M18,13   c0.297,0,0.589,0.021,0.876,0.057L20,13.133V12c0-4.963,4.037-9,9-9c3.014,0,5.812,1.504,7.488,4.023l0.433,0.65l0.736-0.262   C38.424,7.139,39.212,7,40,7c3.205,0,5.992,2.173,6.777,5.283l0.174,0.686l0.704,0.065C51.272,13.369,54,16.364,54,20   c0,3.859-3.141,7-7,7h-1V15H18v12c-3.859,0-7-3.141-7-7S14.141,13,18,13z M6,17h3.525C9.191,17.94,9,18.947,9,20   c0,4.963,4.037,9,9,9v19.798L15.303,47H3V20C3,18.346,4.346,17,6,17z M58,55H23v2h20v4H21v-6H6c-1.654,0-3-1.346-3-3v-3h11.697l3,2   H61v1C61,53.654,59.654,55,58,55z"/>
	<path d="M32,47c5.514,0,10-4.486,10-10c0-1.987-0.583-3.908-1.687-5.557L40.017,31H38v-6c0-3.309-2.691-6-6-6s-6,2.691-6,6v6   h-2.017l-0.297,0.443C22.583,33.092,22,35.013,22,37C22,42.514,26.486,47,32,47z M28,25c0-2.206,1.794-4,4-4s4,1.794,4,4v6h-8V25z    M25.072,33h13.855C39.631,34.213,40,35.586,40,37c0,4.411-3.589,8-8,8s-8-3.589-8-8C24,35.586,24.369,34.213,25.072,33z"/>
	<path d="M31,40.816V43h2v-2.184c1.161-0.414,2-1.514,2-2.816c0-1.654-1.346-3-3-3s-3,1.346-3,3C29,39.302,29.839,40.402,31,40.816z    M32,37c0.552,0,1,0.448,1,1s-0.448,1-1,1s-1-0.448-1-1S31.448,37,32,37z"/>
</g>
</svg>
