<?xml version="1.0" encoding="iso-8859-1"?>
<!-- Generator: Adobe Illustrator 22.1.0, SVG Export Plug-In . SVG Version: 6.00 Build 0)  -->
<svg xmlns="http://www.w3.org/2000/svg" xmlns:xlink="http://www.w3.org/1999/xlink" version="1.1" id="Layer_1_1_" x="0px" y="0px" viewBox="0 0 64 64" style="enable-background:new 0 0 64 64;" xml:space="preserve" width="512" height="512">
<linearGradient id="SVGID_1_" gradientUnits="userSpaceOnUse" x1="32" y1="63" x2="32" y2="1">
	<stop offset="0" style="stop-color:#9F2FFF"/>
	<stop offset="1" style="stop-color:#0BB1D3"/>
</linearGradient>
<path style="fill:url(#SVGID_1_);" d="M60,45h-4.764l-2.944-1.472C51.601,43.183,50.828,43,50.056,43H45v-1c0-1.654-1.346-3-3-3H28  c-0.551,0-1-0.449-1-1v-4c0-1.654-1.346-3-3-3h-3v9c0,0.551-0.449,1-1,1H4c-0.551,0-1-0.449-1-1V4c0-0.551,0.449-1,1-1h16  c0.551,0,1,0.449,1,1v25h2V4c0-1.654-1.346-3-3-3H4C2.346,1,1,2.346,1,4v36c0,1.654,1.346,3,3,3h16c1.654,0,3-1.346,3-3v-7h1  c0.551,0,1,0.449,1,1v4c0,1.654,1.346,3,3,3h14c0.551,0,1,0.449,1,1v1h-5.056c-0.772,0-1.545,0.183-2.236,0.528L32.764,45H28  c-1.654,0-3,1.346-3,3v12c0,1.654,1.346,3,3,3h32c1.654,0,3-1.346,3-3V48C63,46.346,61.654,45,60,45z M61,60c0,0.551-0.449,1-1,1H28  c-0.551,0-1-0.449-1-1V48c0-0.551,0.449-1,1-1h5.236l3.367-1.683C37.017,45.109,37.481,45,37.944,45h12.111  c0.463,0,0.927,0.109,1.342,0.317L54.764,47H60c0.551,0,1,0.449,1,1V60z M33,53h2v2h-2V53z M39,55h-2v-2h2V55z M47,55h-2v-2h2V55z   M51,55h-2v-2h2V55z M53,53h2v2h-2V53z M57,53h2v2h-2V53z M33,49h2v2h-2V49z M39,51h-2v-2h2V51z M47,51h-2v-2h2V51z M43,55h-2v-2h2  V55z M43,51h-2v-2h2V51z M51,51h-2v-2h2V51z M53,49h2v2h-2V49z M57,49h2v2h-2V49z M57,57h2v2h-2V57z M37,57h18v2H37V57z M33,57h2v2  h-2V57z M29,53h2v2h-2V53z M29,49h2v2h-2V49z M29,57h2v2h-2V57z M58,1H30c-2.757,0-5,2.243-5,5v16c0,2.757,2.243,5,5,5h7v4h-4v2h22  v-2h-4v-4h7c2.757,0,5-2.243,5-5V6C63,3.243,60.757,1,58,1z M30,3h28c1.654,0,3,1.346,3,3v13H27V6C27,4.346,28.346,3,30,3z M49,31  H39v-4h10V31z M58,25H30c-1.654,0-3-1.346-3-3v-1h34v1C61,23.654,59.654,25,58,25z M19,5H5v8h14V5z M17,11H7V7h10V11z M7,34  c0,2.757,2.243,5,5,5s5-2.243,5-5s-2.243-5-5-5S7,31.243,7,34z M15,34c0,1.302-0.839,2.402-2,2.816V33h-2v3.816  C9.839,36.402,9,35.302,9,34c0-1.654,1.346-3,3-3S15,32.346,15,34z M19,15H5v12h14V15z M17,17v2H7v-2H17z M7,25v-4h10v4H7z"/>
</svg>
