<?xml version="1.0" encoding="iso-8859-1"?>
<!-- Generator: Adobe Illustrator 22.1.0, SVG Export Plug-In . SVG Version: 6.00 Build 0)  -->
<svg xmlns="http://www.w3.org/2000/svg" xmlns:xlink="http://www.w3.org/1999/xlink" version="1.1" id="Layer_1_1_" x="0px" y="0px" viewBox="0 0 64 64" style="enable-background:new 0 0 64 64;" xml:space="preserve" width="512" height="512">
<g>
	<path d="M58,43h-4.764l-2.944-1.472C49.601,41.183,48.828,41,48.056,41H43v-1c0-1.654-1.346-3-3-3H26c-0.551,0-1-0.449-1-1v-4   c0-1.654-1.346-3-3-3h-1V4c0-0.551-0.449-1-1-1H4C3.449,3,3,3.449,3,4v36c0,0.551,0.449,1,1,1h16c0.551,0,1-0.449,1-1v-9h1   c0.551,0,1,0.449,1,1v4c0,1.654,1.346,3,3,3h14c0.551,0,1,0.449,1,1v1h-5.056c-0.772,0-1.545,0.183-2.236,0.528L30.764,43H26   c-1.654,0-3,1.346-3,3v12c0,1.654,1.346,3,3,3h32c1.654,0,3-1.346,3-3V46C61,44.346,59.654,43,58,43z M12,39c-2.757,0-5-2.243-5-5   s2.243-5,5-5s5,2.243,5,5S14.757,39,12,39z M19,27H5V15h14V27z M19,13H5V5h14V13z M29,57h-2v-2h2V57z M29,53h-2v-2h2V53z M29,49h-2   v-2h2V49z M33,57h-2v-2h2V57z M33,53h-2v-2h2V53z M33,49h-2v-2h2V49z M47,47h2v2h-2V47z M47,51h2v2h-2V51z M43,51h2v2h-2V51z    M43,49v-2h2v2H43z M39,47h2v2h-2V47z M39,51h2v2h-2V51z M35,47h2v2h-2V47z M35,51h2v2h-2V51z M53,57H35v-2h18V57z M53,53h-2v-2h2   V53z M53,49h-2v-2h2V49z M57,57h-2v-2h2V57z M57,53h-2v-2h2V53z M57,49h-2v-2h2V49z"/>
	<polygon points="39,27 39,29 35,29 35,31 39,31 49,31 53,31 53,29 49,29 49,27  "/>
	<path d="M27,22c0,1.654,1.346,3,3,3h28c1.654,0,3-1.346,3-3v-1H27V22z"/>
	<path d="M58,3H30c-1.654,0-3,1.346-3,3v13h34V6C61,4.346,59.654,3,58,3z"/>
	<path d="M12,31c-1.654,0-3,1.346-3,3c0,1.302,0.839,2.402,2,2.816V33h2v3.816c1.161-0.414,2-1.514,2-2.816   C15,32.346,13.654,31,12,31z"/>
	<rect x="7" y="17" width="10" height="2"/>
	<rect x="7" y="21" width="10" height="4"/>
	<rect x="7" y="7" width="10" height="4"/>
</g>
</svg>
