<?xml version="1.0" encoding="iso-8859-1"?>
<!-- Generator: Adobe Illustrator 22.1.0, SVG Export Plug-In . SVG Version: 6.00 Build 0)  -->
<svg xmlns="http://www.w3.org/2000/svg" xmlns:xlink="http://www.w3.org/1999/xlink" version="1.1" id="Layer_1_1_" x="0px" y="0px" viewBox="0 0 64 64" style="enable-background:new 0 0 64 64;" xml:space="preserve" width="512" height="512">
<g>
	<path d="M60,45h-4.764l-2.944-1.472C51.601,43.183,50.828,43,50.056,43H45v-1c0-1.654-1.346-3-3-3H28c-0.551,0-1-0.449-1-1v-4   c0-1.654-1.346-3-3-3h-3v9c0,0.551-0.449,1-1,1H4c-0.551,0-1-0.449-1-1V4c0-0.551,0.449-1,1-1h16c0.551,0,1,0.449,1,1v25h2V4   c0-1.654-1.346-3-3-3H4C2.346,1,1,2.346,1,4v36c0,1.654,1.346,3,3,3h16c1.654,0,3-1.346,3-3v-7h1c0.551,0,1,0.449,1,1v4   c0,1.654,1.346,3,3,3h14c0.551,0,1,0.449,1,1v1h-5.056c-0.772,0-1.545,0.183-2.236,0.528L32.764,45H28c-1.654,0-3,1.346-3,3v12   c0,1.654,1.346,3,3,3h32c1.654,0,3-1.346,3-3V48C63,46.346,61.654,45,60,45z M61,60c0,0.551-0.449,1-1,1H28c-0.551,0-1-0.449-1-1   V48c0-0.551,0.449-1,1-1h5.236l3.367-1.683C37.017,45.109,37.481,45,37.944,45h12.111c0.463,0,0.927,0.109,1.342,0.317L54.764,47   H60c0.551,0,1,0.449,1,1V60z"/>
	<rect x="33" y="53" width="2" height="2"/>
	<rect x="37" y="53" width="2" height="2"/>
	<rect x="45" y="53" width="2" height="2"/>
	<rect x="49" y="53" width="2" height="2"/>
	<rect x="53" y="53" width="2" height="2"/>
	<rect x="57" y="53" width="2" height="2"/>
	<rect x="33" y="49" width="2" height="2"/>
	<rect x="37" y="49" width="2" height="2"/>
	<rect x="45" y="49" width="2" height="2"/>
	<rect x="41" y="53" width="2" height="2"/>
	<rect x="41" y="49" width="2" height="2"/>
	<rect x="49" y="49" width="2" height="2"/>
	<rect x="53" y="49" width="2" height="2"/>
	<rect x="57" y="49" width="2" height="2"/>
	<rect x="57" y="57" width="2" height="2"/>
	<rect x="37" y="57" width="18" height="2"/>
	<rect x="33" y="57" width="2" height="2"/>
	<rect x="29" y="53" width="2" height="2"/>
	<rect x="29" y="49" width="2" height="2"/>
	<rect x="29" y="57" width="2" height="2"/>
	<path d="M58,1H30c-2.757,0-5,2.243-5,5v16c0,2.757,2.243,5,5,5h7v4h-4v2h22v-2h-4v-4h7c2.757,0,5-2.243,5-5V6   C63,3.243,60.757,1,58,1z M30,3h28c1.654,0,3,1.346,3,3v13H27V6C27,4.346,28.346,3,30,3z M49,31H39v-4h10V31z M58,25H30   c-1.654,0-3-1.346-3-3v-1h34v1C61,23.654,59.654,25,58,25z"/>
	<path d="M19,5H5v8h14V5z M17,11H7V7h10V11z"/>
	<path d="M7,34c0,2.757,2.243,5,5,5s5-2.243,5-5s-2.243-5-5-5S7,31.243,7,34z M15,34c0,1.302-0.839,2.402-2,2.816V33h-2v3.816   C9.839,36.402,9,35.302,9,34c0-1.654,1.346-3,3-3S15,32.346,15,34z"/>
	<path d="M19,15H5v12h14V15z M17,17v2H7v-2H17z M7,25v-4h10v4H7z"/>
</g>
</svg>
