<?xml version="1.0" encoding="iso-8859-1"?>
<!-- Generator: Adobe Illustrator 22.1.0, SVG Export Plug-In . SVG Version: 6.00 Build 0)  -->
<svg xmlns="http://www.w3.org/2000/svg" xmlns:xlink="http://www.w3.org/1999/xlink" version="1.1" id="Layer_1_1_" x="0px" y="0px" viewBox="0 0 64 64" style="enable-background:new 0 0 64 64;" xml:space="preserve" width="512" height="512">
<g>
	<path d="M47,23v2H37v-2h-6v2h4v2h-4v2h4v2h-4v2h4v2h-4v2h4v2h-4v2h4v2h-2.586l2,2H40v-2h6v2h15V23H47z M59,41H37V27h22V41z"/>
	<polygon points="15,27.685 15,36.315 22.912,32  "/>
	<path d="M3,58c0,1.654,1.346,3,3,3h26c1.654,0,3-1.346,3-3v-3H3V58z M16,57h6v2h-6V57z"/>
	<path d="M35,6c0-1.654-1.346-3-3-3H6C4.346,3,3,4.346,3,6v3h32V6z M13,7h-2V5h2V7z M23,7h-8V5h8V7z M27,7h-2V5h2V7z"/>
	<path d="M31,21v-6H7v34h24v-4.586l-2-2V21H31z M27,45H9V19h18v2H11v22h16V45z M13,39.685V24.315L27.088,32L13,39.685z"/>
	<polygon points="33,46.414 33,51 5,51 5,13 33,13 33,21 35,21 35,11 3,11 3,53 35,53 35,47 33.586,47  "/>
	<path d="M57,29H39v10h18V29z M43,37h-2v-6h2V37z M47,37h-2v-6h2V37z M51,37h-2v-6h2V37z M55,37h-2v-6h2V37z"/>
</g>
</svg>
