<?xml version="1.0" encoding="iso-8859-1"?>
<!-- Generator: Adobe Illustrator 22.1.0, SVG Export Plug-In . SVG Version: 6.00 Build 0)  -->
<svg xmlns="http://www.w3.org/2000/svg" xmlns:xlink="http://www.w3.org/1999/xlink" version="1.1" id="Layer_1_1_" x="0px" y="0px" viewBox="0 0 64 64" style="enable-background:new 0 0 64 64;" xml:space="preserve" width="512" height="512">
<g>
	<path style="fill:#F0BC5E;" d="M31,51H7c-1.105,0-2-0.895-2-2V15c0-1.105,0.895-2,2-2h24c1.105,0,2,0.895,2,2v8h-3v20l3,3v3   C33,50.105,32.105,51,31,51z"/>
	<rect x="41" y="32" style="fill:#F0BC5E;" width="14" height="6"/>
	<g>
		<rect x="15" y="5" width="8" height="2"/>
		<rect x="25" y="5" width="2" height="2"/>
		<rect x="11" y="5" width="2" height="2"/>
		<rect x="16" y="57" width="6" height="2"/>
		<path d="M27.088,32L13,24.315v15.369L27.088,32z M15,27.685L22.912,32L15,36.315V27.685z"/>
		<path d="M45,22v2h-6v-2h-2V6c0-2.757-2.243-5-5-5H6C3.243,1,1,3.243,1,6v52c0,2.757,2.243,5,5,5h26c2.757,0,5-2.243,5-5V48h5v-2h2    v2h19V22H45z M6,3h26c1.654,0,3,1.346,3,3v3H3V6C3,4.346,4.346,3,6,3z M32,61H6c-1.654,0-3-1.346-3-3v-3h32v3    C35,59.654,33.654,61,32,61z M35,53H3V11h32v11h-6v21.414L33.586,48H35V53z M61,46H46v-2h-6v2h-5.586l-2-2H35v-2h-4v-2h4v-2h-4v-2    h4v-2h-4v-2h4v-2h-4v-2h4v-2h-4v-2h6v2h10v-2h14V46z"/>
		<path d="M37,42h22V28H37V42z M39,30h18v10H39V30z"/>
		<rect x="49" y="32" width="2" height="6"/>
		<rect x="45" y="32" width="2" height="6"/>
		<rect x="41" y="32" width="2" height="6"/>
		<rect x="53" y="32" width="2" height="6"/>
		<polygon points="9,45 28,45 28,43 11,43 11,21 28,21 28,19 9,19   "/>
	</g>
</g>
</svg>
