<?xml version="1.0" encoding="iso-8859-1"?>
<!-- Generator: Adobe Illustrator 22.1.0, SVG Export Plug-In . SVG Version: 6.00 Build 0)  -->
<svg xmlns="http://www.w3.org/2000/svg" xmlns:xlink="http://www.w3.org/1999/xlink" version="1.1" id="Layer_1_1_" x="0px" y="0px" viewBox="0 0 64 64" style="enable-background:new 0 0 64 64;" xml:space="preserve" width="512" height="512">
<g>
	<g>
		<rect x="2" y="42" style="fill:#F0BC5E;" width="5" height="4"/>
	</g>
	<g>
		<rect x="57" y="42" style="fill:#F0BC5E;" width="5" height="4"/>
	</g>
	<g>
		<path style="fill:#F0BC5E;" d="M56,39h-6V21h6V39z"/>
	</g>
	<g>
		<path style="fill:#F0BC5E;" d="M48,39h-6V21h6V39z"/>
	</g>
	<g>
		<path style="fill:#F0BC5E;" d="M40,39h-6V21h6V39z"/>
	</g>
	<g>
		<path d="M63,27V17H1v10h3v2H1v6h3v2H1v10h23v-5c0-0.552,0.449-1,1-1s1,0.448,1,1v5h37V37h-3v-2h3v-6h-3v-2H63z M3,45v-2h19v2H3z     M28,45v-2h33v2H28z M60,31h1v2h-1c-1.103,0-2,0.897-2,2v2c0,1.103,0.897,2,2,2h1v2H27.816c-0.414-1.161-1.514-2-2.816-2    s-2.402,0.839-2.816,2H3v-2h1c1.103,0,2-0.897,2-2v-2c0-1.103-0.897-2-2-2H3v-2h1c1.103,0,2-0.897,2-2v-2c0-1.103-0.897-2-2-2H3    v-6h58v6h-1c-1.103,0-2,0.897-2,2v2C58,30.103,58.897,31,60,31z"/>
		<path d="M8,31h24V21H8V31z M10,23h20v6H10V23z"/>
		<rect x="12" y="25" width="16" height="2"/>
		<rect x="8" y="33" width="4" height="2"/>
		<rect x="14" y="33" width="4" height="2"/>
		<rect x="20" y="33" width="4" height="2"/>
		<rect x="8" y="37" width="4" height="2"/>
		<rect x="14" y="37" width="4" height="2"/>
		<rect x="26" y="33" width="4" height="2"/>
	</g>
</g>
</svg>
