<?xml version="1.0" encoding="iso-8859-1"?>
<!-- Generator: Adobe Illustrator 22.1.0, SVG Export Plug-In . SVG Version: 6.00 Build 0)  -->
<svg xmlns="http://www.w3.org/2000/svg" xmlns:xlink="http://www.w3.org/1999/xlink" version="1.1" id="Layer_1_1_" x="0px" y="0px" viewBox="0 0 64 64" style="enable-background:new 0 0 64 64;" xml:space="preserve" width="512" height="512">
<linearGradient id="SVGID_1_" gradientUnits="userSpaceOnUse" x1="32" y1="47" x2="32" y2="17">
	<stop offset="0" style="stop-color:#9F2FFF"/>
	<stop offset="1" style="stop-color:#0BB1D3"/>
</linearGradient>
<path style="fill:url(#SVGID_1_);" d="M1,27h3v2H1v6h3v2H1v10h23v-5c0-0.552,0.449-1,1-1s1,0.448,1,1v5h37V37h-3v-2h3v-6h-3v-2h3V17  H1V27z M3,43h2v2H3V43z M7,45v-2h15v2H7z M28,43h29v2H28V43z M59,45v-2h2v2H59z M3,19h58v6h-1c-1.103,0-2,0.897-2,2v2  c0,1.103,0.897,2,2,2h1v2h-1c-1.103,0-2,0.897-2,2v2c0,1.103,0.897,2,2,2h1v2H27.816c-0.414-1.161-1.514-2-2.816-2  s-2.402,0.839-2.816,2H3v-2h1c1.103,0,2-0.897,2-2v-2c0-1.103-0.897-2-2-2H3v-2h1c1.103,0,2-0.897,2-2v-2c0-1.103-0.897-2-2-2H3V19z   M56,21h-6v18h6V21z M54,37h-2V23h2V37z M48,21h-6v18h6V21z M46,37h-2V23h2V37z M40,21h-6v18h6V21z M38,37h-2V23h2V37z M32,21H8v10  h24V21z M30,29H10v-6h20V29z M28,27H12v-2h16V27z M12,35H8v-2h4V35z M14,33h4v2h-4V33z M20,33h4v2h-4V33z M12,39H8v-2h4V39z M14,37  h4v2h-4V37z M26,33h4v2h-4V33z"/>
</svg>
