<?xml version="1.0" encoding="iso-8859-1"?>
<!-- Generator: Adobe Illustrator 22.1.0, SVG Export Plug-In . SVG Version: 6.00 Build 0)  -->
<svg xmlns="http://www.w3.org/2000/svg" xmlns:xlink="http://www.w3.org/1999/xlink" version="1.1" id="Layer_1_1_" x="0px" y="0px" viewBox="0 0 64 64" style="enable-background:new 0 0 64 64;" xml:space="preserve" width="512" height="512">
<g>
	<path d="M18.764,20C21.1,20,23,21.9,23,24.236c0,0.345,0.082,0.691,0.236,1l1.559,3.117c0.446,0.893,1.444,1.38,2.42,1.184   C28.249,29.331,29,28.415,29,27.36v-5.997C29,18.406,26.594,16,23.636,16c-1.967,0-3.816-0.766-5.207-2.157l-1.125-1.125   c-0.968,2.266-1.4,4.745-1.247,7.282H18.764z"/>
	<path d="M23.636,14C27.696,14,31,17.303,31,21.364v5.997c0,2.005-1.427,3.745-3.393,4.138c-0.275,0.055-0.551,0.082-0.824,0.082   c-1.573,0-3.054-0.886-3.777-2.333l-1.559-3.117C21.154,25.545,21,24.89,21,24.236C21,23.003,19.997,22,18.764,22h-2.476   c1.27,6.762,6.956,12.121,13.856,12.896c0.29,0.033,0.577,0.038,0.865,0.055C31.009,34.91,31,34.867,31,34.826v-0.122   c0-2.055,1.232-3.875,3.141-4.638C35.27,29.615,36,28.537,36,27.32c0-0.637-0.21-1.267-0.592-1.775L34.101,23.8   C33.391,22.855,33,21.683,33,20.5c0-3.033,2.468-5.5,5.5-5.5h0.138c0.693,0,1.364-0.203,1.941-0.588l1.21-0.807   c1.327-0.885,2.746-1.65,4.224-2.296c-0.831-1.5-1.897-2.856-3.147-4.019c-0.055,0.082-0.109,0.17-0.165,0.249l-0.431,0.603   c-1.726,2.417-4.78,3.409-7.598,2.47c-1.058-0.353-2.211-0.32-3.249,0.096l-2.029,0.812C28.597,11.838,27.756,12,26.897,12h-1.526   c-1.797,0-3.485-0.7-4.755-1.97c-0.351-0.351-0.682-0.738-0.997-1.148c-0.509,0.621-0.964,1.274-1.369,1.954l1.592,1.592   C20.855,13.442,22.203,14,23.636,14z"/>
	<path d="M41.688,16.076C40.781,16.681,39.727,17,38.638,17H38.5c-1.93,0-3.5,1.57-3.5,3.5c0,0.752,0.249,1.499,0.7,2.1l1.308,1.745   C37.647,25.196,38,26.252,38,27.32c0,2.039-1.224,3.846-3.116,4.604C33.739,32.381,33,33.473,33,34.705v0.122   c0,0.041,0.009,0.087,0.011,0.129c3.075-0.191,5.996-1.257,8.487-3.102l-1.816-8.171l7.042,1.565   c1.081-2.546,1.488-5.344,1.166-8.148c-0.159-1.387-0.508-2.723-1.012-3.986c-1.394,0.604-2.731,1.322-3.98,2.155L41.688,16.076z"/>
	<path d="M45,33.414l-2.581,2.581l-0.447-2.009C39.016,35.959,35.572,37,32,37c-0.688,0-1.382-0.039-2.078-0.117   c-2.179-0.244-4.245-0.906-6.13-1.883H11v8h42v-3.586l-1,1L45,33.414z"/>
	<polygon points="42.317,26.317 43.581,32.005 45,30.586 52,37.586 53.586,36 46.586,29 48.005,27.581  "/>
	<path d="M25.371,10h1.526c0.604,0,1.194-0.114,1.755-0.338l2.029-0.812c1.476-0.591,3.119-0.639,4.624-0.136   c1.98,0.66,4.124-0.038,5.338-1.736l0.43-0.602c0.082-0.115,0.163-0.243,0.245-0.37c-2.093-1.512-4.553-2.533-7.203-2.872   c-4.854-0.62-9.595,0.939-13.1,4.258c0.319,0.442,0.652,0.86,1.015,1.223C22.923,9.509,24.108,10,25.371,10z"/>
	<path d="M14.697,49H3v3c0,1.654,1.346,3,3,3h14h1h37c1.654,0,3-1.346,3-3v-1H17.697L14.697,49z M7,53H5v-2h2V53z M11,53H9v-2h2V53z    M15,53h-2v-2h2V53z"/>
	<path d="M58,17h-8.113c0.322,2.981-0.08,5.958-1.172,8.69l3.28,0.729L49.414,29l7,7L55,37.414V45H9V33h11.728   c-3.524-2.847-5.984-6.98-6.578-11.637c-0.188-1.471-0.194-2.933-0.036-4.363H6c-1.654,0-3,1.346-3,3v27h12.303l3,2H61V20   C61,18.346,59.654,17,58,17z"/>
	<polygon points="43,57 21,57 21,59 17,59 17,61 21,61 43,61 47,61 47,59 43,59  "/>
</g>
</svg>
