<?xml version="1.0" encoding="iso-8859-1"?>
<!-- Generator: Adobe Illustrator 22.1.0, SVG Export Plug-In . SVG Version: 6.00 Build 0)  -->
<svg xmlns="http://www.w3.org/2000/svg" xmlns:xlink="http://www.w3.org/1999/xlink" version="1.1" id="Layer_1_1_" x="0px" y="0px" viewBox="0 0 64 64" style="enable-background:new 0 0 64 64;" xml:space="preserve" width="512" height="512">
<linearGradient id="SVGID_1_" gradientUnits="userSpaceOnUse" x1="32" y1="63" x2="32" y2="0.9994">
	<stop offset="0" style="stop-color:#9F2FFF"/>
	<stop offset="1" style="stop-color:#0BB1D3"/>
</linearGradient>
<path style="fill:url(#SVGID_1_);" d="M13,51h2v2h-2V51z M9,53h2v-2H9V53z M5,53h2v-2H5V53z M63,20v32c0,2.757-2.243,5-5,5H45v4h4v2  H15v-2h4v-4H6c-2.757,0-5-2.243-5-5V20c0-2.757,2.243-5,5-5h8.449c0.74-3.269,2.382-6.289,4.824-8.729  c3.973-3.972,9.474-5.841,15.096-5.119C41.793,2.101,47.903,7.792,49.545,15H58C60.757,15,63,17.243,63,20z M47.891,17.1  c-0.159-1.387-0.508-2.723-1.012-3.986c-1.394,0.604-2.731,1.322-3.98,2.155l-1.21,0.807C40.781,16.681,39.727,17,38.638,17H38.5  c-1.93,0-3.5,1.57-3.5,3.5c0,0.752,0.249,1.499,0.7,2.1l1.308,1.745C37.647,25.196,38,26.252,38,27.32  c0,2.039-1.224,3.846-3.116,4.604C33.739,32.381,33,33.473,33,34.705v0.122c0,0.041,0.009,0.087,0.011,0.129  c3.075-0.191,5.996-1.257,8.487-3.102l-1.816-8.171l7.042,1.565C47.805,22.702,48.213,19.904,47.891,17.1z M23.791,35H11v8h42  v-3.586l-1,1l-7-7l-2.581,2.581l-0.447-2.009C39.016,35.959,35.572,37,32,37c-0.688,0-1.382-0.039-2.078-0.117  C27.743,36.638,25.677,35.977,23.791,35z M53.586,36l-7-7l1.419-1.419l-5.688-1.264l1.264,5.688L45,30.586l7,7L53.586,36z   M42.866,7.29c-0.055,0.082-0.109,0.17-0.165,0.249l-0.431,0.603c-1.726,2.417-4.78,3.409-7.598,2.47  c-1.058-0.353-2.211-0.32-3.249,0.096l-2.029,0.812C28.597,11.838,27.756,12,26.897,12h-1.526c-1.797,0-3.485-0.7-4.755-1.97  c-0.351-0.351-0.682-0.738-0.997-1.148c-0.509,0.621-0.964,1.274-1.369,1.954l1.592,1.592C20.855,13.442,22.203,14,23.636,14  C27.696,14,31,17.303,31,21.364v5.997c0,2.005-1.427,3.745-3.393,4.138c-0.275,0.055-0.551,0.082-0.824,0.082  c-1.573,0-3.054-0.886-3.777-2.333l-1.559-3.117C21.154,25.545,21,24.89,21,24.236C21,23.003,19.997,22,18.764,22h-2.476  c1.27,6.762,6.956,12.121,13.856,12.896c0.29,0.033,0.577,0.038,0.865,0.055C31.009,34.91,31,34.867,31,34.826v-0.122  c0-2.055,1.232-3.875,3.141-4.638C35.27,29.615,36,28.537,36,27.32c0-0.637-0.21-1.267-0.592-1.775L34.101,23.8  C33.391,22.855,33,21.683,33,20.5c0-3.033,2.468-5.5,5.5-5.5h0.138c0.693,0,1.364-0.203,1.941-0.588l1.21-0.807  c1.327-0.885,2.746-1.65,4.224-2.296C45.182,9.809,44.116,8.454,42.866,7.29z M21.015,7.393c0.319,0.442,0.652,0.86,1.015,1.223  C22.923,9.509,24.108,10,25.371,10h1.526c0.604,0,1.194-0.114,1.755-0.338l2.029-0.812c1.476-0.591,3.119-0.639,4.624-0.136  c1.98,0.66,4.124-0.038,5.338-1.736l0.43-0.602c0.082-0.115,0.163-0.243,0.245-0.37c-2.093-1.512-4.553-2.533-7.203-2.872  C29.261,2.515,24.52,4.074,21.015,7.393z M16.056,20h2.708C21.1,20,23,21.9,23,24.236c0,0.345,0.082,0.691,0.236,1l1.559,3.117  c0.446,0.893,1.444,1.38,2.42,1.184C28.249,29.331,29,28.415,29,27.36v-5.997C29,18.406,26.594,16,23.636,16  c-1.967,0-3.816-0.766-5.207-2.157l-1.125-1.125C16.336,14.984,15.904,17.463,16.056,20z M3,20v27h12.303l3,2H61V20  c0-1.654-1.346-3-3-3h-8.113c0.322,2.981-0.08,5.958-1.172,8.69l3.28,0.729L49.414,29l7,7L55,37.414V45H9V33h11.728  c-3.524-2.847-5.984-6.98-6.578-11.637c-0.188-1.471-0.194-2.933-0.036-4.363H6C4.346,17,3,18.346,3,20z M61,52v-1H17.697l-3-2H3v3  c0,1.654,1.346,3,3,3h15v6h22v-4H23v-2h35C59.654,55,61,53.654,61,52z"/>
</svg>
