<?xml version="1.0" encoding="iso-8859-1"?>
<!-- Generator: Adobe Illustrator 22.1.0, SVG Export Plug-In . SVG Version: 6.00 Build 0)  -->
<svg xmlns="http://www.w3.org/2000/svg" xmlns:xlink="http://www.w3.org/1999/xlink" version="1.1" id="Layer_1_1_" x="0px" y="0px" viewBox="0 0 64 64" style="enable-background:new 0 0 64 64;" xml:space="preserve" width="512" height="512">
<g>
	<path style="fill:#F0BC5E;" d="M30,21.36v6c0,1.54-1.08,2.86-2.59,3.16c-1.42,0.28-2.86-0.42-3.51-1.72l-1.56-3.12   C22.12,25.23,22,24.74,22,24.24c0-1.79-1.45-3.24-3.24-3.24h-3.64h-0.01c-0.19-1.72-0.13-3.4,0.16-5c0.31-1.78,0.9-3.46,1.73-5   l2.14,2.14c1.19,1.19,2.81,1.86,4.5,1.86C27.15,15,30,17.85,30,21.36z"/>
	<path style="fill:#F0BC5E;" d="M41.89,6.96l-0.43,0.6c-1.1,1.53-2.85,2.4-4.66,2.4c-0.6,0-1.22-0.1-1.81-0.3   c-1.29-0.43-2.68-0.38-3.94,0.12l-2.03,0.81C28.35,10.86,27.63,11,26.9,11h-1.53c-1.52,0-2.97-0.6-4.05-1.68   C20.7,8.7,20.17,8,19.71,7.26c3.57-3.74,8.82-5.85,14.53-5.12c3.14,0.4,6.03,1.69,8.4,3.6l-0.01,0.01   C42.41,6.17,42.16,6.57,41.89,6.96z"/>
	<path style="fill:#F0BC5E;" d="M42.62,32.28c-2.87,2.29-6.49,3.67-10.44,3.71v-0.01c-0.1-0.37-0.18-0.75-0.18-1.15V34.7   c0-1.63,0.99-3.1,2.51-3.7c1.5-0.61,2.49-2.06,2.49-3.68c0-0.86-0.28-1.69-0.79-2.38L34.9,23.2c-0.58-0.78-0.9-1.73-0.9-2.7   c0-2.49,2.01-4.5,4.5-4.5h0.14c0.89,0,1.75-0.26,2.49-0.76l1.21-0.8c1.6-1.06,3.3-1.94,5.06-2.63c0.62,1.31,1.08,2.72,1.33,4.19   c0.06,0.33,0.11,0.66,0.15,0.99c0.39,3.39-0.22,6.62-1.57,9.41L41,25L42.62,32.28z"/>
	<g>
		<rect x="13" y="51" width="2" height="2"/>
		<rect x="9" y="51" width="2" height="2"/>
		<rect x="5" y="51" width="2" height="2"/>
		<path d="M58,15h-8.455C47.903,7.792,41.793,2.101,34.369,1.152c-5.622-0.723-11.123,1.147-15.096,5.119    c-2.442,2.441-4.084,5.461-4.824,8.729H6c-2.757,0-5,2.243-5,5v32c0,2.757,2.243,5,5,5h13v4h-4v2h34v-2h-4v-4h13    c2.757,0,5-2.243,5-5V20C63,17.243,60.757,15,58,15z M20.688,7.685c3.532-3.531,8.426-5.188,13.428-4.55    C41.272,4.05,47.066,9.923,47.891,17.1c0.322,2.804-0.085,5.602-1.166,8.148l-7.042-1.565l1.816,8.171    c-3.257,2.412-7.254,3.502-11.354,3.042c-7.202-0.808-13.095-6.606-14.01-13.786C15.497,16.108,17.156,11.215,20.688,7.685z     M29.922,36.883C30.618,36.961,31.312,37,32,37c3.572,0,7.016-1.04,9.972-3.013l0.447,2.009L45,33.414l7,7l1-1V43H11v-8h12.791    C25.677,35.977,27.743,36.638,29.922,36.883z M52,37.586l-7-7l-1.419,1.419l-1.264-5.688l5.688,1.264L46.586,29l7,7L52,37.586z     M6,17h8.115c-0.158,1.43-0.152,2.892,0.036,4.363c0.594,4.657,3.054,8.79,6.578,11.637H9v12h46v-7.586L56.414,36l-7-7    l2.581-2.581l-3.28-0.729c1.093-2.732,1.494-5.709,1.172-8.69H58c1.654,0,3,1.346,3,3v29H18.303l-3-2H3V20C3,18.346,4.346,17,6,17    z M58,55H23v2h20v4H21v-6H6c-1.654,0-3-1.346-3-3v-3h11.697l3,2H61v1C61,53.654,59.654,55,58,55z"/>
	</g>
</g>
</svg>
