<?xml version="1.0" encoding="iso-8859-1"?>
<!-- Generator: Adobe Illustrator 22.1.0, SVG Export Plug-In . SVG Version: 6.00 Build 0)  -->
<svg xmlns="http://www.w3.org/2000/svg" xmlns:xlink="http://www.w3.org/1999/xlink" version="1.1" id="Layer_1_1_" x="0px" y="0px" viewBox="0 0 64 64" style="enable-background:new 0 0 64 64;" xml:space="preserve" width="512" height="512">
<g>
	<rect x="13" y="51" width="2" height="2"/>
	<rect x="9" y="51" width="2" height="2"/>
	<rect x="5" y="51" width="2" height="2"/>
	<path d="M58,15h-8.455C47.903,7.792,41.793,2.101,34.369,1.152c-5.622-0.723-11.123,1.147-15.096,5.119   c-2.442,2.441-4.084,5.461-4.824,8.729H6c-2.757,0-5,2.243-5,5v32c0,2.757,2.243,5,5,5h13v4h-4v2h34v-2h-4v-4h13   c2.757,0,5-2.243,5-5V20C63,17.243,60.757,15,58,15z M46.725,25.248l-7.042-1.565l1.816,8.171c-2.491,1.845-5.413,2.91-8.487,3.102   C33.009,34.913,33,34.867,33,34.826v-0.122c0-1.232,0.739-2.323,1.884-2.781C36.776,31.166,38,29.359,38,27.32   c0-1.067-0.353-2.124-0.992-2.975L35.7,22.6c-0.451-0.602-0.7-1.348-0.7-2.1c0-1.93,1.57-3.5,3.5-3.5h0.138   c1.089,0,2.144-0.319,3.051-0.924l1.21-0.807c1.248-0.833,2.586-1.551,3.98-2.155c0.504,1.263,0.853,2.599,1.012,3.986   C48.213,19.904,47.805,22.702,46.725,25.248z M29.922,36.883C30.618,36.961,31.312,37,32,37c3.572,0,7.016-1.04,9.972-3.013   l0.447,2.009L45,33.414l7,7l1-1V43H11v-8h12.791C25.677,35.977,27.743,36.638,29.922,36.883z M52,37.586l-7-7l-1.419,1.419   l-1.264-5.688l5.688,1.264L46.586,29l7,7L52,37.586z M46.013,11.31c-1.478,0.646-2.897,1.411-4.224,2.296l-1.21,0.807   C40.002,14.797,39.331,15,38.638,15H38.5c-3.032,0-5.5,2.467-5.5,5.5c0,1.183,0.391,2.355,1.101,3.3l1.308,1.745   C35.79,26.053,36,26.683,36,27.32c0,1.217-0.73,2.295-1.859,2.747C32.232,30.83,31,32.65,31,34.705v0.122   c0,0.041,0.009,0.083,0.01,0.124c-0.288-0.017-0.576-0.023-0.865-0.055C23.244,34.121,17.558,28.762,16.288,22h2.476   C19.997,22,21,23.003,21,24.236c0,0.654,0.154,1.309,0.447,1.894l1.559,3.117c0.724,1.446,2.204,2.333,3.777,2.333   c0.273,0,0.549-0.027,0.824-0.082C29.573,31.105,31,29.365,31,27.36v-5.997C31,17.303,27.696,14,23.636,14   c-1.433,0-2.78-0.558-3.793-1.571l-1.592-1.592c0.405-0.681,0.86-1.333,1.369-1.954c0.315,0.41,0.646,0.797,0.997,1.148   c1.27,1.27,2.958,1.97,4.755,1.97h1.526c0.858,0,1.699-0.162,2.497-0.481l2.029-0.812c1.038-0.416,2.191-0.449,3.249-0.096   c2.817,0.939,5.872-0.053,7.598-2.47l0.431-0.603c0.056-0.078,0.11-0.167,0.165-0.249C44.116,8.454,45.182,9.809,46.013,11.31z    M34.115,3.135c2.649,0.339,5.11,1.36,7.203,2.872c-0.081,0.127-0.162,0.255-0.245,0.37l-0.43,0.602   c-1.214,1.698-3.357,2.396-5.338,1.736c-1.505-0.502-3.148-0.455-4.624,0.136l-2.029,0.812C28.092,9.886,27.501,10,26.897,10   h-1.526c-1.263,0-2.448-0.491-3.341-1.384c-0.363-0.363-0.697-0.781-1.015-1.223C24.52,4.074,29.261,2.515,34.115,3.135z    M17.304,12.718l1.125,1.125C19.819,15.234,21.669,16,23.636,16C26.594,16,29,18.406,29,21.364v5.997   c0,1.055-0.751,1.97-1.785,2.177c-0.976,0.196-1.974-0.292-2.42-1.184l-1.559-3.117c-0.154-0.309-0.236-0.655-0.236-1   C23,21.9,21.1,20,18.764,20h-2.708C15.904,17.463,16.336,14.984,17.304,12.718z M6,17h8.115c-0.158,1.43-0.152,2.892,0.036,4.363   c0.594,4.657,3.054,8.79,6.578,11.637H9v12h46v-7.586L56.414,36l-7-7l2.581-2.581l-3.28-0.729c1.093-2.732,1.494-5.709,1.172-8.69   H58c1.654,0,3,1.346,3,3v29H18.303l-3-2H3V20C3,18.346,4.346,17,6,17z M58,55H23v2h20v4H21v-6H6c-1.654,0-3-1.346-3-3v-3h11.697   l3,2H61v1C61,53.654,59.654,55,58,55z"/>
</g>
</svg>
