<?xml version="1.0" encoding="iso-8859-1"?>
<!-- Generator: Adobe Illustrator 22.1.0, SVG Export Plug-In . SVG Version: 6.00 Build 0)  -->
<svg xmlns="http://www.w3.org/2000/svg" xmlns:xlink="http://www.w3.org/1999/xlink" version="1.1" id="Layer_1_1_" x="0px" y="0px" viewBox="0 0 64 64" style="enable-background:new 0 0 64 64;" xml:space="preserve" width="512" height="512">
<g>
	<circle cx="35" cy="38" r="4"/>
	<path d="M45,43h-6.69c-0.95,0.631-2.087,1-3.31,1s-2.36-0.369-3.31-1H25v2h20V43z"/>
	<path d="M25,41h4.812c-0.353-0.608-0.6-1.282-0.721-2H25V41z"/>
	<rect x="25" y="47" width="20" height="2"/>
	<path d="M29.812,35H25v2h4.09C29.212,36.282,29.459,35.608,29.812,35z"/>
	<rect x="25" y="51" width="20" height="2"/>
	<rect x="31" y="11" width="14" height="2"/>
	<rect x="15" y="3" width="34" height="2"/>
	<path d="M49,7H15v10h34V7z M19,15h-2v-2h2V15z M19,11h-2V9h2V11z M23,15h-2v-2h2V15z M23,11h-2V9h2V11z M27,15h-2v-2h2V15z M27,11   h-2V9h2V11z M47,15H29V9h18V15z"/>
	<path d="M23,26c0-2.757,2.243-5,5-5h14c2.757,0,5,2.243,5,5v27h2V19H15v34h8V26z M21,37h-4v-2h4V37z M21,33h-4v-2h4V33z M21,29h-4   v-2h4V29z M21,25h-4v-2h4V25z"/>
	<polygon points="13.781,61 18.219,61 18.719,59 13.281,59  "/>
	<polygon points="45.781,61 50.219,61 50.719,59 45.281,59  "/>
	<path d="M52,3h-1v50h2V4C53,3.449,52.551,3,52,3z"/>
	<path d="M13,18v-1V3h-1c-0.551,0-1,0.449-1,1v49h2V18z"/>
	<path d="M45,55H11v1c0,0.551,0.449,1,1,1h40c0.551,0,1-0.449,1-1v-1h-6H45z"/>
	<path d="M45,35h-4.812c0.353,0.608,0.6,1.282,0.721,2H45V35z"/>
	<path d="M45,31H25v2h6.69c0.95-0.631,2.087-1,3.31-1s2.36,0.369,3.31,1H45V31z"/>
	<rect x="25" y="27" width="20" height="2"/>
	<path d="M42,23H28c-1.302,0-2.402,0.839-2.816,2h19.631C44.402,23.839,43.302,23,42,23z"/>
	<path d="M45,39h-4.09c-0.121,0.718-0.369,1.392-0.721,2H45V39z"/>
</g>
</svg>
