<?xml version="1.0" encoding="iso-8859-1"?>
<!-- Generator: Adobe Illustrator 22.1.0, SVG Export Plug-In . SVG Version: 6.00 Build 0)  -->
<svg xmlns="http://www.w3.org/2000/svg" xmlns:xlink="http://www.w3.org/1999/xlink" version="1.1" id="Layer_1_1_" x="0px" y="0px" viewBox="0 0 64 64" style="enable-background:new 0 0 64 64;" xml:space="preserve" width="512" height="512">
<g>
	<path d="M52,1H12c-1.654,0-3,1.346-3,3v52c0,1.371,0.93,2.517,2.188,2.874L12.219,63h7.562l1-4h22.438l1,4h7.562l1.032-4.126   C54.07,58.517,55,57.371,55,56V4C55,2.346,53.654,1,52,1z M53,4v49h-2V3h1C52.551,3,53,3.449,53,4z M42,21H28c-2.757,0-5,2.243-5,5   v27h-8V19h34v34h-2V26C47,23.243,44.757,21,42,21z M45,49H25v-2h20V49z M25,35h4.812c-0.353,0.608-0.6,1.282-0.721,2H25V35z M39,38   c0,2.206-1.794,4-4,4s-4-1.794-4-4s1.794-4,4-4S39,35.794,39,38z M25,39h4.09c0.121,0.718,0.369,1.392,0.721,2H25V39z M45,45H25v-2   h6.69c0.95,0.631,2.087,1,3.31,1s2.36-0.369,3.31-1H45V45z M45,41h-4.812c0.353-0.608,0.6-1.282,0.721-2H45V41z M45,37h-4.09   c-0.121-0.718-0.369-1.392-0.721-2H45V37z M45,33h-6.69c-0.95-0.631-2.087-1-3.31-1s-2.36,0.369-3.31,1H25v-2h20V33z M45,29H25v-2   h20V29z M25.184,25c0.414-1.161,1.514-2,2.816-2h14c1.302,0,2.402,0.839,2.816,2H25.184z M15,3h34v2H15V3z M12,3h1v12h2V7h34v10H13   v36h-2V4C11,3.449,11.449,3,12,3z M18.219,61h-4.438l-0.5-2h5.438L18.219,61z M45.781,61l-0.5-2h5.438l-0.5,2H45.781z M52,57H12   c-0.551,0-1-0.449-1-1v-1h32v-2H25v-2h20v4h8v1C53,56.551,52.551,57,52,57z"/>
	<path d="M47,9H29v6h18V9z M45,13H31v-2h14V13z"/>
	<rect x="17" y="9" width="2" height="2"/>
	<rect x="21" y="9" width="2" height="2"/>
	<rect x="25" y="9" width="2" height="2"/>
	<rect x="17" y="13" width="2" height="2"/>
	<rect x="21" y="13" width="2" height="2"/>
	<rect x="25" y="13" width="2" height="2"/>
	<rect x="17" y="23" width="4" height="2"/>
	<rect x="17" y="27" width="4" height="2"/>
	<rect x="17" y="31" width="4" height="2"/>
	<rect x="17" y="35" width="4" height="2"/>
</g>
</svg>
