<?xml version="1.0" encoding="iso-8859-1"?>
<!-- Generator: Adobe Illustrator 22.1.0, SVG Export Plug-In . SVG Version: 6.00 Build 0)  -->
<svg xmlns="http://www.w3.org/2000/svg" xmlns:xlink="http://www.w3.org/1999/xlink" version="1.1" id="Layer_1_1_" x="0px" y="0px" viewBox="0 0 64 64" style="enable-background:new 0 0 64 64;" xml:space="preserve" width="512" height="512">
<g>
	<path d="M53,10l2-3h6c-1.182-2.363-3.707-4-6.641-4c-2.296,0-4.342,1.003-5.689,2.571C47.9,6.466,46.795,7,45.615,7H6   c-1.657,0-3,1.343-3,3s1.343,3,3,3h39.615c1.18,0,2.285,0.533,3.055,1.429C50.017,15.997,52.063,17,54.359,17   c2.934,0,5.459-1.637,6.641-4h-6L53,10z"/>
	<path d="M58,55h-3v6h3c1.654,0,3-1.346,3-3S59.654,55,58,55z"/>
	<rect x="37" y="55" width="2" height="6"/>
	<polygon points="13.764,56 7,56 7,60 13.764,60 15.764,59 35,59 35,57 15.764,57  "/>
	<rect x="41" y="55" width="12" height="6"/>
	<path d="M46.142,42.899l-1.372-2.059c0.818-1.33,1.434-2.794,1.807-4.356L49,36v-6l-2.423-0.485   c-0.372-1.562-0.988-3.026-1.807-4.356l1.372-2.059l-4.243-4.243l-2.059,1.372c-1.33-0.818-2.794-1.434-4.356-1.807L35,16h-6   l-0.485,2.423c-1.562,0.372-3.026,0.988-4.356,1.807l-2.059-1.372L17.858,23.1l1.372,2.059c-0.818,1.33-1.434,2.794-1.807,4.356   L15,30v6l2.423,0.485c0.372,1.562,0.988,3.026,1.807,4.356l-1.372,2.059l4.243,4.243l2.059-1.372   c1.33,0.818,2.794,1.434,4.356,1.807L29,50h6l0.485-2.423c1.562-0.372,3.026-0.988,4.356-1.807l2.059,1.372L46.142,42.899z    M23.555,40.045C21.908,38.072,21,35.57,21,33c0-6.065,4.935-11,11-11c2.57,0,5.072,0.908,7.045,2.555l-1.282,1.535   C36.149,24.742,34.103,24,32,24c-4.962,0-9,4.038-9,9c0,2.103,0.742,4.149,2.09,5.763L23.555,40.045z M32,44   c-2.57,0-5.072-0.908-7.045-2.555l1.282-1.535C27.851,41.258,29.897,42,32,42c4.962,0,9-4.038,9-9c0-2.102-0.742-4.148-2.09-5.763   l1.535-1.282C42.093,27.928,43,30.43,43,33C43,39.065,38.065,44,32,44z"/>
	<path d="M14.403,16.68l-1.466-1.36C8.463,20.14,6,26.419,6,33c0,3.729,0.778,7.314,2.296,10.672C7.499,44.558,7,45.718,7,47   c0,2.757,2.243,5,5,5s5-2.243,5-5s-2.243-5-5-5c-0.737,0-1.431,0.17-2.062,0.457C8.654,39.472,8,36.297,8,33   C8,26.925,10.274,21.13,14.403,16.68z"/>
	<path d="M48.655,50.281l1.388,1.439C55.174,46.774,58,40.125,58,33c0-1.588-0.152-3.176-0.437-4.73C59.016,27.395,60,25.817,60,24   c0-2.757-2.243-5-5-5s-5,2.243-5,5s2.243,5,5,5c0.223,0,0.435-0.037,0.65-0.066C55.878,30.272,56,31.635,56,33   C56,39.577,53.392,45.714,48.655,50.281z"/>
</g>
</svg>
