<?xml version="1.0" encoding="iso-8859-1"?>
<!-- Generator: Adobe Illustrator 22.1.0, SVG Export Plug-In . SVG Version: 6.00 Build 0)  -->
<svg xmlns="http://www.w3.org/2000/svg" xmlns:xlink="http://www.w3.org/1999/xlink" version="1.1" id="Layer_1_1_" x="0px" y="0px" viewBox="0 0 64 64" style="enable-background:new 0 0 64 64;" xml:space="preserve" width="512" height="512">
<g>
	<circle cx="48" cy="44" r="1"/>
	<path d="M35,49h26V27H35V49z M48,47c-1.654,0-3-1.346-3-3s1.346-3,3-3s3,1.346,3,3S49.654,47,48,47z M48,29c2.757,0,5,2.243,5,5   s-2.243,5-5,5s-5-2.243-5-5S45.243,29,48,29z"/>
	<circle cx="48" cy="34" r="3"/>
	<polygon points="36.618,53 59.382,53 60.382,51 35.618,51  "/>
	<path d="M58,3H38c-1.654,0-3,1.346-3,3v19h26V6C61,4.346,59.654,3,58,3z M39,23h-2v-2h2V23z M39,19h-2v-2h2V19z M39,15h-2v-2h2V15z    M39,11h-2V9h2V11z M39,7h-2V5h2V7z M43,23h-2v-2h2V23z M43,19h-2v-2h2V19z M43,15h-2v-2h2V15z M43,11h-2V9h2V11z M43,7h-2V5h2V7z    M47,23h-2v-2h2V23z M47,19h-2v-2h2V19z M47,15h-2v-2h2V15z M47,11h-2V9h2V11z M47,7h-2V5h2V7z M51,23h-2v-2h2V23z M51,19h-2v-2h2   V19z M51,15h-2v-2h2V15z M51,11h-2V9h2V11z M51,7h-2V5h2V7z M55,23h-2v-2h2V23z M55,19h-2v-2h2V19z M55,15h-2v-2h2V15z M55,11h-2V9   h2V11z M55,7h-2V5h2V7z M59,23h-2v-2h2V23z M59,19h-2v-2h2V19z M59,15h-2v-2h2V15z M59,11h-2V9h2V11z M59,7h-2V5h2V7z"/>
	<path d="M3,57h26V47H3V57z M24,49c1.654,0,3,1.346,3,3s-1.346,3-3,3s-3-1.346-3-3S22.346,49,24,49z M16,49c1.654,0,3,1.346,3,3   s-1.346,3-3,3s-3-1.346-3-3S14.346,49,16,49z M8,49c1.654,0,3,1.346,3,3s-1.346,3-3,3s-3-1.346-3-3S6.346,49,8,49z"/>
	<polygon points="4.618,61 27.382,61 28.382,59 3.618,59  "/>
	<circle cx="24" cy="52" r="1"/>
	<circle cx="8" cy="52" r="1"/>
	<path d="M26,11H6c-1.654,0-3,1.346-3,3v31h26V14C29,12.346,27.654,11,26,11z M7,43H5v-2h2V43z M7,39H5v-2h2V39z M7,35H5v-2h2V35z    M7,31H5v-2h2V31z M7,27H5v-2h2V27z M7,23H5v-2h2V23z M7,19H5v-2h2V19z M7,15H5v-2h2V15z M11,43H9v-2h2V43z M11,39H9v-2h2V39z    M11,35H9v-2h2V35z M11,31H9v-2h2V31z M11,27H9v-2h2V27z M11,23H9v-2h2V23z M11,19H9v-2h2V19z M11,15H9v-2h2V15z M15,43h-2v-2h2V43   z M15,39h-2v-2h2V39z M15,35h-2v-2h2V35z M15,31h-2v-2h2V31z M15,27h-2v-2h2V27z M15,23h-2v-2h2V23z M15,19h-2v-2h2V19z M15,15h-2   v-2h2V15z M19,43h-2v-2h2V43z M19,39h-2v-2h2V39z M19,35h-2v-2h2V35z M19,31h-2v-2h2V31z M19,27h-2v-2h2V27z M19,23h-2v-2h2V23z    M19,19h-2v-2h2V19z M19,15h-2v-2h2V15z M23,43h-2v-2h2V43z M23,39h-2v-2h2V39z M23,35h-2v-2h2V35z M23,31h-2v-2h2V31z M23,27h-2   v-2h2V27z M23,23h-2v-2h2V23z M23,19h-2v-2h2V19z M23,15h-2v-2h2V15z M27,43h-2v-2h2V43z M27,39h-2v-2h2V39z M27,35h-2v-2h2V35z    M27,31h-2v-2h2V31z M27,27h-2v-2h2V27z M27,23h-2v-2h2V23z M27,19h-2v-2h2V19z M27,15h-2v-2h2V15z"/>
	<circle cx="16" cy="52" r="1"/>
</g>
</svg>
