<?xml version="1.0" encoding="iso-8859-1"?>
<!-- Generator: Adobe Illustrator 22.1.0, SVG Export Plug-In . SVG Version: 6.00 Build 0)  -->
<svg xmlns="http://www.w3.org/2000/svg" xmlns:xlink="http://www.w3.org/1999/xlink" version="1.1" id="Layer_1_1_" x="0px" y="0px" viewBox="0 0 64 64" style="enable-background:new 0 0 64 64;" xml:space="preserve" width="512" height="512">
<g>
	<path d="M58,1H38c-2.757,0-5,2.243-5,5v44.236L35.382,55h25.236L63,50.236V6C63,3.243,60.757,1,58,1z M38,3h20c1.654,0,3,1.346,3,3   v19H35V6C35,4.346,36.346,3,38,3z M35,49V27h26v22H35z M36.618,53l-1-2h24.764l-1,2H36.618z"/>
	<path d="M48,41c-1.654,0-3,1.346-3,3s1.346,3,3,3s3-1.346,3-3S49.654,41,48,41z M48,45c-0.551,0-1-0.448-1-1s0.449-1,1-1   s1,0.448,1,1S48.551,45,48,45z"/>
	<path d="M48,29c-2.757,0-5,2.243-5,5s2.243,5,5,5s5-2.243,5-5S50.757,29,48,29z M48,37c-1.654,0-3-1.346-3-3s1.346-3,3-3   s3,1.346,3,3S49.654,37,48,37z"/>
	<rect x="57" y="21" width="2" height="2"/>
	<rect x="53" y="21" width="2" height="2"/>
	<rect x="49" y="21" width="2" height="2"/>
	<rect x="45" y="21" width="2" height="2"/>
	<rect x="41" y="21" width="2" height="2"/>
	<rect x="37" y="21" width="2" height="2"/>
	<rect x="57" y="17" width="2" height="2"/>
	<rect x="53" y="17" width="2" height="2"/>
	<rect x="49" y="17" width="2" height="2"/>
	<rect x="45" y="17" width="2" height="2"/>
	<rect x="41" y="17" width="2" height="2"/>
	<rect x="37" y="17" width="2" height="2"/>
	<rect x="57" y="13" width="2" height="2"/>
	<rect x="53" y="13" width="2" height="2"/>
	<rect x="49" y="13" width="2" height="2"/>
	<rect x="45" y="13" width="2" height="2"/>
	<rect x="41" y="13" width="2" height="2"/>
	<rect x="37" y="13" width="2" height="2"/>
	<rect x="57" y="9" width="2" height="2"/>
	<rect x="53" y="9" width="2" height="2"/>
	<rect x="49" y="9" width="2" height="2"/>
	<rect x="45" y="9" width="2" height="2"/>
	<rect x="41" y="9" width="2" height="2"/>
	<rect x="37" y="9" width="2" height="2"/>
	<rect x="57" y="5" width="2" height="2"/>
	<rect x="53" y="5" width="2" height="2"/>
	<rect x="49" y="5" width="2" height="2"/>
	<rect x="45" y="5" width="2" height="2"/>
	<rect x="41" y="5" width="2" height="2"/>
	<rect x="37" y="5" width="2" height="2"/>
	<path d="M26,9H6c-2.757,0-5,2.243-5,5v44.236L3.382,63h25.236L31,58.236V14C31,11.243,28.757,9,26,9z M6,11h20c1.654,0,3,1.346,3,3   v31H3V14C3,12.346,4.346,11,6,11z M3,57V47h26v10H3z M4.618,61l-1-2h24.764l-1,2H4.618z"/>
	<path d="M8,49c-1.654,0-3,1.346-3,3s1.346,3,3,3s3-1.346,3-3S9.654,49,8,49z M8,53c-0.551,0-1-0.448-1-1s0.449-1,1-1s1,0.448,1,1   S8.551,53,8,53z"/>
	<path d="M16,49c-1.654,0-3,1.346-3,3s1.346,3,3,3s3-1.346,3-3S17.654,49,16,49z M16,53c-0.551,0-1-0.448-1-1s0.449-1,1-1   s1,0.448,1,1S16.551,53,16,53z"/>
	<path d="M24,49c-1.654,0-3,1.346-3,3s1.346,3,3,3s3-1.346,3-3S25.654,49,24,49z M24,53c-0.551,0-1-0.448-1-1s0.449-1,1-1   s1,0.448,1,1S24.551,53,24,53z"/>
	<rect x="25" y="29" width="2" height="2"/>
	<rect x="21" y="29" width="2" height="2"/>
	<rect x="17" y="29" width="2" height="2"/>
	<rect x="13" y="29" width="2" height="2"/>
	<rect x="9" y="29" width="2" height="2"/>
	<rect x="5" y="29" width="2" height="2"/>
	<rect x="25" y="33" width="2" height="2"/>
	<rect x="21" y="33" width="2" height="2"/>
	<rect x="17" y="33" width="2" height="2"/>
	<rect x="13" y="33" width="2" height="2"/>
	<rect x="9" y="33" width="2" height="2"/>
	<rect x="5" y="33" width="2" height="2"/>
	<rect x="25" y="37" width="2" height="2"/>
	<rect x="21" y="37" width="2" height="2"/>
	<rect x="17" y="37" width="2" height="2"/>
	<rect x="13" y="37" width="2" height="2"/>
	<rect x="9" y="37" width="2" height="2"/>
	<rect x="5" y="37" width="2" height="2"/>
	<rect x="25" y="41" width="2" height="2"/>
	<rect x="21" y="41" width="2" height="2"/>
	<rect x="17" y="41" width="2" height="2"/>
	<rect x="13" y="41" width="2" height="2"/>
	<rect x="9" y="41" width="2" height="2"/>
	<rect x="5" y="41" width="2" height="2"/>
	<rect x="25" y="25" width="2" height="2"/>
	<rect x="21" y="25" width="2" height="2"/>
	<rect x="17" y="25" width="2" height="2"/>
	<rect x="13" y="25" width="2" height="2"/>
	<rect x="9" y="25" width="2" height="2"/>
	<rect x="5" y="25" width="2" height="2"/>
	<rect x="25" y="21" width="2" height="2"/>
	<rect x="21" y="21" width="2" height="2"/>
	<rect x="17" y="21" width="2" height="2"/>
	<rect x="13" y="21" width="2" height="2"/>
	<rect x="9" y="21" width="2" height="2"/>
	<rect x="5" y="21" width="2" height="2"/>
	<rect x="25" y="17" width="2" height="2"/>
	<rect x="21" y="17" width="2" height="2"/>
	<rect x="17" y="17" width="2" height="2"/>
	<rect x="13" y="17" width="2" height="2"/>
	<rect x="9" y="17" width="2" height="2"/>
	<rect x="5" y="17" width="2" height="2"/>
	<rect x="25" y="13" width="2" height="2"/>
	<rect x="21" y="13" width="2" height="2"/>
	<rect x="17" y="13" width="2" height="2"/>
	<rect x="13" y="13" width="2" height="2"/>
	<rect x="9" y="13" width="2" height="2"/>
	<rect x="5" y="13" width="2" height="2"/>
</g>
</svg>
