<?xml version="1.0" encoding="iso-8859-1"?>
<!-- Generator: Adobe Illustrator 22.1.0, SVG Export Plug-In . SVG Version: 6.00 Build 0)  -->
<svg xmlns="http://www.w3.org/2000/svg" xmlns:xlink="http://www.w3.org/1999/xlink" version="1.1" id="Layer_1_1_" x="0px" y="0px" viewBox="0 0 64 64" style="enable-background:new 0 0 64 64;" xml:space="preserve" width="512" height="512">
<linearGradient id="SVGID_1_" gradientUnits="userSpaceOnUse" x1="32" y1="63" x2="32" y2="1">
	<stop offset="0" style="stop-color:#9F2FFF"/>
	<stop offset="1" style="stop-color:#0BB1D3"/>
</linearGradient>
<path style="fill:url(#SVGID_1_);" d="M58,1H38c-2.757,0-5,2.243-5,5v44.236L35.382,55h25.236L63,50.236V6C63,3.243,60.757,1,58,1z   M38,3h20c1.654,0,3,1.346,3,3v19H35V6C35,4.346,36.346,3,38,3z M35,49V27h26v22H35z M36.618,53l-1-2h24.764l-1,2H36.618z M48,41  c-1.654,0-3,1.346-3,3s1.346,3,3,3s3-1.346,3-3S49.654,41,48,41z M48,45c-0.551,0-1-0.448-1-1s0.449-1,1-1s1,0.448,1,1  S48.551,45,48,45z M48,29c-2.757,0-5,2.243-5,5s2.243,5,5,5s5-2.243,5-5S50.757,29,48,29z M48,37c-1.654,0-3-1.346-3-3s1.346-3,3-3  s3,1.346,3,3S49.654,37,48,37z M59,23h-2v-2h2V23z M55,23h-2v-2h2V23z M51,23h-2v-2h2V23z M47,23h-2v-2h2V23z M43,23h-2v-2h2V23z   M39,23h-2v-2h2V23z M59,19h-2v-2h2V19z M55,19h-2v-2h2V19z M51,19h-2v-2h2V19z M47,19h-2v-2h2V19z M43,19h-2v-2h2V19z M39,19h-2v-2  h2V19z M59,15h-2v-2h2V15z M55,15h-2v-2h2V15z M51,15h-2v-2h2V15z M47,15h-2v-2h2V15z M43,15h-2v-2h2V15z M39,15h-2v-2h2V15z M59,11  h-2V9h2V11z M55,11h-2V9h2V11z M51,11h-2V9h2V11z M47,11h-2V9h2V11z M43,11h-2V9h2V11z M39,11h-2V9h2V11z M59,7h-2V5h2V7z M55,7h-2  V5h2V7z M51,7h-2V5h2V7z M47,7h-2V5h2V7z M43,7h-2V5h2V7z M39,7h-2V5h2V7z M31,58.236V14c0-2.757-2.243-5-5-5H6  c-2.757,0-5,2.243-5,5v44.236L3.382,63h25.236L31,58.236z M3,57V47h26v10H3z M6,11h20c1.654,0,3,1.346,3,3v31H3V14  C3,12.346,4.346,11,6,11z M4.618,61l-1-2h24.764l-1,2H4.618z M8,49c-1.654,0-3,1.346-3,3s1.346,3,3,3s3-1.346,3-3S9.654,49,8,49z   M8,53c-0.551,0-1-0.448-1-1s0.449-1,1-1s1,0.448,1,1S8.551,53,8,53z M16,49c-1.654,0-3,1.346-3,3s1.346,3,3,3s3-1.346,3-3  S17.654,49,16,49z M16,53c-0.551,0-1-0.448-1-1s0.449-1,1-1s1,0.448,1,1S16.551,53,16,53z M24,49c-1.654,0-3,1.346-3,3s1.346,3,3,3  s3-1.346,3-3S25.654,49,24,49z M24,53c-0.551,0-1-0.448-1-1s0.449-1,1-1s1,0.448,1,1S24.551,53,24,53z M27,31h-2v-2h2V31z M23,31h-2  v-2h2V31z M19,31h-2v-2h2V31z M15,31h-2v-2h2V31z M11,31H9v-2h2V31z M7,31H5v-2h2V31z M27,35h-2v-2h2V35z M23,35h-2v-2h2V35z M19,35  h-2v-2h2V35z M15,35h-2v-2h2V35z M11,35H9v-2h2V35z M7,35H5v-2h2V35z M27,39h-2v-2h2V39z M23,39h-2v-2h2V39z M19,39h-2v-2h2V39z   M15,39h-2v-2h2V39z M11,39H9v-2h2V39z M7,39H5v-2h2V39z M27,43h-2v-2h2V43z M23,43h-2v-2h2V43z M19,43h-2v-2h2V43z M15,43h-2v-2h2  V43z M11,43H9v-2h2V43z M7,43H5v-2h2V43z M27,27h-2v-2h2V27z M23,27h-2v-2h2V27z M19,27h-2v-2h2V27z M15,27h-2v-2h2V27z M11,27H9v-2  h2V27z M7,27H5v-2h2V27z M27,23h-2v-2h2V23z M23,23h-2v-2h2V23z M19,23h-2v-2h2V23z M15,23h-2v-2h2V23z M11,23H9v-2h2V23z M7,23H5  v-2h2V23z M27,19h-2v-2h2V19z M23,19h-2v-2h2V19z M19,19h-2v-2h2V19z M15,19h-2v-2h2V19z M11,19H9v-2h2V19z M7,19H5v-2h2V19z M27,15  h-2v-2h2V15z M23,15h-2v-2h2V15z M19,15h-2v-2h2V15z M15,15h-2v-2h2V15z M11,15H9v-2h2V15z M7,15H5v-2h2V15z"/>
</svg>
