<?xml version="1.0" encoding="iso-8859-1"?>
<!-- Generator: Adobe Illustrator 22.1.0, SVG Export Plug-In . SVG Version: 6.00 Build 0)  -->
<svg xmlns="http://www.w3.org/2000/svg" xmlns:xlink="http://www.w3.org/1999/xlink" version="1.1" id="Layer_1_1_" x="0px" y="0px" viewBox="0 0 64 64" style="enable-background:new 0 0 64 64;" xml:space="preserve" width="512" height="512">
<g>
	<path d="M8,61h6v-6H8V61z M10,57h2v2h-2V57z"/>
	<path d="M10,27.5v7.58c0.328-0.047,0.66-0.08,1-0.08s0.672,0.033,1,0.08V27.5c0-5.367,2.062-10.42,5.798-14.262   c0.588-1.73,1.483-3.338,2.636-4.743C14.063,12.524,10,19.593,10,27.5z"/>
	<path d="M11,37c-2.757,0-5,2.243-5,5v3h8v2H6v6h10v-2H8v-2h8v-7C16,39.243,13.757,37,11,37z"/>
	<path d="M36,6.54V4c0-0.551-0.448-1-1-1h-6c-0.552,0-1,0.449-1,1v2.54C29.063,5.586,30.462,5,32,5S34.937,5.586,36,6.54z"/>
	<path d="M29,15h6c0.552,0,1-0.449,1-1v-2v-1c0-2.206-1.794-4-4-4s-4,1.794-4,4v1v2C28,14.551,28.448,15,29,15z"/>
	<rect x="52" y="57" width="4" height="4"/>
	<rect x="50" y="53" width="8" height="2"/>
	<path d="M54,45c-2.206,0-4,1.794-4,4v2h8v-2C58,46.794,56.206,45,54,45z"/>
	<path d="M38,6.488v2.331c3.089,2.024,5,5.477,5,9.181c0,6.065-4.935,11-11,11s-11-4.935-11-11c0-3.704,1.911-7.157,5-9.181V6.492   C21.763,8.71,19,13.159,19,18c0,7.168,5.832,13,13,13s13-5.832,13-13C45,13.083,42.292,8.709,38,6.488z"/>
	<path d="M53,43.09c0.326-0.055,0.659-0.09,1-0.09s0.674,0.035,1,0.09V27.5c0-8.65-4.956-16.344-12.379-20.09   c1.278,1.273,2.309,2.763,3.05,4.406C50.329,15.722,53,21.42,53,27.5V43.09z"/>
</g>
</svg>
