<?xml version="1.0" encoding="iso-8859-1"?>
<!-- Generator: Adobe Illustrator 22.1.0, SVG Export Plug-In . SVG Version: 6.00 Build 0)  -->
<svg xmlns="http://www.w3.org/2000/svg" xmlns:xlink="http://www.w3.org/1999/xlink" version="1.1" id="Layer_1_1_" x="0px" y="0px" viewBox="0 0 64 64" style="enable-background:new 0 0 64 64;" xml:space="preserve" width="512" height="512">
<g>
	<path d="M60,49c0-2.215-1.21-4.149-3-5.188V27.5c0-11.441-7.964-21.338-19.037-23.863C37.782,2.155,36.53,1,35,1h-6   c-1.617,0-2.931,1.289-2.989,2.892C15.372,6.802,8,16.388,8,27.5v8.185C5.639,36.811,4,39.215,4,42v13h2v8h10v-8h2V42   c0-2.785-1.639-5.189-4-6.315V27.5c0-3.654,1.059-7.148,3.025-10.133C17.016,17.578,17,17.788,17,18c0,8.271,6.729,15,15,15   s15-6.729,15-15c0-0.734-0.056-1.456-0.158-2.164C49.513,19.103,51,23.195,51,27.5v16.312c-1.79,1.039-3,2.973-3,5.188v8h2v6h8v-6   h2V49z M28,11c0-2.206,1.794-4,4-4s4,1.794,4,4v1v2c0,0.551-0.448,1-1,1h-6c-0.552,0-1-0.449-1-1v-2V11z M26,12v2   c0,1.654,1.346,3,3,3h6c1.654,0,3-1.346,3-3v-2v-0.67c1.875,1.69,3,4.106,3,6.67c0,4.962-4.037,9-9,9s-9-4.038-9-9   c0-2.565,1.125-4.98,3-6.67V12z M29,3h6c0.552,0,1,0.449,1,1v2.54C34.937,5.586,33.538,5,32,5s-2.937,0.586-4,1.54V4   C28,3.449,28.448,3,29,3z M14,61H8v-6h6V61z M16,42v7H8v2h8v2H6v-6h8v-2H6v-3c0-2.757,2.243-5,5-5S16,39.243,16,42z M12,27.5v7.58   C11.672,35.033,11.34,35,11,35s-0.672,0.033-1,0.08V27.5c0-7.907,4.063-14.976,10.434-19.005c-1.154,1.405-2.049,3.013-2.636,4.743   C14.062,17.08,12,22.133,12,27.5z M32,31c-7.168,0-13-5.832-13-13c0-4.841,2.763-9.29,7-11.508v2.326c-3.089,2.024-5,5.477-5,9.181   c0,6.065,4.935,11,11,11s11-4.935,11-11c0-3.704-1.911-7.157-5-9.181V6.488c4.292,2.222,7,6.595,7,11.512   C45,25.168,39.168,31,32,31z M45.671,11.816c-0.74-1.642-1.772-3.133-3.05-4.406C50.044,11.156,55,18.85,55,27.5v15.59   C54.674,43.035,54.341,43,54,43s-0.674,0.035-1,0.09V27.5C53,21.42,50.329,15.722,45.671,11.816z M54,45c2.206,0,4,1.794,4,4v2h-8   v-2C50,46.794,51.794,45,54,45z M56,61h-4v-4h4V61z M50,55v-2h8v2H50z"/>
	<rect x="10" y="57" width="2" height="2"/>
</g>
</svg>
