<?xml version="1.0" encoding="iso-8859-1"?>
<!-- Generator: Adobe Illustrator 22.1.0, SVG Export Plug-In . SVG Version: 6.00 Build 0)  -->
<svg xmlns="http://www.w3.org/2000/svg" xmlns:xlink="http://www.w3.org/1999/xlink" version="1.1" id="Layer_1_1_" x="0px" y="0px" viewBox="0 0 64 64" style="enable-background:new 0 0 64 64;" xml:space="preserve" width="512" height="512">
<g>
	<circle cx="42" cy="35" r="1"/>
	<circle cx="22" cy="35" r="1"/>
	<path d="M23,22c0,4.962,4.037,9,9,9s9-4.038,9-9s-4.037-9-9-9S23,17.038,23,22z M39,22c0,3.86-3.141,7-7,7s-7-3.14-7-7s3.141-7,7-7   S39,18.14,39,22z"/>
	<path d="M27,22c0,2.757,2.243,5,5,5s5-2.243,5-5s-2.243-5-5-5S27,19.243,27,22z M35,22h-2c0-0.551-0.448-1-1-1s-1,0.449-1,1   s0.448,1,1,1v2c-1.654,0-3-1.346-3-3s1.346-3,3-3S35,20.346,35,22z"/>
	<path d="M32,11c1.244,0,2.436,0.217,3.552,0.6l10.556-3.958C42.591,4.649,38.183,3,33.515,3h-3.029   c-4.669,0-9.076,1.649-12.593,4.641L28.448,11.6C29.564,11.217,30.756,11,32,11z M35,5h2v2h-2V5z M31,5h2v2h-2V5z M27,5h2v2h-2V5z"/>
	<path d="M46,59H18c-1.304,0-2.416,0.836-2.829,2h33.658C48.416,59.836,47.304,59,46,59z"/>
	<path d="M32.869,39h-1.738l-13.088,3.49C21.534,45.401,25.884,47,30.485,47h3.029c4.602,0,8.951-1.599,12.443-4.51L32.869,39z    M32,43c-0.552,0-1-0.448-1-1c0-0.552,0.448-1,1-1s1,0.448,1,1C33,42.552,32.552,43,32,43z"/>
	<path d="M30.485,49c-0.499,0-0.992-0.039-1.485-0.072V57h6v-8.072C34.507,48.961,34.014,49,33.515,49H30.485z"/>
	<path d="M33.258,37.034L47,40.699V9.443l-8.974,3.365C41.018,14.777,43,18.159,43,22c0,6.065-4.935,11-11,11s-11-4.935-11-11   c0-3.841,1.982-7.223,4.974-9.192L17,9.443v31.258L31,37L33.258,37.034z M42,32c1.654,0,3,1.346,3,3s-1.346,3-3,3s-3-1.346-3-3   S40.346,32,42,32z M22,38c-1.654,0-3-1.346-3-3s1.346-3,3-3s3,1.346,3,3S23.654,38,22,38z"/>
</g>
</svg>
