<?xml version="1.0" encoding="iso-8859-1"?>
<!-- Generator: Adobe Illustrator 22.1.0, SVG Export Plug-In . SVG Version: 6.00 Build 0)  -->
<svg xmlns="http://www.w3.org/2000/svg" xmlns:xlink="http://www.w3.org/1999/xlink" version="1.1" id="Layer_1_1_" x="0px" y="0px" viewBox="0 0 64 64" style="enable-background:new 0 0 64 64;" xml:space="preserve" width="512" height="512">
<linearGradient id="SVGID_1_" gradientUnits="userSpaceOnUse" x1="32" y1="63" x2="32" y2="1">
	<stop offset="0" style="stop-color:#9F2FFF"/>
	<stop offset="1" style="stop-color:#0BB1D3"/>
</linearGradient>
<path style="fill:url(#SVGID_1_);" d="M18,57c-2.757,0-5,2.243-5,5v1h38v-1c0-2.757-2.243-5-5-5H36v-8.156  c4.797-0.55,9.242-2.671,12.707-6.137L49,42.414V7.586l-0.293-0.293C44.649,3.235,39.254,1,33.515,1h-3.029  c-5.739,0-11.135,2.235-15.192,6.293L15,7.586v34.828l0.293,0.293c3.465,3.466,7.91,5.587,12.707,6.137V57H18z M48.829,61H15.171  c0.413-1.164,1.525-2,2.829-2h28C47.304,59,48.416,59.836,48.829,61z M25.974,12.808C22.982,14.777,21,18.159,21,22  c0,6.065,4.935,11,11,11s11-4.935,11-11c0-3.841-1.982-7.223-4.974-9.192L47,9.443v31.255l-13.742-3.665L31,37l-14,3.702V9.443  L25.974,12.808z M41,22c0,4.962-4.037,9-9,9s-9-4.038-9-9s4.037-9,9-9S41,17.038,41,22z M31.131,39h1.738l13.088,3.49  C42.466,45.401,38.116,47,33.515,47h-3.029c-4.602,0-8.951-1.599-12.443-4.51L31.131,39z M33.515,3  c4.669,0,9.076,1.649,12.593,4.641L35.552,11.6C34.436,11.217,33.244,11,32,11s-2.436,0.217-3.552,0.6L17.892,7.641  C21.409,4.649,25.817,3,30.485,3H33.515z M30,48.976C30.163,48.98,30.322,49,30.485,49h3.029c0.163,0,0.323-0.02,0.485-0.024V57h-4  V48.976z M33,7h-2V5h2V7z M37,7h-2V5h2V7z M27,7V5h2v2H27z M32,19c1.654,0,3,1.346,3,3h-2c0-0.551-0.448-1-1-1s-1,0.449-1,1  s0.448,1,1,1v2c-1.654,0-3-1.346-3-3S30.346,19,32,19z M25,22c0,3.86,3.141,7,7,7s7-3.14,7-7s-3.141-7-7-7S25,18.14,25,22z M37,22  c0,2.757-2.243,5-5,5s-5-2.243-5-5s2.243-5,5-5S37,19.243,37,22z M42,38c1.654,0,3-1.346,3-3s-1.346-3-3-3s-3,1.346-3,3  S40.346,38,42,38z M42,34c0.552,0,1,0.448,1,1s-0.448,1-1,1s-1-0.448-1-1S41.448,34,42,34z M22,38c1.654,0,3-1.346,3-3s-1.346-3-3-3  s-3,1.346-3,3S20.346,38,22,38z M22,34c0.552,0,1,0.448,1,1s-0.448,1-1,1s-1-0.448-1-1S21.448,34,22,34z M31,42c0-0.552,0.448-1,1-1  s1,0.448,1,1c0,0.552-0.448,1-1,1S31,42.552,31,42z"/>
</svg>
