<?xml version="1.0" encoding="iso-8859-1"?>
<!-- Generator: Adobe Illustrator 22.1.0, SVG Export Plug-In . SVG Version: 6.00 Build 0)  -->
<svg xmlns="http://www.w3.org/2000/svg" xmlns:xlink="http://www.w3.org/1999/xlink" version="1.1" id="Layer_1_1_" x="0px" y="0px" viewBox="0 0 64 64" style="enable-background:new 0 0 64 64;" xml:space="preserve" width="512" height="512">
<g>
	<path style="fill:#F0BC5E;" d="M16,8c3.84-3.84,9.05-6,14.49-6h3.02c2.72,0,5.38,0.54,7.85,1.56C43.82,4.58,46.08,6.08,48,8   l-12.43,4.66C34.46,12.23,33.26,12,32,12c-1.26,0-2.46,0.23-3.57,0.66L16,8z"/>
	<path style="fill:#F0BC5E;" d="M31,38h2l15,4c-3.49,3.49-8.11,5.59-13,5.94C34.5,47.98,34.01,48,33.51,48h-3.02   c-0.5,0-0.99-0.02-1.49-0.06c-2.2-0.15-4.34-0.67-6.36-1.5C20.18,45.42,17.92,43.92,16,42L31,38z"/>
	<g>
		<path d="M46,57H36v-8.156c4.797-0.55,9.242-2.671,12.707-6.137L49,42.414V7.586l-0.293-0.293C44.649,3.235,39.254,1,33.515,1    h-3.029c-5.739,0-11.135,2.235-15.192,6.293L15,7.586v34.828l0.293,0.293c3.465,3.466,7.91,5.587,12.707,6.137V57H18    c-2.757,0-5,2.243-5,5v1h38v-1C51,59.243,48.757,57,46,57z M17,8.42C20.645,4.922,25.418,3,30.485,3h3.029    C38.582,3,43.355,4.922,47,8.42v33.16C43.355,45.078,38.582,47,33.515,47h-3.029c-5.067,0-9.841-1.922-13.485-5.42V8.42z     M30,48.976C30.163,48.98,30.322,49,30.485,49h3.029c0.163,0,0.323-0.02,0.485-0.024V57h-4V48.976z M15.171,61    c0.413-1.164,1.525-2,2.829-2h28c1.304,0,2.416,0.836,2.829,2H15.171z"/>
		<rect x="31" y="5" width="2" height="2"/>
		<rect x="35" y="5" width="2" height="2"/>
		<rect x="27" y="5" width="2" height="2"/>
		<path d="M32,33c6.065,0,11-4.935,11-11s-4.935-11-11-11s-11,4.935-11,11S25.935,33,32,33z M32,13c4.963,0,9,4.038,9,9    s-4.037,9-9,9s-9-4.038-9-9S27.037,13,32,13z"/>
		<path d="M32,25v-2c-0.552,0-1-0.449-1-1s0.448-1,1-1s1,0.449,1,1h2c0-1.654-1.346-3-3-3s-3,1.346-3,3S30.346,25,32,25z"/>
		<path d="M32,29c3.859,0,7-3.14,7-7s-3.141-7-7-7s-7,3.14-7,7S28.141,29,32,29z M32,17c2.757,0,5,2.243,5,5s-2.243,5-5,5    s-5-2.243-5-5S29.243,17,32,17z"/>
		<path d="M39,35c0,1.654,1.346,3,3,3s3-1.346,3-3s-1.346-3-3-3S39,33.346,39,35z M43,35c0,0.552-0.448,1-1,1s-1-0.448-1-1    s0.448-1,1-1S43,34.448,43,35z"/>
		<path d="M22,32c-1.654,0-3,1.346-3,3s1.346,3,3,3s3-1.346,3-3S23.654,32,22,32z M22,36c-0.552,0-1-0.448-1-1s0.448-1,1-1    s1,0.448,1,1S22.552,36,22,36z"/>
		<circle cx="32" cy="42" r="1"/>
	</g>
</g>
</svg>
