<?xml version="1.0" encoding="iso-8859-1"?>
<!-- Generator: Adobe Illustrator 22.1.0, SVG Export Plug-In . SVG Version: 6.00 Build 0)  -->
<svg xmlns="http://www.w3.org/2000/svg" xmlns:xlink="http://www.w3.org/1999/xlink" version="1.1" id="Layer_1_1_" x="0px" y="0px" viewBox="0 0 64 64" style="enable-background:new 0 0 64 64;" xml:space="preserve" width="512" height="512">
<g>
	<path d="M46,57H36v-8.156c4.797-0.55,9.242-2.671,12.707-6.137L49,42.414V7.586l-0.293-0.293C44.649,3.235,39.254,1,33.515,1   h-3.029c-5.739,0-11.135,2.235-15.192,6.293L15,7.586v34.828l0.293,0.293c3.465,3.466,7.91,5.587,12.707,6.137V57H18   c-2.757,0-5,2.243-5,5v1h38v-1C51,59.243,48.757,57,46,57z M25.974,12.808C22.982,14.777,21,18.159,21,22c0,6.065,4.935,11,11,11   s11-4.935,11-11c0-3.841-1.982-7.223-4.974-9.192L47,9.443v31.255l-13.742-3.665L31,37l-14,3.702V9.443L25.974,12.808z M41,22   c0,4.962-4.037,9-9,9s-9-4.038-9-9s4.037-9,9-9S41,17.038,41,22z M31.131,39h1.738l13.088,3.49C42.466,45.401,38.116,47,33.515,47   h-3.029c-4.602,0-8.951-1.599-12.443-4.51L31.131,39z M33.515,3c4.669,0,9.076,1.649,12.593,4.641L35.552,11.6   C34.436,11.217,33.244,11,32,11s-2.436,0.217-3.552,0.6L17.892,7.641C21.409,4.649,25.817,3,30.485,3H33.515z M30,48.976   C30.163,48.98,30.322,49,30.485,49h3.029c0.163,0,0.323-0.02,0.485-0.024V57h-4V48.976z M15.171,61c0.413-1.164,1.525-2,2.829-2h28   c1.304,0,2.416,0.836,2.829,2H15.171z"/>
	<rect x="31" y="5" width="2" height="2"/>
	<rect x="35" y="5" width="2" height="2"/>
	<rect x="27" y="5" width="2" height="2"/>
	<path d="M29,22c0,1.654,1.346,3,3,3v-2c-0.552,0-1-0.449-1-1s0.448-1,1-1s1,0.449,1,1h2c0-1.654-1.346-3-3-3S29,20.346,29,22z"/>
	<path d="M25,22c0,3.86,3.141,7,7,7s7-3.14,7-7s-3.141-7-7-7S25,18.14,25,22z M37,22c0,2.757-2.243,5-5,5s-5-2.243-5-5s2.243-5,5-5   S37,19.243,37,22z"/>
	<path d="M42,38c1.654,0,3-1.346,3-3s-1.346-3-3-3s-3,1.346-3,3S40.346,38,42,38z M42,34c0.552,0,1,0.448,1,1s-0.448,1-1,1   s-1-0.448-1-1S41.448,34,42,34z"/>
	<path d="M22,38c1.654,0,3-1.346,3-3s-1.346-3-3-3s-3,1.346-3,3S20.346,38,22,38z M22,34c0.552,0,1,0.448,1,1s-0.448,1-1,1   s-1-0.448-1-1S21.448,34,22,34z"/>
	<circle cx="32" cy="42" r="1"/>
</g>
</svg>
